<?xml version="1.0" standalone="no"?>
  <!DOCTYPE svg PUBLIC "-//W3C//DTD SVG 1.1//EN" "http://www.w3.org/Graphics/SVG/1.1/DTD/svg11.dtd" >
  <svg>
  <metadata>
  Created by font-carrier
  </metadata>
  <defs>
  <font id="AblationBold" horiz-adv-x="1417" vert-adv-y="1417" >
    <font-face
      
      font-family="Ablation"
      
      font-weight="400"
      
      font-stretch="normal"
      
      units-per-em="1000"
      
      ascent="782"
      
      descent="-169"
      
    />
      <missing-glyph />

      

      
      <glyph glyph-name="uni21" unicode="&#x21;" d="M121.21 0.05L121.21 56.07L67 56.07L67 0.05ZM121.21 204.89L121.21 700.04L67 700.04L67 204.89Z"  horiz-adv-x="191" vert-adv-y="1000"  />

      
      <glyph glyph-name="uni22" unicode="&#x22;" d="M92.21 506.66L92.21 700.04L38 700.04L38 506.66ZM227.70 506.66L227.70 700.04L173.50 700.04L173.50 506.66Z"  horiz-adv-x="268" vert-adv-y="1000"  />

      
      <glyph glyph-name="uni23" unicode="&#x23;" d="M338.29 611.78L338.29 665.99L304.23 665.99L304.23 700.05L250.02 700.05L250.02 665.99L170.27 665.99L170.27 700.05L116.06 700.05L116.06 665.99L82.00 665.99L82.00 611.78L116.06 611.78L116.06 532.03L82.00 532.03L82.00 477.83L116.06 477.83L116.06 443.77L170.27 443.77L170.27 477.83L250.02 477.83L250.02 443.77L304.23 443.77L304.23 477.83L338.29 477.83L338.29 532.03L304.23 532.03L304.23 611.78ZM250.03 532.02L170.27 532.02L170.27 611.77L250.03 611.77Z"  horiz-adv-x="423" vert-adv-y="1000"  />

      
      <glyph glyph-name="uni24" unicode="&#x24;" d="M498.88 377.15L411.82 377.15L411.82 645.84L498.88 645.84C572.95 645.84 633.22 585.57 633.22 511.50L687.43 511.50C687.43 615.46 602.84 700.05 498.88 700.05L411.82 700.05L411.82 805.85L357.61 805.85L357.61 700.04L270.55 700.04C166.58 700.04 82.00 615.46 82.00 511.49C82.00 407.52 166.58 322.95 270.55 322.95L357.61 322.95L357.61 54.26L270.55 54.26C196.47 54.26 136.21 114.53 136.21 188.60L82.00 188.60C82.00 84.64 166.58 0.05 270.55 0.05L357.61 0.05L357.61-105.75L411.82-105.75L411.82 0.05L498.88 0.05C602.84 0.05 687.43 84.64 687.43 188.60C687.43 292.57 602.84 377.15 498.88 377.15ZM357.62 377.15L270.56 377.15C196.48 377.15 136.21 437.42 136.21 511.50C136.21 585.57 196.48 645.84 270.56 645.84L357.62 645.84ZM498.88 54.26L411.82 54.26L411.82 322.95L498.88 322.95C572.95 322.95 633.22 262.68 633.22 188.60C633.22 114.53 572.95 54.26 498.88 54.26Z"  horiz-adv-x="772" vert-adv-y="1000"  />

      
      <glyph glyph-name="uni25" unicode="&#x25;" d="M679.41 700.02L82 0.09L153.31 0.09L750.65 700.02ZM256.34 414.63C335.03 414.63 399.06 478.65 399.06 557.34C399.06 636.04 335.04 700.05 256.34 700.05C177.66 700.05 113.64 636.03 113.64 557.34C113.64 478.66 177.66 414.63 256.34 414.63ZM256.34 645.84C305.14 645.84 344.84 606.14 344.84 557.34C344.84 508.55 305.14 468.84 256.34 468.84C207.55 468.84 167.84 508.54 167.84 557.34C167.84 606.15 207.54 645.84 256.34 645.84ZM576.34 285.47C497.66 285.47 433.64 221.45 433.64 142.76C433.64 64.07 497.66 0.05 576.34 0.05C655.03 0.05 719.05 64.07 719.05 142.76C719.05 221.45 655.03 285.47 576.34 285.47ZM576.34 54.26C527.55 54.26 487.85 93.96 487.85 142.76C487.85 191.56 527.55 231.26 576.34 231.26C625.14 231.26 664.84 191.56 664.84 142.76C664.84 93.96 625.14 54.26 576.34 54.26Z"  horiz-adv-x="836" vert-adv-y="1000"  />

      
      <glyph glyph-name="uni26" unicode="&#x26;" d="M270.55 377.15C196.48 377.15 136.21 437.42 136.21 511.50C136.21 585.57 196.48 645.84 270.55 645.84L498.87 645.84C572.95 645.84 633.22 585.57 633.22 511.50L687.42 511.50C687.42 615.46 602.84 700.05 498.87 700.05L270.55 700.05C166.59 700.05 82.00 615.46 82.00 511.50C82.00 443.10 118.62 383.11 173.26 350.05C118.62 316.99 82.00 257.00 82.00 188.60C82.00 84.64 166.59 0.05 270.55 0.05L498.87 0.05C551.40 0.05 598.99 21.65 633.22 56.43L633.22 0.05L687.42 0.05L687.42 377.15ZM633.22 188.60C633.22 114.53 572.95 54.26 498.87 54.26L270.55 54.26C196.48 54.26 136.21 114.53 136.21 188.60C136.21 262.68 196.48 322.95 270.55 322.95L633.22 322.95Z"  horiz-adv-x="772" vert-adv-y="1000"  />

      
      <glyph glyph-name="uni27" unicode="&#x27;" d="M92.21 506.66L92.21 700.04L38 700.04L38 506.66Z"  horiz-adv-x="133" vert-adv-y="1000"  />

      
      <glyph glyph-name="uni28" unicode="&#x28;" d="M244.84 751.64L244.84 805.85C153.94 805.85 80 731.89 80 641.01L80 59.09C80-31.80 153.95-105.75 244.84-105.75L244.84-51.54C183.83-51.54 134.21-1.90 134.21 59.10L134.21 641.01C134.20 702.01 183.83 751.64 244.84 751.64Z"  horiz-adv-x="186" vert-adv-y="1000"  />

      
      <glyph glyph-name="uni29" unicode="&#x29;" d="M-61 805.85L-61 751.64C0.01 751.64 49.64 702.01 49.64 641.01L49.64 59.09C49.64-1.91 0.01-51.55-61-51.55L-61-105.75C29.90-105.75 103.84-31.80 103.84 59.09L103.84 641.01C103.84 731.89 29.90 805.85-61 805.85Z"  horiz-adv-x="186" vert-adv-y="1000"  />

      
      <glyph glyph-name="uni2a" unicode="&#x2a;" d="M277.02 626.59L244.68 670.09L185.11 625.81L185.11 700.04L130.91 700.04L130.91 625.81L71.34 670.09L39.00 626.59L112.57 571.90L39.00 517.21L71.34 473.71L130.91 517.99L130.91 443.76L185.11 443.76L185.11 517.99L244.68 473.71L277.02 517.21L203.44 571.90Z"  horiz-adv-x="318" vert-adv-y="1000"  />

      
      <glyph glyph-name="uni2b" unicode="&#x2b;" d="M277.55 377.15L277.55 518.50L223.34 518.50L223.34 377.15L82 377.15L82 322.95L223.34 322.95L223.34 181.60L277.55 181.60L277.55 322.95L418.89 322.95L418.89 377.15Z"  horiz-adv-x="504" vert-adv-y="1000"  />

      
      <glyph glyph-name="uni2c" unicode="&#x2c;" d="M77.69 40.67L28.30 63.02L-37-81.33L12.39-103.67Z"  horiz-adv-x="89" vert-adv-y="1000"  />

      
      <glyph glyph-name="uni2d" unicode="&#x2d;" d="M343.89 322.95L343.89 377.15L7 377.15L7 322.95Z"  horiz-adv-x="354" vert-adv-y="1000"  />

      
      <glyph glyph-name="uni2e" unicode="&#x2e;" d="M61.21 0.05L61.21 56.07L7 56.07L7 0.05Z"  horiz-adv-x="71" vert-adv-y="1000"  />

      
      <glyph glyph-name="uni2f" unicode="&#x2f;" d="M334.74 700.02L36 0.09L94.93 0.09L393.67 700.02Z"  horiz-adv-x="430" vert-adv-y="1000"  />

      
      <glyph glyph-name="uni30" unicode="&#x30;" d="M410.00 700.04C217.01 700.04 60 543.04 60 350.05C60 157.07 217.01 0.05 410.00 0.05C602.98 0.05 759.99 157.07 759.99 350.05C759.99 543.04 602.98 700.04 410.00 700.04ZM410.00 54.26C246.90 54.26 114.21 186.95 114.21 350.05C114.21 513.15 246.90 645.84 410.00 645.84C573.10 645.84 705.79 513.15 705.79 350.05C705.79 186.95 573.10 54.26 410.00 54.26Z"  horiz-adv-x="821" vert-adv-y="1000"  />

      
      <glyph glyph-name="uni31" unicode="&#x31;" d="M175.28 0.05L175.28 700.04L65 700.04L65 645.84L121.07 645.84L121.07 0.05Z"  horiz-adv-x="257" vert-adv-y="1000"  />

      
      <glyph glyph-name="uni32" unicode="&#x32;" d="M484.87 377.15L256.55 377.15C152.58 377.15 68.00 292.56 68.00 188.60L68.00 0.05L673.42 0.05L673.42 54.25L122.20 54.25L122.20 188.60C122.20 262.68 182.47 322.95 256.54 322.95L484.86 322.95C588.82 322.95 673.41 407.53 673.41 511.49C673.42 615.46 588.83 700.04 484.87 700.04L256.55 700.04C152.58 700.04 68.00 615.46 68.00 511.49L122.21 511.49C122.21 585.57 182.47 645.84 256.55 645.84L484.87 645.84C558.94 645.84 619.21 585.57 619.21 511.49C619.21 437.41 558.94 377.15 484.87 377.15Z"  horiz-adv-x="732" vert-adv-y="1000"  />

      
      <glyph glyph-name="uni33" unicode="&#x33;" d="M664.41 511.49C664.41 615.46 579.83 700.04 475.87 700.04L247.54 700.04C143.58 700.04 59.00 615.46 59.00 511.49L113.21 511.49C113.21 585.57 173.47 645.84 247.55 645.84L475.88 645.84C549.95 645.84 610.22 585.57 610.22 511.49C610.22 437.41 549.95 377.15 475.88 377.15L361.71 377.15L361.71 322.94L475.88 322.94C549.95 322.94 610.22 262.67 610.22 188.60C610.22 114.52 549.95 54.25 475.88 54.25L247.55 54.25C173.47 54.25 113.21 114.52 113.21 188.60L59.00 188.60C59.00 84.63 143.58 0.05 247.54 0.05L475.87 0.05C579.83 0.05 664.41 84.63 664.41 188.60C664.41 256.99 627.80 316.99 573.15 350.04C627.80 383.10 664.41 443.10 664.41 511.49Z"  horiz-adv-x="736" vert-adv-y="1000"  />

      
      <glyph glyph-name="uni34" unicode="&#x34;" d="M666.42 0.05L666.42 700.04L612.21 700.04L612.21 377.15L115.21 377.15L115.21 700.04L61.00 700.04L61.00 322.95L612.21 322.95L612.21 0.05Z"  horiz-adv-x="749" vert-adv-y="1000"  />

      
      <glyph glyph-name="uni35" unicode="&#x35;" d="M489.88 377.15L127.21 377.15L127.21 645.84L678.42 645.84L678.42 700.04L73.01 700.04L73.01 322.94L489.88 322.94C563.95 322.94 624.22 262.67 624.22 188.60C624.22 114.52 563.95 54.25 489.88 54.25L261.55 54.25C187.47 54.25 127.21 114.52 127.21 188.60L127.21 215.71L73 215.71L73 188.60C73 84.64 157.58 0.05 261.54 0.05L489.87 0.05C593.83 0.05 678.42 84.64 678.42 188.60C678.42 292.57 593.84 377.15 489.88 377.15Z"  horiz-adv-x="737" vert-adv-y="1000"  />

      
      <glyph glyph-name="uni36" unicode="&#x36;" d="M263.55 0.05L491.87 0.05C595.83 0.05 680.42 84.64 680.42 188.60C680.42 292.57 595.83 377.16 491.87 377.16L263.55 377.16C211.00 377.16 163.43 355.53 129.21 320.74L129.21 511.49C129.21 585.57 189.47 645.84 263.55 645.84L491.87 645.84C565.94 645.84 626.21 585.57 626.21 511.49L680.42 511.49C680.42 615.46 595.83 700.04 491.87 700.04L263.55 700.04C159.58 700.04 75.00 615.46 75.00 511.49L75.00 188.60C75.00 84.64 159.58 0.05 263.55 0.05ZM263.55 322.95L491.87 322.95C565.94 322.95 626.21 262.68 626.21 188.60C626.21 114.53 565.94 54.26 491.87 54.26L263.55 54.26C189.47 54.26 129.21 114.53 129.21 188.60C129.21 262.68 189.47 322.95 263.55 322.95Z"  horiz-adv-x="748" vert-adv-y="1000"  />

      
      <glyph glyph-name="uni37" unicode="&#x37;" d="M68.67 700.01L68.67 645.80L588.18 645.80L37 0.08L108.32 0.08L705.73 700.01Z"  horiz-adv-x="734" vert-adv-y="1000"  />

      
      <glyph glyph-name="uni38" unicode="&#x38;" d="M674.42 511.49C674.42 615.46 589.84 700.04 485.88 700.04L257.55 700.04C153.58 700.04 69 615.46 69 511.49C69 443.10 105.61 383.10 160.26 350.04C105.62 316.99 69 256.99 69 188.60C69 84.63 153.58 0.05 257.55 0.05L485.88 0.05C589.84 0.05 674.42 84.63 674.42 188.60C674.42 256.99 637.81 316.99 583.17 350.04C637.80 383.10 674.42 443.10 674.42 511.49ZM620.21 188.60C620.21 114.53 559.95 54.26 485.88 54.26L257.55 54.26C183.47 54.26 123.21 114.53 123.21 188.60C123.21 262.68 183.47 322.95 257.55 322.95L485.88 322.95C559.95 322.95 620.21 262.68 620.21 188.60ZM257.55 377.15C183.47 377.15 123.21 437.41 123.21 511.49C123.21 585.57 183.47 645.84 257.55 645.84L485.88 645.84C559.95 645.84 620.21 585.57 620.21 511.49C620.21 437.41 559.95 377.15 485.88 377.15Z"  horiz-adv-x="746" vert-adv-y="1000"  />

      
      <glyph glyph-name="uni39" unicode="&#x39;" d="M670.42 188.60L670.42 511.49C670.42 615.46 585.84 700.04 481.87 700.04L253.55 700.04C149.58 700.04 65.00 615.46 65.00 511.49C65.00 407.53 149.58 322.95 253.55 322.95L481.87 322.95C534.41 322.95 581.99 344.58 616.21 379.37L616.21 188.60C616.21 114.53 555.94 54.26 481.87 54.26L253.55 54.26C179.47 54.26 119.21 114.53 119.21 188.60L65 188.60C65 84.64 149.58 0.05 253.55 0.05L481.87 0.05C585.84 0.05 670.42 84.64 670.42 188.60ZM481.87 377.15L253.55 377.15C179.47 377.15 119.21 437.41 119.21 511.49C119.21 585.57 179.47 645.84 253.55 645.84L481.87 645.84C555.94 645.84 616.21 585.57 616.21 511.49C616.21 437.41 555.95 377.15 481.87 377.15Z"  horiz-adv-x="747" vert-adv-y="1000"  />

      
      <glyph glyph-name="uni3a" unicode="&#x3a;" d="M68.21 241.77L68.21 297.79L14 297.79L14 241.77ZM68.21 402.31L68.21 458.32L14 458.32L14 402.31Z"  horiz-adv-x="85" vert-adv-y="1000"  />

      
      <glyph glyph-name="uni3b" unicode="&#x3b;" d="M97.69 185.61L97.69 241.62L43.49 241.62L43.49 185.61ZM82.69 40.70L33.30 63.05L-32.00-81.30L17.39-103.64Z"  horiz-adv-x="112" vert-adv-y="1000"  />

      
      <glyph glyph-name="uni3c" unicode="&#x3c;" d="M256.59 447.99L218.27 486.32L82.00 350.05L218.27 213.78L256.59 252.11L158.66 350.05Z"  horiz-adv-x="341" vert-adv-y="1000"  />

      
      <glyph glyph-name="uni3d" unicode="&#x3d;" d="M418.89 252.27L418.89 306.48L82 306.48L82 252.27ZM418.89 393.62L418.89 447.82L82 447.82L82 393.62Z"  horiz-adv-x="504" vert-adv-y="1000"  />

      
      <glyph glyph-name="uni3e" unicode="&#x3e;" d="M120.32 486.32L82 447.99L179.94 350.05L82 252.11L120.32 213.78L256.58 350.05Z"  horiz-adv-x="341" vert-adv-y="1000"  />

      
      <glyph glyph-name="uni3f" unicode="&#x3f;" d="M458.87 700.04L230.55 700.04C126.58 700.04 42.00 615.46 42.00 511.49L42.00 484.39L96.21 484.39L96.21 511.49C96.21 585.57 156.47 645.83 230.55 645.83L458.87 645.83C532.94 645.83 593.21 585.57 593.21 511.49C593.21 437.41 532.94 377.15 458.87 377.15L317.60 377.15L317.60 204.88L371.80 204.88L371.80 322.95L458.87 322.95C562.83 322.95 647.42 407.52 647.42 511.49C647.42 615.46 562.83 700.04 458.87 700.04ZM371.81 0.05L371.81 56.07L317.61 56.07L317.61 0.05Z"  horiz-adv-x="700" vert-adv-y="1000"  />

      
      <glyph glyph-name="uni40" unicode="&#x40;" d="M432.00 700.04C239.01 700.04 82 543.04 82 350.05C82 157.06 239.01 0.05 432.00 0.05L432.00 54.26C268.90 54.26 136.21 186.95 136.21 350.05C136.21 513.15 268.90 645.84 432.00 645.84C595.10 645.84 727.79 513.15 727.79 350.05C727.79 321.36 704.45 298.03 675.77 298.03C647.08 298.03 623.75 321.36 623.75 350.05C623.75 455.78 537.73 541.79 432.00 541.79C326.27 541.79 240.25 455.77 240.25 350.05C240.25 244.32 326.27 158.30 432.00 158.30C509.16 158.30 575.77 204.14 606.16 269.99C624.82 253.74 649.14 243.81 675.77 243.81C734.34 243.81 782.00 291.47 782.00 350.04C782.00 543.04 624.99 700.04 432.00 700.04ZM432.00 212.50C356.15 212.50 294.46 274.21 294.46 350.05C294.46 425.89 356.16 487.59 432.00 487.59C507.84 487.59 569.54 425.89 569.54 350.05C569.54 274.21 507.85 212.50 432.00 212.50Z"  horiz-adv-x="865" vert-adv-y="1000"  />

      
      <glyph glyph-name="uni41" unicode="&#x41;" d="M380.74 700.01L82 0.08L140.92 0.08L203.49 146.74L593.68 146.74L656.25 0.08L715.26 0.08L416.51 700.01ZM226.65 200.95L398.63 603.91L570.53 200.95Z"  horiz-adv-x="799" vert-adv-y="1000"  />

      
      <glyph glyph-name="uni42" unicode="&#x42;" d="M687.42 511.49C687.42 615.46 602.83 700.04 498.87 700.04L82 700.04L82 0.05L498.87 0.05C602.83 0.05 687.42 84.63 687.42 188.60C687.42 256.99 650.80 316.99 596.16 350.04C650.80 383.10 687.42 443.10 687.42 511.49ZM633.21 188.60C633.21 114.53 572.94 54.26 498.87 54.26L136.21 54.26L136.21 322.95L498.87 322.95C572.94 322.95 633.21 262.68 633.21 188.60ZM136.21 377.15L136.21 645.84L498.87 645.84C572.94 645.84 633.21 585.57 633.21 511.49C633.21 437.41 572.94 377.15 498.87 377.15Z"  horiz-adv-x="772" vert-adv-y="1000"  />

      
      <glyph glyph-name="uni43" unicode="&#x43;" d="M184.51 102.56C250.61 36.46 338.51 0.05 432.00 0.05C525.49 0.05 613.38 36.45 679.48 102.56L641.16 140.89C525.82 25.56 338.18 25.57 222.85 140.89C166.97 196.76 136.21 271.04 136.21 350.04C136.21 429.06 166.97 503.33 222.85 559.20C338.18 674.53 525.82 674.53 641.16 559.20L679.48 597.53C613.37 663.63 525.49 700.04 432.00 700.04C338.51 700.04 250.61 663.63 184.51 597.54C118.41 531.43 82 443.54 82 350.05C82 256.57 118.41 168.67 184.51 102.56Z"  horiz-adv-x="763" vert-adv-y="1000"  />

      
      <glyph glyph-name="uni44" unicode="&#x44;" d="M337.42 700.04L82 700.04L82 0.05L337.42 0.05C530.41 0.05 687.42 157.07 687.42 350.05C687.42 543.04 530.41 700.04 337.42 700.04ZM337.42 54.26L136.21 54.26L136.21 645.84L337.42 645.84C500.53 645.84 633.21 513.14 633.21 350.04C633.21 186.95 500.53 54.26 337.42 54.26Z"  horiz-adv-x="772" vert-adv-y="1000"  />

      
      <glyph glyph-name="uni45" unicode="&#x45;" d="M687.41 645.84L687.41 700.04L82 700.04L82 0.05L687.41 0.05L687.41 54.26L136.21 54.26L136.21 322.95L492.44 322.95L492.44 377.15L136.21 377.15L136.21 645.84Z"  horiz-adv-x="772" vert-adv-y="1000"  />

      
      <glyph glyph-name="uni46" unicode="&#x46;" d="M687.42 645.84L687.42 700.04L82 700.04L82 0.05L136.21 0.05L136.21 322.95L492.43 322.95L492.43 377.15L136.21 377.15L136.21 645.84Z"  horiz-adv-x="772" vert-adv-y="1000"  />

      
      <glyph glyph-name="uni47" unicode="&#x47;" d="M431.83 0.05C504.92 0.05 574.53 22.40 633.04 63.70L633.04 0.05L687.25 0.05L687.25 377.16L385.77 377.16L385.77 322.95L633.04 322.95L633.04 133.35C517.20 25.69 335.42 28.15 222.67 140.89C107.35 256.22 107.35 443.88 222.67 559.20C338.00 674.54 525.64 674.54 640.98 559.20L679.30 597.54C613.21 663.63 525.32 700.04 431.83 700.04C338.34 700.04 250.45 663.63 184.34 597.53C47.89 461.07 47.89 239.03 184.34 102.56C250.45 36.46 338.34 0.05 431.83 0.05Z"  horiz-adv-x="772" vert-adv-y="1000"  />

      
      <glyph glyph-name="uni48" unicode="&#x48;" d="M633.21 377.15L136.21 377.15L136.21 700.04L82.00 700.04L82.00 0.05L136.21 0.05L136.21 322.95L633.21 322.95L633.21 0.05L687.42 0.05L687.42 700.04L633.21 700.04Z"  horiz-adv-x="772" vert-adv-y="1000"  />

      
      <glyph glyph-name="uni49" unicode="&#x49;" d="M136.21 0.05L136.21 700.04L82 700.04L82 0.05Z"  horiz-adv-x="221" vert-adv-y="1000"  />

      
      <glyph glyph-name="uni4a" unicode="&#x4a;" d="M315.16 0.04C482.06 0.04 617.85 135.83 617.85 302.73L617.85 700.04L563.65 700.04L563.65 302.73C563.65 165.72 452.18 54.24 315.16 54.24C248.84 54.24 186.46 80.10 139.50 127.07L120.33 146.23L82.00 107.91L101.17 88.74C158.37 31.54 234.37 0.04 315.16 0.04Z"  horiz-adv-x="701" vert-adv-y="1000"  />

      
      <glyph glyph-name="uni4b" unicode="&#x4b;" d="M647.73 0.08L719.05 0.08L420.39 350.01L719.13 700.01L647.82 700.01L136.21 100.67L136.21 700.01L82.00 700.01L82.00 0.08L121.64 0.08L384.77 308.27Z"  horiz-adv-x="803" vert-adv-y="1000"  />

      
      <glyph glyph-name="uni4c" unicode="&#x4c;" d="M82 700.04L82 0.05L687.42 0.05L687.42 54.26L136.21 54.26L136.21 700.04Z"  horiz-adv-x="772" vert-adv-y="1000"  />

      
      <glyph glyph-name="uni4d" unicode="&#x4d;" d="M432.01 87.73L125.91 700.01L82.00 700.01L82.00 0.08L136.21 0.08L136.21 558.15L415.28 0.08L448.81 0.08L727.80 558.15L727.80 0.08L782.00 0.08L782.00 700.01L738.18 700.01Z"  horiz-adv-x="865" vert-adv-y="1000"  />

      
      <glyph glyph-name="uni4e" unicode="&#x4e;" d="M82 700.01L82 0.08L136.21 0.08L136.21 599.43L647.73 0.08L687.38 0.08L687.38 700.01L633.18 700.01L633.18 100.67L121.64 700.01Z"  horiz-adv-x="772" vert-adv-y="1000"  />

      
      <glyph glyph-name="uni4f" unicode="&#x4f;" d="M432.00 0.05C624.99 0.05 782.00 157.07 782.00 350.05C782.00 543.04 624.98 700.04 432.00 700.04C239.01 700.04 82 543.04 82 350.05C82.01 157.07 239.01 0.05 432.00 0.05ZM432.00 645.84C595.10 645.84 727.80 513.14 727.80 350.04C727.80 186.95 595.10 54.25 432.00 54.25C268.89 54.25 136.21 186.95 136.21 350.04C136.21 513.14 268.90 645.84 432.00 645.84Z"  horiz-adv-x="865" vert-adv-y="1000"  />

      
      <glyph glyph-name="uni50" unicode="&#x50;" d="M136.21 322.95L498.87 322.95C602.83 322.95 687.42 407.53 687.42 511.49C687.42 615.46 602.83 700.04 498.87 700.04L82 700.04L82 0.05L136.21 0.05ZM136.21 645.84L498.87 645.84C572.94 645.84 633.21 585.57 633.21 511.49C633.21 437.41 572.94 377.15 498.87 377.15L136.21 377.15Z"  horiz-adv-x="772" vert-adv-y="1000"  />

      
      <glyph glyph-name="uni51" unicode="&#x51;" d="M659.40 84.32L743.63 0.08L820.29 0.08L697.73 122.66C750.20 183.88 782.00 263.30 782.00 350.04C782.00 543.03 624.98 700.03 432.00 700.03C239.01 700.03 82.00 543.03 82.00 350.04C82.00 157.06 239.01 0.05 432.00 0.05C518.75 0.05 598.18 31.86 659.40 84.32ZM136.20 350.05C136.20 513.15 268.89 645.84 431.99 645.84C595.10 645.84 727.78 513.15 727.78 350.05C727.78 278.25 702.04 212.36 659.34 161.06L432.03 388.42L393.70 350.09L621.00 122.72C569.71 80.00 503.81 54.25 431.99 54.25C268.89 54.26 136.20 186.95 136.20 350.05Z"  horiz-adv-x="904" vert-adv-y="1000"  />

      
      <glyph glyph-name="uni52" unicode="&#x52;" d="M719.09 0.08L443.43 322.94L498.87 322.94C602.83 322.94 687.42 407.52 687.42 511.48C687.42 615.45 602.83 700.03 498.87 700.03L82.00 700.03L82.00 0.04L136.21 0.04L136.21 322.95L372.23 322.95L647.78 0.09L719.09 0.09ZM136.20 645.84L498.86 645.84C572.94 645.84 633.20 585.57 633.20 511.49C633.20 437.41 572.94 377.15 498.86 377.15L136.20 377.15Z"  horiz-adv-x="803" vert-adv-y="1000"  />

      
      <glyph glyph-name="uni53" unicode="&#x53;" d="M270.55 645.84L498.87 645.84C572.94 645.84 633.21 585.57 633.21 511.49L687.42 511.49C687.42 615.46 602.83 700.04 498.87 700.04L270.55 700.04C166.58 700.04 82.00 615.46 82.00 511.49C82.00 407.53 166.58 322.95 270.55 322.95L498.87 322.95C572.94 322.95 633.21 262.68 633.21 188.60C633.21 114.53 572.94 54.26 498.87 54.26L270.55 54.26C196.47 54.26 136.21 114.53 136.21 188.60L82.00 188.60C82.00 84.64 166.58 0.05 270.55 0.05L498.87 0.05C602.83 0.05 687.42 84.64 687.42 188.60C687.42 292.57 602.83 377.16 498.87 377.16L270.55 377.16C196.47 377.16 136.21 437.42 136.21 511.50C136.21 585.57 196.47 645.84 270.55 645.84Z"  horiz-adv-x="772" vert-adv-y="1000"  />

      
      <glyph glyph-name="uni54" unicode="&#x54;" d="M357.60 0.05L411.80 0.05L411.80 645.84L687.42 645.84L687.42 700.04L82 700.04L82 645.84L357.60 645.84Z"  horiz-adv-x="772" vert-adv-y="1000"  />

      
      <glyph glyph-name="uni55" unicode="&#x55;" d="M384.71 0.05C551.62 0.05 687.42 135.85 687.42 302.76L687.42 700.04L633.21 700.04L633.21 302.76C633.21 165.74 521.73 54.26 384.70 54.26C247.68 54.26 136.21 165.74 136.21 302.76L136.21 700.04L82.00 700.04L82.00 302.76C82.00 135.84 217.80 0.05 384.71 0.05Z"  horiz-adv-x="772" vert-adv-y="1000"  />

      
      <glyph glyph-name="uni56" unicode="&#x56;" d="M140.92 700.01L82 700.01L380.66 0.08L416.43 0.08L715.26 700.01L656.25 700.01L398.55 96.18Z"  horiz-adv-x="799" vert-adv-y="1000"  />

      
      <glyph glyph-name="uni57" unicode="&#x57;" d="M793.54 0.08L829.31 0.08L1128.05 700.01L1069.05 700.01L811.43 96.18L605.06 579.75L398.70 96.18L140.92 700.01L82.00 700.01L380.81 0.08L416.59 0.08L605.06 441.69Z"  horiz-adv-x="1212" vert-adv-y="1000"  />

      
      <glyph glyph-name="uni58" unicode="&#x58;" d="M416.36 308.27L679.41 0.08L750.80 0.08L452.06 350.09L750.73 700.01L679.41 700.01L416.36 391.82L153.31 700.01L82.00 700.01L380.74 350.01L82.00 0.08L153.31 0.08Z"  horiz-adv-x="835" vert-adv-y="1000"  />

      
      <glyph glyph-name="uni59" unicode="&#x59;" d="M405.98 274.82L145.65 700.01L82 700.01L378.88 215.28L378.90 215.24L378.90 0.05L433.10 0.05L433.10 215.30L729.97 700.01L666.39 700.01Z"  horiz-adv-x="814" vert-adv-y="1000"  />

      
      <glyph glyph-name="uni5a" unicode="&#x5a;" d="M113.66 700.04L113.66 645.84L633.20 645.84L82.00 0.05L719.06 0.05L719.06 54.26L199.52 54.26L750.73 700.04Z"  horiz-adv-x="836" vert-adv-y="1000"  />

      
      <glyph glyph-name="uni5b" unicode="&#x5b;" d="M230.62 751.64L230.62 805.85L80 805.85L80-105.75L230.62-105.75L230.62-51.55L134.21-51.55L134.21 751.64Z"  horiz-adv-x="184" vert-adv-y="1000"  />

      
      <glyph glyph-name="uni5c" unicode="&#x5c;" d="M93.92 700.02L35 700.02L333.66 0.09L392.59 0.09Z"  horiz-adv-x="430" vert-adv-y="1000"  />

      
      <glyph glyph-name="uni5d" unicode="&#x5d;" d="M-48 805.85L-48 751.64L48.41 751.64L48.41-51.55L-48-51.55L-48-105.75L102.62-105.75L102.62 805.85Z"  horiz-adv-x="184" vert-adv-y="1000"  />

      
      <glyph glyph-name="uni5e" unicode="&#x5e;" d="M269.90 711.27L82 523.37L120.33 485.04L269.90 634.61L419.47 485.04L457.80 523.37Z"  horiz-adv-x="542" vert-adv-y="1000"  />

      
      <glyph glyph-name="uni5f" unicode="&#x5f;" d="M439.08 0.05L439.08 54.26L5 54.26L5 0.05Z"  horiz-adv-x="447" vert-adv-y="1000"  />

      
      <glyph glyph-name="uni60" unicode="&#x60;" d="M196.69 565.23L131.39 709.57L82 687.23L147.30 542.89Z"  horiz-adv-x="281" vert-adv-y="1000"  />

      
      <glyph glyph-name="uni61" unicode="&#x61;" d="M380.74 700.01L82 0.08L140.92 0.08L203.49 146.74L593.68 146.74L656.25 0.08L715.26 0.08L416.51 700.01ZM226.65 200.95L398.63 603.91L570.53 200.95Z"  horiz-adv-x="799" vert-adv-y="1000"  />

      
      <glyph glyph-name="uni62" unicode="&#x62;" d="M687.42 511.49C687.42 615.46 602.83 700.04 498.87 700.04L82 700.04L82 0.05L498.87 0.05C602.83 0.05 687.42 84.63 687.42 188.60C687.42 256.99 650.80 316.99 596.16 350.04C650.80 383.10 687.42 443.10 687.42 511.49ZM633.21 188.60C633.21 114.53 572.94 54.26 498.87 54.26L136.21 54.26L136.21 322.95L498.87 322.95C572.94 322.95 633.21 262.68 633.21 188.60ZM136.21 377.15L136.21 645.84L498.87 645.84C572.94 645.84 633.21 585.57 633.21 511.49C633.21 437.41 572.94 377.15 498.87 377.15Z"  horiz-adv-x="772" vert-adv-y="1000"  />

      
      <glyph glyph-name="uni63" unicode="&#x63;" d="M184.51 102.56C250.61 36.46 338.51 0.05 432.00 0.05C525.49 0.05 613.38 36.45 679.48 102.56L641.16 140.89C525.82 25.56 338.18 25.57 222.85 140.89C166.97 196.76 136.21 271.04 136.21 350.04C136.21 429.06 166.97 503.33 222.85 559.20C338.18 674.53 525.82 674.53 641.16 559.20L679.48 597.53C613.37 663.63 525.49 700.04 432.00 700.04C338.51 700.04 250.61 663.63 184.51 597.54C118.41 531.43 82 443.54 82 350.05C82 256.57 118.41 168.67 184.51 102.56Z"  horiz-adv-x="763" vert-adv-y="1000"  />

      
      <glyph glyph-name="uni64" unicode="&#x64;" d="M337.42 700.04L82 700.04L82 0.05L337.42 0.05C530.41 0.05 687.42 157.07 687.42 350.05C687.42 543.04 530.41 700.04 337.42 700.04ZM337.42 54.26L136.21 54.26L136.21 645.84L337.42 645.84C500.53 645.84 633.21 513.14 633.21 350.04C633.21 186.95 500.53 54.26 337.42 54.26Z"  horiz-adv-x="772" vert-adv-y="1000"  />

      
      <glyph glyph-name="uni65" unicode="&#x65;" d="M687.41 645.84L687.41 700.04L82 700.04L82 0.05L687.41 0.05L687.41 54.26L136.21 54.26L136.21 322.95L492.44 322.95L492.44 377.15L136.21 377.15L136.21 645.84Z"  horiz-adv-x="772" vert-adv-y="1000"  />

      
      <glyph glyph-name="uni66" unicode="&#x66;" d="M687.42 645.84L687.42 700.04L82 700.04L82 0.05L136.21 0.05L136.21 322.95L492.43 322.95L492.43 377.15L136.21 377.15L136.21 645.84Z"  horiz-adv-x="772" vert-adv-y="1000"  />

      
      <glyph glyph-name="uni67" unicode="&#x67;" d="M431.83 0.05C504.92 0.05 574.53 22.40 633.04 63.70L633.04 0.05L687.25 0.05L687.25 377.16L385.77 377.16L385.77 322.95L633.04 322.95L633.04 133.35C517.20 25.69 335.42 28.15 222.67 140.89C107.35 256.22 107.35 443.88 222.67 559.20C338.00 674.54 525.64 674.54 640.98 559.20L679.30 597.54C613.21 663.63 525.32 700.04 431.83 700.04C338.34 700.04 250.45 663.63 184.34 597.53C47.89 461.07 47.89 239.03 184.34 102.56C250.45 36.46 338.34 0.05 431.83 0.05Z"  horiz-adv-x="772" vert-adv-y="1000"  />

      
      <glyph glyph-name="uni68" unicode="&#x68;" d="M633.21 377.15L136.21 377.15L136.21 700.04L82.00 700.04L82.00 0.05L136.21 0.05L136.21 322.95L633.21 322.95L633.21 0.05L687.42 0.05L687.42 700.04L633.21 700.04Z"  horiz-adv-x="772" vert-adv-y="1000"  />

      
      <glyph glyph-name="uni69" unicode="&#x69;" d="M136.21 0.05L136.21 700.04L82 700.04L82 0.05Z"  horiz-adv-x="221" vert-adv-y="1000"  />

      
      <glyph glyph-name="uni6a" unicode="&#x6a;" d="M315.16 0.04C482.06 0.04 617.85 135.83 617.85 302.73L617.85 700.04L563.65 700.04L563.65 302.73C563.65 165.72 452.18 54.24 315.16 54.24C248.84 54.24 186.46 80.10 139.50 127.07L120.33 146.23L82.00 107.91L101.17 88.74C158.37 31.54 234.37 0.04 315.16 0.04Z"  horiz-adv-x="701" vert-adv-y="1000"  />

      
      <glyph glyph-name="uni6b" unicode="&#x6b;" d="M647.73 0.08L719.05 0.08L420.39 350.01L719.13 700.01L647.82 700.01L136.21 100.67L136.21 700.01L82.00 700.01L82.00 0.08L121.64 0.08L384.77 308.27Z"  horiz-adv-x="803" vert-adv-y="1000"  />

      
      <glyph glyph-name="uni6c" unicode="&#x6c;" d="M82 700.04L82 0.05L687.42 0.05L687.42 54.26L136.21 54.26L136.21 700.04Z"  horiz-adv-x="772" vert-adv-y="1000"  />

      
      <glyph glyph-name="uni6d" unicode="&#x6d;" d="M432.01 87.73L125.91 700.01L82.00 700.01L82.00 0.08L136.21 0.08L136.21 558.15L415.28 0.08L448.81 0.08L727.80 558.15L727.80 0.08L782.00 0.08L782.00 700.01L738.18 700.01Z"  horiz-adv-x="865" vert-adv-y="1000"  />

      
      <glyph glyph-name="uni6e" unicode="&#x6e;" d="M82 700.01L82 0.08L136.21 0.08L136.21 599.43L647.73 0.08L687.38 0.08L687.38 700.01L633.18 700.01L633.18 100.67L121.64 700.01Z"  horiz-adv-x="772" vert-adv-y="1000"  />

      
      <glyph glyph-name="uni6f" unicode="&#x6f;" d="M432.00 0.05C624.99 0.05 782.00 157.07 782.00 350.05C782.00 543.04 624.98 700.04 432.00 700.04C239.01 700.04 82 543.04 82 350.05C82.01 157.07 239.01 0.05 432.00 0.05ZM432.00 645.84C595.10 645.84 727.80 513.14 727.80 350.04C727.80 186.95 595.10 54.25 432.00 54.25C268.89 54.25 136.21 186.95 136.21 350.04C136.21 513.14 268.90 645.84 432.00 645.84Z"  horiz-adv-x="865" vert-adv-y="1000"  />

      
      <glyph glyph-name="uni70" unicode="&#x70;" d="M136.21 322.95L498.87 322.95C602.83 322.95 687.42 407.53 687.42 511.49C687.42 615.46 602.83 700.04 498.87 700.04L82 700.04L82 0.05L136.21 0.05ZM136.21 645.84L498.87 645.84C572.94 645.84 633.21 585.57 633.21 511.49C633.21 437.41 572.94 377.15 498.87 377.15L136.21 377.15Z"  horiz-adv-x="772" vert-adv-y="1000"  />

      
      <glyph glyph-name="uni71" unicode="&#x71;" d="M659.40 84.32L743.63 0.08L820.29 0.08L697.73 122.66C750.20 183.88 782.00 263.30 782.00 350.04C782.00 543.03 624.98 700.03 432.00 700.03C239.01 700.03 82.00 543.03 82.00 350.04C82.00 157.06 239.01 0.05 432.00 0.05C518.75 0.05 598.18 31.86 659.40 84.32ZM136.20 350.05C136.20 513.15 268.89 645.84 431.99 645.84C595.10 645.84 727.78 513.15 727.78 350.05C727.78 278.25 702.04 212.36 659.34 161.06L432.03 388.42L393.70 350.09L621.00 122.72C569.71 80.00 503.81 54.25 431.99 54.25C268.89 54.26 136.20 186.95 136.20 350.05Z"  horiz-adv-x="904" vert-adv-y="1000"  />

      
      <glyph glyph-name="uni72" unicode="&#x72;" d="M719.09 0.08L443.43 322.94L498.87 322.94C602.83 322.94 687.42 407.52 687.42 511.48C687.42 615.45 602.83 700.03 498.87 700.03L82.00 700.03L82.00 0.04L136.21 0.04L136.21 322.95L372.23 322.95L647.78 0.09L719.09 0.09ZM136.20 645.84L498.86 645.84C572.94 645.84 633.20 585.57 633.20 511.49C633.20 437.41 572.94 377.15 498.86 377.15L136.20 377.15Z"  horiz-adv-x="803" vert-adv-y="1000"  />

      
      <glyph glyph-name="uni73" unicode="&#x73;" d="M270.55 645.84L498.87 645.84C572.94 645.84 633.21 585.57 633.21 511.49L687.42 511.49C687.42 615.46 602.83 700.04 498.87 700.04L270.55 700.04C166.58 700.04 82.00 615.46 82.00 511.49C82.00 407.53 166.58 322.95 270.55 322.95L498.87 322.95C572.94 322.95 633.21 262.68 633.21 188.60C633.21 114.53 572.94 54.26 498.87 54.26L270.55 54.26C196.47 54.26 136.21 114.53 136.21 188.60L82.00 188.60C82.00 84.64 166.58 0.05 270.55 0.05L498.87 0.05C602.83 0.05 687.42 84.64 687.42 188.60C687.42 292.57 602.83 377.16 498.87 377.16L270.55 377.16C196.47 377.16 136.21 437.42 136.21 511.50C136.21 585.57 196.47 645.84 270.55 645.84Z"  horiz-adv-x="772" vert-adv-y="1000"  />

      
      <glyph glyph-name="uni74" unicode="&#x74;" d="M357.60 0.05L411.80 0.05L411.80 645.84L687.42 645.84L687.42 700.04L82 700.04L82 645.84L357.60 645.84Z"  horiz-adv-x="772" vert-adv-y="1000"  />

      
      <glyph glyph-name="uni75" unicode="&#x75;" d="M384.71 0.05C551.62 0.05 687.42 135.85 687.42 302.76L687.42 700.04L633.21 700.04L633.21 302.76C633.21 165.74 521.73 54.26 384.70 54.26C247.68 54.26 136.21 165.74 136.21 302.76L136.21 700.04L82.00 700.04L82.00 302.76C82.00 135.84 217.80 0.05 384.71 0.05Z"  horiz-adv-x="772" vert-adv-y="1000"  />

      
      <glyph glyph-name="uni76" unicode="&#x76;" d="M140.92 700.01L82 700.01L380.66 0.08L416.43 0.08L715.26 700.01L656.25 700.01L398.55 96.18Z"  horiz-adv-x="799" vert-adv-y="1000"  />

      
      <glyph glyph-name="uni77" unicode="&#x77;" d="M793.54 0.08L829.31 0.08L1128.05 700.01L1069.05 700.01L811.43 96.18L605.06 579.75L398.70 96.18L140.92 700.01L82.00 700.01L380.81 0.08L416.59 0.08L605.06 441.69Z"  horiz-adv-x="1212" vert-adv-y="1000"  />

      
      <glyph glyph-name="uni78" unicode="&#x78;" d="M416.36 308.27L679.41 0.08L750.80 0.08L452.06 350.09L750.73 700.01L679.41 700.01L416.36 391.82L153.31 700.01L82.00 700.01L380.74 350.01L82.00 0.08L153.31 0.08Z"  horiz-adv-x="835" vert-adv-y="1000"  />

      
      <glyph glyph-name="uni79" unicode="&#x79;" d="M405.98 274.82L145.65 700.01L82 700.01L378.88 215.28L378.90 215.24L378.90 0.05L433.10 0.05L433.10 215.30L729.97 700.01L666.39 700.01Z"  horiz-adv-x="814" vert-adv-y="1000"  />

      
      <glyph glyph-name="uni7a" unicode="&#x7a;" d="M113.66 700.04L113.66 645.84L633.20 645.84L82.00 0.05L719.06 0.05L719.06 54.26L199.52 54.26L750.73 700.04Z"  horiz-adv-x="836" vert-adv-y="1000"  />

      
      <glyph glyph-name="uni7b" unicode="&#x7b;" d="M197.84 487.79L197.84 641.01C197.84 702.01 247.48 751.64 308.48 751.64L308.48 805.85C217.59 805.85 143.64 731.89 143.64 641.01L143.64 487.79C143.64 426.78 94.01 377.15 33 377.15L33 322.94C94.01 322.94 143.64 273.30 143.64 212.30L143.64 59.08C143.64-31.82 217.59-105.76 308.48-105.76L308.48-51.56C247.48-51.56 197.84-1.92 197.84 59.09L197.84 212.31C197.84 269.86 168.13 320.55 123.31 350.04C168.14 379.54 197.84 430.23 197.84 487.79Z"  horiz-adv-x="247" vert-adv-y="1000"  />

      
      <glyph glyph-name="uni7c" unicode="&#x7c;" d="M136.21-73.19L136.21 773.28L82 773.28L82-73.19Z"  horiz-adv-x="221" vert-adv-y="1000"  />

      
      <glyph glyph-name="uni7d" unicode="&#x7d;" d="M100.84 487.79L100.84 641.01C100.84 731.90 26.89 805.85-64.00 805.85L-64.00 751.64C-2.99 751.64 46.64 702.01 46.64 641.01L46.64 487.79C46.64 430.23 76.34 379.54 121.17 350.04C76.34 320.55 46.64 269.86 46.64 212.31L46.64 59.09C46.64-1.92-2.99-51.56-64.00-51.56L-64.00-105.76C26.90-105.76 100.84-31.81 100.84 59.08L100.84 212.31C100.84 273.31 150.48 322.95 211.48 322.95L211.48 377.15C150.48 377.15 100.84 426.78 100.84 487.79Z"  horiz-adv-x="247" vert-adv-y="1000"  />

      
      <glyph glyph-name="uni7e" unicode="&#x7e;" d="M423.28 369.21C405.62 351.54 382.12 341.81 357.12 341.81C332.14 341.81 308.64 351.54 290.97 369.21C233.35 426.81 139.61 426.81 82.00 369.21L120.33 330.88C156.81 367.35 216.17 367.35 252.65 330.88C280.56 302.97 317.66 287.60 357.13 287.60C396.60 287.60 433.71 302.97 461.62 330.88Z"  horiz-adv-x="545" vert-adv-y="1000"  />

      
      <glyph glyph-name="unia1" unicode="&#xa1;" d="M121.21 644.03L121.21 700.04L67 700.04L67 644.03ZM121.21 0.04L121.21 495.20L67 495.20L67 0.04Z"  horiz-adv-x="191" vert-adv-y="1000"  />

      
      <glyph glyph-name="unia2" unicode="&#xa2;" d="M291.31 213.84L291.31 486.25C320.43 482.51 348.59 469.62 370.91 447.31L409.24 485.64C376.34 518.53 334.37 536.92 291.31 540.86L291.31 612.74L237.11 612.74L237.11 538.21C200.80 531.21 166.13 513.69 138.07 485.63C63.31 410.87 63.31 289.23 138.07 214.45C166.13 186.40 200.80 168.87 237.11 161.87L237.11 87.36L291.31 87.36L291.31 159.23C334.37 163.18 376.34 181.56 409.24 214.45L370.91 252.79C348.59 230.47 320.43 217.58 291.31 213.84ZM237.11 217.59C214.86 223.68 193.84 235.35 176.40 252.79C122.77 306.43 122.77 393.68 176.40 447.31C193.84 464.75 214.86 476.42 237.11 482.51Z"  horiz-adv-x="494" vert-adv-y="1000"  />

      
      <glyph glyph-name="unia3" unicode="&#xa3;" d="M201.15 54.26L201.15 322.95L418.89 322.95L418.89 377.15L201.15 377.15L201.15 511.49C201.15 585.57 261.42 645.83 335.50 645.83L563.81 645.83C637.89 645.83 698.16 585.57 698.16 511.49L752.36 511.49C752.36 615.46 667.78 700.04 563.81 700.04L335.50 700.04C231.53 700.04 146.95 615.46 146.95 511.49L146.95 377.15L82.00 377.15L82.00 322.95L146.95 322.95L146.95 0.05L752.36 0.05L752.36 54.26Z"  horiz-adv-x="836" vert-adv-y="1000"  />

      
      <glyph glyph-name="unia4" unicode="&#xa4;" d="M474.29 350.13C474.29 391.72 460.83 431.14 436.29 463.81L486.58 514.09L448.24 552.42L397.96 502.13C365.29 526.67 325.87 540.14 284.28 540.14C242.70 540.14 203.27 526.67 170.61 502.13L120.32 552.42L82 514.09L132.30 463.79C82.01 396.61 82.01 303.66 132.30 236.47L82 186.17L120.32 147.84L170.62 198.14C204.21 173.00 244.19 160.21 284.28 160.21C324.37 160.21 364.35 173.00 397.94 198.14L448.24 147.84L486.58 186.17L436.29 236.46C460.83 269.12 474.29 308.55 474.29 350.13ZM380.31 254.11C327.37 201.17 241.22 201.17 188.26 254.11C135.32 307.05 135.32 393.19 188.25 446.14L188.29 446.18C213.94 471.81 248.03 485.94 284.29 485.94C320.57 485.94 354.67 471.81 380.32 446.15C405.97 420.51 420.10 386.41 420.10 350.13C420.09 313.87 405.96 279.76 380.31 254.11Z"  horiz-adv-x="570" vert-adv-y="1000"  />

      
      <glyph glyph-name="unia5" unicode="&#xa5;" d="M729.89 700.02L666.32 700.02L433.42 319.75L378.39 319.75L145.57 700.02L82 700.02L314.85 319.75L237.49 319.75L237.49 265.55L348.04 265.55L378.84 215.27L378.84 178.41L237.49 178.41L237.49 124.21L378.84 124.21L378.84 0.05L433.04 0.05L433.04 124.21L574.39 124.21L574.39 178.41L433.04 178.41L433.04 215.36L463.79 265.55L574.39 265.55L574.39 319.75L496.98 319.75Z"  horiz-adv-x="815" vert-adv-y="1000"  />

      
      <glyph glyph-name="unia7" unicode="&#xa7;" d="M687.42 350.05C687.42 454.02 602.83 538.60 498.87 538.60L270.55 538.60C196.47 538.60 136.21 598.87 136.21 672.95C136.21 747.02 196.47 807.29 270.55 807.29L498.87 807.29C572.94 807.29 633.21 747.02 633.21 672.95L687.42 672.95C687.42 776.91 602.83 861.50 498.87 861.50L270.55 861.50C166.58 861.50 82.00 776.91 82.00 672.95C82.00 604.55 118.62 544.56 173.26 511.50C118.62 478.44 82.00 418.45 82.00 350.05C82.00 246.08 166.58 161.50 270.55 161.50L498.87 161.50C572.94 161.50 633.21 101.23 633.21 27.16C633.21-46.92 572.94-107.19 498.87-107.19L270.55-107.19C196.47-107.19 136.21-46.92 136.21 27.16L82.00 27.16C82.00-76.81 166.58-161.39 270.55-161.39L498.87-161.39C602.83-161.39 687.42-76.82 687.42 27.16C687.42 95.55 650.80 155.55 596.16 188.60C650.79 221.66 687.42 281.66 687.42 350.05ZM498.86 215.71L270.54 215.71C196.47 215.71 136.20 275.97 136.20 350.05C136.20 424.13 196.47 484.40 270.54 484.40L498.86 484.40C572.94 484.40 633.20 424.13 633.20 350.05C633.20 275.97 572.94 215.71 498.86 215.71Z"  horiz-adv-x="772" vert-adv-y="1000"  />

      
      <glyph glyph-name="unia8" unicode="&#xa8;" d="M136.21 645.84L136.21 701.86L82 701.86L82 645.84ZM272.28 645.84L272.28 701.86L218.08 701.86L218.08 645.84Z"  horiz-adv-x="357" vert-adv-y="1000"  />

      
      <glyph glyph-name="unia9" unicode="&#xa9;" d="M376.36 644.41C214.05 644.41 82 512.36 82 350.05C82 187.74 214.05 55.69 376.36 55.69C538.67 55.69 670.71 187.75 670.71 350.05C670.71 512.36 538.67 644.41 376.36 644.41ZM376.36 109.89C243.94 109.89 136.21 217.62 136.21 350.05C136.21 482.48 243.94 590.20 376.36 590.20C508.78 590.20 616.51 482.47 616.51 350.05C616.51 217.63 508.78 109.89 376.36 109.89ZM481.10 434.31L496.52 449.73C469.93 476.32 434.58 490.96 396.98 490.96C359.38 490.96 324.03 476.32 297.44 449.73C270.85 423.14 256.20 387.79 256.20 350.18C256.20 312.58 270.85 277.23 297.44 250.64C324.03 224.05 359.38 209.41 396.98 209.41C434.59 209.41 469.94 224.05 496.52 250.64L481.10 266.06C434.71 219.66 359.24 219.67 312.85 266.06C290.37 288.53 278.00 318.40 278.00 350.18C278.00 381.96 290.37 411.84 312.85 434.31C359.24 480.70 434.71 480.70 481.10 434.31Z"  horiz-adv-x="754" vert-adv-y="1000"  />

      
      <glyph glyph-name="uniab" unicode="&#xab;" d="M314.68 551.07L276.36 589.40L37.00 350.05L276.36 110.70L314.68 149.03L113.66 350.05ZM515.70 551.07L477.38 589.40L238.02 350.05L477.38 110.70L515.70 149.03L314.68 350.05Z"  horiz-adv-x="557" vert-adv-y="1000"  />

      
      <glyph glyph-name="uniae" unicode="&#xae;" d="M376.36 644.41C214.05 644.41 82 512.36 82 350.05C82 187.74 214.05 55.69 376.36 55.69C538.67 55.69 670.71 187.75 670.71 350.05C670.71 512.36 538.67 644.41 376.36 644.41ZM376.36 109.89C243.94 109.89 136.21 217.62 136.21 350.05C136.21 482.48 243.94 590.20 376.36 590.20C508.78 590.20 616.51 482.47 616.51 350.05C616.51 217.63 508.78 109.89 376.36 109.89ZM415.91 339.29C457.72 339.29 491.75 373.31 491.75 415.12C491.75 456.94 457.73 490.96 415.91 490.96L248.23 490.96L248.23 209.41L270.04 209.41L270.04 339.29L364.97 339.29L475.80 209.42L504.49 209.42L393.62 339.29ZM270.04 361.09L270.04 469.16L415.91 469.16C445.71 469.16 469.95 444.92 469.95 415.12C469.95 385.32 445.71 361.09 415.91 361.09Z"  horiz-adv-x="754" vert-adv-y="1000"  />

      
      <glyph glyph-name="unib0" unicode="&#xb0;" d="M271.51 667.52C228.21 710.81 157.77 710.82 114.47 667.52C71.18 624.22 71.18 553.78 114.47 510.47C136.12 488.82 164.55 478.00 192.99 478.00C221.43 478.00 249.87 488.82 271.51 510.47C314.81 553.77 314.81 624.22 271.51 667.52ZM233.18 548.80C211.02 526.63 174.96 526.63 152.79 548.80C130.63 570.96 130.63 607.03 152.79 629.19C163.87 640.28 178.44 645.82 192.99 645.82C207.55 645.82 222.10 640.28 233.18 629.19C243.92 618.46 249.83 604.18 249.83 588.99C249.83 573.81 243.92 559.53 233.18 548.80Z"  horiz-adv-x="388" vert-adv-y="1000"  />

      
      <glyph glyph-name="unib1" unicode="&#xb1;" d="M418.89 117.77L418.89 171.97L82 171.97L82 117.77ZM277.55 441.15L277.55 582.50L223.34 582.50L223.34 441.15L82 441.15L82 386.95L223.34 386.95L223.34 245.61L277.55 245.61L277.55 386.95L418.89 386.95L418.89 441.15Z"  horiz-adv-x="504" vert-adv-y="1000"  />

      
      <glyph glyph-name="unib4" unicode="&#xb4;" d="M196.69 686.29L147.30 708.63L82 564.29L131.39 541.95Z"  horiz-adv-x="281" vert-adv-y="1000"  />

      
      <glyph glyph-name="unib6" unicode="&#xb6;" d="M233.55 785.29C129.58 785.29 45.00 700.70 45.00 596.74C45.00 492.77 129.58 408.19 233.55 408.19L418.11 408.19L418.11-85.06L472.32-85.06L472.32 731.09L579.14 731.09L579.14-85.05L633.35-85.05L633.35 731.09L726.66 731.09L726.66 785.29ZM418.11 462.39L233.55 462.39C159.47 462.39 99.21 522.66 99.21 596.74C99.21 670.81 159.47 731.08 233.55 731.08L418.11 731.08Z"  horiz-adv-x="709" vert-adv-y="1000"  />

      
      <glyph glyph-name="unib8" unicode="&#xb8;" d="M136.21-44.42L136.21 34.89L82 34.89L82-94.82L109.10-94.82C133.42-94.82 153.20-114.60 153.20-138.93C153.20-163.25 133.42-183.03 109.10-183.03L109.10-237.24C163.31-237.24 207.40-193.13 207.40-138.93C207.40-94.11 177.27-56.21 136.21-44.42Z"  horiz-adv-x="291" vert-adv-y="1000"  />

      
      <glyph glyph-name="unibb" unicode="&#xbb;" d="M278.36 589.40L240.02 551.07L441.05 350.05L240.02 149.03L278.36 110.70L517.70 350.05ZM77.32 589.40L39 551.07L240.02 350.05L39 149.03L77.32 110.70L316.68 350.05Z"  horiz-adv-x="557" vert-adv-y="1000"  />

      
      <glyph glyph-name="unibf" unicode="&#xbf;" d="M601.21 215.71L601.21 188.60C601.21 114.53 540.94 54.26 466.87 54.26L238.55 54.26C164.47 54.26 104.21 114.53 104.21 188.60C104.21 262.68 164.47 322.95 238.55 322.95L379.82 322.95L379.82 495.20L325.61 495.20L325.61 377.15L238.55 377.15C134.58 377.15 50.00 292.57 50.00 188.60C50.00 84.64 134.58 0.05 238.55 0.05L466.87 0.05C570.83 0.05 655.42 84.64 655.42 188.60L655.42 215.71ZM379.81 644.03L379.81 700.04L325.61 700.04L325.61 644.03Z"  horiz-adv-x="700" vert-adv-y="1000"  />

      
      <glyph glyph-name="unic0" unicode="&#xc0;" d="M455.98 804.73L390.68 949.08L341.29 926.73L406.59 782.39ZM416.51 700.01L380.74 700.01L82.00 0.09L140.92 0.09L203.49 146.75L593.68 146.75L656.24 0.09L715.25 0.09ZM226.65 200.94L398.63 603.91L570.53 200.94Z"  horiz-adv-x="799" vert-adv-y="1000"  />

      
      <glyph glyph-name="unic1" unicode="&#xc1;" d="M456.00 926.73L406.62 949.08L341.31 804.73L390.70 782.39ZM416.51 700.01L380.74 700.01L82.00 0.09L140.92 0.09L203.49 146.75L593.68 146.75L656.24 0.09L715.25 0.09ZM226.65 200.94L398.63 603.91L570.53 200.94Z"  horiz-adv-x="799" vert-adv-y="1000"  />

      
      <glyph glyph-name="unic2" unicode="&#xc2;" d="M398.63 838.75L455.00 782.38L493.32 820.72L398.63 915.40L303.93 820.72L342.26 782.38ZM416.51 700.01L380.74 700.01L82 0.09L140.92 0.09L203.49 146.75L593.68 146.75L656.24 0.09L715.25 0.09ZM226.64 200.94L398.63 603.91L570.53 200.94Z"  horiz-adv-x="799" vert-adv-y="1000"  />

      
      <glyph glyph-name="unic3" unicode="&#xc3;" d="M379.46 825.67C407.37 797.76 444.47 782.39 483.94 782.39C523.41 782.39 560.51 797.76 588.43 825.68L550.10 864.00C532.43 846.33 508.94 836.60 483.94 836.60C458.95 836.60 435.46 846.33 417.78 864.00C360.17 921.61 266.43 921.61 208.81 864.00L247.15 825.67C283.62 862.14 342.98 862.14 379.46 825.67ZM416.51 700.01L380.74 700.01L82.00 0.09L140.92 0.09L203.49 146.75L593.68 146.75L656.24 0.09L715.25 0.09ZM226.65 200.94L398.63 603.91L570.53 200.94Z"  horiz-adv-x="799" vert-adv-y="1000"  />

      
      <glyph glyph-name="unic4" unicode="&#xc4;" d="M346.37 782.38L346.37 836.59L290.35 836.59L290.35 782.38ZM506.90 782.38L506.90 836.59L450.89 836.59L450.89 782.38ZM416.51 700.01L380.74 700.01L82.00 0.09L140.92 0.09L203.49 146.75L593.68 146.75L656.24 0.09L715.25 0.09ZM226.65 200.94L398.63 603.92L570.53 200.95L226.65 200.95Z"  horiz-adv-x="799" vert-adv-y="1000"  />

      
      <glyph glyph-name="unic5" unicode="&#xc5;" d="M425.72 782.39L425.72 838.41L371.52 838.41L371.52 782.39ZM416.51 700.01L380.74 700.01L82.00 0.09L140.92 0.09L203.49 146.75L593.68 146.75L656.24 0.09L715.25 0.09ZM226.64 200.94L398.62 603.91L570.52 200.94Z"  horiz-adv-x="799" vert-adv-y="1000"  />

      
      <glyph glyph-name="unic6" unicode="&#xc6;" d="M434.97 645.81L986.15 645.81L986.15 700.05L380.73 700.05L82 0.09L140.97 0.09L203.50 146.71L380.73 146.71L380.73 0.09L986.15 0.09L986.15 54.24L434.97 54.24L434.97 322.95L791.17 322.95L791.17 377.19L434.97 377.19ZM380.73 200.95L226.64 200.95L380.73 561.96Z"  horiz-adv-x="1071" vert-adv-y="1000"  />

      
      <glyph glyph-name="unic7" unicode="&#xc7;" d="M679.33 102.56L641.00 140.89C525.67 25.56 338.02 25.56 222.69 140.89C166.82 196.76 136.05 271.04 136.05 350.04C136.05 429.05 166.82 503.33 222.68 559.19C338.02 674.52 525.67 674.52 640.99 559.19L679.32 597.53C542.85 733.98 320.81 733.98 184.35 597.53C47.88 461.07 47.88 239.02 184.35 102.55C243.07 43.83 317.63 10.46 394.41 2.27L394.41-94.83L421.51-94.83C445.82-94.83 465.60-114.61 465.60-138.94C465.60-163.26 445.82-183.04 421.51-183.04L421.51-237.25C475.71-237.25 519.81-193.14 519.81-138.94C519.81-94.13 489.68-56.23 448.61-44.43L448.61 0.60C532.57 4.61 615.35 38.59 679.33 102.56Z"  horiz-adv-x="763" vert-adv-y="1000"  />

      
      <glyph glyph-name="unic8" unicode="&#xc8;" d="M442.08 804.84L376.78 949.18L327.39 926.84L392.70 782.49ZM687.41 645.84L687.41 700.04L82.00 700.04L82.00 0.05L687.41 0.05L687.41 54.26L136.21 54.26L136.21 322.95L492.43 322.95L492.43 377.15L136.21 377.15L136.21 645.84Z"  horiz-adv-x="772" vert-adv-y="1000"  />

      
      <glyph glyph-name="unic9" unicode="&#xc9;" d="M442.28 926.73L392.90 949.07L327.59 804.72L376.98 782.38ZM687.42 645.84L687.42 700.04L82.00 700.04L82.00 0.05L687.42 0.05L687.42 54.26L136.21 54.26L136.21 322.95L492.44 322.95L492.44 377.15L136.21 377.15L136.21 645.84Z"  horiz-adv-x="772" vert-adv-y="1000"  />

      
      <glyph glyph-name="unica" unicode="&#xca;" d="M384.70 838.75L441.07 782.38L479.39 820.72L384.70 915.40L290.01 820.72L328.34 782.38ZM687.41 645.84L687.41 700.04L82.00 700.04L82.00 0.05L687.41 0.05L687.41 54.26L136.21 54.26L136.21 322.95L492.43 322.95L492.43 377.15L136.21 377.15L136.21 645.84Z"  horiz-adv-x="772" vert-adv-y="1000"  />

      
      <glyph glyph-name="unicb" unicode="&#xcb;" d="M332.44 782.38L332.44 836.59L276.43 836.59L276.43 782.38ZM492.99 782.38L492.99 836.59L436.97 836.59L436.97 782.38ZM687.41 645.84L687.41 700.04L82.00 700.04L82.00 0.05L687.41 0.05L687.41 54.26L136.21 54.26L136.21 322.95L492.44 322.95L492.44 377.15L136.21 377.15L136.21 645.84Z"  horiz-adv-x="772" vert-adv-y="1000"  />

      
      <glyph glyph-name="unicc" unicode="&#xcc;" d="M176.69 804.89L111.39 949.24L62 926.90L127.30 782.55ZM146.40 0.05L146.40 700.04L92.19 700.04L92.19 0.05Z"  horiz-adv-x="243" vert-adv-y="1000"  />

      
      <glyph glyph-name="unicd" unicode="&#xcd;" d="M176.69 926.72L127.30 949.06L62 804.72L111.39 782.37ZM146.13 0.05L146.13 700.04L91.92 700.04L91.92 0.05Z"  horiz-adv-x="242" vert-adv-y="1000"  />

      
      <glyph glyph-name="unice" unicode="&#xce;" d="M116.69 915.40L22 820.72L60.33 782.38L116.69 838.75L173.06 782.38L211.39 820.72ZM143.80 0.05L143.80 700.04L89.60 700.04L89.60 0.05Z"  horiz-adv-x="235" vert-adv-y="1000"  />

      
      <glyph glyph-name="unicf" unicode="&#xcf;" d="M54.01 782.38L54.01 836.59L-2 836.59L-2 782.38ZM214.56 782.38L214.56 836.59L158.54 836.59L158.54 782.38ZM133.38 0.05L133.38 700.04L79.18 700.04L79.18 0.05Z"  horiz-adv-x="215" vert-adv-y="1000"  />

      
      <glyph glyph-name="unid0" unicode="&#xd0;" d="M420.97 700.04L165.55 700.04L165.55 377.15L82 377.15L82 322.95L165.55 322.95L165.55 0.05L420.97 0.05C613.96 0.05 770.97 157.06 770.97 350.05C770.97 543.04 613.96 700.04 420.97 700.04ZM420.97 54.26L219.74 54.26L219.74 322.95L427.17 322.95L427.17 377.15L219.74 377.15L219.74 645.84L420.97 645.84C584.07 645.84 716.76 513.15 716.76 350.05C716.76 186.95 584.07 54.26 420.97 54.26Z"  horiz-adv-x="856" vert-adv-y="1000"  />

      
      <glyph glyph-name="unid1" unicode="&#xd1;" d="M365.53 825.67C393.44 797.76 430.54 782.39 470.01 782.39C509.48 782.39 546.58 797.76 574.50 825.68L536.17 864.00C518.50 846.33 495.01 836.60 470.01 836.60C445.02 836.60 421.53 846.33 403.85 864.00C346.24 921.61 252.50 921.61 194.89 864.00L233.22 825.67C269.69 862.14 329.05 862.14 365.53 825.67ZM633.18 700.01L633.18 100.67L121.65 700.01L82.00 700.01L82.00 0.09L136.20 0.09L136.20 599.42L647.74 0.09L687.38 0.09L687.38 700.01Z"  horiz-adv-x="772" vert-adv-y="1000"  />

      
      <glyph glyph-name="unid2" unicode="&#xd2;" d="M489.41 804.95L424.11 949.29L374.72 926.95L440.03 782.61ZM432.00 700.04C239.01 700.04 82 543.04 82 350.05C82 157.06 239.01 0.05 432.00 0.05C624.99 0.05 782.00 157.06 782.00 350.05C782.00 543.04 624.99 700.04 432.00 700.04ZM432.00 54.26C268.89 54.26 136.21 186.95 136.21 350.05C136.21 513.15 268.90 645.84 432.00 645.84C595.10 645.84 727.80 513.15 727.80 350.05C727.80 186.95 595.10 54.26 432.00 54.26Z"  horiz-adv-x="865" vert-adv-y="1000"  />

      
      <glyph glyph-name="unid3" unicode="&#xd3;" d="M489.78 926.71L440.39 949.06L375.09 804.71L424.47 782.37ZM432.00 700.04C239.01 700.04 82 543.04 82 350.05C82 157.06 239.01 0.05 432.00 0.05C624.99 0.05 782.00 157.06 782.00 350.05C782.00 543.04 624.98 700.04 432.00 700.04ZM432.00 54.26C268.89 54.26 136.21 186.95 136.21 350.05C136.21 513.15 268.90 645.84 432.00 645.84C595.10 645.84 727.80 513.15 727.80 350.05C727.80 186.95 595.10 54.26 432.00 54.26Z"  horiz-adv-x="865" vert-adv-y="1000"  />

      
      <glyph glyph-name="unid4" unicode="&#xd4;" d="M432.00 838.75L488.37 782.38L526.69 820.72L432.00 915.40L337.30 820.72L375.64 782.38ZM432.00 700.04C239.01 700.04 82.00 543.04 82.00 350.05C82.00 157.06 239.01 0.05 432.00 0.05C624.99 0.05 782.00 157.06 782.00 350.05C782.00 543.04 624.98 700.04 432.00 700.04ZM432.00 54.26C268.89 54.26 136.21 186.95 136.21 350.05C136.21 513.15 268.90 645.84 432.00 645.84C595.10 645.84 727.80 513.15 727.80 350.05C727.80 186.95 595.10 54.26 432.00 54.26Z"  horiz-adv-x="865" vert-adv-y="1000"  />

      
      <glyph glyph-name="unid5" unicode="&#xd5;" d="M412.84 825.67C440.75 797.76 477.85 782.39 517.32 782.39C556.79 782.39 593.89 797.76 621.81 825.68L583.48 864.00C565.81 846.33 542.32 836.60 517.32 836.60C492.33 836.60 468.84 846.33 451.16 864.00C393.55 921.61 299.81 921.61 242.20 864.00L280.53 825.67C317.00 862.14 376.36 862.14 412.84 825.67ZM432.00 700.04C239.01 700.04 82.00 543.04 82.00 350.05C82.00 157.06 239.01 0.05 432.00 0.05C624.99 0.05 782.00 157.06 782.00 350.05C782.00 543.04 624.98 700.04 432.00 700.04ZM432.00 54.26C268.89 54.26 136.21 186.95 136.21 350.05C136.21 513.15 268.90 645.84 432.00 645.84C595.10 645.84 727.80 513.15 727.80 350.05C727.80 186.95 595.10 54.26 432.00 54.26Z"  horiz-adv-x="865" vert-adv-y="1000"  />

      
      <glyph glyph-name="unid6" unicode="&#xd6;" d="M379.73 782.38L379.73 836.59L323.72 836.59L323.72 782.38ZM540.28 782.38L540.28 836.59L484.26 836.59L484.26 782.38ZM432.00 700.04C239.01 700.04 82 543.04 82 350.05C82 157.06 239.01 0.05 432.00 0.05C624.99 0.05 782.00 157.06 782.00 350.05C782.00 543.04 624.98 700.04 432.00 700.04ZM432.00 54.26C268.89 54.26 136.21 186.95 136.21 350.05C136.21 513.15 268.90 645.84 432.00 645.84C595.10 645.84 727.80 513.15 727.80 350.05C727.80 186.95 595.10 54.26 432.00 54.26Z"  horiz-adv-x="865" vert-adv-y="1000"  />

      
      <glyph glyph-name="unid7" unicode="&#xd7;" d="M358.54 449.99L320.22 488.33L220.27 388.37L120.32 488.33L82.00 449.99L181.94 350.05L82.00 250.11L120.32 211.77L220.27 311.72L320.22 211.77L358.54 250.11L258.60 350.05Z"  horiz-adv-x="442" vert-adv-y="1000"  />

      
      <glyph glyph-name="unid8" unicode="&#xd8;" d="M679.12 597.71C666.35 610.48 652.50 622.26 637.91 632.95C580.10 675.17 508.86 700.05 431.98 700.05C238.99 700.05 82.00 543.05 82.00 350.07C82.00 253.37 121.39 165.79 184.92 102.34C197.69 89.57 211.54 77.79 226.14 67.10C283.94 24.97 355.18 0.09 431.98 0.09C624.97 0.09 781.96 157.08 781.96 350.07C781.96 446.68 742.65 534.26 679.12 597.71ZM220.25 143.73C168.25 197.05 136.16 269.87 136.16 350.07C136.16 513.11 268.85 645.81 431.98 645.81C495.43 645.81 554.31 625.74 602.49 591.57ZM431.98 54.24C368.54 54.24 309.65 74.31 261.47 108.48L643.71 556.32C695.71 503.00 727.81 430.18 727.81 350.07C727.81 186.94 595.11 54.24 431.98 54.24Z"  horiz-adv-x="865" vert-adv-y="1000"  />

      
      <glyph glyph-name="unid9" unicode="&#xd9;" d="M442.16 805.06L376.86 949.41L327.47 927.06L392.77 782.72ZM633.21 700.04L633.21 302.76C633.21 165.74 521.73 54.26 384.70 54.26C247.68 54.26 136.21 165.74 136.21 302.76L136.21 700.04L82 700.04L82 302.76C82 135.85 217.80 0.05 384.71 0.05C551.62 0.05 687.42 135.85 687.42 302.76L687.42 700.04Z"  horiz-adv-x="772" vert-adv-y="1000"  />

      
      <glyph glyph-name="unida" unicode="&#xda;" d="M442.69 926.71L393.30 949.05L328.00 804.70L377.39 782.36ZM633.21 700.04L633.21 302.76C633.21 165.74 521.73 54.26 384.70 54.26C247.68 54.26 136.21 165.74 136.21 302.76L136.21 700.04L82.00 700.04L82.00 302.76C82.00 135.85 217.80 0.05 384.71 0.05C551.62 0.05 687.42 135.85 687.42 302.76L687.42 700.04Z"  horiz-adv-x="772" vert-adv-y="1000"  />

      
      <glyph glyph-name="unidb" unicode="&#xdb;" d="M384.71 838.75L441.07 782.38L479.40 820.72L384.71 915.40L290.01 820.72L328.35 782.38ZM633.21 700.04L633.21 302.76C633.21 165.74 521.73 54.26 384.70 54.26C247.68 54.26 136.21 165.74 136.21 302.76L136.21 700.04L82.00 700.04L82.00 302.76C82.00 135.85 217.80 0.05 384.71 0.05C551.62 0.05 687.42 135.85 687.42 302.76L687.42 700.04Z"  horiz-adv-x="772" vert-adv-y="1000"  />

      
      <glyph glyph-name="unidc" unicode="&#xdc;" d="M332.44 782.38L332.44 836.59L276.43 836.59L276.43 782.38ZM492.98 782.38L492.98 836.59L436.97 836.59L436.97 782.38ZM633.21 700.04L633.21 302.76C633.21 165.74 521.73 54.26 384.70 54.26C247.68 54.26 136.21 165.74 136.21 302.76L136.21 700.04L82.00 700.04L82.00 302.76C82.00 135.85 217.80 0.05 384.71 0.05C551.62 0.05 687.42 135.85 687.42 302.76L687.42 700.04Z"  horiz-adv-x="772" vert-adv-y="1000"  />

      
      <glyph glyph-name="unidd" unicode="&#xdd;" d="M464.06 926.71L414.68 949.05L349.37 804.71L398.76 782.37ZM666.40 700.01L405.98 274.82L145.65 700.01L82 700.01L378.89 215.27L378.90 215.24L378.90 0.05L433.11 0.05L433.11 215.31L729.97 700.01Z"  horiz-adv-x="814" vert-adv-y="1000"  />

      
      <glyph glyph-name="unide" unicode="&#xde;" d="M498.87 538.59L136.21 538.59L136.21 700.04L82 700.04L82 0.05L136.21 0.05L136.21 161.50L498.87 161.50C602.83 161.50 687.42 246.08 687.42 350.05C687.42 454.02 602.83 538.59 498.87 538.59ZM498.87 215.71L136.21 215.71L136.21 484.40L498.87 484.40C572.94 484.40 633.21 424.13 633.21 350.05C633.21 275.97 572.94 215.71 498.87 215.71Z"  horiz-adv-x="772" vert-adv-y="1000"  />

      
      <glyph glyph-name="unie0" unicode="&#xe0;" d="M455.98 804.73L390.68 949.08L341.29 926.73L406.59 782.39ZM416.51 700.01L380.74 700.01L82.00 0.09L140.92 0.09L203.49 146.75L593.68 146.75L656.24 0.09L715.25 0.09ZM226.65 200.94L398.63 603.91L570.53 200.94Z"  horiz-adv-x="799" vert-adv-y="1000"  />

      
      <glyph glyph-name="unie1" unicode="&#xe1;" d="M456.00 926.73L406.62 949.08L341.31 804.73L390.70 782.39ZM416.51 700.01L380.74 700.01L82.00 0.09L140.92 0.09L203.49 146.75L593.68 146.75L656.24 0.09L715.25 0.09ZM226.65 200.94L398.63 603.91L570.53 200.94Z"  horiz-adv-x="799" vert-adv-y="1000"  />

      
      <glyph glyph-name="unie2" unicode="&#xe2;" d="M398.63 838.75L455.00 782.38L493.32 820.72L398.63 915.40L303.93 820.72L342.26 782.38ZM416.51 700.01L380.74 700.01L82 0.09L140.92 0.09L203.49 146.75L593.68 146.75L656.24 0.09L715.25 0.09ZM226.64 200.94L398.63 603.91L570.53 200.94Z"  horiz-adv-x="799" vert-adv-y="1000"  />

      
      <glyph glyph-name="unie3" unicode="&#xe3;" d="M379.46 825.67C407.37 797.76 444.47 782.39 483.94 782.39C523.41 782.39 560.51 797.76 588.43 825.68L550.10 864.00C532.43 846.33 508.94 836.60 483.94 836.60C458.95 836.60 435.46 846.33 417.78 864.00C360.17 921.61 266.43 921.61 208.81 864.00L247.15 825.67C283.62 862.14 342.98 862.14 379.46 825.67ZM416.51 700.01L380.74 700.01L82.00 0.09L140.92 0.09L203.49 146.75L593.68 146.75L656.24 0.09L715.25 0.09ZM226.65 200.94L398.63 603.91L570.53 200.94Z"  horiz-adv-x="799" vert-adv-y="1000"  />

      
      <glyph glyph-name="unie4" unicode="&#xe4;" d="M346.37 782.38L346.37 836.59L290.35 836.59L290.35 782.38ZM506.90 782.38L506.90 836.59L450.89 836.59L450.89 782.38ZM416.51 700.01L380.74 700.01L82.00 0.09L140.92 0.09L203.49 146.75L593.68 146.75L656.24 0.09L715.25 0.09ZM226.65 200.94L398.63 603.92L570.53 200.95L226.65 200.95Z"  horiz-adv-x="799" vert-adv-y="1000"  />

      
      <glyph glyph-name="unie5" unicode="&#xe5;" d="M425.72 782.39L425.72 838.41L371.52 838.41L371.52 782.39ZM416.51 700.01L380.74 700.01L82.00 0.09L140.92 0.09L203.49 146.75L593.68 146.75L656.24 0.09L715.25 0.09ZM226.64 200.94L398.62 603.91L570.52 200.94Z"  horiz-adv-x="799" vert-adv-y="1000"  />

      
      <glyph glyph-name="unie6" unicode="&#xe6;" d="M434.97 645.81L986.15 645.81L986.15 700.05L380.73 700.05L82 0.09L140.97 0.09L203.50 146.71L380.73 146.71L380.73 0.09L986.15 0.09L986.15 54.24L434.97 54.24L434.97 322.95L791.17 322.95L791.17 377.19L434.97 377.19ZM380.73 200.95L226.64 200.95L380.73 561.96Z"  horiz-adv-x="1071" vert-adv-y="1000"  />

      
      <glyph glyph-name="unie7" unicode="&#xe7;" d="M640.99 559.20L679.31 597.54C542.84 733.99 320.80 733.99 184.34 597.54C47.89 461.08 47.89 239.03 184.34 102.56C243.06 43.84 317.63 10.47 394.40 2.28L394.40-94.82L421.50-94.82C445.82-94.82 465.61-114.60 465.61-138.93C465.61-163.25 445.83-183.03 421.50-183.03L421.50-237.24C475.71-237.24 519.80-193.13 519.80-138.93C519.80-94.12 489.67-56.22 448.60-44.42L448.60 0.61C532.55 4.60 615.34 38.59 679.30 102.55L640.98 140.88C525.65 25.56 338.00 25.55 222.67 140.88C166.80 196.76 136.04 271.04 136.04 350.04C136.04 429.06 166.80 503.33 222.67 559.20C338.00 674.52 525.65 674.53 640.99 559.20Z"  horiz-adv-x="763" vert-adv-y="1000"  />

      
      <glyph glyph-name="unie8" unicode="&#xe8;" d="M442.08 804.84L376.78 949.18L327.39 926.84L392.70 782.49ZM687.41 645.84L687.41 700.04L82.00 700.04L82.00 0.05L687.41 0.05L687.41 54.26L136.21 54.26L136.21 322.95L492.43 322.95L492.43 377.15L136.21 377.15L136.21 645.84Z"  horiz-adv-x="772" vert-adv-y="1000"  />

      
      <glyph glyph-name="unie9" unicode="&#xe9;" d="M442.28 926.73L392.90 949.07L327.59 804.72L376.98 782.38ZM687.42 645.84L687.42 700.04L82.00 700.04L82.00 0.05L687.42 0.05L687.42 54.26L136.21 54.26L136.21 322.95L492.44 322.95L492.44 377.15L136.21 377.15L136.21 645.84Z"  horiz-adv-x="772" vert-adv-y="1000"  />

      
      <glyph glyph-name="uniea" unicode="&#xea;" d="M384.70 838.75L441.07 782.38L479.39 820.72L384.70 915.40L290.01 820.72L328.34 782.38ZM687.41 645.84L687.41 700.04L82.00 700.04L82.00 0.05L687.41 0.05L687.41 54.26L136.21 54.26L136.21 322.95L492.43 322.95L492.43 377.15L136.21 377.15L136.21 645.84Z"  horiz-adv-x="772" vert-adv-y="1000"  />

      
      <glyph glyph-name="unieb" unicode="&#xeb;" d="M332.44 782.38L332.44 836.59L276.43 836.59L276.43 782.38ZM492.99 782.38L492.99 836.59L436.97 836.59L436.97 782.38ZM687.41 645.84L687.41 700.04L82.00 700.04L82.00 0.05L687.41 0.05L687.41 54.26L136.21 54.26L136.21 322.95L492.44 322.95L492.44 377.15L136.21 377.15L136.21 645.84Z"  horiz-adv-x="772" vert-adv-y="1000"  />

      
      <glyph glyph-name="uniec" unicode="&#xec;" d="M196.69 804.89L131.39 949.24L82 926.90L147.30 782.55ZM166.40 0.05L166.40 700.04L112.19 700.04L112.19 0.05Z"  horiz-adv-x="282" vert-adv-y="1000"  />

      
      <glyph glyph-name="unied" unicode="&#xed;" d="M176.69 926.72L127.30 949.06L62 804.72L111.39 782.37ZM146.13 0.05L146.13 700.04L91.92 700.04L91.92 0.05Z"  horiz-adv-x="243" vert-adv-y="1000"  />

      
      <glyph glyph-name="uniee" unicode="&#xee;" d="M116.69 915.40L22 820.72L60.33 782.38L116.69 838.75L173.06 782.38L211.39 820.72ZM143.80 0.05L143.80 700.04L89.60 700.04L89.60 0.05Z"  horiz-adv-x="235" vert-adv-y="1000"  />

      
      <glyph glyph-name="unief" unicode="&#xef;" d="M54.01 782.38L54.01 836.59L-2 836.59L-2 782.38ZM214.56 782.38L214.56 836.59L158.54 836.59L158.54 782.38ZM133.38 0.05L133.38 700.04L79.18 700.04L79.18 0.05Z"  horiz-adv-x="215" vert-adv-y="1000"  />

      
      <glyph glyph-name="unif0" unicode="&#xf0;" d="M420.98 0.05C613.96 0.05 770.97 157.07 770.97 350.05C770.97 543.04 613.96 700.04 420.98 700.04L165.55 700.04L165.55 377.15L82 377.15L82 322.94L165.55 322.94L165.55 0.05L420.98 0.05ZM219.75 645.84L420.98 645.84C584.07 645.84 716.77 513.14 716.77 350.04C716.77 186.95 584.08 54.25 420.98 54.25L219.75 54.25L219.75 322.95L427.18 322.95L427.18 377.16L219.75 377.16Z"  horiz-adv-x="856" vert-adv-y="1000"  />

      
      <glyph glyph-name="unif1" unicode="&#xf1;" d="M365.53 825.67C393.44 797.76 430.54 782.39 470.01 782.39C509.48 782.39 546.58 797.76 574.50 825.68L536.17 864.00C518.50 846.33 495.01 836.60 470.01 836.60C445.02 836.60 421.53 846.33 403.85 864.00C346.24 921.61 252.50 921.61 194.89 864.00L233.22 825.67C269.69 862.14 329.05 862.14 365.53 825.67ZM633.18 700.01L633.18 100.67L121.65 700.01L82.00 700.01L82.00 0.09L136.20 0.09L136.20 599.42L647.74 0.09L687.38 0.09L687.38 700.01Z"  horiz-adv-x="772" vert-adv-y="1000"  />

      
      <glyph glyph-name="unif2" unicode="&#xf2;" d="M489.41 804.95L424.11 949.29L374.72 926.95L440.03 782.61ZM432.00 700.04C239.01 700.04 82 543.04 82 350.05C82 157.06 239.01 0.05 432.00 0.05C624.99 0.05 782.00 157.06 782.00 350.05C782.00 543.04 624.99 700.04 432.00 700.04ZM432.00 54.26C268.89 54.26 136.21 186.95 136.21 350.05C136.21 513.15 268.90 645.84 432.00 645.84C595.10 645.84 727.80 513.15 727.80 350.05C727.80 186.95 595.10 54.26 432.00 54.26Z"  horiz-adv-x="865" vert-adv-y="1000"  />

      
      <glyph glyph-name="unif3" unicode="&#xf3;" d="M489.78 926.71L440.39 949.06L375.09 804.71L424.47 782.37ZM432.00 700.04C239.01 700.04 82 543.04 82 350.05C82 157.06 239.01 0.05 432.00 0.05C624.99 0.05 782.00 157.06 782.00 350.05C782.00 543.04 624.98 700.04 432.00 700.04ZM432.00 54.26C268.89 54.26 136.21 186.95 136.21 350.05C136.21 513.15 268.90 645.84 432.00 645.84C595.10 645.84 727.80 513.15 727.80 350.05C727.80 186.95 595.10 54.26 432.00 54.26Z"  horiz-adv-x="865" vert-adv-y="1000"  />

      
      <glyph glyph-name="unif4" unicode="&#xf4;" d="M432.00 838.75L488.37 782.38L526.69 820.72L432.00 915.40L337.30 820.72L375.64 782.38ZM432.00 700.04C239.01 700.04 82.00 543.04 82.00 350.05C82.00 157.06 239.01 0.05 432.00 0.05C624.99 0.05 782.00 157.06 782.00 350.05C782.00 543.04 624.98 700.04 432.00 700.04ZM432.00 54.26C268.89 54.26 136.21 186.95 136.21 350.05C136.21 513.15 268.90 645.84 432.00 645.84C595.10 645.84 727.80 513.15 727.80 350.05C727.80 186.95 595.10 54.26 432.00 54.26Z"  horiz-adv-x="865" vert-adv-y="1000"  />

      
      <glyph glyph-name="unif5" unicode="&#xf5;" d="M412.84 825.67C440.75 797.76 477.85 782.39 517.32 782.39C556.79 782.39 593.89 797.76 621.81 825.68L583.48 864.00C565.81 846.33 542.32 836.60 517.32 836.60C492.33 836.60 468.84 846.33 451.16 864.00C393.55 921.61 299.81 921.61 242.20 864.00L280.53 825.67C317.00 862.14 376.36 862.14 412.84 825.67ZM432.00 700.04C239.01 700.04 82.00 543.04 82.00 350.05C82.00 157.06 239.01 0.05 432.00 0.05C624.99 0.05 782.00 157.06 782.00 350.05C782.00 543.04 624.98 700.04 432.00 700.04ZM432.00 54.26C268.89 54.26 136.21 186.95 136.21 350.05C136.21 513.15 268.90 645.84 432.00 645.84C595.10 645.84 727.80 513.15 727.80 350.05C727.80 186.95 595.10 54.26 432.00 54.26Z"  horiz-adv-x="865" vert-adv-y="1000"  />

      
      <glyph glyph-name="unif6" unicode="&#xf6;" d="M379.73 782.38L379.73 836.59L323.72 836.59L323.72 782.38ZM540.28 782.38L540.28 836.59L484.26 836.59L484.26 782.38ZM432.00 700.04C239.01 700.04 82 543.04 82 350.05C82 157.06 239.01 0.05 432.00 0.05C624.99 0.05 782.00 157.06 782.00 350.05C782.00 543.04 624.98 700.04 432.00 700.04ZM432.00 54.26C268.89 54.26 136.21 186.95 136.21 350.05C136.21 513.15 268.90 645.84 432.00 645.84C595.10 645.84 727.80 513.15 727.80 350.05C727.80 186.95 595.10 54.26 432.00 54.26Z"  horiz-adv-x="865" vert-adv-y="1000"  />

      
      <glyph glyph-name="unif7" unicode="&#xf7;" d="M277.55 465.33L277.55 521.34L223.34 521.34L223.34 465.33ZM277.55 178.75L277.55 234.77L223.34 234.77L223.34 178.75ZM418.89 322.95L418.89 377.15L82 377.15L82 322.95Z"  horiz-adv-x="504" vert-adv-y="1000"  />

      
      <glyph glyph-name="unif8" unicode="&#xf8;" d="M679.12 597.71C666.35 610.48 652.50 622.26 637.91 632.95C580.10 675.17 508.86 700.05 431.98 700.05C238.99 700.05 82.00 543.05 82.00 350.07C82.00 253.37 121.39 165.79 184.92 102.34C197.69 89.57 211.54 77.79 226.14 67.10C283.94 24.97 355.18 0.09 431.98 0.09C624.97 0.09 781.96 157.08 781.96 350.07C781.96 446.68 742.65 534.26 679.12 597.71ZM220.25 143.73C168.25 197.05 136.16 269.87 136.16 350.07C136.16 513.11 268.85 645.81 431.98 645.81C495.43 645.81 554.31 625.74 602.49 591.57ZM431.98 54.24C368.54 54.24 309.65 74.31 261.47 108.48L643.71 556.32C695.71 503.00 727.81 430.18 727.81 350.07C727.81 186.94 595.11 54.24 431.98 54.24Z"  horiz-adv-x="865" vert-adv-y="1000"  />

      
      <glyph glyph-name="unif9" unicode="&#xf9;" d="M442.16 805.06L376.86 949.41L327.47 927.06L392.77 782.72ZM633.21 700.04L633.21 302.76C633.21 165.74 521.73 54.26 384.70 54.26C247.68 54.26 136.21 165.74 136.21 302.76L136.21 700.04L82 700.04L82 302.76C82 135.85 217.80 0.05 384.71 0.05C551.62 0.05 687.42 135.85 687.42 302.76L687.42 700.04Z"  horiz-adv-x="772" vert-adv-y="1000"  />

      
      <glyph glyph-name="unifa" unicode="&#xfa;" d="M442.69 926.71L393.30 949.05L328.00 804.70L377.39 782.36ZM633.21 700.04L633.21 302.76C633.21 165.74 521.73 54.26 384.70 54.26C247.68 54.26 136.21 165.74 136.21 302.76L136.21 700.04L82.00 700.04L82.00 302.76C82.00 135.85 217.80 0.05 384.71 0.05C551.62 0.05 687.42 135.85 687.42 302.76L687.42 700.04Z"  horiz-adv-x="772" vert-adv-y="1000"  />

      
      <glyph glyph-name="unifb" unicode="&#xfb;" d="M384.71 838.75L441.07 782.38L479.40 820.72L384.71 915.40L290.01 820.72L328.35 782.38ZM633.21 700.04L633.21 302.76C633.21 165.74 521.73 54.26 384.70 54.26C247.68 54.26 136.21 165.74 136.21 302.76L136.21 700.04L82.00 700.04L82.00 302.76C82.00 135.85 217.80 0.05 384.71 0.05C551.62 0.05 687.42 135.85 687.42 302.76L687.42 700.04Z"  horiz-adv-x="772" vert-adv-y="1000"  />

      
      <glyph glyph-name="unifc" unicode="&#xfc;" d="M332.44 782.38L332.44 836.59L276.43 836.59L276.43 782.38ZM492.98 782.38L492.98 836.59L436.97 836.59L436.97 782.38ZM633.21 700.04L633.21 302.76C633.21 165.74 521.73 54.26 384.70 54.26C247.68 54.26 136.21 165.74 136.21 302.76L136.21 700.04L82.00 700.04L82.00 302.76C82.00 135.85 217.80 0.05 384.71 0.05C551.62 0.05 687.42 135.85 687.42 302.76L687.42 700.04Z"  horiz-adv-x="772" vert-adv-y="1000"  />

      
      <glyph glyph-name="unifd" unicode="&#xfd;" d="M464.06 926.71L414.68 949.05L349.37 804.71L398.76 782.37ZM666.40 700.01L405.98 274.82L145.65 700.01L82 700.01L378.89 215.27L378.90 215.24L378.90 0.05L433.11 0.05L433.11 215.31L729.97 700.01Z"  horiz-adv-x="814" vert-adv-y="1000"  />

      
      <glyph glyph-name="unife" unicode="&#xfe;" d="M82 700.04L82 0.05L136.21 0.05L136.21 161.50L498.87 161.50C602.83 161.50 687.42 246.09 687.42 350.05C687.42 454.02 602.83 538.60 498.87 538.60L136.21 538.60L136.21 700.04ZM498.87 484.39C572.94 484.39 633.21 424.12 633.21 350.04C633.21 275.97 572.94 215.70 498.87 215.70L136.21 215.70L136.21 484.39Z"  horiz-adv-x="772" vert-adv-y="1000"  />

      
      <glyph glyph-name="uniff" unicode="&#xff;" d="M353.72 782.38L353.72 836.59L297.71 836.59L297.71 782.38ZM514.26 782.38L514.26 836.59L458.25 836.59L458.25 782.38ZM666.40 700.01L405.98 274.82L145.65 700.01L82 700.01L378.89 215.27L378.90 215.24L378.90 0.05L433.11 0.05L433.11 215.31L729.97 700.01Z"  horiz-adv-x="814" vert-adv-y="1000"  />

      
      <glyph glyph-name="uni0141" unicode="&#x0141;" d="M250.31 54.26L250.31 338.83L364.41 452.92L326.07 491.25L250.31 415.49L250.31 700.04L196.11 700.04L196.11 361.28L82 247.18L120.33 208.85L196.11 284.62L196.11 0.05L801.53 0.05L801.53 54.26Z"  horiz-adv-x="885" vert-adv-y="1000"  />

      
      <glyph glyph-name="uni0142" unicode="&#x0142;" d="M364.41 452.92L326.07 491.25L250.31 415.48L250.31 700.04L196.11 700.04L196.11 361.28L82.00 247.18L120.33 208.85L196.11 284.63L196.11 0.05L801.53 0.05L801.53 54.26L250.31 54.26L250.31 338.83Z"  horiz-adv-x="885" vert-adv-y="1000"  />

      
      <glyph glyph-name="uni0152" unicode="&#x0152;" d="M1333.21 645.84L1333.21 700.05L727.80 700.05L727.80 536.79C665.71 634.79 556.37 700.05 432.00 700.05C239.01 700.05 82.00 543.05 82.00 350.06C82.00 157.07 239.01 0.06 432.00 0.06C556.36 0.06 665.70 65.31 727.80 163.32L727.80 0.06L1333.21 0.06L1333.21 54.27L782.00 54.27L782.00 322.95L1138.23 322.95L1138.23 377.15L782.00 377.15L782.00 645.84ZM432.01 54.26C268.90 54.26 136.21 186.95 136.21 350.05C136.21 513.15 268.91 645.84 432.01 645.84C595.11 645.84 727.81 513.15 727.81 350.05C727.81 186.95 595.11 54.26 432.01 54.26Z"  horiz-adv-x="1417" vert-adv-y="1000"  />

      
      <glyph glyph-name="uni0153" unicode="&#x0153;" d="M1333.21 645.84L1333.21 700.05L727.80 700.05L727.80 536.79C665.71 634.79 556.37 700.05 432.00 700.05C239.01 700.05 82.00 543.05 82.00 350.06C82.00 157.07 239.01 0.06 432.00 0.06C556.36 0.06 665.70 65.31 727.80 163.32L727.80 0.06L1333.21 0.06L1333.21 54.27L782.00 54.27L782.00 322.95L1138.23 322.95L1138.23 377.15L782.00 377.15L782.00 645.84ZM432.01 54.26C268.90 54.26 136.21 186.95 136.21 350.05C136.21 513.15 268.91 645.84 432.01 645.84C595.11 645.84 727.81 513.15 727.81 350.05C727.81 186.95 595.11 54.26 432.01 54.26Z"  horiz-adv-x="1417" vert-adv-y="1000"  />

      
      <glyph glyph-name="uni0160" unicode="&#x0160;" d="M479.40 877.08L441.07 915.40L384.71 859.04L328.35 915.40L290.01 877.08L384.71 782.38ZM498.87 377.15L270.55 377.15C196.47 377.15 136.21 437.42 136.21 511.50C136.21 585.57 196.47 645.84 270.55 645.84L498.87 645.84C572.94 645.84 633.21 585.57 633.21 511.50L687.42 511.50C687.42 615.46 602.83 700.05 498.87 700.05L270.55 700.05C166.58 700.05 82.00 615.46 82.00 511.50C82.00 407.53 166.58 322.96 270.55 322.96L498.87 322.96C572.94 322.96 633.21 262.69 633.21 188.61C633.21 114.53 572.94 54.27 498.87 54.27L270.55 54.27C196.47 54.27 136.21 114.53 136.21 188.61L82.00 188.61C82.00 84.64 166.58 0.06 270.55 0.06L498.87 0.06C602.83 0.06 687.42 84.64 687.42 188.61C687.42 292.57 602.83 377.15 498.87 377.15Z"  horiz-adv-x="772" vert-adv-y="1000"  />

      
      <glyph glyph-name="uni0161" unicode="&#x0161;" d="M479.40 877.08L441.07 915.40L384.71 859.04L328.35 915.40L290.01 877.08L384.71 782.38ZM498.87 377.15L270.55 377.15C196.47 377.15 136.21 437.42 136.21 511.50C136.21 585.57 196.47 645.84 270.55 645.84L498.87 645.84C572.94 645.84 633.21 585.57 633.21 511.50L687.42 511.50C687.42 615.46 602.83 700.05 498.87 700.05L270.55 700.05C166.58 700.05 82.00 615.46 82.00 511.50C82.00 407.53 166.58 322.96 270.55 322.96L498.87 322.96C572.94 322.96 633.21 262.69 633.21 188.61C633.21 114.53 572.94 54.27 498.87 54.27L270.55 54.27C196.47 54.27 136.21 114.53 136.21 188.61L82.00 188.61C82.00 84.64 166.58 0.06 270.55 0.06L498.87 0.06C602.83 0.06 687.42 84.64 687.42 188.61C687.42 292.57 602.83 377.15 498.87 377.15Z"  horiz-adv-x="772" vert-adv-y="1000"  />

      
      <glyph glyph-name="uni0178" unicode="&#x0178;" d="M353.72 782.38L353.72 836.59L297.71 836.59L297.71 782.38ZM514.26 782.38L514.26 836.59L458.25 836.59L458.25 782.38ZM666.40 700.01L405.98 274.82L145.65 700.01L82 700.01L378.89 215.27L378.90 215.24L378.90 0.05L433.11 0.05L433.11 215.31L729.97 700.01Z"  horiz-adv-x="814" vert-adv-y="1000"  />

      
      <glyph glyph-name="uni017D" unicode="&#x017D;" d="M511.06 877.08L472.73 915.40L416.36 859.04L360.00 915.40L321.67 877.08L416.36 782.38ZM750.73 700.04L113.66 700.04L113.66 645.84L633.20 645.84L82.00 0.05L719.07 0.05L719.07 54.26L199.53 54.26Z"  horiz-adv-x="836" vert-adv-y="1000"  />

      
      <glyph glyph-name="uni017E" unicode="&#x017E;" d="M511.06 877.08L472.73 915.40L416.36 859.04L360.00 915.40L321.67 877.08L416.36 782.38ZM750.73 700.04L113.66 700.04L113.66 645.84L633.20 645.84L82.00 0.05L719.07 0.05L719.07 54.26L199.53 54.26Z"  horiz-adv-x="836" vert-adv-y="1000"  />

      
      <glyph glyph-name="uni02C6" unicode="&#x02C6;" d="M176.69 711.27L82 616.58L120.33 578.25L176.69 634.61L233.06 578.25L271.39 616.58Z"  horiz-adv-x="355" vert-adv-y="1000"  />

      
      <glyph glyph-name="uni02C7" unicode="&#x02C7;" d="M233.06 711.27L176.69 654.91L120.32 711.27L82.00 672.94L176.69 578.25L271.38 672.94Z"  horiz-adv-x="355" vert-adv-y="1000"  />

      
      <glyph glyph-name="uni02DC" unicode="&#x02DC;" d="M337.97 663.92C313.26 639.20 273.03 639.20 248.32 663.92C202.47 709.77 127.86 709.77 82.00 663.92L120.33 625.59C145.05 650.31 185.27 650.31 209.99 625.59C232.92 602.67 263.04 591.21 293.15 591.21C323.26 591.21 353.38 602.67 376.30 625.59Z"  horiz-adv-x="461" vert-adv-y="1000"  />

      
      <glyph glyph-name="uni0400" unicode="&#x0400;" d="M687.42 645.81L687.42 700.01L82 700.01L82 0.02L687.42 0.02L687.42 54.22L136.21 54.22L136.21 322.91L492.44 322.91L492.44 377.12L136.21 377.12L136.21 645.81ZM442.02 805.59L376.71 949.93L327.33 927.59L392.63 783.24Z"  horiz-adv-x="772" vert-adv-y="1000"  />

      
      <glyph glyph-name="uni0401" unicode="&#x0401;" d="M343.78 782.37L343.78 838.38L289.58 838.38L289.58 782.37ZM479.86 782.37L479.86 838.38L425.65 838.38L425.65 782.37ZM687.42 645.81L687.42 700.01L82.00 700.01L82.00 0.02L687.42 0.02L687.42 54.22L136.21 54.22L136.21 322.91L492.44 322.91L492.44 377.12L136.21 377.12L136.21 645.81Z"  horiz-adv-x="772" vert-adv-y="1000"  />

      
      <glyph glyph-name="uni0402" unicode="&#x0402;" d="M774.48 377.12L411.82 377.12L411.82 645.81L687.42 645.81L687.42 700.01L82 700.01L82 645.81L357.61 645.81L357.61 0.02L411.82 0.02L411.82 322.91L774.48 322.91C848.56 322.91 908.83 262.64 908.83 188.57C908.83 114.49 848.56 54.22 774.48 54.22L747.38 54.22L747.38 0.02L774.48 0.02C878.46 0.02 963.03 84.60 963.03 188.57C963.03 292.53 878.45 377.12 774.48 377.12Z"  horiz-adv-x="1046" vert-adv-y="1000"  />

      
      <glyph glyph-name="uni0403" unicode="&#x0403;" d="M82 700.01L82 0.02L136.21 0.02L136.21 645.81L687.42 645.81L687.42 700.01ZM443.30 926.40L393.92 948.74L328.61 804.40L378.00 782.05Z"  horiz-adv-x="772" vert-adv-y="1000"  />

      
      <glyph glyph-name="uni0404" unicode="&#x0404;" d="M222.83 140.86C173.41 190.29 143.67 254.14 137.46 322.92L411.81 322.92L411.81 377.13L137.46 377.13C143.67 445.90 173.41 509.75 222.83 559.18C278.71 615.05 352.98 645.81 431.99 645.81C511.00 645.81 585.28 615.05 641.15 559.18L679.48 597.51C613.38 663.61 525.48 700.02 431.99 700.02C338.51 700.02 250.61 663.61 184.52 597.51C118.41 531.41 82.00 443.52 82.00 350.03C82.00 256.54 118.41 168.65 184.52 102.55C250.62 36.44 338.51 0.04 431.99 0.04C525.48 0.04 613.38 36.45 679.48 102.55L641.15 140.88C525.82 25.53 338.17 25.54 222.83 140.86Z"  horiz-adv-x="763" vert-adv-y="1000"  />

      
      <glyph glyph-name="uni0405" unicode="&#x0405;" d="M498.87 377.12L270.55 377.12C196.47 377.12 136.21 437.39 136.21 511.46C136.21 585.54 196.47 645.81 270.55 645.81L498.87 645.81C572.94 645.81 633.21 585.54 633.21 511.46L687.42 511.46C687.42 615.43 602.84 700.01 498.87 700.01L270.55 700.01C166.58 700.01 82.00 615.43 82.00 511.46C82.00 407.50 166.58 322.92 270.55 322.92L498.87 322.92C572.94 322.92 633.21 262.65 633.21 188.58C633.21 114.50 572.94 54.23 498.87 54.23L270.55 54.23C196.47 54.23 136.21 114.50 136.21 188.58L82.00 188.58C82.00 84.61 166.58 0.03 270.55 0.03L498.87 0.03C602.84 0.03 687.42 84.61 687.42 188.58C687.42 292.53 602.84 377.12 498.87 377.12Z"  horiz-adv-x="772" vert-adv-y="1000"  />

      
      <glyph glyph-name="uni0406" unicode="&#x0406;" d="M136.21 0.03L136.21 700.01L82 700.01L82 0.03Z"  horiz-adv-x="221" vert-adv-y="1000"  />

      
      <glyph glyph-name="uni0407" unicode="&#x0407;" d="M133.24 0.03L133.24 700.01L79.04 700.01L79.04 0.03ZM65.21 782.37L65.21 838.38L11.00 838.38L11.00 782.37ZM201.28 782.37L201.28 838.38L147.08 838.38L147.08 782.37Z"  horiz-adv-x="215" vert-adv-y="1000"  />

      
      <glyph glyph-name="uni0408" unicode="&#x0408;" d="M563.65 700.02L563.65 302.71C563.65 165.69 452.18 54.22 315.16 54.22C248.84 54.22 186.46 80.08 139.50 127.05L120.33 146.21L82.00 107.89L101.17 88.72C158.37 31.52 234.37 0.02 315.16 0.02C482.06 0.02 617.85 135.80 617.85 302.71L617.85 700.02Z"  horiz-adv-x="701" vert-adv-y="1000"  />

      
      <glyph glyph-name="uni0409" unicode="&#x0409;" d="M916.31 377.12L554.26 377.12L416.43 700.04L380.66 700.04L82 0.03L140.92 0.03L398.55 603.87L585.40 166.05L585.42 166.06L656.28 0.02L916.32 0.02C1020.29 0.02 1104.87 84.60 1104.87 188.57C1104.87 292.53 1020.28 377.12 916.31 377.12ZM916.31 54.22L692.07 54.22L635.25 187.34L596.00 279.31L577.39 322.91L916.31 322.91C990.38 322.91 1050.65 262.64 1050.65 188.57C1050.66 114.49 990.39 54.22 916.31 54.22Z"  horiz-adv-x="1188" vert-adv-y="1000"  />

      
      <glyph glyph-name="uni040A" unicode="&#x040A;" d="M1050.09 377.12L687.43 377.12L687.43 700.01L633.22 700.01L633.22 377.12L136.21 377.12L136.21 700.01L82.00 700.01L82.00 0.02L136.21 0.02L136.21 322.91L633.22 322.91L633.22 0.02L1050.09 0.02C1154.06 0.02 1238.64 84.60 1238.64 188.57C1238.63 292.53 1154.05 377.12 1050.09 377.12ZM1050.09 54.22L687.43 54.22L687.43 322.91L1050.09 322.91C1124.16 322.91 1184.43 262.64 1184.43 188.57C1184.43 114.49 1124.16 54.22 1050.09 54.22Z"  horiz-adv-x="1323" vert-adv-y="1000"  />

      
      <glyph glyph-name="uni040B" unicode="&#x040B;" d="M660.34 467.71L411.82 467.71L411.82 645.81L687.42 645.81L687.42 700.01L82.00 700.01L82.00 645.81L357.62 645.81L357.62 0.02L411.82 0.02L411.82 413.50L660.34 413.50C797.36 413.50 908.83 302.02 908.83 165.00L908.83 0.02L963.04 0.02L963.04 165.00C963.04 331.91 827.25 467.71 660.34 467.71Z"  horiz-adv-x="1046" vert-adv-y="1000"  />

      
      <glyph glyph-name="uni040C" unicode="&#x040C;" d="M719.13 700.04L647.89 700.04L136.21 100.62L136.21 700.04L82 700.04L82 0.03L121.57 0.03L384.68 308.22L647.73 0.03L719.05 0.03L420.30 350.03ZM444.30 926.00L394.92 948.34L329.61 804.00L379.00 781.66Z"  horiz-adv-x="803" vert-adv-y="1000"  />

      
      <glyph glyph-name="uni040D" unicode="&#x040D;" d="M647.89 700.04L136.21 100.62L136.21 700.04L82 700.04L82 0.03L121.57 0.03L633.26 599.37L633.26 0.03L687.46 0.03L687.46 700.04ZM443.12 803.19L377.81 947.55L328.43 925.20L393.73 780.85Z"  horiz-adv-x="772" vert-adv-y="1000"  />

      
      <glyph glyph-name="uni040E" unicode="&#x040E;" d="M524.44 831.13L486.11 869.45C464.90 848.25 436.71 836.57 406.71 836.57C376.72 836.57 348.52 848.25 327.31 869.46L288.99 831.13C320.43 799.68 362.24 782.37 406.71 782.37C451.18 782.37 493.00 799.69 524.44 831.13ZM666.48 700.04L611.42 610.14L406.06 274.84L145.57 700.04L82 700.04L374.23 222.89L237.72 0.03L301.22 0.03L405.98 171.08L406.06 171.01L657.64 581.87L730.05 700.04Z"  horiz-adv-x="814" vert-adv-y="1000"  />

      
      <glyph glyph-name="uni040F" unicode="&#x040F;" d="M633.20 700.01L633.20 54.22L136.20 54.22L136.20 700.01L82 700.01L82 0.02L357.61 0.02L357.61-79.84L411.81-79.84L411.81 0.02L687.42 0.02L687.42 700.01Z"  horiz-adv-x="772" vert-adv-y="1000"  />

      
      <glyph glyph-name="uni0410" unicode="&#x0410;" d="M416.51 700.04L380.74 700.04L82.00 0.03L141.01 0.03L203.59 146.71L593.74 146.71L656.33 0.03L715.26 0.03ZM226.71 200.92L398.63 603.87L570.60 200.92Z"  horiz-adv-x="800" vert-adv-y="1000"  />

      
      <glyph glyph-name="uni0411" unicode="&#x0411;" d="M687.42 645.81L687.42 700.01L82 700.01L82 0.02L498.87 0.02C602.83 0.02 687.42 84.60 687.42 188.57C687.42 292.53 602.83 377.12 498.87 377.12L136.21 377.12L136.21 645.81ZM498.87 322.91C572.94 322.91 633.21 262.64 633.21 188.57C633.21 114.49 572.94 54.22 498.87 54.22L136.21 54.22L136.21 322.91Z"  horiz-adv-x="772" vert-adv-y="1000"  />

      
      <glyph glyph-name="uni0412" unicode="&#x0412;" d="M596.16 350.01C650.80 383.07 687.42 443.07 687.42 511.46C687.42 615.43 602.83 700.01 498.87 700.01L82.00 700.01L82.00 0.02L498.87 0.02C602.83 0.02 687.42 84.60 687.42 188.57C687.42 256.96 650.80 316.97 596.16 350.01ZM136.21 645.81L498.87 645.81C572.94 645.81 633.21 585.54 633.21 511.46C633.21 437.39 572.94 377.12 498.87 377.12L136.21 377.12ZM498.87 54.22L136.21 54.22L136.21 322.91L498.87 322.91C572.94 322.91 633.21 262.64 633.21 188.57C633.21 114.49 572.94 54.22 498.87 54.22Z"  horiz-adv-x="772" vert-adv-y="1000"  />

      
      <glyph glyph-name="uni0413" unicode="&#x0413;" d="M82 700.01L82 0.02L136.21 0.02L136.21 645.81L687.42 645.81L687.42 700.01Z"  horiz-adv-x="772" vert-adv-y="1000"  />

      
      <glyph glyph-name="uni0414" unicode="&#x0414;" d="M715.21 54.22L439.52 700.04L403.75 700.04L128.13 54.22L82.00 54.22L82.00-35.43L136.21-35.43L136.21 0.02L173.17 0.02L173.17 0.03L670.17 0.03L670.17 0.02L705.62 0.02L705.62-36.94L759.82-36.94L759.82 54.22ZM187.09 54.24L421.64 603.87L656.26 54.24Z"  horiz-adv-x="844" vert-adv-y="1000"  />

      
      <glyph glyph-name="uni0415" unicode="&#x0415;" d="M687.42 645.81L687.42 700.01L82 700.01L82 0.02L687.42 0.02L687.42 54.22L136.21 54.22L136.21 322.91L492.44 322.91L492.44 377.12L136.21 377.12L136.21 645.81Z"  horiz-adv-x="772" vert-adv-y="1000"  />

      
      <glyph glyph-name="uni0416" unicode="&#x0416;" d="M1099.02 700.04L1027.79 700.04L617.61 219.40L617.61 700.01L563.41 700.01L563.41 219.48L153.24 700.04L82 700.04L380.74 349.96L82.07 0.03L153.31 0.03L416.36 308.22L563.41 135.93L563.41 0.02L617.61 0.02L617.61 135.93L764.66 308.22L1027.70 0.03L1098.94 0.03L800.28 350.03Z"  horiz-adv-x="1183" vert-adv-y="1000"  />

      
      <glyph glyph-name="uni0417" unicode="&#x0417;" d="M596.16 350.01C650.80 383.07 687.42 443.07 687.42 511.46C687.42 615.43 602.83 700.01 498.87 700.01L270.55 700.01C166.58 700.01 82.00 615.43 82.00 511.46L136.21 511.46C136.21 585.54 196.47 645.81 270.55 645.81L498.87 645.81C572.94 645.81 633.21 585.54 633.21 511.46C633.21 437.39 572.94 377.12 498.87 377.12L384.70 377.12L384.70 322.91L498.87 322.91C572.94 322.91 633.21 262.64 633.21 188.57C633.21 114.49 572.94 54.22 498.87 54.22L270.55 54.22C196.47 54.22 136.21 114.49 136.21 188.57L82.00 188.57C82.00 84.60 166.58 0.02 270.55 0.02L498.87 0.02C602.83 0.02 687.42 84.60 687.42 188.57C687.42 256.96 650.80 316.97 596.16 350.01Z"  horiz-adv-x="772" vert-adv-y="1000"  />

      
      <glyph glyph-name="uni0418" unicode="&#x0418;" d="M647.89 700.04L136.21 100.62L136.21 700.04L82 700.04L82 0.03L121.57 0.03L633.25 599.37L633.25 0.03L687.46 0.03L687.46 700.04Z"  horiz-adv-x="772" vert-adv-y="1000"  />

      
      <glyph glyph-name="uni0419" unicode="&#x0419;" d="M647.81 700.04L136.21 100.62L136.21 700.04L82 700.04L82 0.03L121.57 0.03L633.18 599.37L633.18 0.03L687.38 0.03L687.38 700.04ZM502.43 831.05L464.10 869.38C420.33 825.60 349.09 825.60 305.31 869.38L266.98 831.05C299.44 798.60 342.07 782.37 384.70 782.37C427.34 782.37 469.97 798.60 502.43 831.05Z"  horiz-adv-x="772" vert-adv-y="1000"  />

      
      <glyph glyph-name="uni041A" unicode="&#x041A;" d="M719.13 700.04L647.89 700.04L136.21 100.62L136.21 700.04L82 700.04L82 0.03L121.57 0.03L384.69 308.22L647.73 0.03L719.05 0.03L420.31 350.03Z"  horiz-adv-x="803" vert-adv-y="1000"  />

      
      <glyph glyph-name="uni041B" unicode="&#x041B;" d="M416.51 700.04L380.74 700.04L82.00 0.03L141.01 0.03L398.63 603.87L656.33 0.03L715.26 0.03Z"  horiz-adv-x="799" vert-adv-y="1000"  />

      
      <glyph glyph-name="uni041C" unicode="&#x041C;" d="M738.18 700.04L432.01 87.69L125.83 700.04L82 700.04L82 0.03L136.21 0.03L136.21 558.10L415.28 0.03L448.81 0.03L727.81 558.10L727.81 0.03L782.01 0.03L782.01 700.04Z"  horiz-adv-x="865" vert-adv-y="1000"  />

      
      <glyph glyph-name="uni041D" unicode="&#x041D;" d="M633.21 700.01L633.21 377.12L136.20 377.12L136.20 700.01L82 700.01L82 0.02L136.20 0.02L136.20 322.91L633.21 322.91L633.21 0.02L687.41 0.02L687.41 700.01Z"  horiz-adv-x="772" vert-adv-y="1000"  />

      
      <glyph glyph-name="uni041E" unicode="&#x041E;" d="M432.00 700.01C239.01 700.01 82 543.01 82 350.01C82 157.02 239.00 0.02 432.00 0.02C624.98 0.02 781.99 157.03 781.99 350.01C781.99 543.00 624.98 700.01 432.00 700.01ZM432.00 54.22C268.90 54.22 136.21 186.92 136.21 350.01C136.21 513.11 268.89 645.81 432.00 645.81C595.10 645.81 727.79 513.12 727.79 350.01C727.78 186.92 595.10 54.22 432.00 54.22Z"  horiz-adv-x="865" vert-adv-y="1000"  />

      
      <glyph glyph-name="uni041F" unicode="&#x041F;" d="M82 700.01L82 0.02L136.21 0.02L136.21 645.81L633.21 645.81L633.21 0.02L687.42 0.02L687.42 700.01Z"  horiz-adv-x="772" vert-adv-y="1000"  />

      
      <glyph glyph-name="uni0420" unicode="&#x0420;" d="M498.87 700.01L82 700.01L82 0.02L136.21 0.02L136.21 322.91L498.87 322.91C602.83 322.91 687.42 407.50 687.42 511.45C687.42 615.43 602.83 700.01 498.87 700.01ZM498.87 377.12L136.21 377.12L136.21 645.81L498.87 645.81C572.94 645.81 633.21 585.54 633.21 511.46C633.21 437.39 572.94 377.12 498.87 377.12Z"  horiz-adv-x="772" vert-adv-y="1000"  />

      
      <glyph glyph-name="uni0421" unicode="&#x0421;" d="M432.00 54.22C352.99 54.22 278.71 84.99 222.85 140.86C166.97 196.73 136.21 271.01 136.21 350.02C136.21 429.03 166.97 503.31 222.85 559.18C278.71 615.05 352.99 645.81 432.00 645.81C511.01 645.81 585.28 615.05 641.15 559.18L679.48 597.51C613.37 663.61 525.49 700.02 432.00 700.02C338.51 700.02 250.62 663.61 184.51 597.51C118.41 531.41 82 443.52 82 350.03C82 256.54 118.41 168.65 184.51 102.55C250.61 36.44 338.50 0.04 431.99 0.04C525.48 0.04 613.37 36.45 679.47 102.55L641.14 140.88C585.28 84.99 511.01 54.22 432.00 54.22Z"  horiz-adv-x="763" vert-adv-y="1000"  />

      
      <glyph glyph-name="uni0422" unicode="&#x0422;" d="M82 700.01L82 645.81L357.61 645.81L357.61 0.02L411.81 0.02L411.81 645.81L687.42 645.81L687.42 700.01Z"  horiz-adv-x="772" vert-adv-y="1000"  />

      
      <glyph glyph-name="uni0423" unicode="&#x0423;" d="M666.47 700.04L611.42 610.14L405.98 274.84L145.57 700.04L82.00 700.04L374.23 222.89L237.72 0.03L301.21 0.03L405.98 171.01L657.64 581.87L730.05 700.04Z"  horiz-adv-x="814" vert-adv-y="1000"  />

      
      <glyph glyph-name="uni0424" unicode="&#x0424;" d="M609.43 538.56L467.10 538.56L467.10 700.01L412.89 700.01L412.89 538.56L270.55 538.56C166.58 538.56 82 453.99 82 350.02C82 246.06 166.58 161.47 270.55 161.47L412.89 161.47L412.89 0.03L467.10 0.03L467.10 161.46L609.43 161.46C713.41 161.46 797.98 246.05 797.98 350.01C797.98 453.98 713.40 538.56 609.43 538.56ZM412.89 215.67L270.55 215.67C196.47 215.67 136.21 275.94 136.21 350.01C136.21 424.09 196.47 484.36 270.55 484.36L412.89 484.36ZM609.43 215.67L467.10 215.67L467.10 484.36L609.43 484.36C683.51 484.36 743.78 424.09 743.78 350.01C743.78 275.94 683.51 215.67 609.43 215.67Z"  horiz-adv-x="882" vert-adv-y="1000"  />

      
      <glyph glyph-name="uni0425" unicode="&#x0425;" d="M750.80 700.04L679.48 700.04L416.36 391.77L153.24 700.04L82.00 700.04L380.74 350.03L82.00 0.03L153.31 0.03L416.36 308.22L679.40 0.03L750.72 0.03L452.05 349.96Z"  horiz-adv-x="835" vert-adv-y="1000"  />

      
      <glyph glyph-name="uni0426" unicode="&#x0426;" d="M687.41 54.22L687.41 700.01L633.20 700.01L633.20 54.22L136.20 54.22L136.20 700.01L82.00 700.01L82.00 0.02L668.65 0.02L668.65-36.94L722.86-36.94L722.86 54.22Z"  horiz-adv-x="807" vert-adv-y="1000"  />

      
      <glyph glyph-name="uni0427" unicode="&#x0427;" d="M633.22 700.01L633.22 216.84L384.73 216.84C247.69 216.84 136.21 328.32 136.21 465.34L136.21 700.01L82.01 700.01L82.01 465.34C82.01 298.43 217.80 162.63 384.72 162.63L633.21 162.63L633.21 0.03L687.42 0.03L687.42 700.01Z"  horiz-adv-x="772" vert-adv-y="1000"  />

      
      <glyph glyph-name="uni0428" unicode="&#x0428;" d="M1184.42 700.01L1184.42 54.22L687.42 54.22L687.42 700.01L633.22 700.01L633.22 54.22L136.21 54.22L136.21 700.01L82 700.01L82 0.02L1238.63 0.02L1238.63 700.01Z"  horiz-adv-x="1323" vert-adv-y="1000"  />

      
      <glyph glyph-name="uni0429" unicode="&#x0429;" d="M1238.63 54.22L1238.63 700.01L1184.42 700.01L1184.42 54.22L687.42 54.22L687.42 700.01L633.21 700.01L633.21 54.22L136.21 54.22L136.21 700.01L82.00 700.01L82.00 0.02L1219.87 0.02L1219.87-36.94L1274.07-36.94L1274.07 54.22Z"  horiz-adv-x="1358" vert-adv-y="1000"  />

      
      <glyph glyph-name="uni042A" unicode="&#x042A;" d="M560.38 377.12L197.72 377.12L197.72 700.01L82 700.01L82 645.81L143.51 645.81L143.51 0.02L560.38 0.02C664.35 0.02 748.93 84.60 748.93 188.57C748.93 292.53 664.35 377.12 560.38 377.12ZM560.38 54.22L197.72 54.22L197.72 322.91L560.38 322.91C634.46 322.91 694.72 262.64 694.72 188.57C694.72 114.49 634.46 54.22 560.38 54.22Z"  horiz-adv-x="832" vert-adv-y="1000"  />

      
      <glyph glyph-name="uni042B" unicode="&#x042B;" d="M498.87 377.12L136.21 377.12L136.21 700.01L82 700.01L82 0.02L498.87 0.02C602.84 0.02 687.42 84.60 687.42 188.57C687.42 292.53 602.83 377.12 498.87 377.12ZM498.87 54.22L136.21 54.22L136.21 322.91L498.87 322.91C572.94 322.91 633.21 262.64 633.21 188.57C633.21 114.49 572.94 54.22 498.87 54.22ZM853.23 0.03L853.23 700.01L799.02 700.01L799.02 0.03Z"  horiz-adv-x="938" vert-adv-y="1000"  />

      
      <glyph glyph-name="uni042C" unicode="&#x042C;" d="M498.87 377.12L136.21 377.12L136.21 700.01L82 700.01L82 0.02L498.87 0.02C602.84 0.02 687.42 84.60 687.42 188.57C687.42 292.53 602.84 377.12 498.87 377.12ZM498.87 54.22L136.21 54.22L136.21 322.91L498.87 322.91C572.94 322.91 633.21 262.64 633.21 188.57C633.21 114.49 572.94 54.22 498.87 54.22Z"  horiz-adv-x="772" vert-adv-y="1000"  />

      
      <glyph glyph-name="uni042D" unicode="&#x042D;" d="M576.97 597.50C440.51 733.95 218.46 733.96 82.00 597.50L120.33 559.17C235.66 674.49 423.31 674.49 538.65 559.17C589.43 508.39 617.82 443.59 623.88 377.12L349.67 377.12L349.67 322.91L623.88 322.91C617.82 256.44 589.43 191.64 538.65 140.86C423.32 25.54 235.67 25.52 120.33 140.86L82.00 102.52C150.24 34.29 239.86 0.18 329.49 0.18C419.12 0.18 508.74 34.29 576.97 102.52C713.43 239.00 713.43 461.04 576.97 597.50Z"  horiz-adv-x="763" vert-adv-y="1000"  />

      
      <glyph glyph-name="uni042E" unicode="&#x042E;" d="M597.80 700.01C413.94 700.01 262.85 557.47 248.95 377.12L136.21 377.12L136.21 700.01L82 700.01L82 0.02L136.21 0.02L136.21 322.91L248.95 322.91C262.85 142.56 413.94 0.02 597.80 0.02C790.79 0.02 947.80 157.03 947.80 350.01C947.80 543.00 790.79 700.01 597.80 700.01ZM597.80 54.22C434.69 54.22 302.01 186.92 302.01 350.01C302.01 513.11 434.70 645.81 597.80 645.81C760.90 645.81 893.59 513.12 893.59 350.01C893.59 186.92 760.90 54.22 597.80 54.22Z"  horiz-adv-x="1033" vert-adv-y="1000"  />

      
      <glyph glyph-name="uni042F" unicode="&#x042F;" d="M302.20 700.01C198.22 700.01 113.65 615.43 113.65 511.46C113.65 407.50 198.22 322.92 302.20 322.92L357.59 322.92L82.00 0.03L153.31 0.03L428.89 322.92L664.86 322.92L664.86 0.03L719.07 0.03L719.07 700.01ZM664.86 377.12L302.20 377.12C228.12 377.12 167.85 437.39 167.85 511.46C167.85 585.54 228.12 645.81 302.20 645.81L664.86 645.81Z"  horiz-adv-x="803" vert-adv-y="1000"  />

      
      <glyph glyph-name="uni0430" unicode="&#x0430;" d="M416.51 700.04L380.74 700.04L82.00 0.03L141.01 0.03L203.59 146.71L593.74 146.71L656.33 0.03L715.26 0.03ZM226.71 200.92L398.63 603.87L570.60 200.92Z"  horiz-adv-x="800" vert-adv-y="1000"  />

      
      <glyph glyph-name="uni0431" unicode="&#x0431;" d="M687.42 645.81L687.42 700.01L82 700.01L82 0.02L498.87 0.02C602.83 0.02 687.42 84.60 687.42 188.57C687.42 292.53 602.83 377.12 498.87 377.12L136.21 377.12L136.21 645.81ZM498.87 322.91C572.94 322.91 633.21 262.64 633.21 188.57C633.21 114.49 572.94 54.22 498.87 54.22L136.21 54.22L136.21 322.91Z"  horiz-adv-x="772" vert-adv-y="1000"  />

      
      <glyph glyph-name="uni0432" unicode="&#x0432;" d="M596.16 350.01C650.80 383.07 687.42 443.07 687.42 511.46C687.42 615.43 602.83 700.01 498.87 700.01L82.00 700.01L82.00 0.02L498.87 0.02C602.83 0.02 687.42 84.60 687.42 188.57C687.42 256.96 650.80 316.97 596.16 350.01ZM136.21 645.81L498.87 645.81C572.94 645.81 633.21 585.54 633.21 511.46C633.21 437.39 572.94 377.12 498.87 377.12L136.21 377.12ZM498.87 54.22L136.21 54.22L136.21 322.91L498.87 322.91C572.94 322.91 633.21 262.64 633.21 188.57C633.21 114.49 572.94 54.22 498.87 54.22Z"  horiz-adv-x="772" vert-adv-y="1000"  />

      
      <glyph glyph-name="uni0433" unicode="&#x0433;" d="M82 700.01L82 0.02L136.21 0.02L136.21 645.81L687.42 645.81L687.42 700.01Z"  horiz-adv-x="772" vert-adv-y="1000"  />

      
      <glyph glyph-name="uni0434" unicode="&#x0434;" d="M715.21 54.22L439.52 700.04L403.75 700.04L128.13 54.22L82.00 54.22L82.00-35.43L136.21-35.43L136.21 0.02L173.17 0.02L173.17 0.03L670.17 0.03L670.17 0.02L705.62 0.02L705.62-36.94L759.82-36.94L759.82 54.22ZM187.09 54.24L421.64 603.87L656.26 54.24Z"  horiz-adv-x="844" vert-adv-y="1000"  />

      
      <glyph glyph-name="uni0435" unicode="&#x0435;" d="M687.42 645.81L687.42 700.01L82 700.01L82 0.02L687.42 0.02L687.42 54.22L136.21 54.22L136.21 322.91L492.44 322.91L492.44 377.12L136.21 377.12L136.21 645.81Z"  horiz-adv-x="772" vert-adv-y="1000"  />

      
      <glyph glyph-name="uni0436" unicode="&#x0436;" d="M1099.02 700.04L1027.79 700.04L617.61 219.40L617.61 700.01L563.41 700.01L563.41 219.48L153.24 700.04L82 700.04L380.74 349.96L82.07 0.03L153.31 0.03L416.36 308.22L563.41 135.93L563.41 0.02L617.61 0.02L617.61 135.93L764.66 308.22L1027.70 0.03L1098.94 0.03L800.28 350.03Z"  horiz-adv-x="1183" vert-adv-y="1000"  />

      
      <glyph glyph-name="uni0437" unicode="&#x0437;" d="M596.16 350.01C650.80 383.07 687.42 443.07 687.42 511.46C687.42 615.43 602.83 700.01 498.87 700.01L270.55 700.01C166.58 700.01 82.00 615.43 82.00 511.46L136.21 511.46C136.21 585.54 196.47 645.81 270.55 645.81L498.87 645.81C572.94 645.81 633.21 585.54 633.21 511.46C633.21 437.39 572.94 377.12 498.87 377.12L384.70 377.12L384.70 322.91L498.87 322.91C572.94 322.91 633.21 262.64 633.21 188.57C633.21 114.49 572.94 54.22 498.87 54.22L270.55 54.22C196.47 54.22 136.21 114.49 136.21 188.57L82.00 188.57C82.00 84.60 166.58 0.02 270.55 0.02L498.87 0.02C602.83 0.02 687.42 84.60 687.42 188.57C687.42 256.96 650.80 316.97 596.16 350.01Z"  horiz-adv-x="772" vert-adv-y="1000"  />

      
      <glyph glyph-name="uni0438" unicode="&#x0438;" d="M647.89 700.04L136.21 100.62L136.21 700.04L82 700.04L82 0.03L121.57 0.03L633.25 599.37L633.25 0.03L687.46 0.03L687.46 700.04Z"  horiz-adv-x="772" vert-adv-y="1000"  />

      
      <glyph glyph-name="uni0439" unicode="&#x0439;" d="M647.81 700.04L136.21 100.62L136.21 700.04L82 700.04L82 0.03L121.57 0.03L633.18 599.37L633.18 0.03L687.38 0.03L687.38 700.04ZM502.43 831.05L464.10 869.38C420.33 825.60 349.09 825.60 305.31 869.38L266.98 831.05C299.44 798.60 342.07 782.37 384.70 782.37C427.34 782.37 469.97 798.60 502.43 831.05Z"  horiz-adv-x="772" vert-adv-y="1000"  />

      
      <glyph glyph-name="uni043A" unicode="&#x043A;" d="M719.13 700.04L647.89 700.04L136.21 100.62L136.21 700.04L82 700.04L82 0.03L121.57 0.03L384.69 308.22L647.73 0.03L719.05 0.03L420.31 350.03Z"  horiz-adv-x="803" vert-adv-y="1000"  />

      
      <glyph glyph-name="uni043B" unicode="&#x043B;" d="M416.51 700.04L380.74 700.04L82.00 0.03L141.01 0.03L398.63 603.87L656.33 0.03L715.26 0.03Z"  horiz-adv-x="799" vert-adv-y="1000"  />

      
      <glyph glyph-name="uni043C" unicode="&#x043C;" d="M738.18 700.04L432.01 87.69L125.83 700.04L82 700.04L82 0.03L136.21 0.03L136.21 558.10L415.28 0.03L448.81 0.03L727.81 558.10L727.81 0.03L782.01 0.03L782.01 700.04Z"  horiz-adv-x="865" vert-adv-y="1000"  />

      
      <glyph glyph-name="uni043D" unicode="&#x043D;" d="M633.21 700.01L633.21 377.12L136.20 377.12L136.20 700.01L82 700.01L82 0.02L136.20 0.02L136.20 322.91L633.21 322.91L633.21 0.02L687.41 0.02L687.41 700.01Z"  horiz-adv-x="772" vert-adv-y="1000"  />

      
      <glyph glyph-name="uni043E" unicode="&#x043E;" d="M432.00 700.01C239.01 700.01 82 543.01 82 350.01C82 157.02 239.00 0.02 432.00 0.02C624.98 0.02 781.99 157.03 781.99 350.01C781.99 543.00 624.98 700.01 432.00 700.01ZM432.00 54.22C268.90 54.22 136.21 186.92 136.21 350.01C136.21 513.11 268.89 645.81 432.00 645.81C595.10 645.81 727.79 513.12 727.79 350.01C727.78 186.92 595.10 54.22 432.00 54.22Z"  horiz-adv-x="865" vert-adv-y="1000"  />

      
      <glyph glyph-name="uni043F" unicode="&#x043F;" d="M82 700.01L82 0.02L136.21 0.02L136.21 645.81L633.21 645.81L633.21 0.02L687.42 0.02L687.42 700.01Z"  horiz-adv-x="772" vert-adv-y="1000"  />

      
      <glyph glyph-name="uni0440" unicode="&#x0440;" d="M498.87 700.01L82 700.01L82 0.02L136.21 0.02L136.21 322.91L498.87 322.91C602.83 322.91 687.42 407.50 687.42 511.45C687.42 615.43 602.83 700.01 498.87 700.01ZM498.87 377.12L136.21 377.12L136.21 645.81L498.87 645.81C572.94 645.81 633.21 585.54 633.21 511.46C633.21 437.39 572.94 377.12 498.87 377.12Z"  horiz-adv-x="772" vert-adv-y="1000"  />

      
      <glyph glyph-name="uni0441" unicode="&#x0441;" d="M432.00 54.22C352.99 54.22 278.71 84.99 222.85 140.86C166.97 196.73 136.21 271.01 136.21 350.02C136.21 429.03 166.97 503.31 222.85 559.18C278.71 615.05 352.99 645.81 432.00 645.81C511.01 645.81 585.28 615.05 641.15 559.18L679.48 597.51C613.37 663.61 525.49 700.02 432.00 700.02C338.51 700.02 250.62 663.61 184.51 597.51C118.41 531.41 82 443.52 82 350.03C82 256.54 118.41 168.65 184.51 102.55C250.61 36.44 338.50 0.04 431.99 0.04C525.48 0.04 613.37 36.45 679.47 102.55L641.14 140.88C585.28 84.99 511.01 54.22 432.00 54.22Z"  horiz-adv-x="763" vert-adv-y="1000"  />

      
      <glyph glyph-name="uni0442" unicode="&#x0442;" d="M82 700.01L82 645.81L357.61 645.81L357.61 0.02L411.81 0.02L411.81 645.81L687.42 645.81L687.42 700.01Z"  horiz-adv-x="772" vert-adv-y="1000"  />

      
      <glyph glyph-name="uni0443" unicode="&#x0443;" d="M666.47 700.04L611.42 610.14L405.98 274.84L145.57 700.04L82.00 700.04L374.23 222.89L237.72 0.03L301.21 0.03L405.98 171.01L657.64 581.87L730.05 700.04Z"  horiz-adv-x="814" vert-adv-y="1000"  />

      
      <glyph glyph-name="uni0444" unicode="&#x0444;" d="M609.43 538.56L467.10 538.56L467.10 700.01L412.89 700.01L412.89 538.56L270.55 538.56C166.58 538.56 82 453.99 82 350.02C82 246.06 166.58 161.47 270.55 161.47L412.89 161.47L412.89 0.03L467.10 0.03L467.10 161.46L609.43 161.46C713.41 161.46 797.98 246.05 797.98 350.01C797.98 453.98 713.40 538.56 609.43 538.56ZM412.89 215.67L270.55 215.67C196.47 215.67 136.21 275.94 136.21 350.01C136.21 424.09 196.47 484.36 270.55 484.36L412.89 484.36ZM609.43 215.67L467.10 215.67L467.10 484.36L609.43 484.36C683.51 484.36 743.78 424.09 743.78 350.01C743.78 275.94 683.51 215.67 609.43 215.67Z"  horiz-adv-x="882" vert-adv-y="1000"  />

      
      <glyph glyph-name="uni0445" unicode="&#x0445;" d="M750.80 700.04L679.48 700.04L416.36 391.77L153.24 700.04L82.00 700.04L380.74 350.03L82.00 0.03L153.31 0.03L416.36 308.22L679.40 0.03L750.72 0.03L452.05 349.96Z"  horiz-adv-x="835" vert-adv-y="1000"  />

      
      <glyph glyph-name="uni0446" unicode="&#x0446;" d="M687.41 54.22L687.41 700.01L633.20 700.01L633.20 54.22L136.20 54.22L136.20 700.01L82.00 700.01L82.00 0.02L668.65 0.02L668.65-36.94L722.86-36.94L722.86 54.22Z"  horiz-adv-x="807" vert-adv-y="1000"  />

      
      <glyph glyph-name="uni0447" unicode="&#x0447;" d="M633.22 700.01L633.22 216.84L384.73 216.84C247.69 216.84 136.21 328.32 136.21 465.34L136.21 700.01L82.01 700.01L82.01 465.34C82.01 298.43 217.80 162.63 384.72 162.63L633.21 162.63L633.21 0.03L687.42 0.03L687.42 700.01Z"  horiz-adv-x="772" vert-adv-y="1000"  />

      
      </font>
</defs>
</svg>
