<?xml version="1.0" standalone="no"?>
  <!DOCTYPE svg PUBLIC "-//W3C//DTD SVG 1.1//EN" "http://www.w3.org/Graphics/SVG/1.1/DTD/svg11.dtd" >
  <svg>
  <metadata>
  Created by font-carrier
  </metadata>
  <defs>
  <font id="Benzin-Semibold" horiz-adv-x="2032" vert-adv-y="2032" >
    <font-face
      
      font-family="Benzin-Semibold"
      
      font-weight="400"
      
      font-stretch="normal"
      
      units-per-em="1000"
      
      ascent="775"
      
      descent="-225"
      
    />
      <missing-glyph />

      

      
      <glyph glyph-name="uni21" unicode="&#x21;" d="M103 215L38 740L268 740L203 215L103 215M56 170L56 0L250 0L250 170L56 170Z"  horiz-adv-x="305" vert-adv-y="1000"  />

      
      <glyph glyph-name="uni22" unicode="&#x22;" d="M35 740L85 410L184 410L234 740L35 740M282 740L332 410L431 410L481 740L282 740Z"  horiz-adv-x="516" vert-adv-y="1000"  />

      
      <glyph glyph-name="uni23" unicode="&#x23;" d="M748 525L719 423L603 423L566 291L684 291L654 190L537 190L484 0L355 0L408 190L261 190L208 0L79 0L132 190L14 190L43 291L161 291L198 423L79 423L108 525L227 525L287 740L416 740L356 525L503 525L563 740L692 740L632 525L748 525M290 291L437 291L474 423L327 423L290 291Z"  horiz-adv-x="784" vert-adv-y="1000"  />

      
      <glyph glyph-name="uni24" unicode="&#x24;" d="M530 434Q646 435 726 424Q806 413 862.50 370Q919 327 919 239Q919 98 803 41.50Q687-15 530-22L530-136L411-136L411-21Q258-11 143 48.50Q28 108 28 244L243 246Q243 186 291.50 159.50Q340 133 411 127L411 303Q296 304 215.50 317Q135 330 81.50 375.50Q28 421 28 511Q28 647 141.50 700.50Q255 754 411 761L411 875L530 875L530 761Q683 754 801 695.50Q919 637 919 495L706 495Q706 549 652.50 575Q599 601 530 609L530 434M241 514Q241 445 411 436L411 610Q341 602 291 580Q241 558 241 514M709 235Q709 298 530 303L530 125Q608 131 658.50 157Q709 183 709 234L709 235Z"  horiz-adv-x="952" vert-adv-y="1000"  />

      
      <glyph glyph-name="uni25" unicode="&#x25;" d="M205 0L25 0L675 700L855 700L205 0M244 376Q201 376 164 397.50Q127 419 105.50 456Q84 493 84 536Q84 579 105.50 616Q127 653 164 674.50Q201 696 244 696Q287 696 324 674.50Q361 653 382.50 616Q404 579 404 536Q404 493 382.50 456Q361 419 324 397.50Q287 376 244 376M244 475Q270 475 287.50 493Q305 511 305 536Q305 562 287.50 579.50Q270 597 244 597Q219 597 201.50 579.50Q184 562 184 536Q184 510 201.50 492.50Q219 475 244 475M636 6Q593 6 556 27.50Q519 49 497.50 86Q476 123 476 166Q476 209 497.50 246Q519 283 556 304.50Q593 326 636 326Q679 326 716 304.50Q753 283 774.50 246Q796 209 796 166Q796 123 774.50 86Q753 49 716 27.50Q679 6 636 6M636 106Q661 106 678.50 124Q696 142 696 166Q696 191 678 208.50Q660 226 636 226Q612 226 594 208.50Q576 191 576 166Q576 142 594 124Q612 106 636 106Z"  horiz-adv-x="860" vert-adv-y="1000"  />

      
      <glyph glyph-name="uni26" unicode="&#x26;" d="M939-1L719-1L675 33Q619 11 558 0.50Q497-10 439-10Q330-10 231.50 11.50Q133 33 69 82.50Q5 132 5 210Q5 279 62.50 317.50Q120 356 224 385Q165 433 133.50 469Q102 505 102 549Q102 623 152 669.50Q202 716 277.50 736Q353 756 434 756Q533 756 601.50 729.50Q670 703 704 660.50Q738 618 738 570Q738 513 701.50 474Q665 435 610 411.50Q555 388 471 363L702 183Q775 251 775 365L916 365Q916 205 801 107L939-1M298 556Q298 500 388 427Q466 450 508.50 480.50Q551 511 551 559Q551 602 519 630.50Q487 659 426 659Q368 659 333 631.50Q298 604 298 556M439 97Q511 97 571 114L316 313Q271 294 247 269Q223 244 223 210Q223 180 252.50 154Q282 128 332 112.50Q382 97 439 97Z"  horiz-adv-x="938" vert-adv-y="1000"  />

      
      <glyph glyph-name="uni27" unicode="&#x27;" d="M35 740L85 410L184 410L234 740L35 740Z"  horiz-adv-x="269" vert-adv-y="1000"  />

      
      <glyph glyph-name="uni28" unicode="&#x28;" d="M223-130Q118 18 66.50 145.50Q15 273 15 395Q15 515 66 640.50Q117 766 223 910L338 910Q275 770 245 646.50Q215 523 215 402Q215 280 245.50 151Q276 22 338-130L223-130Z"  horiz-adv-x="308" vert-adv-y="1000"  />

      
      <glyph glyph-name="uni29" unicode="&#x29;" d="M-35-130Q27 22 57.50 151Q88 280 88 402Q88 523 58 646.50Q28 770-35 910L80 910Q186 766 237 640.50Q288 515 288 395Q288 273 236.50 145.50Q185 18 80-130L-35-130Z"  horiz-adv-x="303" vert-adv-y="1000"  />

      
      <glyph glyph-name="uni2a" unicode="&#x2a;" d="M286 565L398 517L352 438L254 515L270 390L179 390L194 512L96 438L52 516L169 564L50 613L95 692L194 620L179 740L270 740L254 615L352 693L397 616L286 565Z"  horiz-adv-x="448" vert-adv-y="1000"  />

      
      <glyph glyph-name="uni2b" unicode="&#x2b;" d="M293 378L462 378L462 270L293 270L293 100L185 100L185 270L15 270L15 378L185 378L185 547L293 547L293 378Z"  horiz-adv-x="477" vert-adv-y="1000"  />

      
      <glyph glyph-name="uni2c" unicode="&#x2c;" d="M31 0L31 170L225 170L225 0L137-105L32-105L120 0L31 0Z"  horiz-adv-x="255" vert-adv-y="1000"  />

      
      <glyph glyph-name="uni2d" unicode="&#x2d;" d="M33 227L33 351L382 351L382 227L33 227Z"  horiz-adv-x="415" vert-adv-y="1000"  />

      
      <glyph glyph-name="uni2e" unicode="&#x2e;" d="M30 170L30 0L224 0L224 170L30 170Z"  horiz-adv-x="254" vert-adv-y="1000"  />

      
      <glyph glyph-name="uni2f" unicode="&#x2f;" d="M-40-117L364 840L554 840L150-117L-40-117Z"  horiz-adv-x="524" vert-adv-y="1000"  />

      
      <glyph glyph-name="uni30" unicode="&#x30;" d="M498 746Q961 748 961 370Q961 223 867 103Q773-17 498-17Q304-17 198 48Q92 113 57.50 199.50Q23 286 26 370Q26 514 123 630Q220 746 498 746M499 136Q597 136 658 169.50Q719 203 745 256.50Q771 310 769 372Q771 431 745 482Q719 533 658 564.50Q597 596 499 596Q401 596 340.50 564.50Q280 533 254.50 482Q229 431 231 372Q229 310 254.50 256.50Q280 203 340.50 169.50Q401 136 499 136Z"  horiz-adv-x="987" vert-adv-y="1000"  />

      
      <glyph glyph-name="uni31" unicode="&#x31;" d="M397 740L397 0L200 0L200 494L33 494L33 614Q129 614 175.50 637Q222 660 232.50 686.50Q243 713 243 740L397 740Z"  horiz-adv-x="445" vert-adv-y="1000"  />

      
      <glyph glyph-name="uni32" unicode="&#x32;" d="M952 157L952 0L32 0L32 80Q32 209 85.50 277.50Q139 346 210 370.50Q281 395 392 413Q422 417 495 426Q574 435 618 443.50Q662 452 691.50 469.50Q721 487 721 517Q721 570 649.50 594.50Q578 619 476 618Q378 617 309.50 587.50Q241 558 241 495L32 495Q32 600 105 659.50Q178 719 277.50 740.50Q377 762 475 762Q653 762 793 714Q933 666 933 516Q933 437 874 390Q815 343 740.50 323.50Q666 304 571 290Q527 283 521 282Q449 273 379.50 253.50Q310 234 265.50 208.50Q221 183 221 157L952 157Z"  horiz-adv-x="977" vert-adv-y="1000"  />

      
      <glyph glyph-name="uni33" unicode="&#x33;" d="M951 245Q950 106 825 42Q700-22 499-22Q275-22 153.50 58Q32 138 32 289L231 289Q231 203 309 163Q387 123 499 124Q599 123 670 152Q741 181 742 245Q741 275 726.50 290Q712 305 672.50 311.50Q633 318 553 318L368 318L368 452L553 452Q643 452 688.50 470Q734 488 734 528Q734 572 665.50 593.50Q597 615 499 616Q387 617 309 592.50Q231 568 231 515L32 515Q32 659 177.50 710.50Q323 762 499 762Q606 762 698.50 748.50Q791 735 861 686Q931 637 931 541Q931 438 826 401Q944 363 951 247L951 245L951 245Z"  horiz-adv-x="987" vert-adv-y="1000"  />

      
      <glyph glyph-name="uni34" unicode="&#x34;" d="M756 267L861 267L861 112L756 112L756 0L559 0L559 112L33 112L33 267L559 740L756 740L756 267M559 560L249 267L559 267L559 560Z"  horiz-adv-x="894" vert-adv-y="1000"  />

      
      <glyph glyph-name="uni35" unicode="&#x35;" d="M893 259L678 263L893 259M893 258L893 258Q890 148 818.50 86Q747 24 650.50 1.50Q554-21 457-21Q370-21 276 4Q182 29 115 89Q48 149 48 246L246 247Q246 187 306 156.50Q366 126 452 122Q546 119 612 152Q678 185 678 262Q677 335 624.50 373.50Q572 412 454 412Q371 412 307 382Q243 352 243 299L243 295L51 293L51 740L858 740L858 607L243 607L243 455Q338 524 544 524Q646 524 725 492.50Q804 461 848.50 401Q893 341 893 259L893 258Z"  horiz-adv-x="920" vert-adv-y="1000"  />

      
      <glyph glyph-name="uni36" unicode="&#x36;" d="M953 245L953 245Q953 155 894 95Q835 35 736 6.50Q637-22 514-22Q293-22 173 52.50Q53 127 32 289Q30 321 30 336Q30 575 172 665.50Q314 756 514 756Q705 756 819.50 695.50Q934 635 934 507L741 509Q741 567 675.50 593Q610 619 515 617Q408 619 327.50 571Q247 523 235 418Q305 463 399.50 474.50Q494 486 600 486Q707 486 786.50 457Q866 428 909.50 374Q953 320 953 247L953 246L953 245M515 127Q615 127 684 155Q753 183 753 244Q753 298 720 326.50Q687 355 631 364.50Q575 374 490 374Q256 374 247 279L248 279Q244 208 294 174.50Q344 141 397 134.50Q450 128 515 127Z"  horiz-adv-x="983" vert-adv-y="1000"  />

      
      <glyph glyph-name="uni37" unicode="&#x37;" d="M777 740L377 0L177 0L496 590L23 590L23 740L777 740Z"  horiz-adv-x="779" vert-adv-y="1000"  />

      
      <glyph glyph-name="uni38" unicode="&#x38;" d="M833 409Q952 361 952 232Q952 81 818.50 27.50Q685-26 514-26Q397-26 296.50-12Q196 2 114.50 58.50Q33 115 33 231Q32 303 62 346.50Q92 390 150 413Q61 452 61 550Q61 646 140.50 693Q220 740 308 751Q396 762 486 763Q645 763 784.50 724.50Q924 686 924 551Q924 448 833 409M485 637Q390 638 323 617Q256 596 256 550Q256 503 323.50 483Q391 463 488 465Q587 463 656.50 483Q726 503 726 550Q726 596 655.50 617Q585 638 485 637M486 118Q601 116 680.50 143.50Q760 171 760 232Q760 294 680.50 322Q601 350 487 348Q375 350 297.50 322Q220 294 220 232Q220 171 297.50 143.50Q375 116 486 118Z"  horiz-adv-x="984" vert-adv-y="1000"  />

      
      <glyph glyph-name="uni39" unicode="&#x39;" d="M949 448Q951 416 951 401Q951 162 809 71Q667-20 467-20Q276-20 161.50 41Q47 102 47 230L240 228Q240 170 305.50 144Q371 118 466 120Q573 118 653.50 166Q734 214 746 319Q676 274 581.50 262.50Q487 251 381 251Q274 251 194.50 280Q115 309 71.50 363Q28 417 28 490L28 491L28 492Q28 582 87 642Q146 702 245 730.50Q344 759 467 759Q688 759 808 684.50Q928 610 949 448M491 363Q725 363 734 458L733 458Q737 529 687 562.50Q637 596 584 602.50Q531 609 466 610Q366 610 297 582Q228 554 228 493Q228 439 261 410.50Q294 382 350 372.50Q406 363 491 363Z"  horiz-adv-x="978" vert-adv-y="1000"  />

      
      <glyph glyph-name="uni3a" unicode="&#x3a;" d="M33 505L33 335L227 335L227 505L33 505M33 170L33 0L227 0L227 170L33 170Z"  horiz-adv-x="259" vert-adv-y="1000"  />

      
      <glyph glyph-name="uni3b" unicode="&#x3b;" d="M33 335L33 505L227 505L227 335L33 335M122 0L33 0L33 170L227 170L227 0L140-105L35-105L122 0Z"  horiz-adv-x="260" vert-adv-y="1000"  />

      
      <glyph glyph-name="uni3c" unicode="&#x3c;" d="M15 421L577 578L577 447L168 351L577 255L577 124L15 280L15 421Z"  horiz-adv-x="592" vert-adv-y="1000"  />

      
      <glyph glyph-name="uni3d" unicode="&#x3d;" d="M489 422L489 314L15 314L15 422L489 422M489 258L489 150L15 150L15 258L489 258Z"  horiz-adv-x="504" vert-adv-y="1000"  />

      
      <glyph glyph-name="uni3e" unicode="&#x3e;" d="M15 447L15 578L577 421L577 280L15 124L15 255L424 351L15 447Z"  horiz-adv-x="592" vert-adv-y="1000"  />

      
      <glyph glyph-name="uni3f" unicode="&#x3f;" d="M426 762Q527 762 617 746.50Q707 731 777.50 675.50Q848 620 848 511Q848 383 763.50 346.50Q679 310 584 310Q529 310 501.50 296.50Q474 283 466 262.50Q458 242 458 214L267 214Q267 310 307.50 362Q348 414 443 417Q509 417 582 437.50Q655 458 655 514Q655 565 588 587.50Q521 610 425 609Q334 608 271 580Q208 552 208 494L18 495Q18 653 143.50 707.50Q269 762 426 762M268 0L267 170L460 170L461 0L268 0Z"  horiz-adv-x="865" vert-adv-y="1000"  />

      
      <glyph glyph-name="uni40" unicode="&#x40;" d="M709 818Q838 818 935 773Q1032 728 1084.50 647.50Q1137 567 1137 463Q1137 404 1119 339Q1093 249 1044 191.50Q995 134 936 108Q877 82 816 82Q764 82 720.50 99.50Q677 117 656 146Q621 118 581 102.50Q541 87 500 87Q442 87 397.50 110.50Q353 134 328.50 176Q304 218 304 271Q304 306 314 339Q334 407 385 465Q436 523 505 557Q574 591 644 591Q701 591 737 560L745 590L882 590L806 327Q795 289 795 260Q795 225 811.50 214Q828 203 856 203L862 203Q904 203 936 233.50Q968 264 989 339Q1007 402 1007 454Q1007 582 913 646Q819 710 670 710Q558 710 455 658Q352 606 279 521Q206 436 178 339Q163 287 163 236Q163 160 197 98Q231 36 297.50 0Q364-36 457-36Q527-36 582.50-19Q638-2 707 30L775-54Q703-92 608.50-120.50Q514-149 432-149Q309-149 218-103.50Q127-58 78.50 22Q30 102 30 205Q30 272 50 339Q88 473 187 582.50Q286 692 423.50 755Q561 818 709 818M530 194Q588 194 624 236Q660 278 677 339Q689 380 689 411Q689 484 611 484Q552 484 507.50 439.50Q463 395 447 339Q440 317 440 291Q440 249 462 222Q484 195 530 194Z"  horiz-adv-x="1164" vert-adv-y="1000"  />

      
      <glyph glyph-name="uni41" unicode="&#x41;" d="M1010 0L797 0L720 142L277 142L200 0L-13 0L389 740L609 740L1010 0M499 551L359 294L638 294L499 551Z"  horiz-adv-x="997" vert-adv-y="1000"  />

      
      <glyph glyph-name="uni42" unicode="&#x42;" d="M797 388Q881 371 924 329.50Q967 288 967 211L967 207Q967 125 923 80Q879 35 801 17.50Q723 0 605-1L603-1L563-1L48 0L48 740L651 740Q767 739 836 692Q905 645 905 559L905 555Q905 490 878 449Q851 408 797 388M702 526Q702 563 685 579.50Q668 596 640.50 600Q613 604 562 604L561 604L245 604L245 448L485 446L562 446Q616 446 641 449Q666 452 684 469Q702 486 702 526M595 147Q656 147 686 151.50Q716 156 734 175Q752 194 752 236Q752 277 734 295.50Q716 314 686 318Q656 322 595 322L594 322L245 322L245 149Q462 149 554 147L595 147Z"  horiz-adv-x="994" vert-adv-y="1000"  />

      
      <glyph glyph-name="uni43" unicode="&#x43;" d="M28 369Q28 480 91.50 569Q155 658 264.50 708.50Q374 759 508 759Q624 759 719.50 721.50Q815 684 878.50 614.50Q942 545 967 451L751 450Q734 496 694 529Q654 562 604 579Q554 596 509 596Q444 596 382.50 569Q321 542 282 490.50Q243 439 243 369Q243 298 280 247.50Q317 197 378 170.50Q439 144 509 144Q583 144 649.50 181Q716 218 749 286L967 286Q940 191 876 122.50Q812 54 718 17Q624-20 508-20Q375-20 265 31Q155 82 91.50 171Q28 260 28 369Z"  horiz-adv-x="995" vert-adv-y="1000"  />

      
      <glyph glyph-name="uni44" unicode="&#x44;" d="M865 369Q865 264 811.50 180Q758 96 659 48Q560 0 430 0L430-1L217-1L217 0L48 0L48 740L429 740Q560 740 659 692Q758 644 811.50 560Q865 476 865 369M439 173Q535 173 597.50 223Q660 273 660 369Q660 423 630 468.50Q600 514 549.50 540.50Q499 567 439 567L255 567L255 173L439 173Z"  horiz-adv-x="892" vert-adv-y="1000"  />

      
      <glyph glyph-name="uni45" unicode="&#x45;" d="M739 302L255 302L255 154L823 158L823 0L48 0L48 740L823 740L824 583L255 583L255 457L739 457L739 302Z"  horiz-adv-x="856" vert-adv-y="1000"  />

      
      <glyph glyph-name="uni46" unicode="&#x46;" d="M823 740L823 583L255 583L255 454L739 454L739 302L255 302L255 0L48 0L48 740L823 740Z"  horiz-adv-x="855" vert-adv-y="1000"  />

      
      <glyph glyph-name="uni47" unicode="&#x47;" d="M969 0L838 0L818 70Q756 27 677 3.50Q598-20 507-20Q373-20 263.50 31Q154 82 91 171Q28 260 28 369Q28 480 91.50 569Q155 658 265 708Q375 758 507 758Q618 758 713.50 724.50Q809 691 875 625.50Q941 560 963 466L746 466Q721 532 653.50 563Q586 594 508 594Q437 594 378.50 566.50Q320 539 286.50 488Q253 437 253 369Q253 299 287.50 248Q322 197 380.50 170.50Q439 144 508 144Q579 144 641 173Q703 202 737 259L513 259L513 381L967 381L967 299L969 0Z"  horiz-adv-x="997" vert-adv-y="1000"  />

      
      <glyph glyph-name="uni48" unicode="&#x48;" d="M255 471L695 471L695 740L903 740L903 0L695 0L695 302L255 302L255 0L48 0L48 740L255 740L255 471Z"  horiz-adv-x="950" vert-adv-y="1000"  />

      
      <glyph glyph-name="uni49" unicode="&#x49;" d="M255 0L48 0L48 740L255 740L255 0Z"  horiz-adv-x="303" vert-adv-y="1000"  />

      
      <glyph glyph-name="uni4a" unicode="&#x4a;" d="M769 740L769 295Q769 224 736.50 157.50Q704 91 621 45.50Q538 0 398 0Q266 0 182.50 54.50Q99 109 63.50 181.50Q28 254 28 313L225 313Q225 272 246 235Q267 198 308 175.50Q349 153 405 153Q454 153 490.50 172.50Q527 192 546.50 224.50Q566 257 566 295L566 740L769 740Z"  horiz-adv-x="816" vert-adv-y="1000"  />

      
      <glyph glyph-name="uni4b" unicode="&#x4b;" d="M426 401L860 0L591 0L255 323L255 0L48 0L48 740L255 740L255 471L573 740L845 740L426 401Z"  horiz-adv-x="847" vert-adv-y="1000"  />

      
      <glyph glyph-name="uni4c" unicode="&#x4c;" d="M255 740L255 164L743 164L743 0L48 0L48 740L255 740Z"  horiz-adv-x="775" vert-adv-y="1000"  />

      
      <glyph glyph-name="uni4d" unicode="&#x4d;" d="M1064 740L1064 0L856 0L856 398L662 0L464 0L255 406L255 0L48 0L48 740L291 740L562 200L825 740L1064 740Z"  horiz-adv-x="1111" vert-adv-y="1000"  />

      
      <glyph glyph-name="uni4e" unicode="&#x4e;" d="M255 0L48 0L48 740L255 0M958 0L750 0L958 0M750 251L750 740L958 740L958 0L750 0L255 490L255 0L48 0L48 740L255 740L750 251Z"  horiz-adv-x="1005" vert-adv-y="1000"  />

      
      <glyph glyph-name="uni4f" unicode="&#x4f;" d="M499 756Q633 756 740 705.50Q847 655 908 566.50Q969 478 969 367Q969 257 908 169Q847 81 740 30.50Q633-20 499-20Q370-20 261.50 30.50Q153 81 89 169.50Q25 258 25 367Q25 477 88.50 566Q152 655 261 705.50Q370 756 499 756M499 143Q564 143 622 169.50Q680 196 716 246.50Q752 297 752 367Q752 436 716 487.50Q680 539 622 566Q564 593 499 593Q432 593 373.50 566.50Q315 540 280 489Q245 438 245 369Q245 299 280.50 247.50Q316 196 374.50 169.50Q433 143 499 143Z"  horiz-adv-x="994" vert-adv-y="1000"  />

      
      <glyph glyph-name="uni50" unicode="&#x50;" d="M589 740Q682 740 753.50 709Q825 678 864.50 622.50Q904 567 904 494L904 490Q904 369 826.50 304.50Q749 240 607 240L256 240L256 0L48 0L48 740L589 740M557 393Q612 393 641.50 397.50Q671 402 691.50 422.50Q712 443 712 489Q712 536 691.50 557.50Q671 579 640.50 584Q610 589 557 589L520 589Q497 589 440.50 588.50Q384 588 255 588L255 393L556 393L557 393Z"  horiz-adv-x="931" vert-adv-y="1000"  />

      
      <glyph glyph-name="uni51" unicode="&#x51;" d="M988 367Q988 280 948.50 205.50Q909 131 838 78Q767 25 673 0L814-143L465-143L465-18Q346-8 246 44.50Q146 97 87 181.50Q28 266 28 367Q28 477 95.50 566Q163 655 275.50 705.50Q388 756 517 756Q651 756 758.50 705.50Q866 655 927 566.50Q988 478 988 367M519 145Q585 145 643 171.50Q701 198 736.50 248.50Q772 299 772 367Q772 436 736.50 487.50Q701 539 643 566Q585 593 519 593Q454 593 390.50 565.50Q327 538 286.50 486.50Q246 435 246 367Q246 300 286.50 249Q327 198 390.50 171.50Q454 145 519 145Z"  horiz-adv-x="1015" vert-adv-y="1000"  />

      
      <glyph glyph-name="uni52" unicode="&#x52;" d="M662 1L457 240L248 240L248 1L48 1L48 741L589 741Q682 741 753.50 710Q825 679 864.50 623.50Q904 568 904 495L904 491Q904 396 848.50 334Q793 272 695 251L910 1L662 1M703 489Q703 537 684 559Q665 581 635 586Q605 591 550 591Q526 591 509 590Q427 588 248 588L248 393L549 393L550 393Q605 393 635 397.50Q665 402 684 423Q703 444 703 489Z"  horiz-adv-x="935" vert-adv-y="1000"  />

      
      <glyph glyph-name="uni53" unicode="&#x53;" d="M557 435Q662 435 739 422Q816 409 867.50 366Q919 323 919 239Q919 85 784 31Q649-23 481-23Q316-23 172 32.50Q28 88 28 244L243 246Q243 191 285.50 164Q328 137 378.50 130.50Q429 124 488 124Q578 124 643 150Q708 176 709 234L709 235Q709 278 644.50 290.50Q580 303 489 303L488 303L427 303Q307 303 224 315.50Q141 328 84.50 373.50Q28 419 28 511Q28 762 481 762Q642 762 780.50 707Q919 652 919 495L706 495Q706 551 641 580Q576 609 483 613Q382 613 311.50 589Q241 565 241 514Q241 434 473 434L557 435Z"  horiz-adv-x="947" vert-adv-y="1000"  />

      
      <glyph glyph-name="uni54" unicode="&#x54;" d="M33 569L33 740L889 740L33 569M889 740L889 568L567 568L567 0L359 0L359 568L33 568L33 740L889 740Z"  horiz-adv-x="921" vert-adv-y="1000"  />

      
      <glyph glyph-name="uni55" unicode="&#x55;" d="M722 740L934 740L934 355Q934 247 876 161Q818 75 719 27Q620-21 499-21Q374-21 270 27Q166 75 105 160.50Q44 246 43 354L43 740L258 740L258 351Q258 279 296.50 234.50Q335 190 390 171Q445 152 500 152Q549 152 600 171Q651 190 686.50 234.50Q722 279 722 351L722 740Z"  horiz-adv-x="977" vert-adv-y="1000"  />

      
      <glyph glyph-name="uni56" unicode="&#x56;" d="M403 0L793 740L403 0L403 0M512 207L793 740L1008 740L628 0L393 0L8 740L238 740L512 207Z"  horiz-adv-x="1015" vert-adv-y="1000"  />

      
      <glyph glyph-name="uni57" unicode="&#x57;" d="M1037 251L1288 740L1503 740L1123 0L908 0L757 448L608 0L393 0L8 740L228 740L480 250L649 740L869 740L1037 251Z"  horiz-adv-x="1510" vert-adv-y="1000"  />

      
      <glyph glyph-name="uni58" unicode="&#x58;" d="M665 740L904 740L612 367L904 0L665 0L459 256L253 0L13 0L306 367L13 740L253 740L459 482L665 740Z"  horiz-adv-x="917" vert-adv-y="1000"  />

      
      <glyph glyph-name="uni59" unicode="&#x59;" d="M718 740L943 740L588 311L588 0L363 0L363 310L8 740L233 740L471 450L718 740Z"  horiz-adv-x="951" vert-adv-y="1000"  />

      
      <glyph glyph-name="uni5a" unicode="&#x5a;" d="M35 741L869 740L869 569L310 171L863 170L863-1L28 0L28 171L31 171L588 570L35 571L35 741Z"  horiz-adv-x="896" vert-adv-y="1000"  />

      
      <glyph glyph-name="uni5b" unicode="&#x5b;" d="M290 910L290 785L198 785L198 8L290 8L290-117L25-117L25 910L290 910Z"  horiz-adv-x="315" vert-adv-y="1000"  />

      
      <glyph glyph-name="uni5c" unicode="&#x5c;" d="M-30 840L160 840L564-117L374-117L-30 840Z"  horiz-adv-x="524" vert-adv-y="1000"  />

      
      <glyph glyph-name="uni5d" unicode="&#x5d;" d="M25 910L290 910L290-117L25-117L25 8L117 8L117 785L25 785L25 910Z"  horiz-adv-x="315" vert-adv-y="1000"  />

      
      <glyph glyph-name="uni5e" unicode="&#x5e;" d="M383 741L539 496L373 496L277 651L181 496L15 496L172 741L383 741Z"  horiz-adv-x="554" vert-adv-y="1000"  />

      
      <glyph glyph-name="uni5f" unicode="&#x5f;" d="M2-151L2-27L702-27L702-151L2-151Z"  horiz-adv-x="704" vert-adv-y="1000"  />

      
      <glyph glyph-name="uni60" unicode="&#x60;" d="M78 910L282 910L352 777L198 777L78 910Z"  horiz-adv-x="442" vert-adv-y="1000"  />

      
      <glyph glyph-name="uni61" unicode="&#x61;" d="M388 569Q526 569 635 521Q744 473 744 352L744 0L562 0L546 83L546 88Q523 42 440.50 16Q358-10 261-10Q183-10 103 22.50Q23 55 23 163Q23 266 91.50 299Q160 332 239 332Q392 332 451 334.50Q510 337 528.50 345Q547 353 548 374L548 385Q547 420 498.50 439.50Q450 459 387 459Q319 459 271.50 436.50Q224 414 224 367L29 367Q29 444 87.50 489Q146 534 227.50 551.50Q309 569 388 569M547 272Q499 250 400 250Q333 250 295.50 245Q258 240 240.50 227.50Q223 215 222 191Q225 158 256.50 141Q288 124 363 124Q462 124 504.50 167Q547 210 547 271L547 272Z"  horiz-adv-x="776" vert-adv-y="1000"  />

      
      <glyph glyph-name="uni62" unicode="&#x62;" d="M753 282L753 282Q752 200 718.50 133.50Q685 67 625 28.50Q565-10 488-10Q307-13 220 66L208 2L33 2L33 739L228 739L228 484Q316 565 488 565Q566 565 626 525.50Q686 486 719 422Q752 358 753 287L753 284L753 282M387 109Q441 109 479 133.50Q517 158 535.50 198Q554 238 555 284Q554 324 535 361Q516 398 478.50 421.50Q441 445 387 445Q316 445 272 397.50Q228 350 228 275L228 274Q228 231 248 193Q268 155 304.50 132Q341 109 387 109Z"  horiz-adv-x="770" vert-adv-y="1000"  />

      
      <glyph glyph-name="uni63" unicode="&#x63;" d="M18 270Q18 354 67 421.50Q116 489 201 527Q286 565 389 565Q537 565 626.50 500.50Q716 436 744 327L548 327Q536 376 493.50 407.50Q451 439 390 439Q310 439 263 392.50Q216 346 216 270Q216 225 236 186.50Q256 148 294.50 124.50Q333 101 386 101Q449 101 492.50 132.50Q536 164 547 212L743 212Q733 148 684 93.50Q635 39 557.50 7Q480-25 389-25Q288-25 203 13.50Q118 52 68 119.50Q18 187 18 270Z"  horiz-adv-x="761" vert-adv-y="1000"  />

      
      <glyph glyph-name="uni64" unicode="&#x64;" d="M545 739L740 739L740 2L565 2L553 66Q466-13 285-10Q208-10 148 28.50Q88 67 54.50 133.50Q21 200 20 282L20 284L20 287Q21 358 54 422Q87 486 147 525.50Q207 565 285 565Q457 565 545 484L545 739M386 109Q432 109 468.50 132Q505 155 525 193Q545 231 545 274L545 275Q545 350 501 397.50Q457 445 386 445Q332 445 294.50 421.50Q257 398 238 361Q219 324 218 284Q219 238 237.50 198Q256 158 294 133.50Q332 109 386 109Z"  horiz-adv-x="773" vert-adv-y="1000"  />

      
      <glyph glyph-name="uni65" unicode="&#x65;" d="M760 255L216 255Q222 185 268.50 139.50Q315 94 397 94Q441 94 479.50 109Q518 124 541.50 152Q565 180 565 216L760 216Q760 147 716.50 93.50Q673 40 591 10Q509-20 396-20Q292-20 205 17Q118 54 68 121.50Q18 189 18 276Q18 364 68 431.50Q118 499 204 535.50Q290 572 396 572Q504 572 586 536Q668 500 713.50 434.50Q759 369 760 281L760 276L761 276L760 276L760 255M397 461Q261 461 226 344L558 344Q531 461 397 461Z"  horiz-adv-x="779" vert-adv-y="1000"  />

      
      <glyph glyph-name="uni66" unicode="&#x66;" d="M451 487L451 347L334 347L334 0L139 0L139 347L28 347L28 487L139 487L139 553Q139 672 214.50 715Q290 758 384 758Q417 758 443 754L443 591Q393 591 371 584Q349 577 341.50 556Q334 535 334 487L451 487Z"  horiz-adv-x="478" vert-adv-y="1000"  />

      
      <glyph glyph-name="uni67" unicode="&#x67;" d="M739 545L739 0Q735-79 681.50-126.50Q628-174 553.50-193.50Q479-213 406-213Q297-213 227.50-205.50Q158-198 102.50-160Q47-122 47-39L246-39Q246-101 371-101L406-100Q454-100 498.50-77Q543-54 543 10L543 59Q457-18 285-18Q209-18 149 21.50Q89 61 54.50 125Q20 189 18 260L18 264L18 267Q19 349 53 415Q87 481 147.50 519Q208 557 285 557Q463 562 547 482L562 545L739 545M384 102Q456 102 499.50 147Q543 192 543 276L543 279Q543 320 523.50 357Q504 394 469 416.50Q434 439 390 439Q310 439 265.50 390.50Q221 342 219 267Q221 194 264 148Q307 102 384 102Z"  horiz-adv-x="775" vert-adv-y="1000"  />

      
      <glyph glyph-name="uni68" unicode="&#x68;" d="M460 563Q571 563 642.50 483Q714 403 714 225L714 0L519 0L519 222Q519 286 510.50 330Q502 374 471 404Q440 434 377 434Q311 434 278.50 403Q246 372 237 327.50Q228 283 228 220L228 0L33 0L33 740L228 740L228 478Q304 563 460 563Z"  horiz-adv-x="741" vert-adv-y="1000"  />

      
      <glyph glyph-name="uni69" unicode="&#x69;" d="M228 740L33 740L33 604L228 604L228 740M228 0L33 0L33 575L228 575L228 0Z"  horiz-adv-x="260" vert-adv-y="1000"  />

      
      <glyph glyph-name="uni6a" unicode="&#x6a;" d="M49 605L49 740L244 740L244 605L49 605M49 576L244 576L244-24Q244-137 169-178.50Q94-220 0-220Q-33-220-60-216L-60-58Q-13-58 10.50-50Q34-42 41.50-26.50Q49-11 49 19L49 576Z"  horiz-adv-x="284" vert-adv-y="1000"  />

      
      <glyph glyph-name="uni6b" unicode="&#x6b;" d="M420 301L723 0L491 0L223 260L223 0L28 0L28 740L223 740L223 340L452 545L688 545L420 301Z"  horiz-adv-x="718" vert-adv-y="1000"  />

      
      <glyph glyph-name="uni6c" unicode="&#x6c;" d="M228 0L33 0L33 740L228 740L228 0Z"  horiz-adv-x="268" vert-adv-y="1000"  />

      
      <glyph glyph-name="uni6d" unicode="&#x6d;" d="M935 563Q1016 563 1066 530Q1116 497 1140.50 423Q1165 349 1165 225L1165 0L970 0L970 222Q970 316 941.50 375.50Q913 435 832 435Q775 435 745.50 407Q716 379 707 334.50Q698 290 698 225L698 0L502 0L502 222Q502 318 476 376.50Q450 435 369 435Q304 435 273.50 405Q243 375 235.50 327Q228 279 228 195L228 0L33 0L33 545L201 545L223 474Q263 519 323.50 541Q384 563 469 563Q544 563 591 535Q638 507 664 444Q698 508 764 535.50Q830 563 935 563Z"  horiz-adv-x="1195" vert-adv-y="1000"  />

      
      <glyph glyph-name="uni6e" unicode="&#x6e;" d="M464 563Q582 563 648 485Q714 407 714 225L714 0L519 0L519 222Q519 286 510.50 330Q502 374 471 404Q440 434 377 434Q311 434 278.50 404.50Q246 375 237 330.50Q228 286 228 220L228 0L33 0L33 545L228 545L228 475Q306 563 464 563Z"  horiz-adv-x="741" vert-adv-y="1000"  />

      
      <glyph glyph-name="uni6f" unicode="&#x6f;" d="M400 568Q505 568 589 530Q673 492 720.50 424.50Q768 357 768 273Q768 190 720.50 122.50Q673 55 589 17Q505-21 400-21Q299-21 211 17.50Q123 56 70.50 123.50Q18 191 18 273Q18 356 70.50 423.50Q123 491 211 529.50Q299 568 400 568M400 105Q472 105 523 148Q574 191 574 273Q574 356 523 399Q472 442 400 442Q354 442 311.50 423.50Q269 405 242 367Q215 329 215 273Q215 218 242 180Q269 142 311.50 123.50Q354 105 400 105Z"  horiz-adv-x="785" vert-adv-y="1000"  />

      
      <glyph glyph-name="uni70" unicode="&#x70;" d="M753 260L753 260Q751 189 718 125Q685 61 625 21.50Q565-18 488-18Q316-18 228 63L228-190L33-190L33 545L208 545L222 472Q310 560 488 557Q565 557 624.50 519Q684 481 718 415Q752 349 753 267L753 264L753 260M387 102Q440 102 477.50 126Q515 150 534.50 187.50Q554 225 555 265Q553 339 511 389Q469 439 387 439Q341 439 304.50 416Q268 393 248 355Q228 317 228 274L228 272Q228 197 272 149.50Q316 102 387 102Z"  horiz-adv-x="776" vert-adv-y="1000"  />

      
      <glyph glyph-name="uni71" unicode="&#x71;" d="M570 545L745 545L745-190L550-190L550 63Q462-18 290-18Q213-18 153 21.50Q93 61 60 125Q27 189 25 260L25 264L25 267Q26 349 60 415Q94 481 153.50 519Q213 557 290 557Q472 560 558 481L570 545M391 102Q462 102 506 149.50Q550 197 550 272L550 274Q550 317 530 355Q510 393 473.50 416Q437 439 391 439Q337 439 299.50 415Q262 391 243 351Q224 311 223 265Q225 197 268.50 149.50Q312 102 391 102Z"  horiz-adv-x="773" vert-adv-y="1000"  />

      
      <glyph glyph-name="uni72" unicode="&#x72;" d="M226 454Q304 539 471 555L471 399L346 399Q277 399 252.50 351Q228 303 228 221L228 0L33 0L33 545L207 545L226 454Z"  horiz-adv-x="498" vert-adv-y="1000"  />

      
      <glyph glyph-name="uni73" unicode="&#x73;" d="M370 320Q398 320 413 321L466 322Q580 322 651 291.50Q722 261 722 170Q722 52 618 14.50Q514-23 376-23Q241-23 129 18.50Q17 60 17 178L214 177Q214 127 262 108.50Q310 90 376 90Q457 90 494 108Q531 126 531 164Q531 201 488.50 211.50Q446 222 410 222Q374 222 366 222Q273 222 200 231.50Q127 241 72 277.50Q17 314 17 388Q17 499 125 533Q233 567 374 567Q508 567 615 526Q722 485 722 367L528 368Q528 420 473 437Q418 454 374 454Q214 454 214 390Q214 322 370 320Z"  horiz-adv-x="740" vert-adv-y="1000"  />

      
      <glyph glyph-name="uni74" unicode="&#x74;" d="M332 545L436 545L436 405L332 405L332 0L137 0L137 405L28 405L28 545L137 545L137 663L332 756L332 545Z"  horiz-adv-x="463" vert-adv-y="1000"  />

      
      <glyph glyph-name="uni75" unicode="&#x75;" d="M519 545L714 545L714 0L519 0L519 70Q441-18 283-18Q164-18 98.50 60.50Q33 139 33 320L33 545L228 545L228 323Q228 260 236.50 215.50Q245 171 276 141Q307 111 369 111Q459 111 489 170.50Q519 230 519 325L519 545Z"  horiz-adv-x="746" vert-adv-y="1000"  />

      
      <glyph glyph-name="uni76" unicode="&#x76;" d="M402 164L570 545L785 546L512 0L290 0L18 545L233 545L402 164Z"  horiz-adv-x="802" vert-adv-y="1000"  />

      
      <glyph glyph-name="uni77" unicode="&#x77;" d="M777 183L934 545L1145 545L873 0L693 0L579 335L464 0L285 0L13 545L223 545L380 182L482 545L675 545L777 183Z"  horiz-adv-x="1157" vert-adv-y="1000"  />

      
      <glyph glyph-name="uni78" unicode="&#x78;" d="M570 545L796 545L550 270L796 0L570 0L397 188L224 0L-3 0L245 270L-3 545L224 545L397 355L570 545Z"  horiz-adv-x="793" vert-adv-y="1000"  />

      
      <glyph glyph-name="uni79" unicode="&#x79;" d="M838 545L508-123Q478-182 395-199.50Q312-217 205-217L204-54Q258-54 278.50-46Q299-38 299-24Q299-18 296-10Q293-2 292 0L10 545L221 545L429 103L627 545L838 545Z"  horiz-adv-x="848" vert-adv-y="1000"  />

      
      <glyph glyph-name="uni7a" unicode="&#x7a;" d="M33 545L703 544L703 406L297 138L703 137L703 0L33 1L33 139L447 407L33 408L33 545Z"  horiz-adv-x="735" vert-adv-y="1000"  />

      
      <glyph glyph-name="uni7b" unicode="&#x7b;" d="M294 100Q294 54 309 31Q324 8 350 1.50Q376-5 421-5L422-123Q327-123 273.50-113.50Q220-104 180-57Q140-10 138 94L138 279Q137 329 107 344.50Q77 360 11 360L10 360L11 394L10 427L11 427L11 427Q55 427 81.50 432.50Q108 438 123 456Q138 474 138 510L138 694Q141 798 180.50 844.50Q220 891 273 900Q326 909 422 909L421 792Q376 792 350 785.50Q324 779 309 756Q294 733 294 687L294 503Q288 428 228 394Q290 360 294 284L294 100Z"  horiz-adv-x="447" vert-adv-y="1000"  />

      
      <glyph glyph-name="uni7c" unicode="&#x7c;" d="M213-185L20-185L20 798L213 798L213-185Z"  horiz-adv-x="233" vert-adv-y="1000"  />

      
      <glyph glyph-name="uni7d" unicode="&#x7d;" d="M437 360L436 360L436 360Q370 360 340 344.50Q310 329 309 279L309 94Q307-10 267-57Q227-104 173.50-113.50Q120-123 25-123L26-5Q71-5 97 1.50Q123 8 138 31Q153 54 153 100L153 284Q157 360 219 394Q159 428 153 503L153 687Q153 733 138 756Q123 779 97 785.50Q71 792 26 792L25 909Q121 909 174 900Q227 891 266.50 844.50Q306 798 309 694L309 510Q309 474 324 456Q339 438 365.50 432.50Q392 427 436 427L437 427L437 360Z"  horiz-adv-x="447" vert-adv-y="1000"  />

      
      <glyph glyph-name="uni7e" unicode="&#x7e;" d="M15 431Q69 474 124 474Q155 474 184 463Q213 452 252 431Q294 409 322 398.50Q350 388 380 388Q435 388 489 431L489 306Q436 264 383 264Q352 264 322.50 275.50Q293 287 254 309Q214 331 185 342Q156 353 126 353Q70 353 15 306L15 431Z"  horiz-adv-x="505" vert-adv-y="1000"  />

      
      <glyph glyph-name="unia1" unicode="&#xa1;" d="M250 545L56 545L56 375L250 375L250 545M268-190L38-190L103 330L203 330L268-190Z"  horiz-adv-x="305" vert-adv-y="1000"  />

      
      <glyph glyph-name="unia2" unicode="&#xa2;" d="M386 101Q449 101 492.50 132.50Q536 164 547 212L743 212Q734 152 690 100.50Q646 49 577 15.50Q508-18 425-24L425-96L318-96L318-20Q233-7 164.50 33.50Q96 74 57 135.50Q18 197 18 270Q18 344 56.50 405.50Q95 467 163 507.50Q231 548 318 560L318 631L425 631L425 564Q556 556 636.50 492.50Q717 429 744 327L548 327Q536 376 493.50 407.50Q451 439 390 439Q310 439 263 392.50Q216 346 216 270Q216 225 236 186.50Q256 148 294.50 124.50Q333 101 386 101Z"  horiz-adv-x="736" vert-adv-y="1000"  />

      
      <glyph glyph-name="unia3" unicode="&#xa3;" d="M841 136L841 0L32 0L32 136Q76 182 95.50 215Q115 248 117 275L15 275L14 402L65 402Q42 452 42 510Q42 591 99.50 650.50Q157 710 250 741Q343 772 446 772Q547 772 634 741.50Q721 711 775 649Q829 587 829 497L624 497Q624 544 596.50 578Q569 612 524 629.50Q479 647 429 647Q380 647 337.50 630.50Q295 614 268.50 581Q242 548 242 501Q242 448 266 402L618 402L619 275L317 275Q317 218 247 136L841 136Z"  horiz-adv-x="856" vert-adv-y="1000"  />

      
      <glyph glyph-name="unia4" unicode="&#xa4;" d="M560 453Q560 379 518 316L578 256L515 193L455 253Q393 210 317 210Q241 210 179 253L118 192L55 255L117 316Q74 378 74 453Q74 528 117 590L55 652L118 715L180 653Q242 696 317 696Q391 696 454 654L515 714L578 651L517 591Q560 529 560 453M317 332Q368 332 403 367.50Q438 403 438 453Q438 504 402.50 539Q367 574 317 574Q267 574 231.50 538.50Q196 503 196 453Q196 403 231.50 367.50Q267 332 317 332Z"  horiz-adv-x="633" vert-adv-y="1000"  />

      
      <glyph glyph-name="unia5" unicode="&#xa5;" d="M718 740L943 740L641 375L785 375L785 267L588 267L588 233L785 233L785 125L588 125L588 0L363 0L363 125L170 125L170 233L363 233L363 267L170 267L170 375L309 375L8 740L233 740L471 450L718 740Z"  horiz-adv-x="961" vert-adv-y="1000"  />

      
      <glyph glyph-name="unia6" unicode="&#xa6;" d="M213 398L20 398L20 798L213 798L213 398M213-185L20-185L20 215L213 215L213-185Z"  horiz-adv-x="382" vert-adv-y="1000"  />

      
      <glyph glyph-name="unia7" unicode="&#xa7;" d="M790 387Q790 308 726 260Q790 222 790 145Q790 30 675-10.50Q560-51 416-51Q271-51 150.50-9.50Q30 32 30 150L229 150Q229 100 289.50 84.50Q350 69 416 69Q589 69 589 142Q589 176 541 186Q493 196 416 196L414 196L404 196Q36 199 30 381L30 384L30 387Q33 443 88 480Q30 518 30 592Q30 709 146.50 745Q263 781 416 781Q560 781 675 740Q790 699 790 581L593 581Q593 623 541.50 642.50Q490 662 416 661Q338 662 284 646.50Q230 631 230 595Q230 536 407 536L474 536Q561 536 628 526.50Q695 517 742.50 484Q790 451 790 387M229 385Q231 338 284 326Q337 314 408 314Q486 314 539 326.50Q592 339 592 384Q592 416 534 427Q476 438 411 438L339 437Q293 433 261.50 421Q230 409 229 385Z"  horiz-adv-x="805" vert-adv-y="1000"  />

      
      <glyph glyph-name="unia8" unicode="&#xa8;" d="M177 783Q139 783 113.50 809Q88 835 88 872Q88 909 114 935Q140 961 177 961Q214 961 239.50 935Q265 909 265 872Q265 835 239.50 809Q214 783 177 783M428 783Q390 783 364 809Q338 835 338 872Q338 909 364.50 935Q391 961 428 961Q465 961 490.50 935Q516 909 516 872Q516 835 490.50 809Q465 783 428 783Z"  horiz-adv-x="603" vert-adv-y="1000"  />

      
      <glyph glyph-name="unia9" unicode="&#xa9;" d="M382-21Q279-21 192.50 29.50Q106 80 55.50 166.50Q5 253 5 356Q5 459 55.50 545.50Q106 632 192.50 682.50Q279 733 382 733Q485 733 571.50 682.50Q658 632 708.50 545Q759 458 759 356Q759 253 708.50 166.50Q658 80 571.50 29.50Q485-21 382-21M382 71Q460 71 525.50 109.50Q591 148 629.50 213.50Q668 279 668 356Q668 433 629.50 498.50Q591 564 525.50 603Q460 642 382 642Q305 642 239.50 603.50Q174 565 135.50 499.50Q97 434 97 356Q97 279 135.50 213.50Q174 148 239.50 109.50Q305 71 382 71M165 352Q165 402 194 442Q223 482 273.50 505Q324 528 385 528Q473 528 526.50 490Q580 452 597 387L483 387Q475 416 449 435Q423 454 386 454Q337 454 308.50 426Q280 398 280 352Q280 311 308 280.50Q336 250 384 250Q422 250 448.50 269Q475 288 483 317L596 317Q590 279 560.50 247Q531 215 485 196Q439 177 385 177Q326 177 275.50 200Q225 223 195 263Q165 303 165 352Z"  horiz-adv-x="764" vert-adv-y="1000"  />

      
      <glyph glyph-name="uniaa" unicode="&#xaa;" d="M258 545Q347 545 417.50 514Q488 483 488 405L488 178L370 178L360 232L360 233Q344 204 291 188Q238 172 176 172Q127 172 75 193.50Q23 215 23 284Q23 350 67 371.50Q111 393 162 393Q260 393 298.50 394.50Q337 396 349 401Q361 406 362 419L362 426Q361 448 329.50 461Q298 474 257 474Q213 474 183 459.50Q153 445 153 415L27 415Q27 486 99.50 515.50Q172 545 258 545M361 354Q333 340 266 340Q203 340 177.50 332Q152 324 151 301Q153 280 173.50 269Q194 258 242 258Q306 258 333.50 285.50Q361 313 361 353L361 354Z"  horiz-adv-x="520" vert-adv-y="1000"  />

      
      <glyph glyph-name="uniab" unicode="&#xab;" d="M193 276L401 65L207 65L5 277L197 479L393 479L193 276M458 276L666 65L472 65L270 277L462 479L658 479L458 276Z"  horiz-adv-x="677" vert-adv-y="1000"  />

      
      <glyph glyph-name="uniac" unicode="&#xac;" d="M618 426L618 163L461 163L461 301L15 301L15 426L618 426Z"  horiz-adv-x="617" vert-adv-y="1000"  />

      
      <glyph glyph-name="uniae" unicode="&#xae;" d="M202 493L202 474L202 493M274 733Q346 733 408.50 696.50Q471 660 507.50 598Q544 536 544 464Q544 391 507.50 329Q471 267 409 230.50Q347 194 274 194Q201 194 139 230.50Q77 267 41 329Q5 391 5 464Q5 537 41 599Q77 661 139 697Q201 733 274 733M274 279Q324 279 367 304Q410 329 435 371.50Q460 414 460 464Q460 513 434.50 555.50Q409 598 366.50 623.50Q324 649 274 649Q224 649 181.50 624.50Q139 600 114.50 557.50Q90 515 90 464Q90 414 114.50 371.50Q139 329 181.50 304Q224 279 274 279M406 504Q406 476 389.50 457.50Q373 439 344 432L408 358L336 358L276 428L208 428L208 358L151 358L151 579L311 579Q353 579 379.50 558.50Q406 538 406 506L406 504M301 474Q326 474 337.50 478.50Q349 483 349 503Q349 525 338 530Q327 535 301 535Q295 535 278 534.50Q261 534 208 534L208 474L301 474Z"  horiz-adv-x="549" vert-adv-y="1000"  />

      
      <glyph glyph-name="uniaf" unicode="&#xaf;" d="M85 785L85 910L522 910L522 785L85 785Z"  horiz-adv-x="600" vert-adv-y="1000"  />

      
      <glyph glyph-name="unib0" unicode="&#xb0;" d="M182 352Q134 352 93.50 376Q53 400 29 440.50Q5 481 5 529Q5 577 29 617.50Q53 658 93.50 682Q134 706 182 706Q231 706 271.50 682.50Q312 659 335.50 618Q359 577 359 529Q359 481 335 440.50Q311 400 270.50 376Q230 352 182 352M182 447Q217 447 240.50 471Q264 495 264 529Q264 563 240 587Q216 611 182 611Q148 611 124 587Q100 563 100 529Q100 495 124 471Q148 447 182 447Z"  horiz-adv-x="364" vert-adv-y="1000"  />

      
      <glyph glyph-name="unib1" unicode="&#xb1;" d="M293 494L462 494L462 386L293 386L293 216L185 216L185 386L15 386L15 494L185 494L185 663L293 663L293 494M462 194L462 86L15 86L15 194L462 194Z"  horiz-adv-x="477" vert-adv-y="1000"  />

      
      <glyph glyph-name="unib2" unicode="&#xb2;" d="M626 349L626 248L32 248L32 300Q32 383 66.50 427.50Q101 472 147.50 487.50Q194 503 264 514Q278 517 299 519Q320 521 331 523Q406 532 441.50 543Q477 554 477 582Q477 616 431 632Q385 648 319 647Q255 647 211 627.50Q167 608 167 568L32 568Q32 665 122 702.50Q212 740 318 740Q432 740 522.50 709Q613 678 613 581Q613 530 574.50 500Q536 470 488.50 457Q441 444 379 435Q350 431 348 430Q274 421 214 398Q154 375 154 349L626 349Z"  horiz-adv-x="651" vert-adv-y="1000"  />

      
      <glyph glyph-name="unib3" unicode="&#xb3;" d="M625 407Q624 318 543 276.50Q462 235 333 235Q188 235 110 286.50Q32 338 32 436L160 436Q160 381 210.50 355Q261 329 333 330Q398 329 443.50 347.50Q489 366 490 407Q489 426 479.50 436Q470 446 444.50 450.50Q419 455 368 455L249 455L249 541L368 541Q426 541 455.50 552.50Q485 564 485 590Q485 618 441 632Q397 646 333 647Q261 647 210.50 631.50Q160 616 160 582L32 582Q32 675 126 708Q220 741 333 741Q447 741 529.50 713.50Q612 686 612 598Q612 531 544 508Q620 482 625 409L625 407L625 407Z"  horiz-adv-x="661" vert-adv-y="1000"  />

      
      <glyph glyph-name="unib4" unicode="&#xb4;" d="M91 777L161 910L365 910L245 777L91 777Z"  horiz-adv-x="442" vert-adv-y="1000"  />

      
      <glyph glyph-name="unib6" unicode="&#xb6;" d="M942 568L843 568L843-120L647-120L647 568L510 568L510-120L314-120L314 240Q220 240 151 273Q82 306 47 362Q12 418 15 486Q15 609 91.50 674Q168 739 314 740L942 740L942 568Z"  horiz-adv-x="957" vert-adv-y="1000"  />

      
      <glyph glyph-name="unib7" unicode="&#xb7;" d="M79 240Q63 240 51.50 251.50Q40 263 40 279Q40 295 51.50 306.50Q63 318 79 318Q96 318 107 307Q118 296 118 279Q118 263 106.50 251.50Q95 240 79 240Z"  horiz-adv-x="158" vert-adv-y="1000"  />

      
      <glyph glyph-name="unib8" unicode="&#xb8;" d="M350-42Q407-42 454.50-60.50Q502-79 501-132Q501-200 431.50-223.50Q362-247 280-247Q197-247 134-223.50Q71-200 71-124L177-124Q177-158 211-168Q245-178 269-178Q295-178 326-171Q357-164 357-135Q357-115 335.50-109.50Q314-104 294.50-104Q275-104 269-104L231-104L231 98L350 98L350-42Z"  horiz-adv-x="600" vert-adv-y="1000"  />

      
      <glyph glyph-name="unib9" unicode="&#xb9;" d="M252 740L252 262L125 262L125 581L18 581L18 658Q153 658 153 740L252 740Z"  horiz-adv-x="277" vert-adv-y="1000"  />

      
      <glyph glyph-name="uniba" unicode="&#xba;" d="M264 550Q332 550 386 525.50Q440 501 471 457.50Q502 414 502 359Q502 305 471 262Q440 219 386 194.50Q332 170 264 170Q199 170 142.50 194.50Q86 219 52 262.50Q18 306 18 359Q18 413 52 456.50Q86 500 142.50 525Q199 550 264 550M264 251Q311 251 344 278.50Q377 306 377 359Q377 412 344 440Q311 468 264 468Q217 468 181 440Q145 412 145 359Q145 306 181 278.50Q217 251 264 251Z"  horiz-adv-x="519" vert-adv-y="1000"  />

      
      <glyph glyph-name="unibb" unicode="&#xbb;" d="M205 65L11 65L219 276L19 479L215 479L407 277L205 65M470 65L276 65L484 276L284 479L480 479L672 277L470 65Z"  horiz-adv-x="677" vert-adv-y="1000"  />

      
      <glyph glyph-name="unibf" unicode="&#xbf;" d="M598 545L599 375L406 375L405 545L598 545M848 50Q848-108 722.50-163Q597-218 440-218Q339-218 249-202.50Q159-187 88.50-131.50Q18-76 18 34Q18 162 102.50 198.50Q187 235 282 235Q337 235 364.50 248.50Q392 262 400 282.50Q408 303 408 331L599 331Q599 234 558.50 182.50Q518 131 422 128Q356 128 283 107.50Q210 87 210 31Q210-20 277-43Q344-66 441-65Q532-63 595-35Q658-7 658 51L848 50Z"  horiz-adv-x="865" vert-adv-y="1000"  />

      
      <glyph glyph-name="unic0" unicode="&#xc0;" d="M1010 0L797 0L720 142L277 142L200 0L-13 0L389 740L609 740L1010 0M499 551L359 294L638 294L499 551M300 910L504 910L574 777L420 777L300 910Z"  horiz-adv-x="997" vert-adv-y="1000"  />

      
      <glyph glyph-name="unic1" unicode="&#xc1;" d="M1010 0L797 0L720 142L277 142L200 0L-13 0L389 740L609 740L1010 0M499 551L359 294L638 294L499 551M422 777L492 910L696 910L576 777L422 777Z"  horiz-adv-x="997" vert-adv-y="1000"  />

      
      <glyph glyph-name="unic2" unicode="&#xc2;" d="M1010 0L797 0L720 142L277 142L200 0L-13 0L389 740L609 740L1010 0M499 551L359 294L638 294L499 551M591 910L771 774L582 774L491 842L406 774L217 774L387 910L591 910Z"  horiz-adv-x="997" vert-adv-y="1000"  />

      
      <glyph glyph-name="unic3" unicode="&#xc3;" d="M1010 0L797 0L720 142L277 142L200 0L-13 0L389 740L609 740L1010 0M499 551L359 294L638 294L499 551M741 930Q741 788 622 788Q594 788 567 794Q540 800 519.50 806.50Q499 813 492 815Q458 824 422 824Q361 824 361 789L243 789Q243 931 363 931Q395 931 424 923.50Q453 916 492 904Q526 895 562 895Q623 895 623 930L741 930Z"  horiz-adv-x="997" vert-adv-y="1000"  />

      
      <glyph glyph-name="unic4" unicode="&#xc4;" d="M1010 0L797 0L720 142L277 142L200 0L-13 0L389 740L609 740L1010 0M499 551L359 294L638 294L499 551M371 783Q333 783 307.50 809Q282 835 282 872Q282 909 308 935Q334 961 371 961Q408 961 433.50 935Q459 909 459 872Q459 835 433.50 809Q408 783 371 783M622 783Q584 783 558 809Q532 835 532 872Q532 909 558.50 935Q585 961 622 961Q659 961 684.50 935Q710 909 710 872Q710 835 684.50 809Q659 783 622 783Z"  horiz-adv-x="997" vert-adv-y="1000"  />

      
      <glyph glyph-name="unic5" unicode="&#xc5;" d="M1010 0L797 0L720 142L277 142L200 0L-13 0L389 740L609 740L1010 0M499 551L359 294L638 294L499 551M334 935Q334 979 356 1016Q378 1053 415.50 1075Q453 1097 497 1097Q540 1097 577.50 1075Q615 1053 637 1015.50Q659 978 659 935Q659 891 637 853.50Q615 816 578 794Q541 772 497 772Q453 772 415.50 794Q378 816 356 853.50Q334 891 334 935M425 935Q425 905 446 884Q467 863 497 863Q527 863 548 884Q569 905 569 935Q569 964 547.50 985.50Q526 1007 497 1007Q467 1007 446 986Q425 965 425 935Z"  horiz-adv-x="997" vert-adv-y="1000"  />

      
      <glyph glyph-name="unic6" unicode="&#xc6;" d="M1391 302L908 302L908 154L1475 158L1475 0L700 0L700 128L325 128L218 0L-13 0L608 740L1475 740L1476 583L908 583L908 457L1391 457L1391 302M700 570L450 279L700 279L700 570Z"  horiz-adv-x="1508" vert-adv-y="1000"  />

      
      <glyph glyph-name="unic7" unicode="&#xc7;" d="M509 144Q583 144 649.50 181Q716 218 749 286L967 286Q929 154 822 74Q715-6 559-18L559-49Q616-49 663.50-67.50Q711-86 710-139Q710-207 640.50-230.50Q571-254 489-254Q406-254 343-230.50Q280-207 280-131L386-131Q386-165 419.50-174.50Q453-184 478-184Q566-184 566-142Q566-113 506-111L440-111L440-16Q323-4 229 49.50Q135 103 81.50 186Q28 269 28 369Q28 480 91.50 569Q155 658 264.50 708.50Q374 759 508 759Q624 759 719.50 721.50Q815 684 878.50 614.50Q942 545 967 451L751 450Q734 496 694 529Q654 562 604 579Q554 596 509 596Q444 596 382.50 569Q321 542 282 490.50Q243 439 243 369Q243 298 280 247.50Q317 197 378 170.50Q439 144 509 144Z"  horiz-adv-x="995" vert-adv-y="1000"  />

      
      <glyph glyph-name="unic8" unicode="&#xc8;" d="M739 302L255 302L255 154L823 158L823 0L48 0L48 740L823 740L824 583L255 583L255 457L739 457L739 302M254 908L458 908L528 775L374 775L254 908Z"  horiz-adv-x="856" vert-adv-y="1000"  />

      
      <glyph glyph-name="unic9" unicode="&#xc9;" d="M739 302L255 302L255 154L823 158L823 0L48 0L48 740L823 740L824 583L255 583L255 457L739 457L739 302M306 777L376 910L580 910L460 777L306 777Z"  horiz-adv-x="856" vert-adv-y="1000"  />

      
      <glyph glyph-name="unica" unicode="&#xca;" d="M739 302L255 302L255 154L823 158L823 0L48 0L48 740L823 740L824 583L255 583L255 457L739 457L739 302M527 910L707 774L518 774L427 842L342 774L153 774L323 910L527 910Z"  horiz-adv-x="856" vert-adv-y="1000"  />

      
      <glyph glyph-name="unicb" unicode="&#xcb;" d="M739 302L255 302L255 154L823 158L823 0L48 0L48 740L823 740L824 583L255 583L255 457L739 457L739 302M300 783Q262 783 236.50 809Q211 835 211 872Q211 909 237 935Q263 961 300 961Q337 961 362.50 935Q388 909 388 872Q388 835 362.50 809Q337 783 300 783M551 783Q513 783 487 809Q461 835 461 872Q461 909 487.50 935Q514 961 551 961Q588 961 613.50 935Q639 909 639 872Q639 835 613.50 809Q588 783 551 783Z"  horiz-adv-x="856" vert-adv-y="1000"  />

      
      <glyph glyph-name="unicc" unicode="&#xcc;" d="M255 0L48 0L48 740L255 740L255 0M-52 910L152 910L222 777L68 777L-52 910Z"  horiz-adv-x="303" vert-adv-y="1000"  />

      
      <glyph glyph-name="unicd" unicode="&#xcd;" d="M255 0L48 0L48 740L255 740L255 0M71 777L141 910L345 910L225 777L71 777Z"  horiz-adv-x="303" vert-adv-y="1000"  />

      
      <glyph glyph-name="unice" unicode="&#xce;" d="M255 0L48 0L48 740L255 740L255 0M249 910L429 774L240 774L149 842L64 774L-125 774L45 910L249 910Z"  horiz-adv-x="303" vert-adv-y="1000"  />

      
      <glyph glyph-name="unicf" unicode="&#xcf;" d="M255 0L48 0L48 740L255 740L255 0M26 783Q-12 783-37.50 809Q-63 835-63 872Q-63 909-37 935Q-11 961 26 961Q63 961 88.50 935Q114 909 114 872Q114 835 88.50 809Q63 783 26 783M277 783Q239 783 213 809Q187 835 187 872Q187 909 213.50 935Q240 961 277 961Q314 961 339.50 935Q365 909 365 872Q365 835 339.50 809Q314 783 277 783Z"  horiz-adv-x="303" vert-adv-y="1000"  />

      
      <glyph glyph-name="unid0" unicode="&#xd0;" d="M884 369Q884 264 830.50 180Q777 96 678 48Q579 0 449 0L449-1L236-1L236 0L67 0L67 293L0 293L0 451L67 451L67 740L448 740Q579 740 678 692Q777 644 830.50 560Q884 476 884 369M458 173Q554 173 616.50 223Q679 273 679 369Q679 423 649 468.50Q619 514 568.50 540.50Q518 567 458 567L274 567L274 451L473 451L473 293L274 293L274 173L458 173Z"  horiz-adv-x="911" vert-adv-y="1000"  />

      
      <glyph glyph-name="unid1" unicode="&#xd1;" d="M255 0L48 0L48 740L255 0M958 0L750 0L958 0M750 251L750 740L958 740L958 0L750 0L255 490L255 0L48 0L48 740L255 740L750 251M744 940Q744 798 625 798Q597 798 570 804Q543 810 522.50 816.50Q502 823 495 825Q461 834 425 834Q364 834 364 799L246 799Q246 941 366 941Q398 941 427 933.50Q456 926 495 914Q529 905 565 905Q626 905 626 940L744 940Z"  horiz-adv-x="1005" vert-adv-y="1000"  />

      
      <glyph glyph-name="unid2" unicode="&#xd2;" d="M499 756Q633 756 740 705.50Q847 655 908 566.50Q969 478 969 367Q969 257 908 169Q847 81 740 30.50Q633-20 499-20Q370-20 261.50 30.50Q153 81 89 169.50Q25 258 25 367Q25 477 88.50 566Q152 655 261 705.50Q370 756 499 756M499 143Q564 143 622 169.50Q680 196 716 246.50Q752 297 752 367Q752 436 716 487.50Q680 539 622 566Q564 593 499 593Q432 593 373.50 566.50Q315 540 280 489Q245 438 245 369Q245 299 280.50 247.50Q316 196 374.50 169.50Q433 143 499 143M302 915L506 915L576 782L422 782L302 915Z"  horiz-adv-x="994" vert-adv-y="1000"  />

      
      <glyph glyph-name="unid3" unicode="&#xd3;" d="M499 756Q633 756 740 705.50Q847 655 908 566.50Q969 478 969 367Q969 257 908 169Q847 81 740 30.50Q633-20 499-20Q370-20 261.50 30.50Q153 81 89 169.50Q25 258 25 367Q25 477 88.50 566Q152 655 261 705.50Q370 756 499 756M499 143Q564 143 622 169.50Q680 196 716 246.50Q752 297 752 367Q752 436 716 487.50Q680 539 622 566Q564 593 499 593Q432 593 373.50 566.50Q315 540 280 489Q245 438 245 369Q245 299 280.50 247.50Q316 196 374.50 169.50Q433 143 499 143M397 777L467 910L671 910L551 777L397 777Z"  horiz-adv-x="994" vert-adv-y="1000"  />

      
      <glyph glyph-name="unid4" unicode="&#xd4;" d="M499 756Q633 756 740 705.50Q847 655 908 566.50Q969 478 969 367Q969 257 908 169Q847 81 740 30.50Q633-20 499-20Q370-20 261.50 30.50Q153 81 89 169.50Q25 258 25 367Q25 477 88.50 566Q152 655 261 705.50Q370 756 499 756M499 143Q564 143 622 169.50Q680 196 716 246.50Q752 297 752 367Q752 436 716 487.50Q680 539 622 566Q564 593 499 593Q432 593 373.50 566.50Q315 540 280 489Q245 438 245 369Q245 299 280.50 247.50Q316 196 374.50 169.50Q433 143 499 143M597 910L777 774L588 774L497 842L412 774L223 774L393 910L597 910Z"  horiz-adv-x="994" vert-adv-y="1000"  />

      
      <glyph glyph-name="unid5" unicode="&#xd5;" d="M499 756Q633 756 740 705.50Q847 655 908 566.50Q969 478 969 367Q969 257 908 169Q847 81 740 30.50Q633-20 499-20Q370-20 261.50 30.50Q153 81 89 169.50Q25 258 25 367Q25 477 88.50 566Q152 655 261 705.50Q370 756 499 756M499 143Q564 143 622 169.50Q680 196 716 246.50Q752 297 752 367Q752 436 716 487.50Q680 539 622 566Q564 593 499 593Q432 593 373.50 566.50Q315 540 280 489Q245 438 245 369Q245 299 280.50 247.50Q316 196 374.50 169.50Q433 143 499 143M741 940Q741 798 622 798Q594 798 567 804Q540 810 519.50 816.50Q499 823 492 825Q458 834 422 834Q361 834 361 799L243 799Q243 941 363 941Q395 941 424 933.50Q453 926 492 914Q526 905 562 905Q623 905 623 940L741 940Z"  horiz-adv-x="994" vert-adv-y="1000"  />

      
      <glyph glyph-name="unid6" unicode="&#xd6;" d="M499 756Q633 756 740 705.50Q847 655 908 566.50Q969 478 969 367Q969 257 908 169Q847 81 740 30.50Q633-20 499-20Q370-20 261.50 30.50Q153 81 89 169.50Q25 258 25 367Q25 477 88.50 566Q152 655 261 705.50Q370 756 499 756M499 143Q564 143 622 169.50Q680 196 716 246.50Q752 297 752 367Q752 436 716 487.50Q680 539 622 566Q564 593 499 593Q432 593 373.50 566.50Q315 540 280 489Q245 438 245 369Q245 299 280.50 247.50Q316 196 374.50 169.50Q433 143 499 143M373 783Q335 783 309.50 809Q284 835 284 872Q284 909 310 935Q336 961 373 961Q410 961 435.50 935Q461 909 461 872Q461 835 435.50 809Q410 783 373 783M624 783Q586 783 560 809Q534 835 534 872Q534 909 560.50 935Q587 961 624 961Q661 961 686.50 935Q712 909 712 872Q712 835 686.50 809Q661 783 624 783Z"  horiz-adv-x="994" vert-adv-y="1000"  />

      
      <glyph glyph-name="unid7" unicode="&#xd7;" d="M331 519L408 443L288 323L408 203L331 127L212 247L92 127L15 203L135 323L15 443L92 519L212 400L331 519Z"  horiz-adv-x="423" vert-adv-y="1000"  />

      
      <glyph glyph-name="unid8" unicode="&#xd8;" d="M838 644Q900 591 934.50 520Q969 449 969 367Q969 257 908 169Q847 81 740 30.50Q633-20 499-20Q409-20 331 4L289-49L79-49L180 78Q107 132 66 206Q25 280 25 367Q25 477 88.50 566Q152 655 261 705.50Q370 756 499 756Q602 756 692 725L735 779L945 779L838 644M245 369Q245 285 297 226L579 582Q538 593 499 593Q432 593 373.50 566.50Q315 540 280 489Q245 438 245 369M499 143Q564 143 622 169.50Q680 196 716 246.50Q752 297 752 367Q752 434 715 489L445 148Q475 143 499 143Z"  horiz-adv-x="992" vert-adv-y="1000"  />

      
      <glyph glyph-name="unid9" unicode="&#xd9;" d="M722 740L934 740L934 355Q934 247 876 161Q818 75 719 27Q620-21 499-21Q374-21 270 27Q166 75 105 160.50Q44 246 43 354L43 740L258 740L258 351Q258 279 296.50 234.50Q335 190 390 171Q445 152 500 152Q549 152 600 171Q651 190 686.50 234.50Q722 279 722 351L722 740M292 910L496 910L566 777L412 777L292 910Z"  horiz-adv-x="977" vert-adv-y="1000"  />

      
      <glyph glyph-name="unida" unicode="&#xda;" d="M722 740L934 740L934 355Q934 247 876 161Q818 75 719 27Q620-21 499-21Q374-21 270 27Q166 75 105 160.50Q44 246 43 354L43 740L258 740L258 351Q258 279 296.50 234.50Q335 190 390 171Q445 152 500 152Q549 152 600 171Q651 190 686.50 234.50Q722 279 722 351L722 740M407 777L477 910L681 910L561 777L407 777Z"  horiz-adv-x="977" vert-adv-y="1000"  />

      
      <glyph glyph-name="unidb" unicode="&#xdb;" d="M722 740L934 740L934 355Q934 247 876 161Q818 75 719 27Q620-21 499-21Q374-21 270 27Q166 75 105 160.50Q44 246 43 354L43 740L258 740L258 351Q258 279 296.50 234.50Q335 190 390 171Q445 152 500 152Q549 152 600 171Q651 190 686.50 234.50Q722 279 722 351L722 740M585 910L765 774L576 774L485 842L400 774L211 774L381 910L585 910Z"  horiz-adv-x="977" vert-adv-y="1000"  />

      
      <glyph glyph-name="unidc" unicode="&#xdc;" d="M722 740L934 740L934 355Q934 247 876 161Q818 75 719 27Q620-21 499-21Q374-21 270 27Q166 75 105 160.50Q44 246 43 354L43 740L258 740L258 351Q258 279 296.50 234.50Q335 190 390 171Q445 152 500 152Q549 152 600 171Q651 190 686.50 234.50Q722 279 722 351L722 740M358 783Q320 783 294.50 809Q269 835 269 872Q269 909 295 935Q321 961 358 961Q395 961 420.50 935Q446 909 446 872Q446 835 420.50 809Q395 783 358 783M609 783Q571 783 545 809Q519 835 519 872Q519 909 545.50 935Q572 961 609 961Q646 961 671.50 935Q697 909 697 872Q697 835 671.50 809Q646 783 609 783Z"  horiz-adv-x="977" vert-adv-y="1000"  />

      
      <glyph glyph-name="unidd" unicode="&#xdd;" d="M718 740L943 740L588 311L588 0L363 0L363 310L8 740L233 740L471 450L718 740M393 777L463 910L667 910L547 777L393 777Z"  horiz-adv-x="951" vert-adv-y="1000"  />

      
      <glyph glyph-name="unide" unicode="&#xde;" d="M589 645Q682 645 753.50 614Q825 583 864.50 527.50Q904 472 904 399L904 395Q904 275 820.50 210Q737 145 594 145L256 145L256 0L48 0L48 740L255 740L255 645L589 645M557 298Q612 298 641.50 302.50Q671 307 691.50 327.50Q712 348 712 394Q712 441 691.50 462.50Q671 484 640.50 489Q610 494 557 494L520 494Q497 494 440.50 493.50Q384 493 255 493L256 298L556 298L557 298Z"  horiz-adv-x="931" vert-adv-y="1000"  />

      
      <glyph glyph-name="unidf" unicode="&#xdf;" d="M642 382Q756 382 834 342Q912 302 912 186Q912 111 857 71Q802 31 674 15.50Q546 0 308 0L308 139L411 138Q544 138 622 154Q700 170 700 220Q700 246 684 260Q668 274 645.50 280.50Q623 287 584 293Q543 300 519 306.50Q495 313 478.50 329Q462 345 462 373Q462 406 479 421Q496 436 530 449Q564 462 581.50 477Q599 492 599 527Q599 582 552 610.50Q505 639 423 639Q338 639 296.50 599.50Q255 560 245 513.50Q235 467 235 417L235 0L28 0L28 417Q28 589 130 669.50Q232 750 434 750Q554 750 631 719Q708 688 743 639.50Q778 591 778 537Q778 496 760 460.50Q742 425 711 403.50Q680 382 642 382Z"  horiz-adv-x="940" vert-adv-y="1000"  />

      
      <glyph glyph-name="unie0" unicode="&#xe0;" d="M388 569Q526 569 635 521Q744 473 744 352L744 0L562 0L546 83L546 88Q523 42 440.50 16Q358-10 261-10Q183-10 103 22.50Q23 55 23 163Q23 266 91.50 299Q160 332 239 332Q392 332 451 334.50Q510 337 528.50 345Q547 353 548 374L548 385Q547 420 498.50 439.50Q450 459 387 459Q319 459 271.50 436.50Q224 414 224 367L29 367Q29 444 87.50 489Q146 534 227.50 551.50Q309 569 388 569M547 272Q499 250 400 250Q333 250 295.50 245Q258 240 240.50 227.50Q223 215 222 191Q225 158 256.50 141Q288 124 363 124Q462 124 504.50 167Q547 210 547 271L547 272M181 730L385 730L455 597L301 597L181 730Z"  horiz-adv-x="776" vert-adv-y="1000"  />

      
      <glyph glyph-name="unie1" unicode="&#xe1;" d="M388 569Q526 569 635 521Q744 473 744 352L744 0L562 0L546 83L546 88Q523 42 440.50 16Q358-10 261-10Q183-10 103 22.50Q23 55 23 163Q23 266 91.50 299Q160 332 239 332Q392 332 451 334.50Q510 337 528.50 345Q547 353 548 374L548 385Q547 420 498.50 439.50Q450 459 387 459Q319 459 271.50 436.50Q224 414 224 367L29 367Q29 444 87.50 489Q146 534 227.50 551.50Q309 569 388 569M547 272Q499 250 400 250Q333 250 295.50 245Q258 240 240.50 227.50Q223 215 222 191Q225 158 256.50 141Q288 124 363 124Q462 124 504.50 167Q547 210 547 271L547 272M274 597L344 730L548 730L428 597L274 597Z"  horiz-adv-x="776" vert-adv-y="1000"  />

      
      <glyph glyph-name="unie2" unicode="&#xe2;" d="M388 569Q526 569 635 521Q744 473 744 352L744 0L562 0L546 83L546 88Q523 42 440.50 16Q358-10 261-10Q183-10 103 22.50Q23 55 23 163Q23 266 91.50 299Q160 332 239 332Q392 332 451 334.50Q510 337 528.50 345Q547 353 548 374L548 385Q547 420 498.50 439.50Q450 459 387 459Q319 459 271.50 436.50Q224 414 224 367L29 367Q29 444 87.50 489Q146 534 227.50 551.50Q309 569 388 569M547 272Q499 250 400 250Q333 250 295.50 245Q258 240 240.50 227.50Q223 215 222 191Q225 158 256.50 141Q288 124 363 124Q462 124 504.50 167Q547 210 547 271L547 272M483 730L663 594L474 594L383 662L298 594L109 594L279 730L483 730Z"  horiz-adv-x="776" vert-adv-y="1000"  />

      
      <glyph glyph-name="unie3" unicode="&#xe3;" d="M388 569Q526 569 635 521Q744 473 744 352L744 0L562 0L546 83L546 88Q523 42 440.50 16Q358-10 261-10Q183-10 103 22.50Q23 55 23 163Q23 266 91.50 299Q160 332 239 332Q392 332 451 334.50Q510 337 528.50 345Q547 353 548 374L548 385Q547 420 498.50 439.50Q450 459 387 459Q319 459 271.50 436.50Q224 414 224 367L29 367Q29 444 87.50 489Q146 534 227.50 551.50Q309 569 388 569M547 272Q499 250 400 250Q333 250 295.50 245Q258 240 240.50 227.50Q223 215 222 191Q225 158 256.50 141Q288 124 363 124Q462 124 504.50 167Q547 210 547 271L547 272M630 749Q630 607 511 607Q483 607 456 613Q429 619 408.50 625.50Q388 632 381 634Q347 643 311 643Q250 643 250 608L132 608Q132 750 252 750Q284 750 313 742.50Q342 735 381 723Q415 714 451 714Q512 714 512 749L630 749Z"  horiz-adv-x="776" vert-adv-y="1000"  />

      
      <glyph glyph-name="unie4" unicode="&#xe4;" d="M388 569Q526 569 635 521Q744 473 744 352L744 0L562 0L546 83L546 88Q523 42 440.50 16Q358-10 261-10Q183-10 103 22.50Q23 55 23 163Q23 266 91.50 299Q160 332 239 332Q392 332 451 334.50Q510 337 528.50 345Q547 353 548 374L548 385Q547 420 498.50 439.50Q450 459 387 459Q319 459 271.50 436.50Q224 414 224 367L29 367Q29 444 87.50 489Q146 534 227.50 551.50Q309 569 388 569M547 272Q499 250 400 250Q333 250 295.50 245Q258 240 240.50 227.50Q223 215 222 191Q225 158 256.50 141Q288 124 363 124Q462 124 504.50 167Q547 210 547 271L547 272M261 603Q223 603 197.50 629Q172 655 172 692Q172 729 198 755Q224 781 261 781Q298 781 323.50 755Q349 729 349 692Q349 655 323.50 629Q298 603 261 603M512 603Q474 603 448 629Q422 655 422 692Q422 729 448.50 755Q475 781 512 781Q549 781 574.50 755Q600 729 600 692Q600 655 574.50 629Q549 603 512 603Z"  horiz-adv-x="776" vert-adv-y="1000"  />

      
      <glyph glyph-name="unie5" unicode="&#xe5;" d="M388 569Q526 569 635 521Q744 473 744 352L744 0L562 0L546 83L546 88Q523 42 440.50 16Q358-10 261-10Q183-10 103 22.50Q23 55 23 163Q23 266 91.50 299Q160 332 239 332Q392 332 451 334.50Q510 337 528.50 345Q547 353 548 374L548 385Q547 420 498.50 439.50Q450 459 387 459Q319 459 271.50 436.50Q224 414 224 367L29 367Q29 444 87.50 489Q146 534 227.50 551.50Q309 569 388 569M547 272Q499 250 400 250Q333 250 295.50 245Q258 240 240.50 227.50Q223 215 222 191Q225 158 256.50 141Q288 124 363 124Q462 124 504.50 167Q547 210 547 271L547 272M215 755Q215 799 237 836Q259 873 296.50 895Q334 917 378 917Q421 917 458.50 895Q496 873 518 835.50Q540 798 540 755Q540 711 518 673.50Q496 636 459 614Q422 592 378 592Q334 592 296.50 614Q259 636 237 673.50Q215 711 215 755M306 755Q306 725 327 704Q348 683 378 683Q408 683 429 704Q450 725 450 755Q450 784 428.50 805.50Q407 827 378 827Q348 827 327 806Q306 785 306 755Z"  horiz-adv-x="776" vert-adv-y="1000"  />

      
      <glyph glyph-name="unie6" unicode="&#xe6;" d="M1299 255L755 255Q761 185 807.50 139.50Q854 94 936 94Q980 94 1018.50 109Q1057 124 1080.50 152Q1104 180 1104 216L1299 216Q1299 147 1255.50 93.50Q1212 40 1130 10Q1048-20 935-20Q835-20 752 13.50Q669 47 618 108Q601 78 552.50 51Q504 24 432 7Q360-10 276-10Q194-10 108.50 22.50Q23 55 23 163Q23 266 91.50 299Q160 332 239 332Q400 332 459.50 335Q519 338 533.50 347.50Q548 357 548 383Q548 419 499.50 439Q451 459 387 459Q319 459 271.50 437Q224 415 224 367L29 367Q29 444 87.50 489Q146 534 227.50 551.50Q309 569 388 569Q467 569 544 552.50Q621 536 673 496Q723 533 790.50 552.50Q858 572 935 572Q1043 572 1125 536Q1207 500 1252.50 434.50Q1298 369 1299 281L1299 276L1300 276L1299 276L1299 255M936 461Q800 461 765 344L1097 344Q1070 461 936 461M557 271L557 276L557 278L554 276L557 271M363 124Q430 124 473 146.50Q516 169 535 203.50Q554 238 554 276Q511 250 400 250Q333 250 295.50 245Q258 240 240.50 227.50Q223 215 222 191Q225 158 256.50 141Q288 124 363 124Z"  horiz-adv-x="1324" vert-adv-y="1000"  />

      
      <glyph glyph-name="unie7" unicode="&#xe7;" d="M386 101Q449 101 492.50 132.50Q536 164 547 212L743 212Q734 155 694 105.50Q654 56 590 22.50Q526-11 448-21L448-60Q505-60 552.50-78.50Q600-97 599-150Q599-218 529.50-241.50Q460-265 378-265Q294-265 231.50-241.50Q169-218 169-142L275-142Q275-176 308.50-185.50Q342-195 367-195Q455-195 455-153Q455-124 395-122L329-122L329-21Q241-10 170 30.50Q99 71 58.50 133.50Q18 196 18 270Q18 354 67 421.50Q116 489 201 527Q286 565 389 565Q537 565 626.50 500.50Q716 436 744 327L548 327Q536 376 493.50 407.50Q451 439 390 439Q310 439 263 392.50Q216 346 216 270Q216 225 236 186.50Q256 148 294.50 124.50Q333 101 386 101Z"  horiz-adv-x="761" vert-adv-y="1000"  />

      
      <glyph glyph-name="unie8" unicode="&#xe8;" d="M760 255L216 255Q222 185 268.50 139.50Q315 94 397 94Q441 94 479.50 109Q518 124 541.50 152Q565 180 565 216L760 216Q760 147 716.50 93.50Q673 40 591 10Q509-20 396-20Q292-20 205 17Q118 54 68 121.50Q18 189 18 276Q18 364 68 431.50Q118 499 204 535.50Q290 572 396 572Q504 572 586 536Q668 500 713.50 434.50Q759 369 760 281L760 276L761 276L760 276L760 255M397 461Q261 461 226 344L558 344Q531 461 397 461M200 730L404 730L474 597L320 597L200 730Z"  horiz-adv-x="779" vert-adv-y="1000"  />

      
      <glyph glyph-name="unie9" unicode="&#xe9;" d="M760 255L216 255Q222 185 268.50 139.50Q315 94 397 94Q441 94 479.50 109Q518 124 541.50 152Q565 180 565 216L760 216Q760 147 716.50 93.50Q673 40 591 10Q509-20 396-20Q292-20 205 17Q118 54 68 121.50Q18 189 18 276Q18 364 68 431.50Q118 499 204 535.50Q290 572 396 572Q504 572 586 536Q668 500 713.50 434.50Q759 369 760 281L760 276L761 276L760 276L760 255M397 461Q261 461 226 344L558 344Q531 461 397 461M299 597L369 730L573 730L453 597L299 597Z"  horiz-adv-x="779" vert-adv-y="1000"  />

      
      <glyph glyph-name="uniea" unicode="&#xea;" d="M760 255L216 255Q222 185 268.50 139.50Q315 94 397 94Q441 94 479.50 109Q518 124 541.50 152Q565 180 565 216L760 216Q760 147 716.50 93.50Q673 40 591 10Q509-20 396-20Q292-20 205 17Q118 54 68 121.50Q18 189 18 276Q18 364 68 431.50Q118 499 204 535.50Q290 572 396 572Q504 572 586 536Q668 500 713.50 434.50Q759 369 760 281L760 276L761 276L760 276L760 255M397 461Q261 461 226 344L558 344Q531 461 397 461M490 730L670 594L481 594L390 662L305 594L116 594L286 730L490 730Z"  horiz-adv-x="779" vert-adv-y="1000"  />

      
      <glyph glyph-name="unieb" unicode="&#xeb;" d="M760 255L216 255Q222 185 268.50 139.50Q315 94 397 94Q441 94 479.50 109Q518 124 541.50 152Q565 180 565 216L760 216Q760 147 716.50 93.50Q673 40 591 10Q509-20 396-20Q292-20 205 17Q118 54 68 121.50Q18 189 18 276Q18 364 68 431.50Q118 499 204 535.50Q290 572 396 572Q504 572 586 536Q668 500 713.50 434.50Q759 369 760 281L760 276L761 276L760 276L760 255M397 461Q261 461 226 344L558 344Q531 461 397 461M268 603Q230 603 204.50 629Q179 655 179 692Q179 729 205 755Q231 781 268 781Q305 781 330.50 755Q356 729 356 692Q356 655 330.50 629Q305 603 268 603M519 603Q481 603 455 629Q429 655 429 692Q429 729 455.50 755Q482 781 519 781Q556 781 581.50 755Q607 729 607 692Q607 655 581.50 629Q556 603 519 603Z"  horiz-adv-x="779" vert-adv-y="1000"  />

      
      <glyph glyph-name="uniec" unicode="&#xec;" d="M-73 697L132 697L202 564L48 564L-73 697M221 0L26 0L26 545L221 545L221 0Z"  horiz-adv-x="254" vert-adv-y="1000"  />

      
      <glyph glyph-name="unied" unicode="&#xed;" d="M49 565L119 698L323 698L203 565L49 565M228 0L33 0L33 545L228 545L228 0Z"  horiz-adv-x="356" vert-adv-y="1000"  />

      
      <glyph glyph-name="uniee" unicode="&#xee;" d="M232 570L141 638L56 570L-133 570L37 706L241 706L421 570L232 570M238 0L43 0L43 545L238 545L238 0Z"  horiz-adv-x="288" vert-adv-y="1000"  />

      
      <glyph glyph-name="unief" unicode="&#xef;" d="M34 569Q-4 569-29.50 595Q-55 621-55 658Q-55 695-29 721Q-3 747 34 747Q71 747 97 721Q123 695 123 658Q123 621 97 595Q71 569 34 569M285 569Q248 569 222 595Q196 621 196 658Q196 695 222 721Q248 747 285 747Q322 747 347.50 721Q373 695 373 658Q373 621 347.50 595Q322 569 285 569M256 0L61 0L61 545L256 545L256 0Z"  horiz-adv-x="318" vert-adv-y="1000"  />

      
      <glyph glyph-name="unif0" unicode="&#xf0;" d="M666 483Q715 443 741.50 389Q768 335 768 273Q768 190 720.50 122.50Q673 55 589 17Q505-21 400-21Q299-21 211 17.50Q123 56 70.50 123.50Q18 191 18 273Q18 351 64.50 416Q111 481 190.50 520.50Q270 560 364 567L329 593L162 548L77 612L240 656L223 668Q162 710 124 739L334 739L393 696L550 738L634 675L480 633Q607 542 666 483M400 105Q446 105 485.50 123Q525 141 549.50 179Q574 217 574 272Q574 299 568 324Q553 382 506.50 412Q460 442 400 442Q354 442 311.50 423.50Q269 405 242 367Q215 329 215 273Q215 218 242 180Q269 142 311.50 123.50Q354 105 400 105Z"  horiz-adv-x="785" vert-adv-y="1000"  />

      
      <glyph glyph-name="unif1" unicode="&#xf1;" d="M464 563Q582 563 648 485Q714 407 714 225L714 0L519 0L519 222Q519 286 510.50 330Q502 374 471 404Q440 434 377 434Q311 434 278.50 404.50Q246 375 237 330.50Q228 286 228 220L228 0L33 0L33 545L228 545L228 475Q306 563 464 563M609 741Q609 599 490 599Q462 599 435 605Q408 611 387.50 617.50Q367 624 360 626Q326 635 290 635Q229 635 229 600L111 600Q111 742 231 742Q263 742 292 734.50Q321 727 360 715Q394 706 430 706Q491 706 491 741L609 741Z"  horiz-adv-x="741" vert-adv-y="1000"  />

      
      <glyph glyph-name="unif2" unicode="&#xf2;" d="M400 568Q505 568 589 530Q673 492 720.50 424.50Q768 357 768 273Q768 190 720.50 122.50Q673 55 589 17Q505-21 400-21Q299-21 211 17.50Q123 56 70.50 123.50Q18 191 18 273Q18 356 70.50 423.50Q123 491 211 529.50Q299 568 400 568M400 105Q472 105 523 148Q574 191 574 273Q574 356 523 399Q472 442 400 442Q354 442 311.50 423.50Q269 405 242 367Q215 329 215 273Q215 218 242 180Q269 142 311.50 123.50Q354 105 400 105M205 730L409 730L479 597L325 597L205 730Z"  horiz-adv-x="785" vert-adv-y="1000"  />

      
      <glyph glyph-name="unif3" unicode="&#xf3;" d="M400 568Q505 568 589 530Q673 492 720.50 424.50Q768 357 768 273Q768 190 720.50 122.50Q673 55 589 17Q505-21 400-21Q299-21 211 17.50Q123 56 70.50 123.50Q18 191 18 273Q18 356 70.50 423.50Q123 491 211 529.50Q299 568 400 568M400 105Q472 105 523 148Q574 191 574 273Q574 356 523 399Q472 442 400 442Q354 442 311.50 423.50Q269 405 242 367Q215 329 215 273Q215 218 242 180Q269 142 311.50 123.50Q354 105 400 105M302 597L372 730L576 730L456 597L302 597Z"  horiz-adv-x="785" vert-adv-y="1000"  />

      
      <glyph glyph-name="unif4" unicode="&#xf4;" d="M400 568Q505 568 589 530Q673 492 720.50 424.50Q768 357 768 273Q768 190 720.50 122.50Q673 55 589 17Q505-21 400-21Q299-21 211 17.50Q123 56 70.50 123.50Q18 191 18 273Q18 356 70.50 423.50Q123 491 211 529.50Q299 568 400 568M400 105Q472 105 523 148Q574 191 574 273Q574 356 523 399Q472 442 400 442Q354 442 311.50 423.50Q269 405 242 367Q215 329 215 273Q215 218 242 180Q269 142 311.50 123.50Q354 105 400 105M493 730L673 594L484 594L393 662L308 594L119 594L289 730L493 730Z"  horiz-adv-x="785" vert-adv-y="1000"  />

      
      <glyph glyph-name="unif5" unicode="&#xf5;" d="M400 568Q505 568 589 530Q673 492 720.50 424.50Q768 357 768 273Q768 190 720.50 122.50Q673 55 589 17Q505-21 400-21Q299-21 211 17.50Q123 56 70.50 123.50Q18 191 18 273Q18 356 70.50 423.50Q123 491 211 529.50Q299 568 400 568M400 105Q472 105 523 148Q574 191 574 273Q574 356 523 399Q472 442 400 442Q354 442 311.50 423.50Q269 405 242 367Q215 329 215 273Q215 218 242 180Q269 142 311.50 123.50Q354 105 400 105M642 734Q642 592 523 592Q495 592 468 598Q441 604 420.50 610.50Q400 617 393 619Q359 628 323 628Q262 628 262 593L144 593Q144 735 264 735Q296 735 325 727.50Q354 720 393 708Q427 699 463 699Q524 699 524 734L642 734Z"  horiz-adv-x="785" vert-adv-y="1000"  />

      
      <glyph glyph-name="unif6" unicode="&#xf6;" d="M400 568Q505 568 589 530Q673 492 720.50 424.50Q768 357 768 273Q768 190 720.50 122.50Q673 55 589 17Q505-21 400-21Q299-21 211 17.50Q123 56 70.50 123.50Q18 191 18 273Q18 356 70.50 423.50Q123 491 211 529.50Q299 568 400 568M400 105Q472 105 523 148Q574 191 574 273Q574 356 523 399Q472 442 400 442Q354 442 311.50 423.50Q269 405 242 367Q215 329 215 273Q215 218 242 180Q269 142 311.50 123.50Q354 105 400 105M268 603Q230 603 204.50 629Q179 655 179 692Q179 729 205 755Q231 781 268 781Q305 781 330.50 755Q356 729 356 692Q356 655 330.50 629Q305 603 268 603M519 603Q481 603 455 629Q429 655 429 692Q429 729 455.50 755Q482 781 519 781Q556 781 581.50 755Q607 729 607 692Q607 655 581.50 629Q556 603 519 603Z"  horiz-adv-x="785" vert-adv-y="1000"  />

      
      <glyph glyph-name="unif7" unicode="&#xf7;" d="M240 431Q209 431 188.50 451.50Q168 472 168 503Q168 533 188.50 554Q209 575 240 575Q270 575 291 554Q312 533 312 503Q312 472 291 451.50Q270 431 240 431M462 378L462 270L15 270L15 378L462 378M240 71Q209 71 188.50 91.50Q168 112 168 143Q168 173 188.50 194Q209 215 240 215Q270 215 291 194Q312 173 312 143Q312 112 291 91.50Q270 71 240 71Z"  horiz-adv-x="477" vert-adv-y="1000"  />

      
      <glyph glyph-name="unif8" unicode="&#xf8;" d="M626 505Q689 465 724.50 405Q760 345 760 273Q760 190 712.50 122.50Q665 55 581 17Q497-21 392-21Q318-21 252 0L229-31L89-31L147 47Q83 88 46.50 146.50Q10 205 10 273Q10 356 62.50 423.50Q115 491 203 529.50Q291 568 392 568Q460 568 520 551L543 582L683 582L626 505M208 273Q208 215 240 173L436 438Q417 442 393 442Q347 442 304.50 423.50Q262 405 235 367Q208 329 208 273M393 105Q465 105 515.50 148Q566 191 566 273Q566 338 533 380L335 113Q360 105 393 105Z"  horiz-adv-x="775" vert-adv-y="1000"  />

      
      <glyph glyph-name="unif9" unicode="&#xf9;" d="M519 545L714 545L714 0L519 0L519 70Q441-18 283-18Q164-18 98.50 60.50Q33 139 33 320L33 545L228 545L228 323Q228 260 236.50 215.50Q245 171 276 141Q307 111 369 111Q459 111 489 170.50Q519 230 519 325L519 545M178 730L382 730L452 597L298 597L178 730Z"  horiz-adv-x="746" vert-adv-y="1000"  />

      
      <glyph glyph-name="unifa" unicode="&#xfa;" d="M519 545L714 545L714 0L519 0L519 70Q441-18 283-18Q164-18 98.50 60.50Q33 139 33 320L33 545L228 545L228 323Q228 260 236.50 215.50Q245 171 276 141Q307 111 369 111Q459 111 489 170.50Q519 230 519 325L519 545M270 597L340 730L544 730L424 597L270 597Z"  horiz-adv-x="746" vert-adv-y="1000"  />

      
      <glyph glyph-name="unifb" unicode="&#xfb;" d="M519 545L714 545L714 0L519 0L519 70Q441-18 283-18Q164-18 98.50 60.50Q33 139 33 320L33 545L228 545L228 323Q228 260 236.50 215.50Q245 171 276 141Q307 111 369 111Q459 111 489 170.50Q519 230 519 325L519 545M466 730L646 594L457 594L366 662L281 594L92 594L262 730L466 730Z"  horiz-adv-x="746" vert-adv-y="1000"  />

      
      <glyph glyph-name="unifc" unicode="&#xfc;" d="M519 545L714 545L714 0L519 0L519 70Q441-18 283-18Q164-18 98.50 60.50Q33 139 33 320L33 545L228 545L228 323Q228 260 236.50 215.50Q245 171 276 141Q307 111 369 111Q459 111 489 170.50Q519 230 519 325L519 545M241 598Q203 598 177.50 624Q152 650 152 687Q152 724 178 750Q204 776 241 776Q278 776 303.50 750Q329 724 329 687Q329 650 303.50 624Q278 598 241 598M492 598Q454 598 428 624Q402 650 402 687Q402 724 428.50 750Q455 776 492 776Q529 776 554.50 750Q580 724 580 687Q580 650 554.50 624Q529 598 492 598Z"  horiz-adv-x="746" vert-adv-y="1000"  />

      
      <glyph glyph-name="unifd" unicode="&#xfd;" d="M838 545L508-123Q478-182 395-199.50Q312-217 205-217L204-54Q258-54 278.50-46Q299-38 299-24Q299-18 296-10Q293-2 292 0L10 545L221 545L429 103L627 545L838 545M320 597L390 730L594 730L474 597L320 597Z"  horiz-adv-x="848" vert-adv-y="1000"  />

      
      <glyph glyph-name="unife" unicode="&#xfe;" d="M753 179L753 179Q751 108 718 43.50Q685-21 625.50-60.50Q566-100 488-100Q316-100 228-19L228-190L33-190L33 545L228 545L228 396Q318 479 488 476Q565 476 624.50 438Q684 400 718 334Q752 268 753 186L753 183L753 179M388 21Q441 21 478.50 45Q516 69 535 106.50Q554 144 555 184Q553 257 511.50 307Q470 357 388 357Q342 357 305.50 334Q269 311 248.50 273Q228 235 228 192L228 191Q228 116 272.50 68.50Q317 21 388 21Z"  horiz-adv-x="778" vert-adv-y="1000"  />

      
      <glyph glyph-name="uniff" unicode="&#xff;" d="M838 545L508-123Q478-182 395-199.50Q312-217 205-217L204-54Q258-54 278.50-46Q299-38 299-24Q299-18 296-10Q293-2 292 0L10 545L221 545L429 103L627 545L838 545M290 603Q252 603 226.50 629Q201 655 201 692Q201 729 227 755Q253 781 290 781Q327 781 352.50 755Q378 729 378 692Q378 655 352.50 629Q327 603 290 603M541 603Q503 603 477 629Q451 655 451 692Q451 729 477.50 755Q504 781 541 781Q578 781 603.50 755Q629 729 629 692Q629 655 603.50 629Q578 603 541 603Z"  horiz-adv-x="848" vert-adv-y="1000"  />

      
      <glyph glyph-name="uni0100" unicode="&#x0100;" d="M1010 0L797 0L720 142L277 142L200 0L-13 0L389 740L609 740L1010 0M499 551L359 294L638 294L499 551M278 773L278 898L715 898L715 773L278 773Z"  horiz-adv-x="997" vert-adv-y="1000"  />

      
      <glyph glyph-name="uni0101" unicode="&#x0101;" d="M388 569Q526 569 635 521Q744 473 744 352L744 0L562 0L546 83L546 88Q523 42 440.50 16Q358-10 261-10Q183-10 103 22.50Q23 55 23 163Q23 266 91.50 299Q160 332 239 332Q392 332 451 334.50Q510 337 528.50 345Q547 353 548 374L548 385Q547 420 498.50 439.50Q450 459 387 459Q319 459 271.50 436.50Q224 414 224 367L29 367Q29 444 87.50 489Q146 534 227.50 551.50Q309 569 388 569M547 272Q499 250 400 250Q333 250 295.50 245Q258 240 240.50 227.50Q223 215 222 191Q225 158 256.50 141Q288 124 363 124Q462 124 504.50 167Q547 210 547 271L547 272M167 601L167 726L604 726L604 601L167 601Z"  horiz-adv-x="776" vert-adv-y="1000"  />

      
      <glyph glyph-name="uni0102" unicode="&#x0102;" d="M1010 0L797 0L720 142L277 142L200 0L-13 0L389 740L609 740L1010 0M499 551L359 294L638 294L499 551M739 978Q739 879 670.50 829Q602 779 493 779Q382 779 313 829Q244 879 244 978L372 978Q372 929 406.50 896Q441 863 492 863Q542 863 576.50 896Q611 929 611 978L739 978Z"  horiz-adv-x="997" vert-adv-y="1000"  />

      
      <glyph glyph-name="uni0103" unicode="&#x0103;" d="M388 569Q526 569 635 521Q744 473 744 352L744 0L562 0L546 83L546 88Q523 42 440.50 16Q358-10 261-10Q183-10 103 22.50Q23 55 23 163Q23 266 91.50 299Q160 332 239 332Q392 332 451 334.50Q510 337 528.50 345Q547 353 548 374L548 385Q547 420 498.50 439.50Q450 459 387 459Q319 459 271.50 436.50Q224 414 224 367L29 367Q29 444 87.50 489Q146 534 227.50 551.50Q309 569 388 569M547 272Q499 250 400 250Q333 250 295.50 245Q258 240 240.50 227.50Q223 215 222 191Q225 158 256.50 141Q288 124 363 124Q462 124 504.50 167Q547 210 547 271L547 272M629 801Q629 702 560.50 652Q492 602 383 602Q272 602 203 652Q134 702 134 801L262 801Q262 752 296.50 719Q331 686 382 686Q432 686 466.50 719Q501 752 501 801L629 801Z"  horiz-adv-x="776" vert-adv-y="1000"  />

      
      <glyph glyph-name="uni0104" unicode="&#x0104;" d="M764-69Q764-102 780.50-120Q797-138 850-138L850-181Q782-183 742.50-172.50Q703-162 685.50-137.50Q668-113 668-69Q668-17 692.50 8.50Q717 34 775 41L720 142L277 142L200 0L-13 0L389 740L609 740L1010 0L829 0Q789-4 776.50-21.50Q764-39 764-69M499 551L359 294L638 294L499 551Z"  horiz-adv-x="997" vert-adv-y="1000"  />

      
      <glyph glyph-name="uni0105" unicode="&#x0105;" d="M744 0L741 0L741-1Q688-1 671.50-19Q655-37 655-70Q655-103 671.50-121Q688-139 741-139L741-182Q673-184 633.50-173.50Q594-163 576.50-138.50Q559-114 559-70Q559-26 577 0L562 0L546 83L546 88Q523 42 440.50 16Q358-10 261-10Q183-10 103 22.50Q23 55 23 163Q23 266 91.50 299Q160 332 239 332Q392 332 451 334.50Q510 337 528.50 345Q547 353 548 374L548 385Q547 420 498.50 439.50Q450 459 387 459Q319 459 271.50 436.50Q224 414 224 367L29 367Q29 444 87.50 489Q146 534 227.50 551.50Q309 569 388 569Q526 569 635 521Q744 473 744 352L744 0M547 272Q499 250 400 250Q333 250 295.50 245Q258 240 240.50 227.50Q223 215 222 191Q225 158 256.50 141Q288 124 363 124Q462 124 504.50 167Q547 210 547 271L547 272Z"  horiz-adv-x="776" vert-adv-y="1000"  />

      
      <glyph glyph-name="uni0106" unicode="&#x0106;" d="M28 369Q28 480 91.50 569Q155 658 264.50 708.50Q374 759 508 759Q624 759 719.50 721.50Q815 684 878.50 614.50Q942 545 967 451L751 450Q734 496 694 529Q654 562 604 579Q554 596 509 596Q444 596 382.50 569Q321 542 282 490.50Q243 439 243 369Q243 298 280 247.50Q317 197 378 170.50Q439 144 509 144Q583 144 649.50 181Q716 218 749 286L967 286Q940 191 876 122.50Q812 54 718 17Q624-20 508-20Q375-20 265 31Q155 82 91.50 171Q28 260 28 369M406 792L476 925L680 925L560 792L406 792Z"  horiz-adv-x="995" vert-adv-y="1000"  />

      
      <glyph glyph-name="uni0107" unicode="&#x0107;" d="M18 270Q18 354 67 421.50Q116 489 201 527Q286 565 389 565Q537 565 626.50 500.50Q716 436 744 327L548 327Q536 376 493.50 407.50Q451 439 390 439Q310 439 263 392.50Q216 346 216 270Q216 225 236 186.50Q256 148 294.50 124.50Q333 101 386 101Q449 101 492.50 132.50Q536 164 547 212L743 212Q733 148 684 93.50Q635 39 557.50 7Q480-25 389-25Q288-25 203 13.50Q118 52 68 119.50Q18 187 18 270M291 597L361 730L565 730L445 597L291 597Z"  horiz-adv-x="761" vert-adv-y="1000"  />

      
      <glyph glyph-name="uni010A" unicode="&#x010A;" d="M28 369Q28 480 91.50 569Q155 658 264.50 708.50Q374 759 508 759Q624 759 719.50 721.50Q815 684 878.50 614.50Q942 545 967 451L751 450Q734 496 694 529Q654 562 604 579Q554 596 509 596Q444 596 382.50 569Q321 542 282 490.50Q243 439 243 369Q243 298 280 247.50Q317 197 378 170.50Q439 144 509 144Q583 144 649.50 181Q716 218 749 286L967 286Q940 191 876 122.50Q812 54 718 17Q624-20 508-20Q375-20 265 31Q155 82 91.50 171Q28 260 28 369M489 793Q451 793 425.50 819Q400 845 400 882Q400 919 426 945Q452 971 489 971Q526 971 551.50 945Q577 919 577 882Q577 845 551.50 819Q526 793 489 793Z"  horiz-adv-x="995" vert-adv-y="1000"  />

      
      <glyph glyph-name="uni010B" unicode="&#x010B;" d="M18 270Q18 354 67 421.50Q116 489 201 527Q286 565 389 565Q537 565 626.50 500.50Q716 436 744 327L548 327Q536 376 493.50 407.50Q451 439 390 439Q310 439 263 392.50Q216 346 216 270Q216 225 236 186.50Q256 148 294.50 124.50Q333 101 386 101Q449 101 492.50 132.50Q536 164 547 212L743 212Q733 148 684 93.50Q635 39 557.50 7Q480-25 389-25Q288-25 203 13.50Q118 52 68 119.50Q18 187 18 270M380 597Q342 597 316.50 623Q291 649 291 686Q291 723 317 749Q343 775 380 775Q417 775 442.50 749Q468 723 468 686Q468 649 442.50 623Q417 597 380 597Z"  horiz-adv-x="761" vert-adv-y="1000"  />

      
      <glyph glyph-name="uni010C" unicode="&#x010C;" d="M28 369Q28 480 91.50 569Q155 658 264.50 708.50Q374 759 508 759Q624 759 719.50 721.50Q815 684 878.50 614.50Q942 545 967 451L751 450Q734 496 694 529Q654 562 604 579Q554 596 509 596Q444 596 382.50 569Q321 542 282 490.50Q243 439 243 369Q243 298 280 247.50Q317 197 378 170.50Q439 144 509 144Q583 144 649.50 181Q716 218 749 286L967 286Q940 191 876 122.50Q812 54 718 17Q624-20 508-20Q375-20 265 31Q155 82 91.50 171Q28 260 28 369M497 860L588 928L777 928L597 792L393 792L223 928L412 928L497 860Z"  horiz-adv-x="995" vert-adv-y="1000"  />

      
      <glyph glyph-name="uni010D" unicode="&#x010D;" d="M18 270Q18 354 67 421.50Q116 489 201 527Q286 565 389 565Q537 565 626.50 500.50Q716 436 744 327L548 327Q536 376 493.50 407.50Q451 439 390 439Q310 439 263 392.50Q216 346 216 270Q216 225 236 186.50Q256 148 294.50 124.50Q333 101 386 101Q449 101 492.50 132.50Q536 164 547 212L743 212Q733 148 684 93.50Q635 39 557.50 7Q480-25 389-25Q288-25 203 13.50Q118 52 68 119.50Q18 187 18 270M375 665L466 733L655 733L475 597L271 597L101 733L290 733L375 665Z"  horiz-adv-x="761" vert-adv-y="1000"  />

      
      <glyph glyph-name="uni010E" unicode="&#x010E;" d="M865 369Q865 264 811.50 180Q758 96 659 48Q560 0 430 0L430-1L217-1L217 0L48 0L48 740L429 740Q560 740 659 692Q758 644 811.50 560Q865 476 865 369M439 173Q535 173 597.50 223Q660 273 660 369Q660 423 630 468.50Q600 514 549.50 540.50Q499 567 439 567L255 567L255 173L439 173M371 842L462 910L651 910L471 774L267 774L97 910L286 910L371 842Z"  horiz-adv-x="892" vert-adv-y="1000"  />

      
      <glyph glyph-name="uni010F" unicode="&#x010F;" d="M790 739L939 739L939 615Q937 576 916.50 552Q896 528 856 528L789 528L789 571L808 571Q825 571 829 577Q833 583 833 600L833 615L790 615L790 739M545 739L740 739L740 2L565 2L553 66Q466-13 285-10Q208-10 148 28.50Q88 67 54.50 133.50Q21 200 20 282L20 284L20 287Q21 358 54 422Q87 486 147 525.50Q207 565 285 565Q457 565 545 484L545 739M386 109Q432 109 468.50 132Q505 155 525 193Q545 231 545 274L545 275Q545 350 501 397.50Q457 445 386 445Q332 445 294.50 421.50Q257 398 238 361Q219 324 218 284Q219 238 237.50 198Q256 158 294 133.50Q332 109 386 109Z"  horiz-adv-x="936" vert-adv-y="1000"  />

      
      <glyph glyph-name="uni0110" unicode="&#x0110;" d="M884 369Q884 264 830.50 180Q777 96 678 48Q579 0 449 0L449-1L236-1L236 0L67 0L67 293L0 293L0 451L67 451L67 740L448 740Q579 740 678 692Q777 644 830.50 560Q884 476 884 369M458 173Q554 173 616.50 223Q679 273 679 369Q679 423 649 468.50Q619 514 568.50 540.50Q518 567 458 567L274 567L274 451L473 451L473 293L274 293L274 173L458 173Z"  horiz-adv-x="911" vert-adv-y="1000"  />

      
      <glyph glyph-name="uni0111" unicode="&#x0111;" d="M818 689L818 583L740 583L740 2L565 2L553 66Q466-13 285-10Q208-10 148 28.50Q88 67 54.50 133.50Q21 200 20 282L20 284L20 287Q21 358 54 422Q87 486 147 525.50Q207 565 285 565Q457 565 545 484L545 583L389 583L389 689L545 689L545 739L740 739L740 689L818 689M386 109Q432 109 468.50 132Q505 155 525 193Q545 231 545 274L545 275Q545 350 501 397.50Q457 445 386 445Q332 445 294.50 421.50Q257 398 238 361Q219 324 218 284Q219 238 237.50 198Q256 158 294 133.50Q332 109 386 109Z"  horiz-adv-x="833" vert-adv-y="1000"  />

      
      <glyph glyph-name="uni0112" unicode="&#x0112;" d="M739 302L255 302L255 154L823 158L823 0L48 0L48 740L823 740L824 583L255 583L255 457L739 457L739 302M204 773L204 898L641 898L641 773L204 773Z"  horiz-adv-x="856" vert-adv-y="1000"  />

      
      <glyph glyph-name="uni0113" unicode="&#x0113;" d="M760 255L216 255Q222 185 268.50 139.50Q315 94 397 94Q441 94 479.50 109Q518 124 541.50 152Q565 180 565 216L760 216Q760 147 716.50 93.50Q673 40 591 10Q509-20 396-20Q292-20 205 17Q118 54 68 121.50Q18 189 18 276Q18 364 68 431.50Q118 499 204 535.50Q290 572 396 572Q504 572 586 536Q668 500 713.50 434.50Q759 369 760 281L760 276L761 276L760 276L760 255M397 461Q261 461 226 344L558 344Q531 461 397 461M181 604L181 729L618 729L618 604L181 604Z"  horiz-adv-x="779" vert-adv-y="1000"  />

      
      <glyph glyph-name="uni0116" unicode="&#x0116;" d="M739 302L255 302L255 154L823 158L823 0L48 0L48 740L823 740L824 583L255 583L255 457L739 457L739 302M428 783Q390 783 364.50 809Q339 835 339 872Q339 909 365 935Q391 961 428 961Q465 961 490.50 935Q516 909 516 872Q516 835 490.50 809Q465 783 428 783Z"  horiz-adv-x="856" vert-adv-y="1000"  />

      
      <glyph glyph-name="uni0117" unicode="&#x0117;" d="M760 255L216 255Q222 185 268.50 139.50Q315 94 397 94Q441 94 479.50 109Q518 124 541.50 152Q565 180 565 216L760 216Q760 147 716.50 93.50Q673 40 591 10Q509-20 396-20Q292-20 205 17Q118 54 68 121.50Q18 189 18 276Q18 364 68 431.50Q118 499 204 535.50Q290 572 396 572Q504 572 586 536Q668 500 713.50 434.50Q759 369 760 281L760 276L761 276L760 276L760 255M397 461Q261 461 226 344L558 344Q531 461 397 461M391 605Q353 605 327.50 631Q302 657 302 694Q302 731 328 757Q354 783 391 783Q428 783 453.50 757Q479 731 479 694Q479 657 453.50 631Q428 605 391 605Z"  horiz-adv-x="779" vert-adv-y="1000"  />

      
      <glyph glyph-name="uni0118" unicode="&#x0118;" d="M255 302L255 154L823 158L823 0L799 0Q759-4 746.50-21.50Q734-39 734-69Q734-102 750.50-120Q767-138 820-138L820-181Q752-183 712.50-172.50Q673-162 655.50-137.50Q638-113 638-69Q638-24 655 0L48 0L48 740L823 740L824 583L255 583L255 457L739 457L739 302L255 302Z"  horiz-adv-x="856" vert-adv-y="1000"  />

      
      <glyph glyph-name="uni0119" unicode="&#x0119;" d="M760 255L216 255Q222 185 268.50 139.50Q315 94 397 94Q441 94 479.50 109Q518 124 541.50 152Q565 180 565 216L760 216Q760 147 717 94Q674 41 593 10.50Q512-20 400-20Q389-35 389-65Q389-98 405.50-116Q422-134 475-134L475-177Q407-179 367.50-168.50Q328-158 310.50-133.50Q293-109 293-65Q293-33 302-12Q219 3 154.50 43Q90 83 54 143Q18 203 18 276Q18 364 68 431.50Q118 499 204 535.50Q290 572 396 572Q504 572 586 536Q668 500 713.50 434.50Q759 369 760 281L760 276L761 276L760 276L760 255M397 461Q261 461 226 344L558 344Q531 461 397 461Z"  horiz-adv-x="779" vert-adv-y="1000"  />

      
      <glyph glyph-name="uni011A" unicode="&#x011A;" d="M739 302L255 302L255 154L823 158L823 0L48 0L48 740L823 740L824 583L255 583L255 457L739 457L739 302M423 842L514 910L703 910L523 774L319 774L149 910L338 910L423 842Z"  horiz-adv-x="856" vert-adv-y="1000"  />

      
      <glyph glyph-name="uni011B" unicode="&#x011B;" d="M760 255L216 255Q222 185 268.50 139.50Q315 94 397 94Q441 94 479.50 109Q518 124 541.50 152Q565 180 565 216L760 216Q760 147 716.50 93.50Q673 40 591 10Q509-20 396-20Q292-20 205 17Q118 54 68 121.50Q18 189 18 276Q18 364 68 431.50Q118 499 204 535.50Q290 572 396 572Q504 572 586 536Q668 500 713.50 434.50Q759 369 760 281L760 276L761 276L760 276L760 255M397 461Q261 461 226 344L558 344Q531 461 397 461M394 673L485 741L674 741L494 605L290 605L120 741L309 741L394 673Z"  horiz-adv-x="779" vert-adv-y="1000"  />

      
      <glyph glyph-name="uni011E" unicode="&#x011E;" d="M969 0L838 0L818 70Q756 27 677 3.50Q598-20 507-20Q373-20 263.50 31Q154 82 91 171Q28 260 28 369Q28 480 91.50 569Q155 658 265 708Q375 758 507 758Q618 758 713.50 724.50Q809 691 875 625.50Q941 560 963 466L746 466Q721 532 653.50 563Q586 594 508 594Q437 594 378.50 566.50Q320 539 286.50 488Q253 437 253 369Q253 299 287.50 248Q322 197 380.50 170.50Q439 144 508 144Q579 144 641 173Q703 202 737 259L513 259L513 381L967 381L967 299L969 0M748 991Q748 892 679.50 842Q611 792 502 792Q391 792 322 842Q253 892 253 991L381 991Q381 942 415.50 909Q450 876 501 876Q551 876 585.50 909Q620 942 620 991L748 991Z"  horiz-adv-x="997" vert-adv-y="1000"  />

      
      <glyph glyph-name="uni011F" unicode="&#x011F;" d="M739 545L739 0Q735-79 681.50-126.50Q628-174 553.50-193.50Q479-213 406-213Q297-213 227.50-205.50Q158-198 102.50-160Q47-122 47-39L246-39Q246-101 371-101L406-100Q454-100 498.50-77Q543-54 543 10L543 59Q457-18 285-18Q209-18 149 21.50Q89 61 54.50 125Q20 189 18 260L18 264L18 267Q19 349 53 415Q87 481 147.50 519Q208 557 285 557Q463 562 547 482L562 545L739 545M384 102Q456 102 499.50 147Q543 192 543 276L543 279Q543 320 523.50 357Q504 394 469 416.50Q434 439 390 439Q310 439 265.50 390.50Q221 342 219 267Q221 194 264 148Q307 102 384 102M629 785Q629 686 560.50 636Q492 586 383 586Q272 586 203 636Q134 686 134 785L262 785Q262 736 296.50 703Q331 670 382 670Q432 670 466.50 703Q501 736 501 785L629 785Z"  horiz-adv-x="775" vert-adv-y="1000"  />

      
      <glyph glyph-name="uni0120" unicode="&#x0120;" d="M969 0L838 0L818 70Q756 27 677 3.50Q598-20 507-20Q373-20 263.50 31Q154 82 91 171Q28 260 28 369Q28 480 91.50 569Q155 658 265 708Q375 758 507 758Q618 758 713.50 724.50Q809 691 875 625.50Q941 560 963 466L746 466Q721 532 653.50 563Q586 594 508 594Q437 594 378.50 566.50Q320 539 286.50 488Q253 437 253 369Q253 299 287.50 248Q322 197 380.50 170.50Q439 144 508 144Q579 144 641 173Q703 202 737 259L513 259L513 381L967 381L967 299L969 0M501 783Q463 783 437.50 809Q412 835 412 872Q412 909 438 935Q464 961 501 961Q538 961 563.50 935Q589 909 589 872Q589 835 563.50 809Q538 783 501 783Z"  horiz-adv-x="997" vert-adv-y="1000"  />

      
      <glyph glyph-name="uni0121" unicode="&#x0121;" d="M739 545L739 0Q735-79 681.50-126.50Q628-174 553.50-193.50Q479-213 406-213Q297-213 227.50-205.50Q158-198 102.50-160Q47-122 47-39L246-39Q246-101 371-101L406-100Q454-100 498.50-77Q543-54 543 10L543 59Q457-18 285-18Q209-18 149 21.50Q89 61 54.50 125Q20 189 18 260L18 264L18 267Q19 349 53 415Q87 481 147.50 519Q208 557 285 557Q463 562 547 482L562 545L739 545M384 102Q456 102 499.50 147Q543 192 543 276L543 279Q543 320 523.50 357Q504 394 469 416.50Q434 439 390 439Q310 439 265.50 390.50Q221 342 219 267Q221 194 264 148Q307 102 384 102M377 587Q339 587 313.50 613Q288 639 288 676Q288 713 314 739Q340 765 377 765Q414 765 439.50 739Q465 713 465 676Q465 639 439.50 613Q414 587 377 587Z"  horiz-adv-x="775" vert-adv-y="1000"  />

      
      <glyph glyph-name="uni0122" unicode="&#x0122;" d="M969 0L838 0L818 70Q756 27 677 3.50Q598-20 507-20Q373-20 263.50 31Q154 82 91 171Q28 260 28 369Q28 480 91.50 569Q155 658 265 708Q375 758 507 758Q618 758 713.50 724.50Q809 691 875 625.50Q941 560 963 466L746 466Q721 532 653.50 563Q586 594 508 594Q437 594 378.50 566.50Q320 539 286.50 488Q253 437 253 369Q253 299 287.50 248Q322 197 380.50 170.50Q439 144 508 144Q579 144 641 173Q703 202 737 259L513 259L513 381L967 381L967 299L969 0M441-51L590-51L590-175Q588-214 567.50-238Q547-262 507-262L440-262L440-219L459-219Q476-219 480-213Q484-207 484-190L484-175L441-175L441-51Z"  horiz-adv-x="997" vert-adv-y="1000"  />

      
      <glyph glyph-name="uni0123" unicode="&#x0123;" d="M739 545L739 0Q735-79 681.50-126.50Q628-174 553.50-193.50Q479-213 406-213Q297-213 227.50-205.50Q158-198 102.50-160Q47-122 47-39L246-39Q246-101 371-101L406-100Q454-100 498.50-77Q543-54 543 10L543 59Q457-18 285-18Q209-18 149 21.50Q89 61 54.50 125Q20 189 18 260L18 264L18 267Q19 349 53 415Q87 481 147.50 519Q208 557 285 557Q463 562 547 482L562 545L739 545M384 102Q456 102 499.50 147Q543 192 543 276L543 279Q543 320 523.50 357Q504 394 469 416.50Q434 439 390 439Q310 439 265.50 390.50Q221 342 219 267Q221 194 264 148Q307 102 384 102M407 713L450 713L450 589L301 589L301 713Q303 752 323.50 776Q344 800 384 800L451 800L451 757L432 757Q415 757 411 751Q407 745 407 728L407 713Z"  horiz-adv-x="775" vert-adv-y="1000"  />

      
      <glyph glyph-name="uni0126" unicode="&#x0126;" d="M989 651L1071 651L1071 536L989 536L989 0L781 0L781 302L341 302L341 0L134 0L134 536L50 536L50 651L134 651L134 740L341 740L341 651L781 651L781 740L989 740L989 651M341 471L781 471L781 536L341 536L341 471Z"  horiz-adv-x="1096" vert-adv-y="1000"  />

      
      <glyph glyph-name="uni0127" unicode="&#x0127;" d="M509 563Q620 563 691.50 483Q763 403 763 225L763 0L568 0L568 222Q568 286 559.50 330Q551 374 520 404Q489 434 426 434Q360 434 327.50 403Q295 372 286 327.50Q277 283 277 220L277 0L82 0L82 580L8 580L8 687L82 687L82 740L277 740L277 687L437 687L437 580L277 580L277 478Q353 563 509 563Z"  horiz-adv-x="790" vert-adv-y="1000"  />

      
      <glyph glyph-name="uni012A" unicode="&#x012A;" d="M255 0L48 0L48 740L255 740L255 0M-65 774L-65 899L372 899L372 774L-65 774Z"  horiz-adv-x="303" vert-adv-y="1000"  />

      
      <glyph glyph-name="uni012B" unicode="&#x012B;" d="M28 620L28 745L465 745L465 620L28 620M347 0L152 0L152 575L347 575L347 0Z"  horiz-adv-x="492" vert-adv-y="1000"  />

      
      <glyph glyph-name="uni012E" unicode="&#x012E;" d="M48 740L255 740L255 0L252 0Q199 0 182.50-18Q166-36 166-69Q166-102 182.50-120Q199-138 252-138L252-181Q184-183 144.50-172.50Q105-162 87.50-137.50Q70-113 70-69Q70-24 88 0L48 0L48 740Z"  horiz-adv-x="303" vert-adv-y="1000"  />

      
      <glyph glyph-name="uni012F" unicode="&#x012F;" d="M33 604L33 740L228 740L228 604L33 604M33 0L33 575L228 575L228 0L214 0Q161 0 144.50-18Q128-36 128-69Q128-102 144.50-120Q161-138 214-138L214-181Q146-183 106.50-172.50Q67-162 49.50-137.50Q32-113 32-69Q32-24 50 0L33 0Z"  horiz-adv-x="260" vert-adv-y="1000"  />

      
      <glyph glyph-name="uni0130" unicode="&#x0130;" d="M255 0L48 0L48 740L255 740L255 0M146 783Q108 783 82.50 809Q57 835 57 872Q57 909 83 935Q109 961 146 961Q183 961 208.50 935Q234 909 234 872Q234 835 208.50 809Q183 783 146 783Z"  horiz-adv-x="303" vert-adv-y="1000"  />

      
      <glyph glyph-name="uni0131" unicode="&#x0131;" d="M228 0L33 0L33 575L228 575L228 0Z"  horiz-adv-x="260" vert-adv-y="1000"  />

      
      <glyph glyph-name="uni0136" unicode="&#x0136;" d="M426 401L860 0L591 0L255 323L255 0L48 0L48 740L255 740L255 471L573 740L845 740L426 401M353-33L502-33L502-157Q500-196 479.50-220Q459-244 419-244L352-244L352-201L371-201Q388-201 392-195Q396-189 396-172L396-157L353-157L353-33Z"  horiz-adv-x="847" vert-adv-y="1000"  />

      
      <glyph glyph-name="uni0137" unicode="&#x0137;" d="M420 301L723 0L491 0L223 260L223 0L28 0L28 740L223 740L223 340L452 545L688 545L420 301M295-36L444-36L444-160Q442-199 421.50-223Q401-247 361-247L294-247L294-204L313-204Q330-204 334-198Q338-192 338-175L338-160L295-160L295-36Z"  horiz-adv-x="718" vert-adv-y="1000"  />

      
      <glyph glyph-name="uni0139" unicode="&#x0139;" d="M255 740L255 164L743 164L743 0L48 0L48 740L255 740M74 773L144 906L348 906L228 773L74 773Z"  horiz-adv-x="775" vert-adv-y="1000"  />

      
      <glyph glyph-name="uni013A" unicode="&#x013A;" d="M228 0L33 0L33 740L228 740L228 0M51 777L121 910L325 910L205 777L51 777Z"  horiz-adv-x="268" vert-adv-y="1000"  />

      
      <glyph glyph-name="uni013B" unicode="&#x013B;" d="M255 740L255 164L743 164L743 0L48 0L48 740L255 740M304-35L453-35L453-159Q451-198 430.50-222Q410-246 370-246L303-246L303-203L322-203Q339-203 343-197Q347-191 347-174L347-159L304-159L304-35Z"  horiz-adv-x="775" vert-adv-y="1000"  />

      
      <glyph glyph-name="uni013C" unicode="&#x013C;" d="M228 0L33 0L33 740L228 740L228 0M57-36L206-36L206-160Q204-199 183.50-223Q163-247 123-247L56-247L56-204L75-204Q92-204 96-198Q100-192 100-175L100-160L57-160L57-36Z"  horiz-adv-x="268" vert-adv-y="1000"  />

      
      <glyph glyph-name="uni013D" unicode="&#x013D;" d="M255 740L255 164L743 164L743 0L48 0L48 740L255 740M153 842L244 910L433 910L253 774L49 774L-121 910L68 910L153 842Z"  horiz-adv-x="775" vert-adv-y="1000"  />

      
      <glyph glyph-name="uni013E" unicode="&#x013E;" d="M228 0L33 0L33 740L228 740L228 0M132 841L223 909L412 909L232 773L28 773L-142 909L47 909L132 841Z"  horiz-adv-x="268" vert-adv-y="1000"  />

      
      <glyph glyph-name="uni0141" unicode="&#x0141;" d="M310 355L310 164L798 164L798 0L103 0L103 256L10 212L10 343L103 387L103 740L310 740L310 486L441 548L441 417L310 355Z"  horiz-adv-x="803" vert-adv-y="1000"  />

      
      <glyph glyph-name="uni0142" unicode="&#x0142;" d="M288 521L376 563L376 432L288 390L288 0L93 0L93 297L8 256L8 387L93 428L93 740L288 740L288 521Z"  horiz-adv-x="383" vert-adv-y="1000"  />

      
      <glyph glyph-name="uni0143" unicode="&#x0143;" d="M255 0L48 0L48 740L255 0M958 0L750 0L958 0M750 251L750 740L958 740L958 0L750 0L255 490L255 0L48 0L48 740L255 740L750 251M407 777L477 910L681 910L561 777L407 777Z"  horiz-adv-x="1005" vert-adv-y="1000"  />

      
      <glyph glyph-name="uni0144" unicode="&#x0144;" d="M464 563Q582 563 648 485Q714 407 714 225L714 0L519 0L519 222Q519 286 510.50 330Q502 374 471 404Q440 434 377 434Q311 434 278.50 404.50Q246 375 237 330.50Q228 286 228 220L228 0L33 0L33 545L228 545L228 475Q306 563 464 563M296 593L366 726L570 726L450 593L296 593Z"  horiz-adv-x="741" vert-adv-y="1000"  />

      
      <glyph glyph-name="uni0145" unicode="&#x0145;" d="M255 0L48 0L48 740L255 0M958 0L750 0L958 0M750 251L750 740L958 740L958 0L750 0L255 490L255 0L48 0L48 740L255 740L750 251M424-34L573-34L573-158Q571-197 550.50-221Q530-245 490-245L423-245L423-202L442-202Q459-202 463-196Q467-190 467-173L467-158L424-158L424-34Z"  horiz-adv-x="1005" vert-adv-y="1000"  />

      
      <glyph glyph-name="uni0146" unicode="&#x0146;" d="M464 563Q582 563 648 485Q714 407 714 225L714 0L519 0L519 222Q519 286 510.50 330Q502 374 471 404Q440 434 377 434Q311 434 278.50 404.50Q246 375 237 330.50Q228 286 228 220L228 0L33 0L33 545L228 545L228 475Q306 563 464 563M303-36L452-36L452-160Q450-199 429.50-223Q409-247 369-247L302-247L302-204L321-204Q338-204 342-198Q346-192 346-175L346-160L303-160L303-36Z"  horiz-adv-x="741" vert-adv-y="1000"  />

      
      <glyph glyph-name="uni0147" unicode="&#x0147;" d="M255 0L48 0L48 740L255 0M958 0L750 0L958 0M750 251L750 740L958 740L958 0L750 0L255 490L255 0L48 0L48 740L255 740L750 251M503 842L594 910L783 910L603 774L399 774L229 910L418 910L503 842Z"  horiz-adv-x="1005" vert-adv-y="1000"  />

      
      <glyph glyph-name="uni0148" unicode="&#x0148;" d="M464 563Q582 563 648 485Q714 407 714 225L714 0L519 0L519 222Q519 286 510.50 330Q502 374 471 404Q440 434 377 434Q311 434 278.50 404.50Q246 375 237 330.50Q228 286 228 220L228 0L33 0L33 545L228 545L228 475Q306 563 464 563M370 663L461 731L650 731L470 595L266 595L96 731L285 731L370 663Z"  horiz-adv-x="741" vert-adv-y="1000"  />

      
      <glyph glyph-name="uni014A" unicode="&#x014A;" d="M255 0L48 0L48 740L255 0M958 0L750 0L958 0M750 740L958 740L958-5Q958-101 923.50-156Q889-211 807-236Q725-261 578-260L578-102Q650-102 701-80Q752-58 751 0L750 0L255 490L255 0L48 0L48 740L255 740L750 251L750 740Z"  horiz-adv-x="1006" vert-adv-y="1000"  />

      
      <glyph glyph-name="uni014B" unicode="&#x014B;" d="M461 563Q580 563 645.50 485Q711 407 711 225L711-3Q711-99 668.50-153Q626-207 543.50-228.50Q461-250 328-250L328-102Q397-102 435-95.50Q473-89 494.50-67.50Q516-46 516 0L516 222Q516 285 507.50 329.50Q499 374 468 404Q437 434 375 434Q309 434 276 404.50Q243 375 234 330.50Q225 286 225 220L225 0L30 0L30 545L225 545L225 475Q303 563 461 563Z"  horiz-adv-x="739" vert-adv-y="1000"  />

      
      <glyph glyph-name="uni014C" unicode="&#x014C;" d="M499 756Q633 756 740 705.50Q847 655 908 566.50Q969 478 969 367Q969 257 908 169Q847 81 740 30.50Q633-20 499-20Q370-20 261.50 30.50Q153 81 89 169.50Q25 258 25 367Q25 477 88.50 566Q152 655 261 705.50Q370 756 499 756M499 143Q564 143 622 169.50Q680 196 716 246.50Q752 297 752 367Q752 436 716 487.50Q680 539 622 566Q564 593 499 593Q432 593 373.50 566.50Q315 540 280 489Q245 438 245 369Q245 299 280.50 247.50Q316 196 374.50 169.50Q433 143 499 143M277 795L277 920L714 920L714 795L277 795Z"  horiz-adv-x="994" vert-adv-y="1000"  />

      
      <glyph glyph-name="uni014D" unicode="&#x014D;" d="M400 568Q505 568 589 530Q673 492 720.50 424.50Q768 357 768 273Q768 190 720.50 122.50Q673 55 589 17Q505-21 400-21Q299-21 211 17.50Q123 56 70.50 123.50Q18 191 18 273Q18 356 70.50 423.50Q123 491 211 529.50Q299 568 400 568M400 105Q472 105 523 148Q574 191 574 273Q574 356 523 399Q472 442 400 442Q354 442 311.50 423.50Q269 405 242 367Q215 329 215 273Q215 218 242 180Q269 142 311.50 123.50Q354 105 400 105M181 603L181 728L618 728L618 603L181 603Z"  horiz-adv-x="785" vert-adv-y="1000"  />

      
      </font>
</defs>
</svg>
