<svg width="1080" height="1920" viewBox="0 0 1080 1920" fill="none" xmlns="http://www.w3.org/2000/svg">
<mask id="mask0_17_1247" style="mask-type:luminance" maskUnits="userSpaceOnUse" x="0" y="0" width="1080" height="1920">
<path fill-rule="evenodd" clip-rule="evenodd" d="M0 0H1080V1920H0V0Z" fill="white"/>
</mask>
<g mask="url(#mask0_17_1247)">
<path d="M0 0H1080V1920H0V0Z" fill="#9AA7B2"/>
</g>
<mask id="mask1_17_1247" style="mask-type:luminance" maskUnits="userSpaceOnUse" x="0" y="0" width="1080" height="1920">
<path d="M0 0H1080V1920H0V0Z" fill="white"/>
</mask>
<g mask="url(#mask1_17_1247)">
<g opacity="0.21">
<mask id="mask2_17_1247" style="mask-type:luminance" maskUnits="userSpaceOnUse" x="-150" y="-86" width="1350" height="2007">
<path d="M1087.3 1146.45C1068.97 1153.52 1049.53 1156.61 1030.31 1160.15C998.722 1166.11 967.133 1171.19 935.323 1174.51C920.744 1176.05 905.944 1178.04 891.364 1178.93C870.379 1180.25 849.393 1183.12 828.408 1185.33C798.145 1188.64 767.881 1191.96 737.397 1195.49C709.785 1198.59 682.393 1202.34 654.781 1205.43C635.341 1207.64 615.681 1208.97 596.242 1210.96C581.884 1212.28 567.525 1214.27 552.946 1215.15C528.647 1216.7 504.127 1219.57 480.049 1222C452.436 1224.87 424.824 1227.97 397.432 1231.06C368.053 1234.37 338.673 1237.02 309.293 1239.89C280.576 1242.54 252.08 1245.42 223.363 1247.85C200.39 1249.83 177.195 1251.6 154.001 1253.59C136.108 1255.14 117.994 1257.57 100.101 1258.67C82.4293 1259.77 64.5364 1261.32 46.6436 1260.22C38.2494 1259.77 29.8552 1260.44 21.461 1259.55C-2.39619 1257.12 -24.7071 1250.94 -41.0537 1231.5C-52.9823 1217.36 -57.6211 1199.91 -60.7137 1182.46C-65.7944 1151.53 -69.5497 1120.39 -68.887 1086.81C-69.9915 1068.92 -68.2243 1049.26 -63.1436 1029.82C-56.9584 1005.08 -41.0537 988.51 -18.9637 977.023C-3.50069 969.071 13.0668 964.653 30.297 962.002C61.8857 957.363 93.6952 958.246 125.505 958.909C154.222 959.572 182.939 962.002 211.656 962.664C245.895 963.548 280.356 966.199 314.595 968.187C325.419 968.85 336.464 969.512 347.509 969.954C384.62 971.942 421.731 973.93 458.843 975.697C476.956 976.581 495.07 976.581 512.963 977.907C536.378 979.453 559.573 980.778 582.988 982.987C603.532 984.754 624.076 985.417 644.619 986.743C680.847 989.172 717.295 990.719 753.523 994.032C763.684 994.916 773.846 994.253 784.007 994.695C817.805 996.462 851.602 998.45 885.4 1000.44C913.454 1001.98 941.288 1003.31 969.342 1005.52C1000.49 1007.95 1032.08 1008.61 1063 1013.47C1088.63 1017.45 1110.5 1028.93 1122.43 1053.9C1139.88 1090.79 1130.82 1129.22 1087.08 1146.01M1126.18 1520.22C1122.87 1548.05 1106.52 1564.4 1083.77 1574.34C1071.62 1579.64 1058.59 1582.73 1045.33 1582.51C1035.61 1582.29 1026.11 1582.51 1012.86 1582.51C982.154 1584.5 948.136 1579.86 913.896 1577.21C870.158 1573.89 826.641 1570.58 782.903 1565.94C754.186 1562.85 725.469 1561.08 696.752 1557.99C672.674 1555.56 648.595 1553.57 624.738 1551.36C603.532 1549.37 582.105 1547.61 560.898 1545.62C544.11 1544.07 527.321 1542.75 510.533 1540.76C495.954 1538.99 481.153 1538.33 466.353 1536.78C443.601 1534.57 421.069 1532.59 398.537 1529.93C374.68 1527.06 350.823 1525.3 326.965 1522.87C293.83 1519.77 260.695 1517.12 227.56 1513.37C193.763 1509.39 160.186 1504.75 126.388 1499.45C111.588 1497.24 97.0087 1492.82 83.5338 1485.31C67.1872 1476.04 55.0377 1463.22 52.8288 1441.8C50.3989 1415.73 66.3036 1396.95 85.9637 1388.12C102.531 1380.83 120.424 1378.18 137.875 1374.2C159.302 1369.56 180.73 1365.36 202.157 1361.17C213.202 1358.96 224.468 1358.08 235.513 1355.87C254.289 1352.33 273.508 1349.68 292.505 1346.81C314.374 1343.5 336.243 1340.4 358.112 1337.31C391.247 1332.45 424.603 1329.14 457.959 1324.06C489.548 1319.2 521.357 1316.77 552.946 1312.35C575.257 1309.04 597.568 1306.38 619.878 1303.73C649.7 1299.98 679.521 1296.66 709.122 1292.91C732.979 1290.04 757.057 1286.95 780.914 1283.63C810.515 1279.66 839.895 1275.02 869.495 1271.04C883.191 1269.27 897.108 1268.61 910.804 1266.84C938.195 1263.31 966.028 1262.43 993.641 1261.32C1022.8 1260 1051.74 1261.54 1078.47 1277C1102.32 1290.7 1114.91 1312.79 1119.77 1341.07C1125.52 1373.76 1127.29 1407.11 1128.83 1440.25C1129.94 1467.2 1129.49 1493.71 1126.4 1520.22M888.714 1792.58C885.179 1806.72 876.122 1818.65 863.531 1829.48L862.868 1830.14C841.662 1847.37 814.933 1855.98 787.541 1855.98H325.198C298.469 1855.98 272.403 1847.59 251.418 1831.24L250.976 1831.02C235.955 1819.31 224.026 1805.84 214.748 1791.04C205.471 1776.24 199.285 1760.55 198.843 1743.99C198.181 1723.66 206.354 1705.33 221.596 1688.76C242.14 1666.45 269.531 1651.43 302.004 1641.27C326.082 1633.76 350.823 1629.12 376.447 1626.03C405.827 1622.49 435.427 1620.72 465.249 1621.61C481.374 1622.05 497.5 1622.71 513.405 1624.26C525.554 1625.58 538.146 1625.81 550.295 1627.13C563.328 1628.46 576.361 1630.22 589.394 1632.21C615.019 1636.19 640.201 1640.83 665.163 1646.79C692.555 1653.2 719.725 1660.49 746.012 1669.32C769.869 1677.5 792.622 1686.99 813.608 1698.7C830.838 1708.64 848.51 1718.36 862.206 1731.17C873.692 1742 884.516 1753.49 888.714 1767.62C891.143 1775.8 890.923 1784.41 888.934 1792.58M546.982 679.913C548.749 669.31 552.062 659.369 556.701 649.649C564.875 632.64 575.478 617.398 588.511 603.702C601.986 589.565 618.111 578.962 635.342 569.905C647.491 563.499 660.524 559.301 673.778 555.988C690.125 552.012 706.692 550.466 723.481 552.454C750.872 555.325 775.834 565.045 798.586 579.845C810.957 588.018 821.339 598.622 831.28 609.667C842.325 622.037 850.94 635.954 857.125 651.417C861.543 662.02 864.415 673.065 865.961 684.773C866.844 691.179 867.065 697.806 868.17 704.433C869.274 710.397 867.949 716.361 867.728 722.105C867.286 731.382 865.961 740.66 863.752 749.717C857.125 777.33 844.754 802.07 824.873 822.835C808.527 839.844 789.75 853.54 767.881 862.155C747.338 870.107 725.91 874.525 705.367 873.421C664.942 874.967 632.028 859.504 602.207 836.31C580.779 819.742 566.2 798.094 556.038 773.353C549.411 756.786 545.877 739.335 544.552 721.442C543.668 707.304 544.331 693.609 546.54 679.913M524.892 -85.7258C152.675 -85.7258 -149.295 216.023 -149.295 588.46V1920.04H1199.08V588.46C1199.08 216.023 897.329 -85.7258 524.892 -85.7258Z" fill="white"/>
</mask>
<g mask="url(#mask2_17_1247)">
<path d="M-149.295 -85.7258H1199.14V1921.13H-149.295V-85.7258Z" fill="#F0EBE6"/>
</g>
</g>
</g>
</svg>
