<svg width="28" height="30" viewBox="0 0 28 30" fill="none" xmlns="http://www.w3.org/2000/svg">
<g clip-path="url(#clip0_17_1611)">
<mask id="mask0_17_1611" style="mask-type:luminance" maskUnits="userSpaceOnUse" x="-526" y="-580" width="1080" height="1920">
<path d="M-526 -580H554V1340H-526V-580Z" fill="white"/>
</mask>
<g mask="url(#mask0_17_1611)">
<mask id="mask1_17_1611" style="mask-type:luminance" maskUnits="userSpaceOnUse" x="-526" y="-580" width="1080" height="1920">
<path d="M-526 -580H554V1340H-526V-580Z" fill="white"/>
</mask>
<g mask="url(#mask1_17_1611)">
<mask id="mask2_17_1611" style="mask-type:luminance" maskUnits="userSpaceOnUse" x="14" y="0" width="8" height="8">
<path d="M14.2355 0.699707H21.4198V7.76623H14.2355V0.699707Z" fill="white"/>
</mask>
<g mask="url(#mask2_17_1611)">
<mask id="mask3_17_1611" style="mask-type:luminance" maskUnits="userSpaceOnUse" x="14" y="0" width="8" height="8">
<path d="M21.284 4.48547C21.2716 4.68374 21.2461 4.88626 21.1997 5.08453C21.052 5.6836 20.7862 6.21517 20.3559 6.66656C20.0015 7.0336 19.5965 7.32467 19.124 7.51453C18.6811 7.68749 18.2212 7.78453 17.774 7.75922C16.9008 7.79298 16.1878 7.45967 15.5423 6.95765C15.0825 6.59906 14.7661 6.13502 14.5509 5.59922C14.4033 5.24062 14.3315 4.86516 14.302 4.47281C14.2767 4.17329 14.2979 3.86954 14.3442 3.57422C14.3822 3.35063 14.4581 3.13125 14.5551 2.92453C14.7323 2.55752 14.9601 2.22423 15.2428 1.93312C15.5381 1.62938 15.8882 1.39736 16.2595 1.20328C16.521 1.0683 16.7995 0.971236 17.0906 0.903748C17.445 0.819364 17.7951 0.78564 18.1622 0.823592C18.7486 0.891112 19.2928 1.09783 19.7864 1.41422C20.0522 1.58718 20.28 1.81921 20.4909 2.05969C20.7314 2.3297 20.9128 2.62922 21.052 2.95828C21.1448 3.19031 21.2081 3.42657 21.2418 3.67969C21.2588 3.82314 21.2671 3.96232 21.2925 4.10578C21.3177 4.23234 21.2883 4.3589 21.2841 4.48969" fill="white"/>
</mask>
<g mask="url(#mask3_17_1611)">
<path d="M-1.07532 -1.30273H29.0752V31.0856H-1.07532V-1.30273Z" fill="#3C5462"/>
</g>
</g>
</g>
</g>
<mask id="mask4_17_1611" style="mask-type:luminance" maskUnits="userSpaceOnUse" x="-526" y="-580" width="1080" height="1920">
<path d="M-526 -580H554V1340H-526V-580Z" fill="white"/>
</mask>
<g mask="url(#mask4_17_1611)">
<mask id="mask5_17_1611" style="mask-type:luminance" maskUnits="userSpaceOnUse" x="-526" y="-580" width="1080" height="1920">
<path d="M-526 -580H554V1340H-526V-580Z" fill="white"/>
</mask>
<g mask="url(#mask5_17_1611)">
<mask id="mask6_17_1611" style="mask-type:luminance" maskUnits="userSpaceOnUse" x="0" y="9" width="28" height="8">
<path d="M0.92688 9.53296H27.0731V16.2462H0.92688V9.53296Z" fill="white"/>
</mask>
<g mask="url(#mask6_17_1611)">
<mask id="mask7_17_1611" style="mask-type:luminance" maskUnits="userSpaceOnUse" x="1" y="9" width="26" height="8">
<path d="M26.0217 13.6573C25.621 13.8092 25.2033 13.8767 24.7898 13.9568C24.1064 14.0834 23.423 14.1931 22.7353 14.269C22.4189 14.3028 22.1025 14.3449 21.7861 14.3618C21.3347 14.3956 20.8791 14.4547 20.4277 14.5053C19.7738 14.577 19.1198 14.6445 18.4659 14.7204C17.8669 14.7921 17.2763 14.8723 16.6772 14.9356C16.2596 14.982 15.8334 15.0115 15.4116 15.0537C15.0994 15.0832 14.7914 15.1254 14.4792 15.1465C13.9519 15.1803 13.4245 15.2351 12.8972 15.2942C12.3023 15.3617 11.7075 15.4208 11.1127 15.4925C10.4756 15.5642 9.84281 15.619 9.20578 15.6823C8.58562 15.7414 7.96969 15.8047 7.34953 15.8553C6.85171 15.9017 6.35392 15.9354 5.85188 15.9818C5.46375 16.0156 5.0756 16.062 4.68328 16.0915C4.3036 16.1126 3.91547 16.1464 3.53156 16.1253C3.35435 16.1125 3.16875 16.1294 2.99156 16.1125C2.47688 16.0576 1.99593 15.9226 1.64156 15.505C1.38422 15.2012 1.28295 14.8215 1.21969 14.4461C1.10577 13.7795 1.02563 13.1045 1.04672 12.3747C1.02144 11.995 1.0595 11.5646 1.16485 11.147C1.29982 10.6154 1.64577 10.2526 2.11828 10.0079C2.45156 9.83498 2.81017 9.74213 3.18563 9.68309C3.87327 9.57762 4.55251 9.60295 5.24016 9.61559C5.86032 9.62839 6.48046 9.68311 7.10485 9.69575C7.84734 9.72103 8.58563 9.77592 9.32813 9.81809C9.56438 9.83089 9.80062 9.84752 10.0369 9.85606C10.8384 9.89824 11.64 9.94045 12.4416 9.98262C12.8297 9.99958 13.2221 9.99959 13.6144 10.029C14.1164 10.0628 14.6226 10.0923 15.1289 10.1387C15.5719 10.1767 16.0191 10.1893 16.462 10.2189C17.2467 10.2737 18.0356 10.3074 18.8203 10.3792C19.0355 10.3961 19.2591 10.3792 19.4784 10.392C20.2083 10.43 20.9423 10.4722 21.6722 10.5143C22.2755 10.5481 22.883 10.5776 23.482 10.624C24.157 10.6747 24.8362 10.6958 25.507 10.797C26.0639 10.8814 26.5322 11.1303 26.7853 11.6661C27.165 12.4634 26.9709 13.2987 26.0217 13.6573Z" fill="white"/>
</mask>
<g mask="url(#mask7_17_1611)">
<path d="M-1.07532 -1.30225H29.0752V31.0861H-1.07532V-1.30225Z" fill="#3C5462"/>
</g>
</g>
</g>
</g>
<mask id="mask8_17_1611" style="mask-type:luminance" maskUnits="userSpaceOnUse" x="-526" y="-580" width="1080" height="1920">
<path d="M-526 -580H554V1340H-526V-580Z" fill="white"/>
</mask>
<g mask="url(#mask8_17_1611)">
<mask id="mask9_17_1611" style="mask-type:luminance" maskUnits="userSpaceOnUse" x="-526" y="-580" width="1080" height="1920">
<path d="M-526 -580H554V1340H-526V-580Z" fill="white"/>
</mask>
<g mask="url(#mask9_17_1611)">
<mask id="mask10_17_1611" style="mask-type:luminance" maskUnits="userSpaceOnUse" x="3" y="16" width="24" height="8">
<path d="M3.63568 16.0105H26.9552V23.1948H3.63568V16.0105Z" fill="white"/>
</mask>
<g mask="url(#mask10_17_1611)">
<mask id="mask11_17_1611" style="mask-type:luminance" maskUnits="userSpaceOnUse" x="3" y="16" width="24" height="8">
<path d="M26.857 21.7317C26.7811 22.335 26.4267 22.6852 25.9415 22.9003C25.6716 23.0185 25.3973 23.0818 25.1104 23.0733H24.4059C23.7436 23.1155 23.0053 23.0185 22.267 22.9594C21.3262 22.8835 20.3812 22.8117 19.4404 22.7105C18.8203 22.643 18.2001 22.6092 17.5758 22.5417C17.0569 22.4911 16.538 22.4489 16.019 22.3941C15.5592 22.3519 15.0994 22.3181 14.6395 22.2717C14.2767 22.238 13.9139 22.2085 13.5511 22.1663C13.2304 22.1241 12.9098 22.1114 12.5976 22.0819C12.1083 22.0355 11.6189 21.9933 11.1295 21.93C10.6148 21.871 10.1001 21.8246 9.58545 21.7782C8.86827 21.7107 8.15107 21.6558 7.43389 21.5714C6.70403 21.4871 5.9784 21.3816 5.24858 21.2719C4.92794 21.2255 4.61152 21.1327 4.32045 20.9639C3.96608 20.7657 3.70453 20.4872 3.66233 20.0274C3.6117 19.4621 3.94918 19.0571 4.37951 18.8714C4.74233 18.7111 5.12203 18.6563 5.49748 18.5719C5.95732 18.4749 6.42561 18.382 6.88545 18.2935C7.12593 18.2471 7.3706 18.2218 7.61107 18.1796C8.01607 18.0994 8.42952 18.0445 8.83873 17.9813C9.30702 17.9096 9.78372 17.8463 10.2562 17.7746C10.9692 17.6733 11.6948 17.6016 12.412 17.4919C13.0955 17.3907 13.7789 17.3358 14.4623 17.2388C14.9475 17.1671 15.4326 17.108 15.9136 17.0489C16.559 16.9688 17.2045 16.8928 17.8415 16.8127C18.3605 16.7494 18.8751 16.6861 19.394 16.6144C20.0353 16.5258 20.6681 16.4245 21.3094 16.3402C21.6005 16.298 21.9042 16.2854 22.1995 16.2474C22.7943 16.1714 23.3892 16.1546 23.9883 16.1292C24.6253 16.0998 25.2497 16.1334 25.8234 16.4667C26.3339 16.762 26.6123 17.243 26.7178 17.8505C26.8359 18.555 26.8781 19.2764 26.9119 19.9978C26.9371 20.5758 26.9247 21.1496 26.8612 21.7233" fill="white"/>
</mask>
<g mask="url(#mask11_17_1611)">
<path d="M-1.07532 -1.30249H29.0752V31.0858H-1.07532V-1.30249Z" fill="#3C5462"/>
</g>
</g>
</g>
</g>
<mask id="mask12_17_1611" style="mask-type:luminance" maskUnits="userSpaceOnUse" x="-526" y="-580" width="1080" height="1920">
<path d="M-526 -580H554V1340H-526V-580Z" fill="white"/>
</mask>
<g mask="url(#mask12_17_1611)">
<mask id="mask13_17_1611" style="mask-type:luminance" maskUnits="userSpaceOnUse" x="-526" y="-580" width="1080" height="1920">
<path d="M-526 -580H554V1340H-526V-580Z" fill="white"/>
</mask>
<g mask="url(#mask13_17_1611)">
<mask id="mask14_17_1611" style="mask-type:luminance" maskUnits="userSpaceOnUse" x="6" y="23" width="16" height="7">
<path d="M6.81567 23.9016H21.7732V29.0837H6.81567V23.9016Z" fill="white"/>
</mask>
<g mask="url(#mask14_17_1611)">
<mask id="mask15_17_1611" style="mask-type:luminance" maskUnits="userSpaceOnUse" x="6" y="23" width="16" height="6">
<path d="M21.7271 27.6171C21.6511 27.9293 21.4571 28.1824 21.1828 28.4144L21.17 28.4272C20.7144 28.7985 20.1364 28.9883 19.5416 28.9883H9.54738C8.97362 28.9883 8.40834 28.8069 7.95691 28.4525L7.94859 28.4484C7.62373 28.1953 7.36636 27.9084 7.16809 27.5835C6.96981 27.2587 6.83481 26.9296 6.82637 26.5668C6.80525 26.1281 6.98669 25.7357 7.31574 25.3771C7.75872 24.8962 8.34933 24.5671 9.04965 24.352C9.56856 24.1917 10.1043 24.0904 10.6612 24.0229C11.2983 23.947 11.9311 23.9048 12.5766 23.9217C12.9225 23.93 13.2726 23.947 13.6228 23.9849C13.8843 24.0144 14.1543 24.0187 14.4159 24.044C14.6986 24.0734 14.9812 24.1115 15.2596 24.1537C15.8165 24.2381 16.3608 24.3435 16.8966 24.4659C17.4956 24.6093 18.0735 24.7612 18.6431 24.9553C19.162 25.1324 19.6514 25.3392 20.107 25.5965C20.4783 25.8074 20.8622 26.0184 21.1575 26.2968C21.4064 26.533 21.6384 26.782 21.7312 27.0857C21.7819 27.2629 21.7776 27.4485 21.7312 27.6215" fill="white"/>
</mask>
<g mask="url(#mask15_17_1611)">
<path d="M-1.07532 -1.30249H29.0752V31.0858H-1.07532V-1.30249Z" fill="#3C5462"/>
</g>
</g>
</g>
</g>
</g>
<defs>
<clipPath id="clip0_17_1611">
<rect width="28" height="30" fill="white"/>
</clipPath>
</defs>
</svg>
