<svg width="1080" height="1920" viewBox="0 0 1080 1920" fill="none" xmlns="http://www.w3.org/2000/svg">
<g clip-path="url(#clip0_19_2752)">
<mask id="mask0_19_2752" style="mask-type:luminance" maskUnits="userSpaceOnUse" x="0" y="0" width="1080" height="1920">
<path fill-rule="evenodd" clip-rule="evenodd" d="M0 0H1080V1920H0V0Z" fill="white"/>
</mask>
<g mask="url(#mask0_19_2752)">
<path d="M0 0H1080V1920H0V0Z" fill="white"/>
</g>
<mask id="mask1_19_2752" style="mask-type:luminance" maskUnits="userSpaceOnUse" x="0" y="0" width="1080" height="1920">
<path fill-rule="evenodd" clip-rule="evenodd" d="M0 0H1080V1920H0V0Z" fill="white"/>
</mask>
<g mask="url(#mask1_19_2752)">
<path d="M0 0H1080V1920H0V0Z" fill="#9AA7B2"/>
</g>
<mask id="mask2_19_2752" style="mask-type:luminance" maskUnits="userSpaceOnUse" x="0" y="0" width="1080" height="1920">
<path fill-rule="evenodd" clip-rule="evenodd" d="M0 0H1080V1920H0V0Z" fill="white"/>
</mask>
<g mask="url(#mask2_19_2752)">
<mask id="mask3_19_2752" style="mask-type:luminance" maskUnits="userSpaceOnUse" x="0" y="0" width="1080" height="1920">
<path d="M0 0H1080V1920H0V0Z" fill="white"/>
</mask>
<g mask="url(#mask3_19_2752)">
<g opacity="0.27">
<mask id="mask4_19_2752" style="mask-type:luminance" maskUnits="userSpaceOnUse" x="-126" y="0" width="1350" height="2007">
<path d="M-125.253 0H1223.19V2006.86H-125.253V0Z" fill="white"/>
</mask>
<g mask="url(#mask4_19_2752)">
<mask id="mask5_19_2752" style="mask-type:luminance" maskUnits="userSpaceOnUse" x="-126" y="0" width="1350" height="2006">
<path d="M1111.34 1232.18C1093.01 1239.25 1073.57 1242.34 1054.35 1245.87C1022.76 1251.84 991.175 1256.92 959.365 1260.23C944.786 1261.78 929.986 1263.77 915.406 1264.65C894.421 1265.98 873.435 1268.85 852.45 1271.06C822.186 1274.37 791.923 1277.68 761.439 1281.22C733.827 1284.31 706.435 1288.07 678.823 1291.16C659.383 1293.37 639.723 1294.69 620.284 1296.68C605.926 1298.01 591.567 1300 576.988 1300.88C552.689 1302.42 528.169 1305.3 504.091 1307.73C476.478 1310.6 448.866 1313.69 421.474 1316.78C392.095 1320.1 362.715 1322.75 333.335 1325.62C304.618 1328.27 276.122 1331.14 247.405 1333.57C224.432 1335.56 201.237 1337.33 178.043 1339.32C160.15 1340.86 142.036 1343.29 124.143 1344.4C106.471 1345.5 88.5783 1347.05 70.6854 1345.94C62.2912 1345.5 53.8971 1346.16 45.5029 1345.28C21.6457 1342.85 -0.665208 1336.66 -17.0118 1317.23C-28.9404 1303.09 -33.5793 1285.64 -36.6719 1268.19C-41.7526 1237.26 -45.5079 1206.11 -44.8452 1172.54C-45.9497 1154.64 -44.1825 1134.98 -39.1018 1115.54C-32.9166 1090.8 -17.0118 1074.24 5.07819 1062.75C20.5412 1054.8 37.1087 1050.38 54.3388 1047.73C85.9275 1043.09 117.737 1043.97 149.547 1044.64C178.264 1045.3 206.981 1047.73 235.698 1048.39C269.937 1049.27 304.397 1051.92 338.637 1053.91C349.461 1054.58 360.506 1055.24 371.551 1055.68C408.662 1057.67 445.773 1059.66 482.884 1061.42C500.998 1062.31 519.112 1062.31 537.005 1063.63C560.42 1065.18 583.615 1066.5 607.03 1068.71C627.574 1070.48 648.117 1071.14 668.661 1072.47C704.889 1074.9 741.337 1076.44 777.565 1079.76C787.726 1080.64 797.888 1079.98 808.049 1080.42C841.847 1082.19 875.644 1084.18 909.442 1086.16C937.496 1087.71 965.33 1089.04 993.384 1091.24C1024.53 1093.67 1056.12 1094.34 1087.05 1099.2C1112.67 1103.17 1134.54 1114.66 1146.47 1139.62C1163.92 1176.51 1154.86 1214.95 1111.12 1231.74M1150.22 1605.94C1146.91 1633.77 1130.56 1650.12 1107.81 1660.06C1095.66 1665.36 1082.63 1668.46 1069.37 1668.23C1059.65 1668.01 1050.16 1668.23 1036.9 1668.23C1006.2 1670.22 972.177 1665.58 937.938 1662.93C894.2 1659.62 850.683 1656.31 806.944 1651.67C778.227 1648.57 749.51 1646.81 720.793 1643.72C696.715 1641.29 672.637 1639.3 648.78 1637.09C627.574 1635.1 606.147 1633.33 584.94 1631.34C568.152 1629.8 551.363 1628.47 534.575 1626.48C519.996 1624.72 505.195 1624.05 490.395 1622.51C467.642 1620.3 445.111 1618.31 422.579 1615.66C398.722 1612.79 374.864 1611.02 351.007 1608.59C317.872 1605.5 284.737 1602.85 251.602 1599.09C217.805 1595.12 184.228 1590.48 150.43 1585.18C135.63 1582.97 121.051 1578.55 107.576 1571.04C91.2291 1561.76 79.0796 1548.95 76.8706 1527.52C74.4407 1501.46 90.3455 1482.68 110.006 1473.84C126.573 1466.55 144.466 1463.9 161.917 1459.93C183.344 1455.29 204.772 1451.09 226.199 1446.89C237.244 1444.68 248.51 1443.8 259.555 1441.59C278.331 1438.06 297.549 1435.41 316.547 1432.53C338.416 1429.22 360.285 1426.13 382.154 1423.04C415.289 1418.18 448.645 1414.86 482.001 1409.78C513.589 1404.92 545.399 1402.49 576.988 1398.07C599.299 1394.76 621.609 1392.11 643.92 1389.46C673.742 1385.7 703.563 1382.39 733.164 1378.64C757.021 1375.76 781.099 1372.67 804.956 1369.36C834.557 1365.38 863.937 1360.74 893.537 1356.77C907.233 1355 921.15 1354.34 934.845 1352.57C962.237 1349.03 990.07 1348.15 1017.68 1347.05C1046.84 1345.72 1075.78 1347.27 1102.51 1362.73C1126.37 1376.43 1138.96 1398.52 1143.82 1426.79C1149.56 1459.48 1151.33 1492.84 1152.87 1525.98C1153.98 1552.93 1153.54 1579.43 1150.44 1605.94M912.755 1878.31C909.221 1892.45 900.164 1904.38 887.573 1915.2L886.91 1915.86C865.704 1933.09 838.975 1941.71 811.583 1941.71H349.24C322.511 1941.71 296.445 1933.31 275.46 1916.97L275.018 1916.75C259.997 1905.04 248.068 1891.56 238.79 1876.76C229.512 1861.96 223.327 1846.28 222.885 1829.71C222.223 1809.39 230.396 1791.06 245.638 1774.49C266.182 1752.18 293.573 1737.16 326.046 1726.99C350.124 1719.48 374.864 1714.84 400.489 1711.75C429.868 1708.22 459.469 1706.45 489.291 1707.33C505.416 1707.78 521.542 1708.44 537.447 1709.98C549.596 1711.31 562.187 1711.53 574.337 1712.86C587.37 1714.18 600.403 1715.95 613.436 1717.94C639.06 1721.91 664.243 1726.55 689.205 1732.52C716.596 1738.92 743.767 1746.21 770.054 1755.05C793.911 1763.22 816.664 1772.72 837.649 1784.43C854.88 1794.37 872.552 1804.09 886.247 1816.9C897.734 1827.72 908.558 1839.21 912.755 1853.35C915.185 1861.52 914.964 1870.14 912.976 1878.31M571.023 765.639C572.791 755.035 576.104 745.095 580.743 735.375C588.916 718.366 599.519 703.124 612.553 689.428C626.027 675.291 642.153 664.687 659.383 655.63C671.533 649.224 684.566 645.027 697.82 641.714C714.167 637.738 730.734 636.191 747.522 638.179C774.914 641.051 799.876 650.771 822.628 665.571C834.999 673.744 845.381 684.347 855.321 695.392C866.367 707.763 874.982 721.68 881.167 737.142C885.585 747.746 888.456 758.791 890.003 770.498C890.886 776.905 891.107 783.531 892.212 790.158C893.316 796.123 891.991 802.087 891.77 807.83C891.328 817.108 890.003 826.386 887.794 835.443C881.167 863.055 868.796 887.796 848.915 908.561C832.569 925.57 813.792 939.266 791.923 947.881C771.38 955.833 749.952 960.251 729.409 959.147C688.984 960.693 656.07 945.23 626.248 922.036C604.821 905.468 590.242 883.82 580.08 859.079C573.453 842.512 569.919 825.061 568.594 807.168C567.71 793.03 568.373 779.334 570.582 765.639M548.933 0C176.717 0 -125.253 301.749 -125.253 674.186V2005.77H1223.12V674.186C1223.12 301.749 921.371 0 548.933 0Z" fill="white"/>
</mask>
<g mask="url(#mask5_19_2752)">
<path d="M-125.253 0H1223.19V2006.86H-125.253V0Z" fill="#F0EBE6"/>
</g>
</g>
</g>
</g>
</g>
</g>
<defs>
<clipPath id="clip0_19_2752">
<rect width="1080" height="1920" fill="white"/>
</clipPath>
</defs>
</svg>
