<svg width="1080" height="1920" viewBox="0 0 1080 1920" fill="none" xmlns="http://www.w3.org/2000/svg">
<mask id="mask0_19_3395" style="mask-type:luminance" maskUnits="userSpaceOnUse" x="0" y="0" width="1080" height="1920">
<path fill-rule="evenodd" clip-rule="evenodd" d="M0 0H1080V1920H0V0Z" fill="white"/>
</mask>
<g mask="url(#mask0_19_3395)">
<path d="M0 0H1080V1920H0V0Z" fill="white"/>
</g>
<mask id="mask1_19_3395" style="mask-type:luminance" maskUnits="userSpaceOnUse" x="0" y="0" width="1080" height="1920">
<path fill-rule="evenodd" clip-rule="evenodd" d="M0 0H1080V1920H0V0Z" fill="white"/>
</mask>
<g mask="url(#mask1_19_3395)">
<path d="M0 0H1080V1920H0V0Z" fill="#8E9581"/>
</g>
<mask id="mask2_19_3395" style="mask-type:luminance" maskUnits="userSpaceOnUse" x="0" y="0" width="1080" height="1920">
<path fill-rule="evenodd" clip-rule="evenodd" d="M0 0H1080V1920H0V0Z" fill="white"/>
</mask>
<g mask="url(#mask2_19_3395)">
<mask id="mask3_19_3395" style="mask-type:luminance" maskUnits="userSpaceOnUse" x="0" y="0" width="1080" height="1920">
<path d="M0 0H1080V1920H0V0Z" fill="white"/>
</mask>
<g mask="url(#mask3_19_3395)">
<g opacity="0.1">
<mask id="mask4_19_3395" style="mask-type:luminance" maskUnits="userSpaceOnUse" x="-135" y="-86" width="1350" height="2008">
<path d="M-134.219 -85.7258H1214.22V1921.13H-134.219V-85.7258Z" fill="white"/>
</mask>
<g mask="url(#mask4_19_3395)">
<mask id="mask5_19_3395" style="mask-type:luminance" maskUnits="userSpaceOnUse" x="-135" y="-86" width="1350" height="2007">
<path d="M1102.38 1146.45C1084.04 1153.52 1064.6 1156.61 1045.39 1160.15C1013.8 1166.11 982.208 1171.19 950.399 1174.51C935.819 1176.05 921.019 1178.04 906.44 1178.93C885.454 1180.25 864.469 1183.12 843.483 1185.33C813.22 1188.64 782.957 1191.96 752.472 1195.49C724.86 1198.59 697.468 1202.34 669.856 1205.43C650.417 1207.64 630.757 1208.97 611.318 1210.96C596.959 1212.28 582.601 1214.27 568.021 1215.15C543.722 1216.7 519.202 1219.57 495.124 1222C467.512 1224.87 439.899 1227.97 412.508 1231.06C383.128 1234.37 353.748 1237.02 324.369 1239.89C295.652 1242.54 267.156 1245.42 238.439 1247.85C215.465 1249.83 192.271 1251.6 169.076 1253.59C151.183 1255.14 133.07 1257.57 115.177 1258.67C97.5046 1259.77 79.6118 1261.32 61.7189 1260.22C53.3247 1259.77 44.9305 1260.44 36.5363 1259.55C12.6791 1257.12 -9.63176 1250.94 -25.9783 1231.5C-37.9069 1217.36 -42.5458 1199.91 -45.6384 1182.46C-50.7191 1151.53 -54.4744 1120.39 -53.8117 1086.81C-54.9162 1068.92 -53.149 1049.26 -48.0683 1029.82C-41.8831 1005.08 -25.9783 988.51 -3.88836 977.023C11.5746 969.071 28.1421 964.653 45.3723 962.002C76.961 957.363 108.771 958.246 140.58 958.909C169.297 959.572 198.014 962.002 226.731 962.664C260.97 963.548 295.431 966.199 329.67 968.187C340.494 968.85 351.539 969.512 362.584 969.954C399.696 971.942 436.807 973.93 473.918 975.697C492.032 976.581 510.145 976.581 528.038 977.907C551.454 979.453 574.648 980.778 598.064 982.987C618.607 984.754 639.151 985.417 659.695 986.743C695.922 989.172 732.371 990.719 768.598 994.032C778.76 994.916 788.921 994.253 799.082 994.695C832.88 996.462 866.678 998.45 900.475 1000.44C928.53 1001.98 956.363 1003.31 984.417 1005.52C1015.56 1007.95 1047.15 1008.61 1078.08 1013.47C1103.7 1017.45 1125.57 1028.93 1137.5 1053.9C1154.95 1090.79 1145.9 1129.22 1102.16 1146.01M1141.26 1520.22C1137.94 1548.05 1121.6 1564.4 1098.84 1574.34C1086.69 1579.64 1073.66 1582.73 1060.41 1582.51C1050.69 1582.29 1041.19 1582.51 1027.93 1582.51C997.229 1584.5 963.211 1579.86 928.971 1577.21C885.233 1573.89 841.716 1570.58 797.978 1565.94C769.261 1562.85 740.544 1561.08 711.827 1557.99C687.749 1555.56 663.671 1553.57 639.814 1551.36C618.607 1549.37 597.18 1547.61 575.974 1545.62C559.185 1544.07 542.397 1542.75 525.608 1540.76C511.029 1538.99 496.229 1538.33 481.428 1536.78C458.676 1534.57 436.144 1532.59 413.612 1529.93C389.755 1527.06 365.898 1525.3 342.041 1522.87C308.906 1519.77 275.771 1517.12 242.636 1513.37C208.838 1509.39 175.261 1504.75 141.464 1499.45C126.663 1497.24 112.084 1492.82 98.6091 1485.31C82.2626 1476.04 70.1131 1463.22 67.9041 1441.8C65.4742 1415.73 81.379 1396.95 101.039 1388.12C117.607 1380.83 135.499 1378.18 152.95 1374.2C174.378 1369.56 195.805 1365.36 217.232 1361.17C228.277 1358.96 239.543 1358.08 250.588 1355.87C269.365 1352.33 288.583 1349.68 307.58 1346.81C329.449 1343.5 351.318 1340.4 373.188 1337.31C406.323 1332.45 439.678 1329.14 473.034 1324.06C504.623 1319.2 536.433 1316.77 568.021 1312.35C590.332 1309.04 612.643 1306.38 634.954 1303.73C664.775 1299.98 694.597 1296.66 724.197 1292.91C748.054 1290.04 772.133 1286.95 795.99 1283.63C825.59 1279.66 854.97 1275.02 884.571 1271.04C898.266 1269.27 912.183 1268.61 925.879 1266.84C953.27 1263.31 981.104 1262.43 1008.72 1261.32C1037.88 1260 1066.81 1261.54 1093.54 1277C1117.4 1290.7 1129.99 1312.79 1134.85 1341.07C1140.59 1373.76 1142.36 1407.11 1143.91 1440.25C1145.01 1467.2 1144.57 1493.71 1141.48 1520.22M903.789 1792.58C900.254 1806.72 891.198 1818.65 878.606 1829.48L877.944 1830.14C856.737 1847.37 830.008 1855.98 802.617 1855.98H340.273C313.545 1855.98 287.478 1847.59 266.493 1831.24L266.051 1831.02C251.03 1819.31 239.101 1805.84 229.824 1791.04C220.546 1776.24 214.361 1760.55 213.919 1743.99C213.256 1723.66 221.429 1705.33 236.671 1688.76C257.215 1666.45 284.607 1651.43 317.079 1641.27C341.157 1633.76 365.898 1629.12 391.522 1626.03C420.902 1622.49 450.502 1620.72 480.324 1621.61C496.45 1622.05 512.575 1622.71 528.48 1624.26C540.63 1625.58 553.221 1625.81 565.37 1627.13C578.403 1628.46 591.437 1630.22 604.47 1632.21C630.094 1636.19 655.277 1640.83 680.238 1646.79C707.63 1653.2 734.801 1660.49 761.088 1669.32C784.945 1677.5 807.697 1686.99 828.683 1698.7C845.913 1708.64 863.585 1718.36 877.281 1731.17C888.768 1742 899.592 1753.49 903.789 1767.62C906.219 1775.8 905.998 1784.41 904.01 1792.58M562.057 679.913C563.824 669.31 567.138 659.369 571.776 649.649C579.95 632.64 590.553 617.398 603.586 603.702C617.061 589.565 633.187 578.962 650.417 569.905C662.566 563.499 675.599 559.301 688.853 555.988C705.2 552.012 721.767 550.466 738.556 552.454C765.947 555.325 790.909 565.045 813.662 579.845C826.032 588.018 836.414 598.622 846.355 609.667C857.4 622.037 866.015 635.954 872.2 651.417C876.618 662.02 879.49 673.065 881.036 684.773C881.92 691.179 882.141 697.806 883.245 704.433C884.35 710.397 883.024 716.361 882.803 722.105C882.362 731.382 881.036 740.66 878.827 749.717C872.2 777.33 859.83 802.07 839.949 822.835C823.602 839.844 804.826 853.54 782.957 862.155C762.413 870.107 740.986 874.525 720.442 873.421C680.017 874.967 647.103 859.504 617.282 836.31C595.855 819.742 581.275 798.094 571.114 773.353C564.487 756.786 560.952 739.335 559.627 721.442C558.743 707.304 559.406 693.609 561.615 679.913M539.967 -85.7258C167.751 -85.7258 -134.219 216.023 -134.219 588.46V1920.04H1214.15V588.46C1214.15 216.023 912.404 -85.7258 539.967 -85.7258Z" fill="white"/>
</mask>
<g mask="url(#mask5_19_3395)">
<path d="M-134.219 -85.7258H1214.22V1921.13H-134.219V-85.7258Z" fill="#F0EBE6"/>
</g>
</g>
</g>
</g>
</g>
</svg>
