<svg width="1080" height="1920" viewBox="0 0 1080 1920" fill="none" xmlns="http://www.w3.org/2000/svg">
<g clip-path="url(#clip0_19_1612)">
<mask id="mask0_19_1612" style="mask-type:luminance" maskUnits="userSpaceOnUse" x="0" y="0" width="1080" height="1920">
<path fill-rule="evenodd" clip-rule="evenodd" d="M0 0H1080V1920H0V0Z" fill="white"/>
</mask>
<g mask="url(#mask0_19_1612)">
<path d="M0 0H1080V1920H0V0Z" fill="white"/>
</g>
<mask id="mask1_19_1612" style="mask-type:luminance" maskUnits="userSpaceOnUse" x="0" y="0" width="1080" height="1920">
<path fill-rule="evenodd" clip-rule="evenodd" d="M0 0H1080V1920H0V0Z" fill="white"/>
</mask>
<g mask="url(#mask1_19_1612)">
<path d="M0 0H1080V1920H0V0Z" fill="#97BDC3"/>
</g>
<mask id="mask2_19_1612" style="mask-type:luminance" maskUnits="userSpaceOnUse" x="0" y="0" width="1080" height="1920">
<path fill-rule="evenodd" clip-rule="evenodd" d="M0 0H1080V1920H0V0Z" fill="white"/>
</mask>
<g mask="url(#mask2_19_1612)">
<mask id="mask3_19_1612" style="mask-type:luminance" maskUnits="userSpaceOnUse" x="0" y="0" width="1080" height="1920">
<path d="M0 0H1080V1920H0V0Z" fill="white"/>
</mask>
<g mask="url(#mask3_19_1612)">
<g opacity="0.1">
<mask id="mask4_19_1612" style="mask-type:luminance" maskUnits="userSpaceOnUse" x="-135" y="-64" width="1350" height="2008">
<path d="M-134.219 -63.6875H1214.22V1943.17H-134.219V-63.6875Z" fill="white"/>
</mask>
<g mask="url(#mask4_19_1612)">
<mask id="mask5_19_1612" style="mask-type:luminance" maskUnits="userSpaceOnUse" x="-135" y="-64" width="1350" height="2007">
<path d="M1102.38 1168.49C1084.04 1175.56 1064.6 1178.65 1045.39 1182.19C1013.8 1188.15 982.208 1193.23 950.399 1196.55C935.819 1198.09 921.019 1200.08 906.44 1200.96C885.454 1202.29 864.469 1205.16 843.483 1207.37C813.22 1210.68 782.957 1214 752.472 1217.53C724.86 1220.62 697.468 1224.38 669.856 1227.47C650.417 1229.68 630.757 1231.01 611.318 1232.99C596.959 1234.32 582.601 1236.31 568.021 1237.19C543.722 1238.74 519.202 1241.61 495.124 1244.04C467.512 1246.91 439.899 1250 412.508 1253.1C383.128 1256.41 353.748 1259.06 324.369 1261.93C295.652 1264.58 267.156 1267.45 238.439 1269.88C215.465 1271.87 192.271 1273.64 169.076 1275.63C151.183 1277.17 133.07 1279.6 115.177 1280.71C97.5046 1281.81 79.6118 1283.36 61.7189 1282.25C53.3247 1281.81 44.9305 1282.48 36.5363 1281.59C12.6791 1279.16 -9.63176 1272.98 -25.9783 1253.54C-37.9069 1239.4 -42.5458 1221.95 -45.6384 1204.5C-50.7191 1173.57 -54.4744 1142.43 -53.8117 1108.85C-54.9162 1090.96 -53.149 1071.3 -48.0683 1051.86C-41.8831 1027.12 -25.9783 1010.55 -3.88836 999.061C11.5746 991.109 28.1421 986.691 45.3723 984.04C76.961 979.401 108.771 980.285 140.58 980.948C169.297 981.61 198.014 984.04 226.731 984.703C260.97 985.586 295.431 988.237 329.67 990.225C340.494 990.888 351.539 991.551 362.584 991.992C399.696 993.981 436.807 995.969 473.918 997.736C492.032 998.619 510.145 998.619 528.038 999.945C551.454 1001.49 574.648 1002.82 598.064 1005.03C618.607 1006.79 639.151 1007.46 659.695 1008.78C695.922 1011.21 732.371 1012.76 768.598 1016.07C778.76 1016.95 788.921 1016.29 799.082 1016.73C832.88 1018.5 866.678 1020.49 900.475 1022.48C928.53 1024.02 956.363 1025.35 984.417 1027.56C1015.56 1029.99 1047.15 1030.65 1078.08 1035.51C1103.7 1039.49 1125.57 1050.97 1137.5 1075.93C1154.95 1112.82 1145.9 1151.26 1102.16 1168.05M1141.26 1542.25C1137.94 1570.09 1121.6 1586.43 1098.84 1596.37C1086.69 1601.68 1073.66 1604.77 1060.41 1604.55C1050.69 1604.33 1041.19 1604.55 1027.93 1604.55C997.229 1606.54 963.211 1601.9 928.971 1599.25C885.233 1595.93 841.716 1592.62 797.978 1587.98C769.261 1584.89 740.544 1583.12 711.827 1580.03C687.749 1577.6 663.671 1575.61 639.814 1573.4C618.607 1571.41 597.18 1569.65 575.974 1567.66C559.185 1566.11 542.397 1564.79 525.608 1562.8C511.029 1561.03 496.229 1560.37 481.428 1558.82C458.676 1556.61 436.144 1554.62 413.612 1551.97C389.755 1549.1 365.898 1547.33 342.041 1544.9C308.906 1541.81 275.771 1539.16 242.636 1535.41C208.838 1531.43 175.261 1526.79 141.464 1521.49C126.663 1519.28 112.084 1514.86 98.6091 1507.35C82.2626 1498.07 70.1131 1485.26 67.9041 1463.83C65.4742 1437.77 81.379 1418.99 101.039 1410.16C117.607 1402.87 135.499 1400.22 152.95 1396.24C174.378 1391.6 195.805 1387.4 217.232 1383.21C228.277 1381 239.543 1380.11 250.588 1377.9C269.365 1374.37 288.583 1371.72 307.58 1368.85C329.449 1365.53 351.318 1362.44 373.188 1359.35C406.323 1354.49 439.678 1351.18 473.034 1346.09C504.623 1341.23 536.433 1338.81 568.021 1334.39C590.332 1331.07 612.643 1328.42 634.954 1325.77C664.775 1322.02 694.597 1318.7 724.197 1314.95C748.054 1312.08 772.133 1308.98 795.99 1305.67C825.59 1301.69 854.97 1297.06 884.571 1293.08C898.266 1291.31 912.183 1290.65 925.879 1288.88C953.27 1285.35 981.104 1284.46 1008.72 1283.36C1037.88 1282.03 1066.81 1283.58 1093.54 1299.04C1117.4 1312.74 1129.99 1334.83 1134.85 1363.1C1140.59 1395.8 1142.36 1429.15 1143.91 1462.29C1145.01 1489.24 1144.57 1515.75 1141.48 1542.25M903.789 1814.62C900.254 1828.76 891.198 1840.69 878.606 1851.51L877.944 1852.18C856.737 1869.41 830.008 1878.02 802.617 1878.02H340.273C313.545 1878.02 287.478 1869.63 266.493 1853.28L266.051 1853.06C251.03 1841.35 239.101 1827.88 229.824 1813.08C220.546 1798.28 214.361 1782.59 213.919 1766.03C213.256 1745.7 221.429 1727.37 236.671 1710.8C257.215 1688.49 284.607 1673.47 317.079 1663.31C341.157 1655.8 365.898 1651.16 391.522 1648.06C420.902 1644.53 450.502 1642.76 480.324 1643.65C496.45 1644.09 512.575 1644.75 528.48 1646.3C540.63 1647.62 553.221 1647.84 565.37 1649.17C578.403 1650.49 591.437 1652.26 604.47 1654.25C630.094 1658.23 655.277 1662.86 680.238 1668.83C707.63 1675.24 734.801 1682.53 761.088 1691.36C784.945 1699.53 807.697 1709.03 828.683 1720.74C845.913 1730.68 863.585 1740.4 877.281 1753.21C888.768 1764.04 899.592 1775.52 903.789 1789.66C906.219 1797.83 905.998 1806.45 904.01 1814.62M562.057 701.951C563.824 691.348 567.138 681.407 571.776 671.688C579.95 654.678 590.553 639.436 603.586 625.741C617.061 611.603 633.187 601 650.417 591.943C662.566 585.537 675.599 581.34 688.853 578.026C705.2 574.05 721.767 572.504 738.556 574.492C765.947 577.364 790.909 587.083 813.662 601.884C826.032 610.057 836.414 620.66 846.355 631.705C857.4 644.075 866.015 657.992 872.2 673.455C876.618 684.058 879.49 695.103 881.036 706.811C881.92 713.217 882.141 719.844 883.245 726.471C884.35 732.435 883.024 738.4 882.803 744.143C882.362 753.421 881.036 762.698 878.827 771.755C872.2 799.368 859.83 824.109 839.949 844.873C823.602 861.882 804.826 875.578 782.957 884.193C762.413 892.146 740.986 896.564 720.442 895.459C680.017 897.006 647.103 881.543 617.282 858.348C595.855 841.781 581.275 820.132 571.114 795.392C564.487 778.824 560.952 761.373 559.627 743.48C558.743 729.343 559.406 715.647 561.615 701.951M539.967 -63.6875C167.751 -63.6875 -134.219 238.062 -134.219 610.499V1942.08H1214.15V610.499C1214.15 238.062 912.404 -63.6875 539.967 -63.6875Z" fill="white"/>
</mask>
<g mask="url(#mask5_19_1612)">
<path d="M-134.219 -63.6875H1214.22V1943.17H-134.219V-63.6875Z" fill="#F0EBE6"/>
</g>
</g>
</g>
</g>
</g>
</g>
<defs>
<clipPath id="clip0_19_1612">
<rect width="1080" height="1920" fill="white"/>
</clipPath>
</defs>
</svg>
