<svg width="1080" height="1920" viewBox="0 0 1080 1920" fill="none" xmlns="http://www.w3.org/2000/svg">
<mask id="mask0_19_1709" style="mask-type:luminance" maskUnits="userSpaceOnUse" x="0" y="0" width="1080" height="1920">
<path fill-rule="evenodd" clip-rule="evenodd" d="M0 0H1080V1920H0V0Z" fill="white"/>
</mask>
<g mask="url(#mask0_19_1709)">
<path d="M0 0H1080V1920H0V0Z" fill="#8E9581"/>
</g>
<mask id="mask1_19_1709" style="mask-type:luminance" maskUnits="userSpaceOnUse" x="0" y="0" width="1080" height="1920">
<path fill-rule="evenodd" clip-rule="evenodd" d="M0 0H1080V1920H0V0Z" fill="white"/>
</mask>
<g mask="url(#mask1_19_1709)">
<mask id="mask2_19_1709" style="mask-type:luminance" maskUnits="userSpaceOnUse" x="0" y="0" width="1080" height="1920">
<path d="M0 0H1080V1920H0V0Z" fill="white"/>
</mask>
<g mask="url(#mask2_19_1709)">
<g opacity="0.22">
<mask id="mask3_19_1709" style="mask-type:luminance" maskUnits="userSpaceOnUse" x="-152" y="0" width="1350" height="2007">
<path d="M-151.309 0H1197.13V2006.86H-151.309V0Z" fill="white"/>
</mask>
<g mask="url(#mask3_19_1709)">
<mask id="mask4_19_1709" style="mask-type:luminance" maskUnits="userSpaceOnUse" x="-152" y="0" width="1350" height="2006">
<path d="M1085.29 1232.18C1066.95 1239.25 1047.51 1242.34 1028.3 1245.87C996.707 1251.84 965.118 1256.92 933.308 1260.23C918.729 1261.78 903.929 1263.77 889.349 1264.65C868.364 1265.98 847.378 1268.85 826.393 1271.06C796.13 1274.37 765.866 1277.68 735.382 1281.22C707.77 1284.31 680.378 1288.07 652.766 1291.16C633.327 1293.37 613.667 1294.69 594.227 1296.68C579.869 1298.01 565.51 1300 550.931 1300.88C526.632 1302.42 502.112 1305.3 478.034 1307.73C450.422 1310.6 422.809 1313.69 395.418 1316.78C366.038 1320.1 336.658 1322.75 307.279 1325.62C278.562 1328.27 250.065 1331.14 221.349 1333.57C198.375 1335.56 175.18 1337.33 151.986 1339.32C134.093 1340.86 115.979 1343.29 98.0864 1344.4C80.4144 1345.5 62.5215 1347.05 44.6287 1345.94C36.2345 1345.5 27.8403 1346.16 19.4461 1345.28C-4.41108 1342.85 -26.722 1336.66 -43.0686 1317.23C-54.9971 1303.09 -59.636 1285.64 -62.7286 1268.19C-67.8093 1237.26 -71.5646 1206.11 -70.9019 1172.54C-72.0064 1154.64 -70.2392 1134.98 -65.1585 1115.54C-58.9733 1090.8 -43.0686 1074.24 -20.9786 1062.75C-5.51558 1054.8 11.0519 1050.38 28.2821 1047.73C59.8708 1043.09 91.6803 1043.97 123.49 1044.64C152.207 1045.3 180.924 1047.73 209.641 1048.39C243.88 1049.27 278.341 1051.92 312.58 1053.91C323.404 1054.58 334.449 1055.24 345.494 1055.68C382.605 1057.67 419.717 1059.66 456.828 1061.42C474.941 1062.31 493.055 1062.31 510.948 1063.63C534.364 1065.18 557.558 1066.5 580.973 1068.71C601.517 1070.48 622.061 1071.14 642.604 1072.47C678.832 1074.9 715.28 1076.44 751.508 1079.76C761.669 1080.64 771.831 1079.98 781.992 1080.42C815.79 1082.19 849.587 1084.18 883.385 1086.16C911.439 1087.71 939.273 1089.04 967.327 1091.24C998.474 1093.67 1030.06 1094.34 1060.99 1099.2C1086.61 1103.17 1108.48 1114.66 1120.41 1139.62C1137.86 1176.51 1128.8 1214.95 1085.07 1231.74M1124.17 1605.94C1120.85 1633.77 1104.51 1650.12 1081.75 1660.06C1069.6 1665.36 1056.57 1668.46 1043.32 1668.23C1033.6 1668.01 1024.1 1668.23 1010.84 1668.23C980.139 1670.22 946.121 1665.58 911.881 1662.93C868.143 1659.62 824.626 1656.31 780.888 1651.67C752.171 1648.57 723.454 1646.81 694.737 1643.72C670.659 1641.29 646.581 1639.3 622.723 1637.09C601.517 1635.1 580.09 1633.33 558.883 1631.34C542.095 1629.8 525.307 1628.47 508.518 1626.48C493.939 1624.72 479.139 1624.05 464.338 1622.51C441.586 1620.3 419.054 1618.31 396.522 1615.66C372.665 1612.79 348.808 1611.02 324.95 1608.59C291.816 1605.5 258.681 1602.85 225.546 1599.09C191.748 1595.12 158.171 1590.48 124.373 1585.18C109.573 1582.97 94.9938 1578.55 81.5189 1571.04C65.1723 1561.76 53.0228 1548.95 50.8139 1527.52C48.384 1501.46 64.2888 1482.68 83.9488 1473.84C100.516 1466.55 118.409 1463.9 135.86 1459.93C157.288 1455.29 178.715 1451.09 200.142 1446.89C211.187 1444.68 222.453 1443.8 233.498 1441.59C252.274 1438.06 271.493 1435.41 290.49 1432.53C312.359 1429.22 334.228 1426.13 356.097 1423.04C389.232 1418.18 422.588 1414.86 455.944 1409.78C487.533 1404.92 519.342 1402.49 550.931 1398.07C573.242 1394.76 595.553 1392.11 617.864 1389.46C647.685 1385.7 677.506 1382.39 707.107 1378.64C730.964 1375.76 755.042 1372.67 778.899 1369.36C808.5 1365.38 837.88 1360.74 867.48 1356.77C881.176 1355 895.093 1354.34 908.789 1352.57C936.18 1349.03 964.014 1348.15 991.626 1347.05C1020.78 1345.72 1049.72 1347.27 1076.45 1362.73C1100.31 1376.43 1112.9 1398.52 1117.76 1426.79C1123.5 1459.48 1125.27 1492.84 1126.82 1525.98C1127.92 1552.93 1127.48 1579.43 1124.39 1605.94M886.699 1878.31C883.164 1892.45 874.107 1904.38 861.516 1915.2L860.853 1915.86C839.647 1933.09 812.918 1941.71 785.526 1941.71H323.183C296.454 1941.71 270.388 1933.31 249.403 1916.97L248.961 1916.75C233.94 1905.04 222.011 1891.56 212.733 1876.76C203.456 1861.96 197.27 1846.28 196.829 1829.71C196.166 1809.39 204.339 1791.06 219.581 1774.49C240.125 1752.18 267.517 1737.16 299.989 1726.99C324.067 1719.48 348.808 1714.84 374.432 1711.75C403.812 1708.22 433.412 1706.45 463.234 1707.33C479.359 1707.78 495.485 1708.44 511.39 1709.98C523.539 1711.31 536.131 1711.53 548.28 1712.86C561.313 1714.18 574.346 1715.95 587.379 1717.94C613.004 1721.91 638.186 1726.55 663.148 1732.52C690.54 1738.92 717.71 1746.21 743.997 1755.05C767.855 1763.22 790.607 1772.72 811.593 1784.43C828.823 1794.37 846.495 1804.09 860.191 1816.9C871.677 1827.72 882.501 1839.21 886.699 1853.35C889.129 1861.52 888.908 1870.14 886.92 1878.31M544.967 765.639C546.734 755.035 550.047 745.095 554.686 735.375C562.86 718.366 573.463 703.124 586.496 689.428C599.971 675.291 616.096 664.687 633.327 655.63C645.476 649.224 658.509 645.027 671.763 641.714C688.11 637.738 704.677 636.191 721.466 638.179C748.857 641.051 773.819 650.771 796.571 665.571C808.942 673.744 819.324 684.347 829.265 695.392C840.31 707.763 848.925 721.68 855.11 737.142C859.528 747.746 862.4 758.791 863.946 770.498C864.83 776.905 865.05 783.531 866.155 790.158C867.259 796.123 865.934 802.087 865.713 807.83C865.271 817.108 863.946 826.386 861.737 835.443C855.11 863.055 842.74 887.796 822.858 908.561C806.512 925.57 787.736 939.266 765.866 947.881C745.323 955.833 723.895 960.251 703.352 959.147C662.927 960.693 630.013 945.23 600.192 922.036C578.764 905.468 564.185 883.82 554.024 859.079C547.397 842.512 543.862 825.061 542.537 807.168C541.653 793.03 542.316 779.334 544.525 765.639M522.877 0C150.661 0 -151.309 301.749 -151.309 674.186V2005.77H1197.06V674.186C1197.06 301.749 895.314 0 522.877 0Z" fill="white"/>
</mask>
<g mask="url(#mask4_19_1709)">
<path d="M-151.309 0H1197.13V2006.86H-151.309V0Z" fill="#3C5462"/>
</g>
</g>
</g>
</g>
</g>
</svg>
