<svg width="1080" height="1920" viewBox="0 0 1080 1920" fill="none" xmlns="http://www.w3.org/2000/svg">
<mask id="mask0_19_4236" style="mask-type:luminance" maskUnits="userSpaceOnUse" x="0" y="0" width="1080" height="1920">
<path fill-rule="evenodd" clip-rule="evenodd" d="M0 0H1080V1920H0V0Z" fill="white"/>
</mask>
<g mask="url(#mask0_19_4236)">
<path d="M0 0H1080V1920H0V0Z" fill="white"/>
</g>
<mask id="mask1_19_4236" style="mask-type:luminance" maskUnits="userSpaceOnUse" x="0" y="0" width="1080" height="1920">
<path fill-rule="evenodd" clip-rule="evenodd" d="M0 0H1080V1920H0V0Z" fill="white"/>
</mask>
<g mask="url(#mask1_19_4236)">
<path d="M0 0H1080V1920H0V0Z" fill="#F0EBE6"/>
</g>
<mask id="mask2_19_4236" style="mask-type:luminance" maskUnits="userSpaceOnUse" x="0" y="0" width="1080" height="1920">
<path fill-rule="evenodd" clip-rule="evenodd" d="M0 0H1080V1920H0V0Z" fill="white"/>
</mask>
<g mask="url(#mask2_19_4236)">
<mask id="mask3_19_4236" style="mask-type:luminance" maskUnits="userSpaceOnUse" x="0" y="0" width="1080" height="1920">
<path d="M0 0H1080V1920H0V0Z" fill="white"/>
</mask>
<g mask="url(#mask3_19_4236)">
<g opacity="0.1">
<mask id="mask4_19_4236" style="mask-type:luminance" maskUnits="userSpaceOnUse" x="-126" y="0" width="1350" height="2007">
<path d="M-125.052 6.10352e-05H1223.39V2006.86H-125.052V6.10352e-05Z" fill="white"/>
</mask>
<g mask="url(#mask4_19_4236)">
<mask id="mask5_19_4236" style="mask-type:luminance" maskUnits="userSpaceOnUse" x="-126" y="0" width="1350" height="2006">
<path d="M1111.54 1232.18C1093.21 1239.25 1073.77 1242.34 1054.55 1245.87C1022.96 1251.84 991.375 1256.92 959.566 1260.23C944.986 1261.78 930.186 1263.77 915.607 1264.65C894.621 1265.98 873.636 1268.85 852.65 1271.06C822.387 1274.37 792.124 1277.68 761.639 1281.22C734.027 1284.31 706.635 1288.07 679.023 1291.16C659.584 1293.37 639.924 1294.69 620.485 1296.68C606.126 1298.01 591.768 1300 577.188 1300.88C552.889 1302.43 528.369 1305.3 504.291 1307.73C476.679 1310.6 449.066 1313.69 421.675 1316.78C392.295 1320.1 362.915 1322.75 333.536 1325.62C304.819 1328.27 276.323 1331.14 247.606 1333.57C224.632 1335.56 201.438 1337.33 178.243 1339.32C160.35 1340.86 142.237 1343.29 124.344 1344.4C106.672 1345.5 88.7787 1347.05 70.8859 1345.94C62.4917 1345.5 54.0975 1346.16 45.7033 1345.28C21.8461 1342.85 -0.464767 1336.66 -16.8113 1317.23C-28.7399 1303.09 -33.3788 1285.64 -36.4714 1268.19C-41.5521 1237.26 -45.3074 1206.11 -44.6447 1172.54C-45.7492 1154.64 -43.982 1134.98 -38.9013 1115.54C-32.7161 1090.8 -16.8113 1074.24 5.27863 1062.75C20.7416 1054.8 37.3091 1050.38 54.5393 1047.73C86.128 1043.09 117.938 1043.97 149.747 1044.64C178.464 1045.3 207.181 1047.73 235.898 1048.39C270.137 1049.27 304.598 1051.92 338.837 1053.91C349.661 1054.58 360.706 1055.24 371.751 1055.68C408.863 1057.67 445.974 1059.66 483.085 1061.42C501.199 1062.31 519.312 1062.31 537.205 1063.63C560.621 1065.18 583.815 1066.5 607.231 1068.71C627.774 1070.48 648.318 1071.14 668.862 1072.47C705.089 1074.9 741.538 1076.44 777.765 1079.76C787.927 1080.64 798.088 1079.98 808.249 1080.42C842.047 1082.19 875.845 1084.18 909.642 1086.16C937.697 1087.71 965.53 1089.04 993.584 1091.24C1024.73 1093.67 1056.32 1094.34 1087.25 1099.2C1112.87 1103.17 1134.74 1114.66 1146.67 1139.62C1164.12 1176.51 1155.06 1214.95 1111.32 1231.74M1150.42 1605.94C1147.11 1633.77 1130.76 1650.12 1108.01 1660.06C1095.86 1665.36 1082.83 1668.46 1069.57 1668.24C1059.85 1668.01 1050.36 1668.24 1037.1 1668.24C1006.4 1670.22 972.378 1665.58 938.138 1662.93C894.4 1659.62 850.883 1656.31 807.145 1651.67C778.428 1648.58 749.711 1646.81 720.994 1643.72C696.916 1641.29 672.838 1639.3 648.981 1637.09C627.774 1635.1 606.347 1633.33 585.141 1631.34C568.352 1629.8 551.564 1628.47 534.775 1626.49C520.196 1624.72 505.396 1624.05 490.595 1622.51C467.843 1620.3 445.311 1618.31 422.779 1615.66C398.922 1612.79 375.065 1611.02 351.208 1608.59C318.073 1605.5 284.938 1602.85 251.803 1599.09C218.005 1595.12 184.428 1590.48 150.631 1585.18C135.83 1582.97 121.251 1578.55 107.776 1571.04C91.4296 1561.76 79.2801 1548.95 77.0711 1527.52C74.6412 1501.46 90.546 1482.68 110.206 1473.84C126.774 1466.55 144.666 1463.9 162.117 1459.93C183.545 1455.29 204.972 1451.09 226.399 1446.89C237.444 1444.68 248.71 1443.8 259.755 1441.59C278.532 1438.06 297.75 1435.41 316.747 1432.54C338.616 1429.22 360.485 1426.13 382.355 1423.04C415.49 1418.18 448.845 1414.86 482.201 1409.78C513.79 1404.92 545.6 1402.49 577.188 1398.07C599.499 1394.76 621.81 1392.11 644.121 1389.46C673.942 1385.7 703.764 1382.39 733.364 1378.64C757.221 1375.76 781.3 1372.67 805.157 1369.36C834.757 1365.38 864.137 1360.74 893.738 1356.77C907.433 1355 921.35 1354.34 935.046 1352.57C962.437 1349.03 990.271 1348.15 1017.88 1347.05C1047.04 1345.72 1075.98 1347.27 1102.71 1362.73C1126.57 1376.43 1139.16 1398.52 1144.02 1426.79C1149.76 1459.48 1151.53 1492.84 1153.07 1525.98C1154.18 1552.93 1153.74 1579.43 1150.64 1605.94M912.956 1878.31C909.421 1892.45 900.365 1904.38 887.773 1915.2L887.111 1915.86C865.904 1933.09 839.175 1941.71 811.784 1941.71H349.44C322.712 1941.71 296.645 1933.31 275.66 1916.97L275.218 1916.75C260.197 1905.04 248.268 1891.56 238.991 1876.76C229.713 1861.96 223.528 1846.28 223.086 1829.71C222.423 1809.39 230.596 1791.06 245.839 1774.49C266.382 1752.18 293.774 1737.16 326.246 1726.99C350.324 1719.48 375.065 1714.85 400.689 1711.75C430.069 1708.22 459.669 1706.45 489.491 1707.33C505.617 1707.78 521.742 1708.44 537.647 1709.99C549.797 1711.31 562.388 1711.53 574.537 1712.86C587.57 1714.18 600.604 1715.95 613.637 1717.94C639.261 1721.91 664.444 1726.55 689.405 1732.52C716.797 1738.92 743.968 1746.21 770.255 1755.05C794.112 1763.22 816.864 1772.72 837.85 1784.43C855.08 1794.37 872.752 1804.09 886.448 1816.9C897.935 1827.72 908.759 1839.21 912.956 1853.35C915.386 1861.52 915.165 1870.14 913.177 1878.31M571.224 765.639C572.991 755.036 576.305 745.095 580.943 735.375C589.117 718.366 599.72 703.124 612.753 689.428C626.228 675.291 642.354 664.687 659.584 655.631C671.733 649.224 684.766 645.027 698.02 641.714C714.367 637.738 730.934 636.191 747.723 638.18C775.114 641.051 800.076 650.771 822.829 665.571C835.199 673.744 845.581 684.347 855.522 695.393C866.567 707.763 875.182 721.68 881.367 737.143C885.785 747.746 888.657 758.791 890.203 770.498C891.087 776.905 891.308 783.531 892.412 790.159C893.517 796.123 892.191 802.087 891.97 807.83C891.529 817.108 890.203 826.386 887.994 835.443C881.367 863.055 868.997 887.796 849.116 908.561C832.769 925.57 813.993 939.266 792.124 947.881C771.58 955.833 750.153 960.251 729.609 959.147C689.184 960.693 656.27 945.23 626.449 922.036C605.021 905.468 590.442 883.82 580.281 859.079C573.654 842.512 570.119 825.061 568.794 807.168C567.91 793.03 568.573 779.334 570.782 765.639M549.134 6.10352e-05C176.918 6.10352e-05 -125.052 301.749 -125.052 674.186V2005.77H1223.32V674.186C1223.32 301.749 921.571 6.10352e-05 549.134 6.10352e-05Z" fill="white"/>
</mask>
<g mask="url(#mask5_19_4236)">
<path d="M-125.052 6.10352e-05H1223.39V2006.86H-125.052V6.10352e-05Z" fill="#8E9581"/>
</g>
</g>
</g>
</g>
</g>
</svg>
