<svg width="1080" height="1920" viewBox="0 0 1080 1920" fill="none" xmlns="http://www.w3.org/2000/svg">
<mask id="mask0_19_4302" style="mask-type:luminance" maskUnits="userSpaceOnUse" x="0" y="0" width="1080" height="1920">
<path fill-rule="evenodd" clip-rule="evenodd" d="M0 0H1080V1920H0V0Z" fill="white"/>
</mask>
<g mask="url(#mask0_19_4302)">
<path d="M0 0H1080V1920H0V0Z" fill="white"/>
</g>
<mask id="mask1_19_4302" style="mask-type:luminance" maskUnits="userSpaceOnUse" x="0" y="0" width="1080" height="1920">
<path fill-rule="evenodd" clip-rule="evenodd" d="M0 0H1080V1920H0V0Z" fill="white"/>
</mask>
<g mask="url(#mask1_19_4302)">
<path d="M0 0H1080V1920H0V0Z" fill="#8E9581"/>
</g>
<mask id="mask2_19_4302" style="mask-type:luminance" maskUnits="userSpaceOnUse" x="0" y="0" width="1080" height="1920">
<path fill-rule="evenodd" clip-rule="evenodd" d="M0 0H1080V1920H0V0Z" fill="white"/>
</mask>
<g mask="url(#mask2_19_4302)">
<mask id="mask3_19_4302" style="mask-type:luminance" maskUnits="userSpaceOnUse" x="0" y="0" width="1080" height="1920">
<path d="M0 0H1080V1920H0V0Z" fill="white"/>
</mask>
<g mask="url(#mask3_19_4302)">
<g opacity="0.34">
<mask id="mask4_19_4302" style="mask-type:luminance" maskUnits="userSpaceOnUse" x="-135" y="0" width="1350" height="2007">
<path d="M-134.219 6.10352e-05H1214.22V2006.86H-134.219V6.10352e-05Z" fill="white"/>
</mask>
<g mask="url(#mask4_19_4302)">
<mask id="mask5_19_4302" style="mask-type:luminance" maskUnits="userSpaceOnUse" x="-135" y="0" width="1350" height="2006">
<path d="M1102.38 1232.18C1084.04 1239.25 1064.6 1242.34 1045.39 1245.87C1013.8 1251.84 982.208 1256.92 950.399 1260.23C935.819 1261.78 921.019 1263.77 906.44 1264.65C885.454 1265.98 864.469 1268.85 843.483 1271.06C813.22 1274.37 782.957 1277.68 752.472 1281.22C724.86 1284.31 697.468 1288.07 669.856 1291.16C650.417 1293.37 630.757 1294.69 611.318 1296.68C596.959 1298.01 582.601 1300 568.021 1300.88C543.722 1302.43 519.202 1305.3 495.124 1307.73C467.512 1310.6 439.899 1313.69 412.508 1316.78C383.128 1320.1 353.748 1322.75 324.369 1325.62C295.652 1328.27 267.156 1331.14 238.439 1333.57C215.465 1335.56 192.271 1337.33 169.076 1339.32C151.183 1340.86 133.07 1343.29 115.177 1344.4C97.5046 1345.5 79.6118 1347.05 61.7189 1345.94C53.3247 1345.5 44.9305 1346.16 36.5363 1345.28C12.6791 1342.85 -9.63176 1336.66 -25.9783 1317.23C-37.9069 1303.09 -42.5458 1285.64 -45.6384 1268.19C-50.7191 1237.26 -54.4744 1206.11 -53.8117 1172.54C-54.9162 1154.64 -53.149 1134.98 -48.0683 1115.54C-41.8831 1090.8 -25.9783 1074.24 -3.88836 1062.75C11.5746 1054.8 28.1421 1050.38 45.3723 1047.73C76.961 1043.09 108.771 1043.97 140.58 1044.64C169.297 1045.3 198.014 1047.73 226.731 1048.39C260.97 1049.27 295.431 1051.92 329.67 1053.91C340.494 1054.58 351.539 1055.24 362.584 1055.68C399.696 1057.67 436.807 1059.66 473.918 1061.42C492.032 1062.31 510.145 1062.31 528.038 1063.63C551.454 1065.18 574.648 1066.5 598.064 1068.71C618.607 1070.48 639.151 1071.14 659.695 1072.47C695.922 1074.9 732.371 1076.44 768.598 1079.76C778.76 1080.64 788.921 1079.98 799.082 1080.42C832.88 1082.19 866.678 1084.18 900.475 1086.16C928.53 1087.71 956.363 1089.04 984.417 1091.24C1015.56 1093.67 1047.15 1094.34 1078.08 1099.2C1103.7 1103.17 1125.57 1114.66 1137.5 1139.62C1154.95 1176.51 1145.9 1214.95 1102.16 1231.74M1141.26 1605.94C1137.94 1633.77 1121.6 1650.12 1098.84 1660.06C1086.69 1665.36 1073.66 1668.46 1060.41 1668.24C1050.69 1668.01 1041.19 1668.24 1027.93 1668.24C997.229 1670.22 963.211 1665.58 928.971 1662.93C885.233 1659.62 841.716 1656.31 797.978 1651.67C769.261 1648.58 740.544 1646.81 711.827 1643.72C687.749 1641.29 663.671 1639.3 639.814 1637.09C618.607 1635.1 597.18 1633.33 575.974 1631.34C559.185 1629.8 542.397 1628.47 525.608 1626.49C511.029 1624.72 496.229 1624.06 481.428 1622.51C458.676 1620.3 436.144 1618.31 413.612 1615.66C389.755 1612.79 365.898 1611.02 342.041 1608.59C308.906 1605.5 275.771 1602.85 242.636 1599.09C208.838 1595.12 175.261 1590.48 141.464 1585.18C126.663 1582.97 112.084 1578.55 98.6091 1571.04C82.2626 1561.76 70.1131 1548.95 67.9041 1527.52C65.4742 1501.46 81.379 1482.68 101.039 1473.84C117.607 1466.55 135.499 1463.9 152.95 1459.93C174.378 1455.29 195.805 1451.09 217.232 1446.89C228.277 1444.68 239.543 1443.8 250.588 1441.59C269.365 1438.06 288.583 1435.41 307.58 1432.54C329.449 1429.22 351.318 1426.13 373.188 1423.04C406.323 1418.18 439.678 1414.86 473.034 1409.78C504.623 1404.92 536.433 1402.49 568.021 1398.07C590.332 1394.76 612.643 1392.11 634.954 1389.46C664.775 1385.7 694.597 1382.39 724.197 1378.64C748.054 1375.76 772.133 1372.67 795.99 1369.36C825.59 1365.38 854.97 1360.74 884.571 1356.77C898.266 1355 912.183 1354.34 925.879 1352.57C953.27 1349.03 981.104 1348.15 1008.72 1347.05C1037.88 1345.72 1066.81 1347.27 1093.54 1362.73C1117.4 1376.43 1129.99 1398.52 1134.85 1426.79C1140.59 1459.48 1142.36 1492.84 1143.91 1525.98C1145.01 1552.93 1144.57 1579.43 1141.48 1605.94M903.789 1878.31C900.254 1892.45 891.198 1904.38 878.606 1915.2L877.944 1915.86C856.737 1933.09 830.008 1941.71 802.617 1941.71H340.273C313.545 1941.71 287.478 1933.31 266.493 1916.97L266.051 1916.75C251.03 1905.04 239.101 1891.56 229.824 1876.76C220.546 1861.96 214.361 1846.28 213.919 1829.71C213.256 1809.39 221.429 1791.06 236.671 1774.49C257.215 1752.18 284.607 1737.16 317.079 1726.99C341.157 1719.48 365.898 1714.85 391.522 1711.75C420.902 1708.22 450.502 1706.45 480.324 1707.33C496.45 1707.78 512.575 1708.44 528.48 1709.99C540.63 1711.31 553.221 1711.53 565.37 1712.86C578.403 1714.18 591.437 1715.95 604.47 1717.94C630.094 1721.91 655.277 1726.55 680.238 1732.52C707.63 1738.92 734.801 1746.21 761.088 1755.05C784.945 1763.22 807.697 1772.72 828.683 1784.43C845.913 1794.37 863.585 1804.09 877.281 1816.9C888.768 1827.72 899.592 1839.21 903.789 1853.35C906.219 1861.52 905.998 1870.14 904.01 1878.31M562.057 765.639C563.824 755.036 567.138 745.095 571.776 735.375C579.95 718.366 590.553 703.124 603.586 689.428C617.061 675.291 633.187 664.687 650.417 655.631C662.566 649.224 675.599 645.027 688.853 641.714C705.2 637.738 721.767 636.191 738.556 638.179C765.947 641.051 790.909 650.771 813.662 665.571C826.032 673.744 836.414 684.347 846.355 695.393C857.4 707.763 866.015 721.68 872.2 737.143C876.618 747.746 879.49 758.791 881.036 770.498C881.92 776.905 882.141 783.532 883.245 790.158C884.35 796.123 883.024 802.087 882.803 807.83C882.362 817.108 881.036 826.386 878.827 835.443C872.2 863.055 859.83 887.796 839.949 908.561C823.602 925.57 804.826 939.266 782.957 947.881C762.413 955.833 740.986 960.251 720.442 959.147C680.017 960.693 647.103 945.23 617.282 922.036C595.855 905.468 581.275 883.82 571.114 859.079C564.487 842.512 560.952 825.061 559.627 807.168C558.743 793.03 559.406 779.334 561.615 765.639M539.967 6.10352e-05C167.751 6.10352e-05 -134.219 301.749 -134.219 674.186V2005.77H1214.15V674.186C1214.15 301.749 912.404 6.10352e-05 539.967 6.10352e-05Z" fill="white"/>
</mask>
<g mask="url(#mask5_19_4302)">
<path d="M-134.219 6.10352e-05H1214.22V2006.86H-134.219V6.10352e-05Z" fill="#3C5462"/>
</g>
</g>
</g>
</g>
</g>
</svg>
