<svg width="106" height="158" viewBox="0 0 106 158" fill="none" xmlns="http://www.w3.org/2000/svg">
<mask id="mask0_15_612" style="mask-type:luminance" maskUnits="userSpaceOnUse" x="0" y="0" width="106" height="158">
<path d="M0.438477 0.336182H105.963V157.386H0.438477V0.336182Z" fill="white"/>
</mask>
<g mask="url(#mask0_15_612)">
<mask id="mask1_15_612" style="mask-type:luminance" maskUnits="userSpaceOnUse" x="0" y="0" width="106" height="158">
<path d="M97.2102 96.7622C95.7754 97.3154 94.2542 97.5574 92.7502 97.834C90.2782 98.3007 87.8062 98.6983 85.3169 98.9576C84.1759 99.0786 83.0177 99.2342 81.8768 99.3033C80.2345 99.4071 78.5923 99.6318 76.95 99.8047C74.5817 100.064 72.2134 100.323 69.8278 100.6C67.667 100.842 65.5234 101.136 63.3626 101.378C61.8413 101.551 60.3028 101.654 58.7816 101.81C57.6579 101.914 56.5343 102.069 55.3934 102.138C53.4918 102.259 51.5729 102.484 49.6887 102.674C47.5278 102.899 45.367 103.141 43.2234 103.383C40.9243 103.642 38.6251 103.85 36.326 104.075C34.0787 104.282 31.8487 104.507 29.6014 104.697C27.8036 104.852 25.9884 104.991 24.1733 105.146C22.7731 105.267 21.3556 105.457 19.9553 105.544C18.5724 105.63 17.1721 105.751 15.7719 105.665C15.115 105.63 14.4581 105.682 13.8012 105.613C11.9342 105.423 10.1883 104.939 8.90903 103.418C7.97554 102.311 7.61252 100.946 7.3705 99.5799C6.9729 97.1598 6.67902 94.7223 6.73089 92.0947C6.64445 90.6945 6.78274 89.156 7.18034 87.6347C7.66438 85.6986 8.90903 84.4021 10.6377 83.5032C11.8478 82.8808 13.1443 82.5351 14.4927 82.3277C16.9647 81.9647 19.454 82.0338 21.9433 82.0857C24.1906 82.1375 26.4379 82.3277 28.6852 82.3795C31.3646 82.4487 34.0614 82.6561 36.7408 82.8117C37.5879 82.8636 38.4522 82.9154 39.3166 82.95C42.2208 83.1056 45.125 83.2612 48.0292 83.3994C49.4467 83.4686 50.8642 83.4686 52.2644 83.5723C54.0968 83.6933 55.9119 83.7971 57.7443 83.9699C59.352 84.1082 60.9597 84.1601 62.5674 84.2638C65.4024 84.454 68.2548 84.5749 71.0898 84.8343C71.885 84.9034 72.6802 84.8515 73.4754 84.8861C76.1203 85.0244 78.7651 85.18 81.41 85.3356C83.6055 85.4566 85.7836 85.5603 87.9791 85.7332C90.4165 85.9233 92.8885 85.9752 95.3087 86.3555C97.3139 86.6667 99.0253 87.5656 99.9588 89.519C101.324 92.4059 100.616 95.4138 97.1929 96.7276M100.253 126.012C99.9934 128.19 98.7142 129.469 96.9336 130.247C95.9828 130.662 94.9629 130.904 93.9257 130.886C93.1651 130.869 92.4217 130.886 91.3845 130.886C88.9817 131.042 86.3195 130.679 83.64 130.472C80.2172 130.212 76.8117 129.953 73.3889 129.59C71.1417 129.348 68.8944 129.21 66.6471 128.968C64.7628 128.777 62.8785 128.622 61.0116 128.449C59.352 128.293 57.6752 128.155 56.0157 128C54.7019 127.879 53.3881 127.775 52.0743 127.619C50.9333 127.481 49.7751 127.429 48.6169 127.308C46.8364 127.135 45.0731 126.98 43.3098 126.772C41.4429 126.547 39.5759 126.409 37.7089 126.219C35.1159 125.977 32.5228 125.77 29.9298 125.476C27.2849 125.164 24.6573 124.801 22.0125 124.387C20.8542 124.214 19.7133 123.868 18.6588 123.28C17.3796 122.554 16.4288 121.552 16.2559 119.875C16.0658 117.835 17.3104 116.365 18.849 115.674C20.1455 115.104 21.5457 114.896 22.9114 114.585C24.5882 114.222 26.265 113.893 27.9418 113.565C28.8062 113.392 29.6878 113.323 30.5521 113.15C32.0215 112.874 33.5255 112.666 35.0122 112.441C36.7235 112.182 38.435 111.94 40.1463 111.698C42.7394 111.318 45.3497 111.058 47.96 110.661C50.432 110.28 52.9213 110.09 55.3934 109.745C57.1393 109.485 58.8853 109.278 60.6313 109.07C62.965 108.777 65.2987 108.517 67.6151 108.223C69.4821 107.999 71.3664 107.757 73.2334 107.497C75.5498 107.186 77.8489 106.823 80.1654 106.512C81.2372 106.374 82.3262 106.322 83.398 106.184C85.5416 105.907 87.7197 105.838 89.8806 105.751C92.1625 105.648 94.427 105.769 96.5187 106.979C98.3857 108.05 99.3711 109.779 99.7514 111.992C100.201 114.55 100.339 117.161 100.46 119.754C100.547 121.863 100.512 123.937 100.27 126.012M81.6693 147.326C81.3927 148.433 80.684 149.366 79.6986 150.213L79.6468 150.265C77.9872 151.613 75.8955 152.288 73.752 152.288H37.5706C35.4789 152.288 33.4391 151.631 31.7968 150.351L31.7622 150.334C30.5867 149.418 29.6532 148.363 28.9272 147.205C28.2011 146.047 27.7171 144.82 27.6825 143.523C27.6307 141.933 28.2703 140.498 29.4631 139.201C31.0708 137.455 33.2143 136.28 35.7555 135.485C37.6398 134.897 39.5759 134.534 41.5812 134.292C43.8803 134.015 46.1968 133.877 48.5305 133.946C49.7924 133.981 51.0544 134.033 52.299 134.154C53.2498 134.257 54.2351 134.275 55.1859 134.378C56.2058 134.482 57.2257 134.62 58.2457 134.776C60.2509 135.087 62.2216 135.45 64.1751 135.917C66.3186 136.418 68.4449 136.989 70.502 137.68C72.369 138.32 74.1496 139.063 75.7918 139.979C77.1402 140.757 78.5231 141.518 79.5949 142.52C80.4938 143.368 81.3409 144.266 81.6693 145.373C81.8595 146.012 81.8422 146.687 81.6866 147.326M54.9266 60.2524C55.0649 59.4226 55.3242 58.6447 55.6872 57.8841C56.3268 56.553 57.1566 55.3602 58.1765 54.2884C59.231 53.1821 60.493 52.3523 61.8413 51.6435C62.7921 51.1422 63.812 50.8138 64.8493 50.5545C66.1285 50.2433 67.425 50.1223 68.7388 50.2779C70.8824 50.5026 72.8358 51.2632 74.6163 52.4214C75.5844 53.061 76.3968 53.8908 77.1748 54.7552C78.0391 55.7232 78.7133 56.8123 79.1973 58.0224C79.5431 58.8521 79.7678 59.7165 79.8888 60.6327C79.9579 61.134 79.9752 61.6526 80.0617 62.1712C80.1481 62.638 80.0444 63.1047 80.0271 63.5542C79.9925 64.2802 79.8888 65.0063 79.7159 65.715C79.1973 67.8759 78.2292 69.812 76.6734 71.437C75.3942 72.768 73.9248 73.8398 72.2134 74.514C70.6058 75.1364 68.9289 75.4821 67.3213 75.3957C64.1578 75.5167 61.582 74.3066 59.2483 72.4915C57.5715 71.1949 56.4305 69.5008 55.6354 67.5647C55.1168 66.2682 54.8402 64.9025 54.7364 63.5023C54.6673 62.3959 54.7192 61.3242 54.892 60.2524M53.1979 0.336182C24.0696 0.336182 0.438477 23.95 0.438477 53.0956V157.301H105.957V53.0956C105.957 23.95 82.3435 0.336182 53.1979 0.336182Z" fill="white"/>
</mask>
<g mask="url(#mask1_15_612)">
<path d="M0.438477 0.336182H105.963V157.386H0.438477V0.336182Z" fill="#8E9581"/>
</g>
</g>
</svg>
