<svg width="795" height="158" viewBox="0 0 795 158" fill="none" xmlns="http://www.w3.org/2000/svg">
<g clip-path="url(#clip0_15_1245)">
<mask id="mask0_15_1245" style="mask-type:luminance" maskUnits="userSpaceOnUse" x="-143" y="-102" width="1080" height="1920">
<path d="M-143 -102H937V1818H-143V-102Z" fill="white"/>
</mask>
<g mask="url(#mask0_15_1245)">
<mask id="mask1_15_1245" style="mask-type:luminance" maskUnits="userSpaceOnUse" x="-143" y="-102" width="1080" height="1920">
<path d="M-143 -102H937V1818H-143V-102Z" fill="white"/>
</mask>
<g mask="url(#mask1_15_1245)">
<mask id="mask2_15_1245" style="mask-type:luminance" maskUnits="userSpaceOnUse" x="-1" y="0" width="106" height="158">
<path d="M-0.561523 0.336182H104.963V157.386H-0.561523V0.336182Z" fill="white"/>
</mask>
<g mask="url(#mask2_15_1245)">
<mask id="mask3_15_1245" style="mask-type:luminance" maskUnits="userSpaceOnUse" x="-1" y="0" width="106" height="158">
<path d="M96.2102 96.7622C94.7754 97.3154 93.2542 97.5574 91.7502 97.834C89.2782 98.3007 86.8062 98.6983 84.3169 98.9576C83.1759 99.0786 82.0177 99.2342 80.8768 99.3033C79.2345 99.4071 77.5923 99.6318 75.95 99.8047C73.5817 100.064 71.2134 100.323 68.8278 100.6C66.667 100.842 64.5234 101.136 62.3626 101.378C60.8413 101.551 59.3028 101.654 57.7816 101.81C56.6579 101.914 55.5343 102.069 54.3934 102.138C52.4918 102.259 50.5729 102.484 48.6887 102.674C46.5278 102.899 44.367 103.141 42.2234 103.383C39.9243 103.642 37.6251 103.85 35.326 104.075C33.0787 104.282 30.8487 104.507 28.6014 104.697C26.8036 104.852 24.9884 104.991 23.1733 105.146C21.7731 105.267 20.3556 105.457 18.9553 105.544C17.5724 105.63 16.1721 105.751 14.7719 105.665C14.115 105.63 13.4581 105.682 12.8012 105.613C10.9342 105.423 9.18825 104.939 7.90903 103.418C6.97554 102.311 6.61252 100.946 6.3705 99.5799C5.9729 97.1598 5.67902 94.7223 5.73089 92.0947C5.64445 90.6945 5.78274 89.156 6.18034 87.6347C6.66438 85.6986 7.90903 84.4021 9.63771 83.5032C10.8478 82.8808 12.1443 82.5351 13.4927 82.3277C15.9647 81.9647 18.454 82.0338 20.9433 82.0857C23.1906 82.1375 25.4379 82.3277 27.6852 82.3795C30.3646 82.4487 33.0614 82.6561 35.7408 82.8117C36.5879 82.8636 37.4522 82.9154 38.3166 82.95C41.2208 83.1056 44.125 83.2612 47.0292 83.3994C48.4467 83.4686 49.8642 83.4686 51.2644 83.5723C53.0968 83.6933 54.9119 83.7971 56.7443 83.9699C58.352 84.1082 59.9597 84.1601 61.5674 84.2638C64.4024 84.454 67.2548 84.5749 70.0898 84.8343C70.885 84.9034 71.6802 84.8515 72.4754 84.8861C75.1203 85.0244 77.7651 85.18 80.41 85.3356C82.6055 85.4566 84.7836 85.5603 86.9791 85.7332C89.4165 85.9233 91.8885 85.9752 94.3087 86.3555C96.3139 86.6667 98.0253 87.5656 98.9588 89.519C100.324 92.4059 99.6157 95.4138 96.1929 96.7276M99.2527 126.012C98.9934 128.19 97.7142 129.469 95.9336 130.247C94.9828 130.662 93.9629 130.904 92.9257 130.886C92.1651 130.869 91.4217 130.886 90.3845 130.886C87.9817 131.042 85.3195 130.679 82.64 130.472C79.2172 130.212 75.8117 129.953 72.3889 129.59C70.1417 129.348 67.8944 129.21 65.6471 128.968C63.7628 128.777 61.8785 128.622 60.0116 128.449C58.352 128.293 56.6752 128.155 55.0157 128C53.7019 127.879 52.3881 127.775 51.0743 127.619C49.9333 127.481 48.7751 127.429 47.6169 127.308C45.8364 127.135 44.0731 126.98 42.3098 126.772C40.4429 126.547 38.5759 126.409 36.7089 126.219C34.1159 125.977 31.5228 125.77 28.9298 125.476C26.2849 125.164 23.6573 124.801 21.0125 124.387C19.8542 124.214 18.7133 123.868 17.6588 123.28C16.3796 122.554 15.4288 121.552 15.2559 119.875C15.0658 117.835 16.3104 116.365 17.849 115.674C19.1455 115.104 20.5457 114.896 21.9114 114.585C23.5882 114.222 25.265 113.893 26.9418 113.565C27.8062 113.392 28.6878 113.323 29.5521 113.15C31.0215 112.874 32.5255 112.666 34.0122 112.441C35.7235 112.182 37.435 111.94 39.1463 111.698C41.7394 111.318 44.3497 111.058 46.96 110.661C49.432 110.28 51.9213 110.09 54.3934 109.745C56.1393 109.485 57.8853 109.278 59.6313 109.07C61.965 108.777 64.2987 108.517 66.6151 108.223C68.4821 107.999 70.3664 107.757 72.2334 107.497C74.5498 107.186 76.8489 106.823 79.1654 106.512C80.2372 106.374 81.3262 106.322 82.398 106.184C84.5416 105.907 86.7197 105.838 88.8806 105.751C91.1625 105.648 93.427 105.769 95.5187 106.979C97.3857 108.05 98.3711 109.779 98.7514 111.992C99.2008 114.55 99.3391 117.161 99.4601 119.754C99.5466 121.863 99.512 123.937 99.27 126.012M80.6693 147.326C80.3927 148.433 79.684 149.366 78.6986 150.213L78.6468 150.265C76.9872 151.613 74.8955 152.288 72.752 152.288H36.5706C34.4789 152.288 32.4391 151.631 30.7968 150.351L30.7622 150.334C29.5867 149.418 28.6532 148.363 27.9272 147.205C27.2011 146.047 26.7171 144.82 26.6825 143.523C26.6307 141.933 27.2703 140.498 28.4631 139.201C30.0708 137.455 32.2143 136.28 34.7555 135.485C36.6398 134.897 38.5759 134.534 40.5812 134.292C42.8803 134.015 45.1968 133.877 47.5305 133.946C48.7924 133.981 50.0544 134.033 51.299 134.154C52.2498 134.257 53.2351 134.275 54.1859 134.378C55.2058 134.482 56.2257 134.62 57.2457 134.776C59.2509 135.087 61.2216 135.45 63.1751 135.917C65.3186 136.418 67.4449 136.989 69.502 137.68C71.369 138.32 73.1496 139.063 74.7918 139.979C76.1402 140.757 77.5231 141.518 78.5949 142.52C79.4938 143.368 80.3409 144.266 80.6693 145.373C80.8595 146.012 80.8422 146.687 80.6866 147.326M53.9266 60.2524C54.0649 59.4226 54.3242 58.6447 54.6872 57.8841C55.3268 56.553 56.1566 55.3602 57.1765 54.2884C58.231 53.1821 59.493 52.3523 60.8413 51.6435C61.7921 51.1422 62.812 50.8138 63.8493 50.5545C65.1285 50.2433 66.425 50.1223 67.7388 50.2779C69.8824 50.5026 71.8358 51.2632 73.6163 52.4214C74.5844 53.061 75.3968 53.8908 76.1748 54.7552C77.0391 55.7232 77.7133 56.8123 78.1973 58.0224C78.5431 58.8521 78.7678 59.7165 78.8888 60.6327C78.9579 61.134 78.9752 61.6526 79.0617 62.1712C79.1481 62.638 79.0444 63.1047 79.0271 63.5542C78.9925 64.2802 78.8888 65.0063 78.7159 65.715C78.1973 67.8759 77.2292 69.812 75.6734 71.437C74.3942 72.768 72.9248 73.8398 71.2134 74.514C69.6058 75.1364 67.9289 75.4821 66.3213 75.3957C63.1578 75.5167 60.582 74.3066 58.2483 72.4915C56.5715 71.1949 55.4305 69.5008 54.6354 67.5647C54.1168 66.2682 53.8402 64.9025 53.7364 63.5023C53.6673 62.3959 53.7192 61.3242 53.892 60.2524M52.1979 0.336182C23.0696 0.336182 -0.561523 23.95 -0.561523 53.0956V157.301H104.957V53.0956C104.957 23.95 81.3435 0.336182 52.1979 0.336182Z" fill="white"/>
</mask>
<g mask="url(#mask3_15_1245)">
<path d="M-0.561523 0.336182H104.963V157.386H-0.561523V0.336182Z" fill="#8E9581"/>
</g>
</g>
</g>
</g>
<mask id="mask4_15_1245" style="mask-type:luminance" maskUnits="userSpaceOnUse" x="-143" y="-102" width="1080" height="1920">
<path d="M-143 -102H937V1818H-143V-102Z" fill="white"/>
</mask>
<g mask="url(#mask4_15_1245)">
<mask id="mask5_15_1245" style="mask-type:luminance" maskUnits="userSpaceOnUse" x="-143" y="-102" width="1080" height="1920">
<path d="M-143 -102H937V1818H-143V-102Z" fill="white"/>
</mask>
<g mask="url(#mask5_15_1245)">
<mask id="mask6_15_1245" style="mask-type:luminance" maskUnits="userSpaceOnUse" x="135" y="48" width="55" height="58">
<path d="M135.522 48.0132H189.052V105.035H135.522V48.0132Z" fill="white"/>
</mask>
<g mask="url(#mask6_15_1245)">
<mask id="mask7_15_1245" style="mask-type:luminance" maskUnits="userSpaceOnUse" x="135" y="48" width="54" height="58">
<path d="M175.683 83.4561C175.683 78.4239 173.641 77.7091 168.755 77.7091V76.761H188.986V77.7091C185.835 77.7091 184.493 78.4239 184.493 83.4561V100.682C183.312 100.522 182.203 100.449 181.27 100.449C175.61 100.449 172.299 105.014 161.287 105.014C145.782 105.014 135.542 93.681 135.542 76.6006C135.542 59.5202 145.534 48.1868 161.199 48.1868C170.491 48.1868 174.969 52.0375 178.046 52.0375C180.409 52.0375 181.036 50.2288 181.197 48.5806H181.985V68.6511H181.124C180.103 57.1572 172.081 49.2953 163.023 49.2953C151.368 49.2953 145.782 58.4992 145.782 76.6006C145.782 94.8625 151.529 103.993 162.862 103.993C168.769 103.993 175.698 100.609 175.698 96.4377L175.683 83.4561Z" fill="white"/>
</mask>
<g mask="url(#mask7_15_1245)">
<path d="M128.249 37.8306H409.865V112.307H128.249V37.8306Z" fill="#8E9581"/>
</g>
</g>
</g>
</g>
<mask id="mask8_15_1245" style="mask-type:luminance" maskUnits="userSpaceOnUse" x="-143" y="-102" width="1080" height="1920">
<path d="M-143 -102H937V1818H-143V-102Z" fill="white"/>
</mask>
<g mask="url(#mask8_15_1245)">
<mask id="mask9_15_1245" style="mask-type:luminance" maskUnits="userSpaceOnUse" x="-143" y="-102" width="1080" height="1920">
<path d="M-143 -102H937V1818H-143V-102Z" fill="white"/>
</mask>
<g mask="url(#mask9_15_1245)">
<mask id="mask10_15_1245" style="mask-type:luminance" maskUnits="userSpaceOnUse" x="194" y="66" width="39" height="40">
<path d="M194.289 66.6323H232.4V105.034H194.289V66.6323Z" fill="white"/>
</mask>
<g mask="url(#mask10_15_1245)">
<mask id="mask11_15_1245" style="mask-type:luminance" maskUnits="userSpaceOnUse" x="194" y="66" width="39" height="40">
<path d="M218.975 80.8598L216.306 82.2017C206.227 87.161 202.609 89.8303 202.609 95.1105C202.609 99.2821 204.651 101.878 208.75 101.878C214.424 101.878 218.989 96.2044 218.989 86.9276L218.975 80.8598ZM210.311 67.6447C205.191 67.6447 200.625 69.7743 200.625 72.4436C200.625 74.5732 203.543 75.2733 203.543 78.6573C203.543 81.2536 201.734 82.756 199.065 82.756C196.396 82.756 194.82 80.9473 194.82 78.351C194.82 72.9249 201.194 66.7842 211.419 66.7842C218.508 66.7842 226.924 69.541 226.924 78.7448V98.4069C226.924 100.77 227.872 101.47 229.287 101.47C230.235 101.47 230.935 101.149 231.884 100.361L232.277 100.828C229.681 103.745 227.552 105 224.561 105C221.104 105 218.975 103.352 218.975 99.5738V93.5206C216.218 102.331 209.931 105.014 204.097 105.014C198.117 105.014 194.339 102.097 194.339 96.8316C194.339 92.2662 197.169 89.8303 206.227 86.0525C208.662 85.0314 210.632 84.1709 212.761 83.0623C217.648 80.6994 219.135 78.4969 218.975 75.1858C218.741 69.6722 214.964 67.6302 210.311 67.6302" fill="white"/>
</mask>
<g mask="url(#mask11_15_1245)">
<path d="M128.249 37.8308H409.865V112.308H128.249V37.8308Z" fill="#8E9581"/>
</g>
</g>
</g>
</g>
<mask id="mask12_15_1245" style="mask-type:luminance" maskUnits="userSpaceOnUse" x="-143" y="-102" width="1080" height="1920">
<path d="M-143 -102H937V1818H-143V-102Z" fill="white"/>
</mask>
<g mask="url(#mask12_15_1245)">
<mask id="mask13_15_1245" style="mask-type:luminance" maskUnits="userSpaceOnUse" x="-143" y="-102" width="1080" height="1920">
<path d="M-143 -102H937V1818H-143V-102Z" fill="white"/>
</mask>
<g mask="url(#mask13_15_1245)">
<mask id="mask14_15_1245" style="mask-type:luminance" maskUnits="userSpaceOnUse" x="234" y="66" width="34" height="39">
<path d="M234.146 66.6323H267.311V104.162H234.146V66.6323Z" fill="white"/>
</mask>
<g mask="url(#mask14_15_1245)">
<mask id="mask15_15_1245" style="mask-type:luminance" maskUnits="userSpaceOnUse" x="234" y="66" width="34" height="39">
<path d="M257.92 75.5068C257.92 72.6771 260.283 72.0499 260.283 69.9203C260.283 68.8118 259.495 67.9512 257.613 67.9512C251.794 67.9512 247.228 73.5377 247.228 84.1564V99.2676C247.228 102.097 248.337 103.366 253.442 103.366V104.154H234.392V103.366C237.455 103.366 239.191 102.739 239.191 99.9824V72.4291C239.191 68.9722 238.083 68.418 234.392 68.418V67.6303H247.214V77.0675C248.862 70.1391 253.121 66.7551 258.387 66.7551C263.74 66.7551 267.124 70.2996 267.124 74.5441C267.124 77.6947 265.242 79.5034 262.398 79.5034C259.641 79.5034 257.905 77.8552 257.905 75.4922" fill="white"/>
</mask>
<g mask="url(#mask15_15_1245)">
<path d="M128.249 37.8308H409.865V112.308H128.249V37.8308Z" fill="#8E9581"/>
</g>
</g>
</g>
</g>
<mask id="mask16_15_1245" style="mask-type:luminance" maskUnits="userSpaceOnUse" x="-143" y="-102" width="1080" height="1920">
<path d="M-143 -102H937V1818H-143V-102Z" fill="white"/>
</mask>
<g mask="url(#mask16_15_1245)">
<mask id="mask17_15_1245" style="mask-type:luminance" maskUnits="userSpaceOnUse" x="-143" y="-102" width="1080" height="1920">
<path d="M-143 -102H937V1818H-143V-102Z" fill="white"/>
</mask>
<g mask="url(#mask17_15_1245)">
<mask id="mask18_15_1245" style="mask-type:luminance" maskUnits="userSpaceOnUse" x="270" y="45" width="45" height="61">
<path d="M270.802 45.104H314.441V105.035H270.802V45.104Z" fill="white"/>
</mask>
<g mask="url(#mask18_15_1245)">
<mask id="mask19_15_1245" style="mask-type:luminance" maskUnits="userSpaceOnUse" x="271" y="45" width="44" height="61">
<path d="M301.533 85.6589C301.533 74.7922 297.2 68.8119 290.52 68.8119C283.358 68.8119 279.507 74.3984 279.507 85.5714C279.507 96.8319 283.358 102.652 290.52 102.652C297.215 102.652 301.533 96.5985 301.533 85.6589ZM271.077 85.6589C271.077 74.2526 277.772 66.7699 287.603 66.7699C294.837 66.7699 299.651 70.5477 301.533 77.622V49.9958C301.533 46.5389 300.424 45.8971 296.734 45.8971V45.124H309.555V99.9825C309.555 102.739 311.291 103.367 314.354 103.367V104.154H301.533V93.6084C299.563 101.237 294.531 105.015 287.369 105.015C277.684 105.015 271.077 97.2257 271.077 85.6589Z" fill="white"/>
</mask>
<g mask="url(#mask19_15_1245)">
<path d="M128.249 37.8308H409.865V112.308H128.249V37.8308Z" fill="#8E9581"/>
</g>
</g>
</g>
</g>
<mask id="mask20_15_1245" style="mask-type:luminance" maskUnits="userSpaceOnUse" x="-143" y="-102" width="1080" height="1920">
<path d="M-143 -102H937V1818H-143V-102Z" fill="white"/>
</mask>
<g mask="url(#mask20_15_1245)">
<mask id="mask21_15_1245" style="mask-type:luminance" maskUnits="userSpaceOnUse" x="-143" y="-102" width="1080" height="1920">
<path d="M-143 -102H937V1818H-143V-102Z" fill="white"/>
</mask>
<g mask="url(#mask21_15_1245)">
<mask id="mask22_15_1245" style="mask-type:luminance" maskUnits="userSpaceOnUse" x="318" y="66" width="39" height="40">
<path d="M318.514 66.6323H356.043V105.034H318.514V66.6323Z" fill="white"/>
</mask>
<g mask="url(#mask22_15_1245)">
<mask id="mask23_15_1245" style="mask-type:luminance" maskUnits="userSpaceOnUse" x="318" y="66" width="39" height="39">
<path d="M326.314 82.902C339.777 82.902 343.001 83.0625 346.312 82.6686C346.706 73.2168 343.395 67.5574 337.108 67.5574C330.107 67.5574 326.329 73.8586 326.329 82.902M337.108 66.7697C347.887 66.7697 354.422 73.3043 354.188 83.7626H326.329C326.489 93.054 331.682 98.6405 340.58 98.6405C348.762 98.6405 354.509 93.6082 355.457 83.9959L356.012 84.0689C355.545 96.4963 348.296 105 336.962 105C326.183 105 318.788 97.5319 318.788 86.038C318.788 74.3108 326.271 66.7551 337.123 66.7551" fill="white"/>
</mask>
<g mask="url(#mask23_15_1245)">
<path d="M128.249 37.8308H409.865V112.308H128.249V37.8308Z" fill="#8E9581"/>
</g>
</g>
</g>
</g>
<mask id="mask24_15_1245" style="mask-type:luminance" maskUnits="userSpaceOnUse" x="-143" y="-102" width="1080" height="1920">
<path d="M-143 -102H937V1818H-143V-102Z" fill="white"/>
</mask>
<g mask="url(#mask24_15_1245)">
<mask id="mask25_15_1245" style="mask-type:luminance" maskUnits="userSpaceOnUse" x="-143" y="-102" width="1080" height="1920">
<path d="M-143 -102H937V1818H-143V-102Z" fill="white"/>
</mask>
<g mask="url(#mask25_15_1245)">
<mask id="mask26_15_1245" style="mask-type:luminance" maskUnits="userSpaceOnUse" x="358" y="66" width="45" height="39">
<path d="M358.953 66.6323H402.592V104.162H358.953V66.6323Z" fill="white"/>
</mask>
<g mask="url(#mask26_15_1245)">
<mask id="mask27_15_1245" style="mask-type:luminance" maskUnits="userSpaceOnUse" x="358" y="66" width="45" height="39">
<path d="M358.987 103.366C362.05 103.366 363.786 102.739 363.786 99.9824V72.4292C363.786 68.9723 362.678 68.418 358.987 68.418V67.6304H371.809V79.2847C373.778 70.3871 379.758 66.7698 386.365 66.7698C392.813 66.7698 397.699 70.5476 397.699 79.1972V99.9824C397.699 102.739 399.508 103.366 402.498 103.366V104.154H385.038V103.366C388.028 103.366 389.677 102.739 389.677 99.9824V79.591C389.677 72.1958 386.526 69.8329 382.588 69.8329C374.872 69.8329 371.809 78.0157 371.809 87.2196V99.9678C371.809 102.725 373.544 103.352 376.534 103.352V104.139H358.987V103.366Z" fill="white"/>
</mask>
<g mask="url(#mask27_15_1245)">
<path d="M128.249 37.8308H409.865V112.308H128.249V37.8308Z" fill="#8E9581"/>
</g>
</g>
</g>
</g>
<mask id="mask28_15_1245" style="mask-type:luminance" maskUnits="userSpaceOnUse" x="-143" y="-102" width="1080" height="1920">
<path d="M-143 -102H937V1818H-143V-102Z" fill="white"/>
</mask>
<g mask="url(#mask28_15_1245)">
<mask id="mask29_15_1245" style="mask-type:luminance" maskUnits="userSpaceOnUse" x="-143" y="-102" width="1080" height="1920">
<path d="M-143 -102H937V1818H-143V-102Z" fill="white"/>
</mask>
<g mask="url(#mask29_15_1245)">
<mask id="mask30_15_1245" style="mask-type:luminance" maskUnits="userSpaceOnUse" x="294" y="131" width="19" height="19">
<path d="M294.59 131.695H312.335V149.847H294.59V131.695Z" fill="white"/>
</mask>
<g mask="url(#mask30_15_1245)">
<mask id="mask31_15_1245" style="mask-type:luminance" maskUnits="userSpaceOnUse" x="294" y="131" width="19" height="19">
<path d="M296.614 148.276V133.296L294.747 133.004V131.75H301.398V133.004L299.356 133.296V139.743H307.685V133.296L305.643 133.004V131.75H312.279V133.004L310.398 133.296V148.276L312.323 148.509V149.749H305.686V148.509L307.699 148.276V141.304H299.356V148.276L301.456 148.509V149.749H294.703V148.509L296.614 148.276Z" fill="white"/>
</mask>
<g mask="url(#mask31_15_1245)">
<path d="M287.41 122.619H413.662V157.297H287.41V122.619Z" fill="#8E9581"/>
</g>
</g>
</g>
</g>
<mask id="mask32_15_1245" style="mask-type:luminance" maskUnits="userSpaceOnUse" x="-143" y="-102" width="1080" height="1920">
<path d="M-143 -102H937V1818H-143V-102Z" fill="white"/>
</mask>
<g mask="url(#mask32_15_1245)">
<mask id="mask33_15_1245" style="mask-type:luminance" maskUnits="userSpaceOnUse" x="-143" y="-102" width="1080" height="1920">
<path d="M-143 -102H937V1818H-143V-102Z" fill="white"/>
</mask>
<g mask="url(#mask33_15_1245)">
<mask id="mask34_15_1245" style="mask-type:luminance" maskUnits="userSpaceOnUse" x="320" y="135" width="13" height="16">
<path d="M320.734 135.894H332.113V150.118H320.734V135.894Z" fill="white"/>
</mask>
<g mask="url(#mask34_15_1245)">
<mask id="mask35_15_1245" style="mask-type:luminance" maskUnits="userSpaceOnUse" x="320" y="135" width="12" height="16">
<path d="M323.584 141.727H329.243C329.258 141.595 329.272 141.42 329.287 141.216C329.302 141.012 329.302 140.837 329.302 140.691C329.302 139.714 329.097 138.911 328.703 138.284C328.31 137.657 327.639 137.336 326.691 137.336C326.268 137.336 325.874 137.409 325.509 137.555C325.145 137.701 324.838 137.934 324.561 138.27C324.284 138.605 324.051 139.057 323.89 139.626C323.73 140.195 323.613 140.895 323.569 141.727M326.851 150.012C325.495 150.012 324.357 149.705 323.452 149.122C322.548 148.538 321.877 147.692 321.44 146.642C321.002 145.592 320.783 144.367 320.783 142.981C320.783 141.916 320.944 140.954 321.25 140.093C321.556 139.232 321.994 138.488 322.563 137.876C323.132 137.263 323.803 136.782 324.576 136.461C325.349 136.14 326.209 135.965 327.128 135.965C328.66 135.965 329.841 136.373 330.673 137.205C331.504 138.036 331.956 139.232 332 140.793C332 141.289 331.986 141.712 331.971 142.077C331.956 142.441 331.898 142.762 331.84 143.054H323.584C323.599 143.827 323.686 144.527 323.876 145.169C324.065 145.811 324.313 146.365 324.649 146.832C324.984 147.299 325.407 147.649 325.918 147.911C326.428 148.174 326.997 148.29 327.653 148.29C328.324 148.29 329.01 148.174 329.71 147.926C330.41 147.678 330.921 147.415 331.285 147.138L331.781 148.232C331.49 148.524 331.096 148.815 330.571 149.093C330.045 149.37 329.477 149.589 328.835 149.764C328.193 149.939 327.537 150.026 326.866 150.026" fill="white"/>
</mask>
<g mask="url(#mask35_15_1245)">
<path d="M287.41 122.619H413.662V157.297H287.41V122.619Z" fill="#8E9581"/>
</g>
</g>
</g>
</g>
<mask id="mask36_15_1245" style="mask-type:luminance" maskUnits="userSpaceOnUse" x="-143" y="-102" width="1080" height="1920">
<path d="M-143 -102H937V1818H-143V-102Z" fill="white"/>
</mask>
<g mask="url(#mask36_15_1245)">
<mask id="mask37_15_1245" style="mask-type:luminance" maskUnits="userSpaceOnUse" x="-143" y="-102" width="1080" height="1920">
<path d="M-143 -102H937V1818H-143V-102Z" fill="white"/>
</mask>
<g mask="url(#mask37_15_1245)">
<mask id="mask38_15_1245" style="mask-type:luminance" maskUnits="userSpaceOnUse" x="340" y="136" width="13" height="15">
<path d="M340.241 136.03H352.432V150.118H340.241V136.03Z" fill="white"/>
</mask>
<g mask="url(#mask38_15_1245)">
<mask id="mask39_15_1245" style="mask-type:luminance" maskUnits="userSpaceOnUse" x="340" y="136" width="13" height="15">
<path d="M345.565 148.305C345.988 148.305 346.455 148.174 346.994 147.926C347.534 147.678 348.001 147.371 348.395 147.021V142.893C347.213 142.893 346.25 143.025 345.477 143.287C344.704 143.55 344.15 143.885 343.771 144.323C343.392 144.76 343.217 145.242 343.217 145.796C343.217 146.379 343.319 146.861 343.523 147.24C343.727 147.619 344.004 147.882 344.354 148.057C344.704 148.232 345.113 148.319 345.565 148.319M344.442 150.011C343.713 150.011 343.042 149.865 342.429 149.588C341.816 149.311 341.32 148.874 340.941 148.29C340.562 147.707 340.372 146.977 340.372 146.102C340.372 145.3 340.591 144.614 341.029 144.046C341.466 143.477 342.064 143.025 342.808 142.675C343.552 142.324 344.427 142.062 345.375 141.887C346.323 141.712 347.344 141.624 348.38 141.61V140.778C348.38 140.064 348.307 139.509 348.161 139.101C348.015 138.693 347.738 138.401 347.344 138.211C346.951 138.022 346.382 137.949 345.667 137.949C344.734 137.949 343.902 138.094 343.202 138.386C342.502 138.678 341.948 138.926 341.568 139.13L340.927 137.817C341.102 137.671 341.452 137.453 341.991 137.176C342.531 136.898 343.173 136.621 343.946 136.388C344.719 136.155 345.521 136.038 346.367 136.038C347.519 136.038 348.424 136.198 349.095 136.534C349.766 136.869 350.247 137.38 350.539 138.08C350.831 138.78 350.976 139.699 350.976 140.822V148.494H352.391V149.603C352.216 149.647 351.968 149.705 351.677 149.763C351.385 149.822 351.049 149.865 350.728 149.909C350.408 149.953 350.087 149.968 349.81 149.968C349.372 149.968 349.051 149.909 348.876 149.778C348.701 149.647 348.613 149.34 348.613 148.859V148.101C348.409 148.305 348.118 148.567 347.724 148.874C347.33 149.18 346.863 149.443 346.309 149.69C345.755 149.938 345.142 150.041 344.471 150.041" fill="white"/>
</mask>
<g mask="url(#mask39_15_1245)">
<path d="M287.41 122.619H413.662V157.297H287.41V122.619Z" fill="#8E9581"/>
</g>
</g>
</g>
</g>
<mask id="mask40_15_1245" style="mask-type:luminance" maskUnits="userSpaceOnUse" x="-143" y="-102" width="1080" height="1920">
<path d="M-143 -102H937V1818H-143V-102Z" fill="white"/>
</mask>
<g mask="url(#mask40_15_1245)">
<mask id="mask41_15_1245" style="mask-type:luminance" maskUnits="userSpaceOnUse" x="-143" y="-102" width="1080" height="1920">
<path d="M-143 -102H937V1818H-143V-102Z" fill="white"/>
</mask>
<g mask="url(#mask41_15_1245)">
<mask id="mask42_15_1245" style="mask-type:luminance" maskUnits="userSpaceOnUse" x="360" y="129" width="8" height="21">
<path d="M360.696 129.798H367.469V149.847H360.696V129.798Z" fill="white"/>
</mask>
<g mask="url(#mask42_15_1245)">
<mask id="mask43_15_1245" style="mask-type:luminance" maskUnits="userSpaceOnUse" x="360" y="129" width="8" height="21">
<path d="M362.704 148.29V131.721L360.764 131.473V130.379L364.731 129.912H364.775L365.315 130.291V148.32L367.371 148.495V149.734H360.764V148.495L362.704 148.29Z" fill="white"/>
</mask>
<g mask="url(#mask43_15_1245)">
<path d="M287.41 122.619H413.662V157.297H287.41V122.619Z" fill="#8E9581"/>
</g>
</g>
</g>
</g>
<mask id="mask44_15_1245" style="mask-type:luminance" maskUnits="userSpaceOnUse" x="-143" y="-102" width="1080" height="1920">
<path d="M-143 -102H937V1818H-143V-102Z" fill="white"/>
</mask>
<g mask="url(#mask44_15_1245)">
<mask id="mask45_15_1245" style="mask-type:luminance" maskUnits="userSpaceOnUse" x="-143" y="-102" width="1080" height="1920">
<path d="M-143 -102H937V1818H-143V-102Z" fill="white"/>
</mask>
<g mask="url(#mask45_15_1245)">
<mask id="mask46_15_1245" style="mask-type:luminance" maskUnits="userSpaceOnUse" x="374" y="132" width="10" height="19">
<path d="M374.784 132.643H383.724V150.118H374.784V132.643Z" fill="white"/>
</mask>
<g mask="url(#mask46_15_1245)">
<mask id="mask47_15_1245" style="mask-type:luminance" maskUnits="userSpaceOnUse" x="374" y="132" width="10" height="18">
<path d="M379.376 149.997C378.486 149.997 377.8 149.793 377.319 149.37C376.838 148.947 376.604 148.217 376.604 147.167V137.949H374.883V136.782C375.058 136.738 375.233 136.68 375.423 136.636C375.612 136.592 375.802 136.534 375.962 136.49C376.123 136.446 376.254 136.374 376.342 136.315L376.59 136.067L376.779 135.775C376.838 135.659 376.896 135.528 376.954 135.367C377.027 135.177 377.115 134.9 377.217 134.565C377.319 134.229 377.406 133.894 377.494 133.558C377.582 133.223 377.654 132.96 377.698 132.771H379.201L379.244 136.271H383.226V137.934H379.259V145.271C379.259 146.146 379.288 146.773 379.361 147.182C379.434 147.59 379.565 147.838 379.769 147.94C379.974 148.042 380.28 148.101 380.688 148.101C381.141 148.101 381.622 148.042 382.118 147.926C382.614 147.809 383.008 147.692 383.27 147.576L383.664 148.684C383.401 148.888 383.051 149.078 382.599 149.282C382.147 149.486 381.636 149.647 381.068 149.778C380.499 149.909 379.944 149.982 379.376 149.982" fill="white"/>
</mask>
<g mask="url(#mask47_15_1245)">
<path d="M287.41 122.619H413.662V157.297H287.41V122.619Z" fill="#8E9581"/>
</g>
</g>
</g>
</g>
<mask id="mask48_15_1245" style="mask-type:luminance" maskUnits="userSpaceOnUse" x="-143" y="-102" width="1080" height="1920">
<path d="M-143 -102H937V1818H-143V-102Z" fill="white"/>
</mask>
<g mask="url(#mask48_15_1245)">
<mask id="mask49_15_1245" style="mask-type:luminance" maskUnits="userSpaceOnUse" x="-143" y="-102" width="1080" height="1920">
<path d="M-143 -102H937V1818H-143V-102Z" fill="white"/>
</mask>
<g mask="url(#mask49_15_1245)">
<mask id="mask50_15_1245" style="mask-type:luminance" maskUnits="userSpaceOnUse" x="391" y="129" width="16" height="21">
<path d="M391.31 129.798H406.482V149.847H391.31V129.798Z" fill="white"/>
</mask>
<g mask="url(#mask50_15_1245)">
<mask id="mask51_15_1245" style="mask-type:luminance" maskUnits="userSpaceOnUse" x="391" y="129" width="16" height="21">
<path d="M393.378 148.32V131.721L391.365 131.473V130.379L395.406 129.912H395.464L396.018 130.291L396.033 135.878L395.916 137.934C396.208 137.672 396.617 137.38 397.127 137.088C397.638 136.797 398.221 136.534 398.848 136.315C399.475 136.096 400.117 135.994 400.774 135.994C401.809 135.994 402.597 136.184 403.166 136.578C403.735 136.972 404.114 137.57 404.333 138.386C404.551 139.203 404.668 140.268 404.668 141.552V148.32L406.36 148.509V149.749H400.482V148.509L401.999 148.32V141.537C401.999 140.676 401.941 139.962 401.824 139.407C401.707 138.853 401.474 138.445 401.124 138.168C400.774 137.89 400.249 137.774 399.548 137.774C399.14 137.774 398.717 137.847 398.294 137.993C397.871 138.138 397.463 138.313 397.069 138.518C396.675 138.722 396.339 138.955 396.062 139.174V148.29L397.681 148.495V149.734H391.876V148.495L393.378 148.32Z" fill="white"/>
</mask>
<g mask="url(#mask51_15_1245)">
<path d="M287.41 122.619H413.662V157.297H287.41V122.619Z" fill="#8E9581"/>
</g>
</g>
</g>
</g>
<mask id="mask52_15_1245" style="mask-type:luminance" maskUnits="userSpaceOnUse" x="-143" y="-102" width="1080" height="1920">
<path d="M-143 -102H937V1818H-143V-102Z" fill="white"/>
</mask>
<g mask="url(#mask52_15_1245)">
<mask id="mask53_15_1245" style="mask-type:luminance" maskUnits="userSpaceOnUse" x="-143" y="-102" width="1080" height="1920">
<path d="M-143 -102H937V1818H-143V-102Z" fill="white"/>
</mask>
<g mask="url(#mask53_15_1245)">
<mask id="mask54_15_1245" style="mask-type:luminance" maskUnits="userSpaceOnUse" x="427" y="135" width="12" height="16">
<path d="M427.591 135.92H438.334V150.021H427.591V135.92Z" fill="white"/>
</mask>
<g mask="url(#mask54_15_1245)">
<mask id="mask55_15_1245" style="mask-type:luminance" maskUnits="userSpaceOnUse" x="427" y="135" width="12" height="16">
<path d="M433.721 150C432.364 150 431.227 149.693 430.322 149.095C429.418 148.497 428.747 147.681 428.28 146.645C427.813 145.609 427.609 144.442 427.609 143.159C427.594 142.152 427.74 141.204 428.032 140.344C428.324 139.483 428.761 138.71 429.345 138.054C429.928 137.397 430.629 136.887 431.489 136.508C432.35 136.128 433.312 135.939 434.406 135.939C434.975 135.939 435.486 135.982 435.952 136.085C436.419 136.187 436.828 136.274 437.178 136.391C437.528 136.508 437.819 136.595 438.038 136.668L437.922 140.46H436.302L435.763 137.966C435.734 137.82 435.617 137.704 435.442 137.616C435.267 137.529 435.033 137.441 434.771 137.383C434.508 137.324 434.246 137.295 433.983 137.295C433.283 137.295 432.671 137.485 432.131 137.864C431.591 138.243 431.183 138.812 430.891 139.571C430.599 140.329 430.439 141.277 430.424 142.415C430.41 143.392 430.512 144.267 430.701 144.997C430.891 145.726 431.168 146.339 431.518 146.82C431.868 147.301 432.277 147.666 432.758 147.899C433.239 148.133 433.75 148.264 434.304 148.264C434.8 148.264 435.267 148.206 435.704 148.104C436.142 148.001 436.536 147.856 436.886 147.71C437.236 147.564 437.542 147.389 437.776 147.228L438.242 148.249C437.98 148.512 437.63 148.789 437.149 149.052C436.667 149.314 436.157 149.562 435.559 149.737C434.961 149.912 434.348 150.014 433.706 150.014" fill="white"/>
</mask>
<g mask="url(#mask55_15_1245)">
<path d="M420.316 128.646H502.909V157.296H420.316V128.646Z" fill="#8E9581"/>
</g>
</g>
</g>
</g>
<mask id="mask56_15_1245" style="mask-type:luminance" maskUnits="userSpaceOnUse" x="-143" y="-102" width="1080" height="1920">
<path d="M-143 -102H937V1818H-143V-102Z" fill="white"/>
</mask>
<g mask="url(#mask56_15_1245)">
<mask id="mask57_15_1245" style="mask-type:luminance" maskUnits="userSpaceOnUse" x="-143" y="-102" width="1080" height="1920">
<path d="M-143 -102H937V1818H-143V-102Z" fill="white"/>
</mask>
<g mask="url(#mask57_15_1245)">
<mask id="mask58_15_1245" style="mask-type:luminance" maskUnits="userSpaceOnUse" x="446" y="135" width="13" height="16">
<path d="M446.616 135.92H458.703V150.021H446.616V135.92Z" fill="white"/>
</mask>
<g mask="url(#mask58_15_1245)">
<mask id="mask59_15_1245" style="mask-type:luminance" maskUnits="userSpaceOnUse" x="446" y="136" width="13" height="15">
<path d="M451.866 148.308C452.289 148.308 452.756 148.176 453.295 147.928C453.835 147.68 454.302 147.374 454.696 147.024V142.896C453.514 142.896 452.552 143.027 451.778 143.29C451.005 143.553 450.451 143.888 450.072 144.326C449.693 144.763 449.518 145.245 449.518 145.799C449.518 146.382 449.62 146.864 449.824 147.243C450.028 147.622 450.305 147.885 450.655 148.06C451.005 148.235 451.414 148.322 451.866 148.322M450.743 150.014C450.014 150.014 449.343 149.868 448.73 149.591C448.117 149.314 447.621 148.876 447.242 148.293C446.863 147.71 446.673 146.98 446.673 146.105C446.673 145.303 446.892 144.617 447.33 144.048C447.767 143.48 448.365 143.027 449.109 142.677C449.853 142.327 450.728 142.065 451.676 141.89C452.625 141.715 453.646 141.627 454.681 141.613V140.752C454.681 140.037 454.608 139.483 454.462 139.075C454.317 138.666 454.039 138.374 453.646 138.185C453.252 137.995 452.683 137.922 451.968 137.922C451.035 137.922 450.203 138.068 449.503 138.36C448.803 138.652 448.249 138.9 447.869 139.104L447.228 137.791C447.403 137.645 447.753 137.426 448.292 137.149C448.832 136.872 449.474 136.595 450.247 136.362C451.02 136.128 451.822 136.011 452.668 136.011C453.821 136.011 454.725 136.172 455.396 136.507C456.067 136.843 456.548 137.353 456.84 138.054C457.132 138.754 457.277 139.673 457.277 140.796V148.468H458.692V149.577C458.517 149.62 458.269 149.679 457.978 149.737C457.686 149.795 457.35 149.839 457.03 149.883C456.709 149.927 456.388 149.941 456.111 149.941C455.673 149.941 455.352 149.883 455.177 149.752C455.002 149.62 454.915 149.314 454.915 148.833V148.074C454.71 148.278 454.419 148.541 454.025 148.847C453.631 149.154 453.164 149.416 452.61 149.664C452.056 149.912 451.443 150.014 450.772 150.014" fill="white"/>
</mask>
<g mask="url(#mask59_15_1245)">
<path d="M420.316 128.646H502.909V157.296H420.316V128.646Z" fill="#8E9581"/>
</g>
</g>
</g>
</g>
<mask id="mask60_15_1245" style="mask-type:luminance" maskUnits="userSpaceOnUse" x="-143" y="-102" width="1080" height="1920">
<path d="M-143 -102H937V1818H-143V-102Z" fill="white"/>
</mask>
<g mask="url(#mask60_15_1245)">
<mask id="mask61_15_1245" style="mask-type:luminance" maskUnits="userSpaceOnUse" x="-143" y="-102" width="1080" height="1920">
<path d="M-143 -102H937V1818H-143V-102Z" fill="white"/>
</mask>
<g mask="url(#mask61_15_1245)">
<mask id="mask62_15_1245" style="mask-type:luminance" maskUnits="userSpaceOnUse" x="467" y="135" width="10" height="15">
<path d="M467.096 135.92H476.721V149.797H467.096V135.92Z" fill="white"/>
</mask>
<g mask="url(#mask62_15_1245)">
<mask id="mask63_15_1245" style="mask-type:luminance" maskUnits="userSpaceOnUse" x="467" y="135" width="10" height="15">
<path d="M467.181 149.737V148.527L468.961 148.352V138.229L467.24 137.806V136.42L470.638 135.997H470.697L471.222 136.42V136.887L471.163 139.016H471.222C471.295 138.885 471.455 138.652 471.674 138.345C471.893 138.039 472.214 137.704 472.593 137.354C472.972 137.003 473.424 136.712 473.964 136.464C474.504 136.216 475.102 136.099 475.773 136.099C476.006 136.099 476.196 136.114 476.327 136.128C476.458 136.143 476.575 136.187 476.662 136.216V138.929C476.56 138.856 476.385 138.783 476.137 138.725C475.889 138.666 475.554 138.637 475.16 138.637C474.518 138.637 473.979 138.71 473.526 138.871C473.074 139.031 472.695 139.206 472.389 139.425C472.082 139.644 471.82 139.819 471.601 139.964V148.337L474.62 148.541V149.737H467.181Z" fill="white"/>
</mask>
<g mask="url(#mask63_15_1245)">
<path d="M420.316 128.646H502.909V157.296H420.316V128.646Z" fill="#8E9581"/>
</g>
</g>
</g>
</g>
<mask id="mask64_15_1245" style="mask-type:luminance" maskUnits="userSpaceOnUse" x="-143" y="-102" width="1080" height="1920">
<path d="M-143 -102H937V1818H-143V-102Z" fill="white"/>
</mask>
<g mask="url(#mask64_15_1245)">
<mask id="mask65_15_1245" style="mask-type:luminance" maskUnits="userSpaceOnUse" x="-143" y="-102" width="1080" height="1920">
<path d="M-143 -102H937V1818H-143V-102Z" fill="white"/>
</mask>
<g mask="url(#mask65_15_1245)">
<mask id="mask66_15_1245" style="mask-type:luminance" maskUnits="userSpaceOnUse" x="484" y="135" width="12" height="16">
<path d="M484.331 135.92H495.635V150.021H484.331V135.92Z" fill="white"/>
</mask>
<g mask="url(#mask66_15_1245)">
<mask id="mask67_15_1245" style="mask-type:luminance" maskUnits="userSpaceOnUse" x="484" y="135" width="12" height="16">
<path d="M487.179 141.729H492.838C492.853 141.598 492.868 141.423 492.882 141.219C492.897 141.015 492.897 140.84 492.897 140.694C492.897 139.717 492.692 138.914 492.299 138.287C491.905 137.66 491.234 137.339 490.286 137.339C489.863 137.339 489.469 137.412 489.104 137.558C488.74 137.704 488.433 137.937 488.142 138.273C487.85 138.608 487.646 139.06 487.471 139.629C487.296 140.198 487.193 140.898 487.15 141.729M490.432 150.014C489.06 150.014 487.937 149.708 487.033 149.125C486.129 148.541 485.458 147.695 485.02 146.645C484.583 145.595 484.364 144.37 484.364 142.984C484.364 141.919 484.524 140.956 484.831 140.096C485.137 139.235 485.574 138.491 486.143 137.879C486.712 137.266 487.383 136.785 488.156 136.464C488.929 136.143 489.819 135.939 490.738 135.939C492.269 135.939 493.436 136.347 494.282 137.179C495.128 138.01 495.566 139.206 495.61 140.767C495.61 141.263 495.595 141.686 495.566 142.05C495.537 142.415 495.493 142.736 495.435 143.028H487.179C487.193 143.801 487.281 144.501 487.471 145.143C487.66 145.784 487.908 146.339 488.244 146.805C488.579 147.272 489.002 147.622 489.513 147.885C490.023 148.147 490.592 148.264 491.248 148.264C491.919 148.264 492.605 148.147 493.305 147.899C494.005 147.651 494.516 147.389 494.88 147.112L495.376 148.206C495.085 148.497 494.691 148.789 494.166 149.066C493.641 149.343 493.072 149.562 492.43 149.737C491.788 149.912 491.132 150 490.461 150" fill="white"/>
</mask>
<g mask="url(#mask67_15_1245)">
<path d="M420.316 128.646H502.909V157.296H420.316V128.646Z" fill="#8E9581"/>
</g>
</g>
</g>
</g>
<mask id="mask68_15_1245" style="mask-type:luminance" maskUnits="userSpaceOnUse" x="-143" y="-102" width="1080" height="1920">
<path d="M-143 -102H937V1818H-143V-102Z" fill="white"/>
</mask>
<g mask="url(#mask68_15_1245)">
<mask id="mask69_15_1245" style="mask-type:luminance" maskUnits="userSpaceOnUse" x="-143" y="-102" width="1080" height="1920">
<path d="M-143 -102H937V1818H-143V-102Z" fill="white"/>
</mask>
<g mask="url(#mask69_15_1245)">
<mask id="mask70_15_1245" style="mask-type:luminance" maskUnits="userSpaceOnUse" x="516" y="129" width="16" height="21">
<path d="M516.707 129.798H531.879V149.846H516.707V129.798Z" fill="white"/>
</mask>
<g mask="url(#mask70_15_1245)">
<mask id="mask71_15_1245" style="mask-type:luminance" maskUnits="userSpaceOnUse" x="516" y="129" width="16" height="21">
<path d="M518.834 148.319V131.72L516.821 131.458V130.378L520.847 129.912H520.905L521.459 130.291L521.474 135.877L521.357 137.934C521.649 137.671 522.058 137.38 522.568 137.088C523.079 136.796 523.662 136.534 524.289 136.315C524.917 136.096 525.558 135.994 526.215 135.994C527.25 135.994 528.038 136.184 528.607 136.577C529.176 136.971 529.555 137.569 529.774 138.386C529.992 139.203 530.109 140.268 530.109 141.551V148.319L531.801 148.509V149.749H525.937V148.509L527.454 148.319V141.537C527.454 140.676 527.396 139.961 527.279 139.407C527.163 138.853 526.929 138.445 526.579 138.167C526.229 137.89 525.704 137.774 525.004 137.774C524.596 137.774 524.173 137.846 523.75 137.992C523.327 138.138 522.918 138.313 522.524 138.517C522.131 138.722 521.795 138.955 521.518 139.174V148.29L523.137 148.494V149.734H517.332V148.494L518.834 148.319Z" fill="white"/>
</mask>
<g mask="url(#mask71_15_1245)">
<path d="M509.528 122.618H610.985V157.296H509.528V122.618Z" fill="#8E9581"/>
</g>
</g>
</g>
</g>
<mask id="mask72_15_1245" style="mask-type:luminance" maskUnits="userSpaceOnUse" x="-143" y="-102" width="1080" height="1920">
<path d="M-143 -102H937V1818H-143V-102Z" fill="white"/>
</mask>
<g mask="url(#mask72_15_1245)">
<mask id="mask73_15_1245" style="mask-type:luminance" maskUnits="userSpaceOnUse" x="-143" y="-102" width="1080" height="1920">
<path d="M-143 -102H937V1818H-143V-102Z" fill="white"/>
</mask>
<g mask="url(#mask73_15_1245)">
<mask id="mask74_15_1245" style="mask-type:luminance" maskUnits="userSpaceOnUse" x="540" y="135" width="13" height="16">
<path d="M540.141 135.894H552.874V150.117H540.141V135.894Z" fill="white"/>
</mask>
<g mask="url(#mask74_15_1245)">
<mask id="mask75_15_1245" style="mask-type:luminance" maskUnits="userSpaceOnUse" x="540" y="135" width="13" height="15">
<path d="M546.489 148.597C547.204 148.597 547.802 148.392 548.298 147.999C548.794 147.605 549.173 146.992 549.435 146.19C549.698 145.388 549.829 144.367 549.829 143.156C549.829 142.31 549.771 141.552 549.654 140.837C549.538 140.122 549.348 139.509 549.085 138.984C548.823 138.459 548.473 138.051 548.05 137.774C547.627 137.497 547.102 137.351 546.489 137.351C545.774 137.351 545.162 137.555 544.651 137.949C544.141 138.343 543.762 138.955 543.484 139.757C543.207 140.56 543.076 141.581 543.076 142.806C543.076 143.652 543.134 144.425 543.266 145.14C543.397 145.854 543.586 146.452 543.864 146.978C544.141 147.503 544.491 147.896 544.914 148.188C545.337 148.48 545.862 148.611 546.474 148.611M540.159 142.996C540.159 141.858 540.334 140.851 540.684 139.976C541.034 139.101 541.515 138.372 542.142 137.774C542.77 137.176 543.441 136.724 544.214 136.417C544.987 136.111 545.774 135.95 546.591 135.95C548.006 135.95 549.158 136.257 550.077 136.869C550.996 137.482 551.667 138.313 552.105 139.378C552.542 140.443 552.776 141.639 552.776 142.966C552.776 144.119 552.601 145.125 552.236 146C551.871 146.875 551.39 147.619 550.777 148.203C550.165 148.786 549.479 149.238 548.706 149.545C547.933 149.851 547.145 149.997 546.329 149.997C545.264 149.997 544.359 149.822 543.586 149.472C542.813 149.122 542.172 148.626 541.661 147.999C541.151 147.371 540.786 146.627 540.538 145.767C540.29 144.906 540.173 143.987 540.173 142.981" fill="white"/>
</mask>
<g mask="url(#mask75_15_1245)">
<path d="M509.528 122.619H610.985V157.296H509.528V122.619Z" fill="#8E9581"/>
</g>
</g>
</g>
</g>
<mask id="mask76_15_1245" style="mask-type:luminance" maskUnits="userSpaceOnUse" x="-143" y="-102" width="1080" height="1920">
<path d="M-143 -102H937V1818H-143V-102Z" fill="white"/>
</mask>
<g mask="url(#mask76_15_1245)">
<mask id="mask77_15_1245" style="mask-type:luminance" maskUnits="userSpaceOnUse" x="-143" y="-102" width="1080" height="1920">
<path d="M-143 -102H937V1818H-143V-102Z" fill="white"/>
</mask>
<g mask="url(#mask77_15_1245)">
<mask id="mask78_15_1245" style="mask-type:luminance" maskUnits="userSpaceOnUse" x="561" y="132" width="9" height="19">
<path d="M561.002 132.643H569.942V150.117H561.002V132.643Z" fill="white"/>
</mask>
<g mask="url(#mask78_15_1245)">
<mask id="mask79_15_1245" style="mask-type:luminance" maskUnits="userSpaceOnUse" x="561" y="132" width="9" height="18">
<path d="M565.554 149.997C564.664 149.997 563.978 149.793 563.497 149.37C563.016 148.947 562.782 148.217 562.782 147.167V137.949H561.061V136.782C561.236 136.738 561.411 136.68 561.601 136.636C561.79 136.592 561.98 136.534 562.14 136.49C562.301 136.446 562.432 136.374 562.52 136.315L562.768 136.067L562.957 135.775C563.016 135.659 563.074 135.528 563.132 135.367C563.205 135.177 563.293 134.9 563.395 134.565C563.497 134.229 563.584 133.894 563.672 133.558C563.759 133.223 563.832 132.96 563.876 132.771H565.379L565.422 136.271H569.404V137.934H565.422V145.271C565.422 146.146 565.451 146.773 565.524 147.182C565.597 147.59 565.729 147.838 565.933 147.94C566.137 148.042 566.443 148.101 566.852 148.101C567.304 148.101 567.785 148.042 568.281 147.926C568.777 147.809 569.171 147.692 569.433 147.576L569.827 148.684C569.565 148.888 569.215 149.078 568.763 149.282C568.31 149.486 567.8 149.647 567.231 149.778C566.662 149.909 566.108 149.982 565.539 149.982" fill="white"/>
</mask>
<g mask="url(#mask79_15_1245)">
<path d="M509.528 122.619H610.986V157.296H509.528V122.619Z" fill="#8E9581"/>
</g>
</g>
</g>
</g>
<mask id="mask80_15_1245" style="mask-type:luminance" maskUnits="userSpaceOnUse" x="-143" y="-102" width="1080" height="1920">
<path d="M-143 -102H937V1818H-143V-102Z" fill="white"/>
</mask>
<g mask="url(#mask80_15_1245)">
<mask id="mask81_15_1245" style="mask-type:luminance" maskUnits="userSpaceOnUse" x="-143" y="-102" width="1080" height="1920">
<path d="M-143 -102H937V1818H-143V-102Z" fill="white"/>
</mask>
<g mask="url(#mask81_15_1245)">
<mask id="mask82_15_1245" style="mask-type:luminance" maskUnits="userSpaceOnUse" x="577" y="135" width="12" height="16">
<path d="M577.528 135.894H588.771V150.117H577.528V135.894Z" fill="white"/>
</mask>
<g mask="url(#mask82_15_1245)">
<mask id="mask83_15_1245" style="mask-type:luminance" maskUnits="userSpaceOnUse" x="577" y="135" width="12" height="16">
<path d="M580.344 141.727H586.003C586.017 141.595 586.032 141.42 586.047 141.216C586.061 141.012 586.061 140.837 586.061 140.691C586.061 139.714 585.857 138.911 585.463 138.284C585.069 137.657 584.398 137.336 583.45 137.336C583.027 137.336 582.633 137.409 582.269 137.555C581.904 137.701 581.598 137.934 581.306 138.27C581.014 138.605 580.81 139.057 580.635 139.626C580.46 140.195 580.358 140.895 580.314 141.727M583.596 150.012C582.225 150.012 581.102 149.705 580.198 149.122C579.293 148.538 578.622 147.692 578.185 146.642C577.747 145.592 577.528 144.367 577.528 142.981C577.528 141.916 577.689 140.954 577.995 140.093C578.301 139.232 578.739 138.488 579.308 137.876C579.877 137.263 580.548 136.782 581.321 136.461C582.094 136.14 582.954 135.965 583.873 135.965C585.405 135.965 586.572 136.373 587.418 137.205C588.264 138.036 588.701 139.232 588.745 140.793C588.745 141.289 588.73 141.712 588.701 142.077C588.672 142.441 588.628 142.762 588.57 143.054H580.343C580.358 143.827 580.446 144.527 580.635 145.169C580.825 145.811 581.073 146.365 581.408 146.832C581.744 147.299 582.167 147.649 582.677 147.911C583.188 148.174 583.757 148.29 584.413 148.29C585.084 148.29 585.769 148.174 586.47 147.926C587.17 147.678 587.68 147.415 588.045 147.138L588.541 148.232C588.249 148.524 587.855 148.815 587.33 149.093C586.805 149.37 586.236 149.589 585.594 149.764C584.953 149.939 584.296 150.026 583.625 150.026" fill="white"/>
</mask>
<g mask="url(#mask83_15_1245)">
<path d="M509.528 122.619H610.985V157.296H509.528V122.619Z" fill="#8E9581"/>
</g>
</g>
</g>
</g>
<mask id="mask84_15_1245" style="mask-type:luminance" maskUnits="userSpaceOnUse" x="-143" y="-102" width="1080" height="1920">
<path d="M-143 -102H937V1818H-143V-102Z" fill="white"/>
</mask>
<g mask="url(#mask84_15_1245)">
<mask id="mask85_15_1245" style="mask-type:luminance" maskUnits="userSpaceOnUse" x="-143" y="-102" width="1080" height="1920">
<path d="M-143 -102H937V1818H-143V-102Z" fill="white"/>
</mask>
<g mask="url(#mask85_15_1245)">
<mask id="mask86_15_1245" style="mask-type:luminance" maskUnits="userSpaceOnUse" x="597" y="129" width="7" height="21">
<path d="M597.033 129.798H603.806V149.846H597.033V129.798Z" fill="white"/>
</mask>
<g mask="url(#mask86_15_1245)">
<mask id="mask87_15_1245" style="mask-type:luminance" maskUnits="userSpaceOnUse" x="597" y="129" width="7" height="21">
<path d="M599.058 148.29V131.72L597.118 131.472V130.378L601.1 129.912H601.129L601.669 130.291V148.319L603.725 148.494V149.734H597.132V148.494L599.058 148.29Z" fill="white"/>
</mask>
<g mask="url(#mask87_15_1245)">
<path d="M509.528 122.618H610.985V157.296H509.528V122.618Z" fill="#8E9581"/>
</g>
</g>
</g>
</g>
<mask id="mask88_15_1245" style="mask-type:luminance" maskUnits="userSpaceOnUse" x="-143" y="-102" width="1080" height="1920">
<path d="M-143 -102H937V1818H-143V-102Z" fill="white"/>
</mask>
<g mask="url(#mask88_15_1245)">
<mask id="mask89_15_1245" style="mask-type:luminance" maskUnits="userSpaceOnUse" x="-143" y="-102" width="1080" height="1920">
<path d="M-143 -102H937V1818H-143V-102Z" fill="white"/>
</mask>
<g mask="url(#mask89_15_1245)">
<mask id="mask90_15_1245" style="mask-type:luminance" maskUnits="userSpaceOnUse" x="422" y="48" width="54" height="57">
<path d="M422.978 48.9087H475.355V104.347H422.978V48.9087Z" fill="white"/>
</mask>
<g mask="url(#mask90_15_1245)">
<mask id="mask91_15_1245" style="mask-type:luminance" maskUnits="userSpaceOnUse" x="423" y="49" width="53" height="56">
<path d="M448.071 76.598C455.072 76.598 459.01 71.7262 459.01 63.3829C459.01 56.0607 455.699 50.0804 448.392 50.0804H443.899C439.494 50.0804 438.079 51.2618 438.079 55.0396V68.809C438.079 75.256 444.06 76.598 448.071 76.598ZM423.128 103.203C427.227 103.203 429.109 102.576 429.109 97.4562V55.7544C429.109 50.6346 427.227 50.0074 423.128 50.0074V49.0593H448.713C461.14 49.0593 468.302 54.4854 468.302 63.5434C468.302 73.6953 459.098 77.9399 449.486 77.9399C446.568 77.9399 443.578 77.5461 440.194 75.7374C444.599 80.93 446.889 82.4324 452.242 82.4324H454.926L464.684 95.3412C469.556 102.182 470.738 103.218 475.23 103.218V104.166H460.513L438.079 74.7893V97.4562C438.079 102.576 440.369 103.203 444.38 103.203V104.151H423.128V103.203Z" fill="white"/>
</mask>
<g mask="url(#mask91_15_1245)">
<path d="M415.835 41.7661H770.234V128.835H415.835V41.7661Z" fill="#8E9581"/>
</g>
</g>
</g>
</g>
<mask id="mask92_15_1245" style="mask-type:luminance" maskUnits="userSpaceOnUse" x="-143" y="-102" width="1080" height="1920">
<path d="M-143 -102H937V1818H-143V-102Z" fill="white"/>
</mask>
<g mask="url(#mask92_15_1245)">
<mask id="mask93_15_1245" style="mask-type:luminance" maskUnits="userSpaceOnUse" x="-143" y="-102" width="1080" height="1920">
<path d="M-143 -102H937V1818H-143V-102Z" fill="white"/>
</mask>
<g mask="url(#mask93_15_1245)">
<mask id="mask94_15_1245" style="mask-type:luminance" maskUnits="userSpaceOnUse" x="477" y="66" width="39" height="40">
<path d="M477.736 66.5945H515.149V105.027H477.736V66.5945Z" fill="white"/>
</mask>
<g mask="url(#mask94_15_1245)">
<mask id="mask95_15_1245" style="mask-type:luminance" maskUnits="userSpaceOnUse" x="477" y="66" width="39" height="39">
<path d="M485.382 82.8991C498.845 82.8991 502.069 83.0595 505.365 82.6657C505.759 73.2139 502.448 67.5544 496.161 67.5544C489.16 67.5544 485.382 73.8557 485.382 82.8991ZM496.161 66.7668C506.94 66.7668 513.475 73.3014 513.242 83.7597H485.382C485.543 93.051 490.735 98.6375 499.633 98.6375C507.816 98.6375 513.563 93.6053 514.511 83.993L515.065 84.066C514.598 96.4934 507.349 104.997 496.015 104.997C485.236 104.997 477.841 97.529 477.841 86.0351C477.841 74.3078 485.324 66.7522 496.176 66.7522" fill="white"/>
</mask>
<g mask="url(#mask95_15_1245)">
<path d="M415.835 41.7661H770.234V128.835H415.835V41.7661Z" fill="#8E9581"/>
</g>
</g>
</g>
</g>
<mask id="mask96_15_1245" style="mask-type:luminance" maskUnits="userSpaceOnUse" x="-143" y="-102" width="1080" height="1920">
<path d="M-143 -102H937V1818H-143V-102Z" fill="white"/>
</mask>
<g mask="url(#mask96_15_1245)">
<mask id="mask97_15_1245" style="mask-type:luminance" maskUnits="userSpaceOnUse" x="-143" y="-102" width="1080" height="1920">
<path d="M-143 -102H937V1818H-143V-102Z" fill="white"/>
</mask>
<g mask="url(#mask97_15_1245)">
<mask id="mask98_15_1245" style="mask-type:luminance" maskUnits="userSpaceOnUse" x="519" y="66" width="38" height="40">
<path d="M519.23 66.5945H556.983V105.027H519.23V66.5945Z" fill="white"/>
</mask>
<g mask="url(#mask98_15_1245)">
<mask id="mask99_15_1245" style="mask-type:luminance" maskUnits="userSpaceOnUse" x="519" y="66" width="38" height="40">
<path d="M544.252 79.0484C544.252 75.5915 547.169 74.41 547.169 72.2805C547.169 69.7571 543.858 67.715 539.687 67.715C531.81 67.715 526.778 74.1621 526.778 83.3805C526.778 92.9053 532.525 98.6522 541.189 98.6522C549.532 98.6522 555.352 92.9782 556.067 83.3076L556.694 83.3805C556.227 96.2893 549.065 105.026 537.644 105.026C526.544 105.026 519.383 97.1499 519.383 86.0644C519.383 74.4976 527.405 66.7815 538.345 66.7815C547.869 66.7815 553.689 73.2286 553.689 78.6692C553.689 81.5864 551.881 83.6285 548.963 83.6285C546.134 83.6285 544.237 81.8198 544.237 79.063" fill="white"/>
</mask>
<g mask="url(#mask99_15_1245)">
<path d="M415.835 41.7661H770.234V128.835H415.835V41.7661Z" fill="#8E9581"/>
</g>
</g>
</g>
</g>
<mask id="mask100_15_1245" style="mask-type:luminance" maskUnits="userSpaceOnUse" x="-143" y="-102" width="1080" height="1920">
<path d="M-143 -102H937V1818H-143V-102Z" fill="white"/>
</mask>
<g mask="url(#mask100_15_1245)">
<mask id="mask101_15_1245" style="mask-type:luminance" maskUnits="userSpaceOnUse" x="-143" y="-102" width="1080" height="1920">
<path d="M-143 -102H937V1818H-143V-102Z" fill="white"/>
</mask>
<g mask="url(#mask101_15_1245)">
<mask id="mask102_15_1245" style="mask-type:luminance" maskUnits="userSpaceOnUse" x="560" y="66" width="41" height="40">
<path d="M560.724 66.5945H600.517V105.027H560.724V66.5945Z" fill="white"/>
</mask>
<g mask="url(#mask102_15_1245)">
<mask id="mask103_15_1245" style="mask-type:luminance" maskUnits="userSpaceOnUse" x="560" y="66" width="41" height="40">
<path d="M591.875 85.8893C591.875 73.5348 587.937 67.5545 580.542 67.5545C573.147 67.5545 569.296 73.5348 569.296 85.8893C569.296 98.2438 573.147 104.151 580.542 104.151C587.937 104.151 591.875 98.2438 591.875 85.8893ZM560.865 85.8164C560.865 74.41 568.654 66.7668 580.542 66.7668C592.43 66.7668 600.204 74.3954 600.204 85.8164C600.204 97.3102 592.415 105.026 580.527 105.026C568.64 105.026 560.865 97.2956 560.865 85.8164Z" fill="white"/>
</mask>
<g mask="url(#mask103_15_1245)">
<path d="M415.835 41.7661H770.233V128.835H415.835V41.7661Z" fill="#8E9581"/>
</g>
</g>
</g>
</g>
<mask id="mask104_15_1245" style="mask-type:luminance" maskUnits="userSpaceOnUse" x="-143" y="-102" width="1080" height="1920">
<path d="M-143 -102H937V1818H-143V-102Z" fill="white"/>
</mask>
<g mask="url(#mask104_15_1245)">
<mask id="mask105_15_1245" style="mask-type:luminance" maskUnits="userSpaceOnUse" x="-143" y="-102" width="1080" height="1920">
<path d="M-143 -102H937V1818H-143V-102Z" fill="white"/>
</mask>
<g mask="url(#mask105_15_1245)">
<mask id="mask106_15_1245" style="mask-type:luminance" maskUnits="userSpaceOnUse" x="602" y="67" width="43" height="38">
<path d="M602.898 67.6147H644.732V104.347H602.898V67.6147Z" fill="white"/>
</mask>
<g mask="url(#mask106_15_1245)">
<mask id="mask107_15_1245" style="mask-type:luminance" maskUnits="userSpaceOnUse" x="603" y="67" width="42" height="38">
<path d="M626.022 104.311H622.244L609.496 75.6642C606.972 69.6839 605.878 68.4295 603.122 68.4295V67.6418H621.617V68.4295C617.445 68.4295 615.87 70.5591 618.145 75.7517L627.743 97.3101L635.459 77.8667C637.822 71.726 635.853 68.4295 630.5 68.4295V67.6418H644.502V68.4295C640.798 68.4295 639.076 71.4197 636.48 78.1147L626.022 104.311Z" fill="white"/>
</mask>
<g mask="url(#mask107_15_1245)">
<path d="M415.835 41.7661H770.234V128.835H415.835V41.7661Z" fill="#8E9581"/>
</g>
</g>
</g>
</g>
<mask id="mask108_15_1245" style="mask-type:luminance" maskUnits="userSpaceOnUse" x="-143" y="-102" width="1080" height="1920">
<path d="M-143 -102H937V1818H-143V-102Z" fill="white"/>
</mask>
<g mask="url(#mask108_15_1245)">
<mask id="mask109_15_1245" style="mask-type:luminance" maskUnits="userSpaceOnUse" x="-143" y="-102" width="1080" height="1920">
<path d="M-143 -102H937V1818H-143V-102Z" fill="white"/>
</mask>
<g mask="url(#mask109_15_1245)">
<mask id="mask110_15_1245" style="mask-type:luminance" maskUnits="userSpaceOnUse" x="647" y="66" width="38" height="40">
<path d="M647.453 66.5945H684.865V105.027H647.453V66.5945Z" fill="white"/>
</mask>
<g mask="url(#mask110_15_1245)">
<mask id="mask111_15_1245" style="mask-type:luminance" maskUnits="userSpaceOnUse" x="647" y="66" width="38" height="39">
<path d="M654.99 82.8991C668.453 82.8991 671.676 83.0595 674.987 82.6657C675.381 73.2139 672.07 67.5544 665.784 67.5544C658.782 67.5544 655.004 73.8557 655.004 82.8991M665.784 66.7668C676.563 66.7668 683.097 73.3014 682.864 83.7597H655.004C655.165 93.051 660.357 98.6375 669.255 98.6375C677.438 98.6375 683.185 93.6053 684.133 83.993L684.687 84.066C684.22 96.4934 676.971 104.997 665.638 104.997C654.859 104.997 647.463 97.529 647.463 86.0351C647.463 74.3078 654.946 66.7522 665.798 66.7522" fill="white"/>
</mask>
<g mask="url(#mask111_15_1245)">
<path d="M415.835 41.7661H770.234V128.835H415.835V41.7661Z" fill="#8E9581"/>
</g>
</g>
</g>
</g>
<mask id="mask112_15_1245" style="mask-type:luminance" maskUnits="userSpaceOnUse" x="-143" y="-102" width="1080" height="1920">
<path d="M-143 -102H937V1818H-143V-102Z" fill="white"/>
</mask>
<g mask="url(#mask112_15_1245)">
<mask id="mask113_15_1245" style="mask-type:luminance" maskUnits="userSpaceOnUse" x="-143" y="-102" width="1080" height="1920">
<path d="M-143 -102H937V1818H-143V-102Z" fill="white"/>
</mask>
<g mask="url(#mask113_15_1245)">
<mask id="mask114_15_1245" style="mask-type:luminance" maskUnits="userSpaceOnUse" x="687" y="66" width="34" height="39">
<path d="M687.586 66.5945H720.577V104.347H687.586V66.5945Z" fill="white"/>
</mask>
<g mask="url(#mask114_15_1245)">
<mask id="mask115_15_1245" style="mask-type:luminance" maskUnits="userSpaceOnUse" x="687" y="66" width="34" height="39">
<path d="M711.19 75.5039C711.19 72.6742 713.553 72.047 713.553 69.9174C713.553 68.8089 712.766 67.9483 710.884 67.9483C705.064 67.9483 700.499 73.5348 700.499 84.1535V99.2647C700.499 102.094 701.607 103.363 706.712 103.363V104.151H687.648V103.363C690.711 103.363 692.447 102.736 692.447 99.9794V72.4262C692.447 68.9693 691.338 68.415 687.648 68.415V67.6274H700.469V77.0646C702.118 70.1362 706.377 66.7522 711.642 66.7522C716.996 66.7522 720.379 70.2966 720.379 74.5412C720.379 77.6918 718.498 79.5005 715.654 79.5005C712.897 79.5005 711.161 77.8523 711.161 75.4893" fill="white"/>
</mask>
<g mask="url(#mask115_15_1245)">
<path d="M415.835 41.7661H770.234V128.835H415.835V41.7661Z" fill="#8E9581"/>
</g>
</g>
</g>
</g>
<mask id="mask116_15_1245" style="mask-type:luminance" maskUnits="userSpaceOnUse" x="-143" y="-102" width="1080" height="1920">
<path d="M-143 -102H937V1818H-143V-102Z" fill="white"/>
</mask>
<g mask="url(#mask116_15_1245)">
<mask id="mask117_15_1245" style="mask-type:luminance" maskUnits="userSpaceOnUse" x="-77" y="-96" width="1080" height="1920">
<path d="M-77 -96H1003V1824H-77V-96Z" fill="white"/>
</mask>
<g mask="url(#mask117_15_1245)">
<mask id="mask118_15_1245" style="mask-type:luminance" maskUnits="userSpaceOnUse" x="720" y="67" width="44" height="55">
<path d="M720.917 67.6147H763.091V121.693H720.917V67.6147Z" fill="white"/>
</mask>
<g mask="url(#mask118_15_1245)">
<mask id="mask119_15_1245" style="mask-type:luminance" maskUnits="userSpaceOnUse" x="721" y="67" width="42" height="55">
<path d="M721.021 68.4149V67.6272H739.75V68.4149C735.739 68.4149 734.236 70.1506 736.205 74.8619L746.751 101.073L754.146 77.8521C756.115 71.6384 753.986 68.5607 748.72 68.4149V67.6272H762.883V68.4149C759.033 68.6482 757.297 71.4779 755.022 78.6397L744.636 111.065C742.594 117.206 740.231 121.538 734.397 121.538C729.204 121.538 724.959 118.081 724.959 113.515C724.959 110.452 726.841 108.483 729.685 108.483C732.442 108.483 734.178 110.365 734.178 113.121C734.178 116.272 731.421 116.899 731.421 118.795C731.421 120.05 732.442 120.765 734.572 120.765C739.21 120.765 741.967 117.22 741.967 112.888C741.967 110.219 740.858 106.908 738.816 102.021L727.629 75.0224C725.032 69.0421 723.617 68.5753 721.021 68.4149Z" fill="white"/>
</mask>
<g mask="url(#mask119_15_1245)">
<path d="M415.835 41.7661H770.234V128.835H415.835V41.7661Z" fill="#8E9581"/>
</g>
</g>
</g>
</g>
</g>
<defs>
<clipPath id="clip0_15_1245">
<rect width="795" height="158" fill="white"/>
</clipPath>
</defs>
</svg>
